<svg preserveAspectRatio="none" width="100%" height="100%" overflow="visible" style="display: block;" viewBox="0 0 20 20" fill="none" xmlns="http://www.w3.org/2000/svg">
<g id="Frame" clip-path="url(#clip0_0_32)">
<path id="Vector" d="M17.9286 5.3095L17.1371 4.69825L17.9286 5.3095ZM18.0296 5.03023L19.0288 5.07193L18.0296 5.03023ZM18.0427 4.71646L17.0436 4.67476L18.0427 4.71646ZM18.1426 4.41969L17.3107 3.86477L18.1426 4.41969ZM18.3292 4.13993L19.1611 4.69485L18.3292 4.13993ZM18.3786 3.84718L17.4174 4.12304L18.3786 3.84718ZM18.2909 3.54144L19.2521 3.26558L18.2909 3.54144ZM18.0905 3.30325L17.6119 4.18133L18.0905 3.30325ZM17.7773 3.13261L18.2558 2.25453L17.7773 3.13261ZM17.6793 2.80962L16.7082 2.57066L17.6793 2.80962ZM17.7377 2.57196L18.7088 2.81093L17.7377 2.57196ZM17.7962 2.3343L18.7673 2.57327L17.7962 2.3343ZM17.6169 2.16426L17.8904 3.12613L17.6169 2.16426ZM17.3791 2.23187L17.1056 1.26999L17.3791 2.23187ZM17.1413 2.29949L16.8678 1.33761L17.1413 2.29949ZM16.7835 1.83134L17.7594 1.61292L16.7835 1.83134ZM16.7236 1.56345L15.7477 1.78187L16.7236 1.56345ZM16.4812 1.32169L16.623 2.31159L16.4812 1.32169ZM16.1165 1.37393L15.9747 0.384035L16.1165 1.37393ZM15.7759 1.46701L15.3861 0.5461L15.7759 1.46701ZM15.6177 1.53397L15.2279 0.613058L15.6177 1.53397ZM15.4595 1.60093L15.8492 2.52184L15.4595 1.60093ZM14.9322 1.98155L15.5798 2.74354L14.9322 1.98155ZM14.0153 2.35077L14.2691 3.31805L14.0153 2.35077ZM13.668 2.44187L13.4143 1.47459L13.668 2.44187ZM13.5191 2.73131L14.514 2.6305L13.5191 2.73131ZM13.5438 2.97519L12.5489 3.07599L13.5438 2.97519ZM13.5685 3.21907L12.5736 3.31988L13.5685 3.21907ZM13.1499 3.67735L13.5854 4.57757L13.1499 3.67735ZM12.8741 3.8399L13.4535 4.6549L12.8741 3.8399ZM12.6178 4.02208L12.0384 3.20708L12.6178 4.02208ZM12.447 4.28964L13.4189 4.52491L12.447 4.28964ZM12.4043 4.46611L11.4324 4.23084L12.4043 4.46611ZM12.3616 4.64258L11.3896 4.40731L12.3616 4.64258ZM12.0952 4.81466L12.0756 5.81447L12.0952 4.81466ZM11.648 4.80587L11.6676 3.80606L11.648 4.80587ZM11.4192 5.01551L10.4195 4.9915L11.4192 5.01551ZM11.4141 5.22955L12.4138 5.25356L11.4141 5.22955ZM11.1788 5.65186L11.2044 4.65219L11.1788 5.65186ZM10.9538 5.64609L10.9282 6.64576L10.9538 5.64609ZM10.7288 5.64032L10.7032 6.64L10.7288 5.64032ZM10.3805 5.73046L10.9945 6.51979L10.3805 5.73046ZM10.2572 5.82637L10.8712 6.6157L10.2572 5.82637ZM10.1339 5.92227L9.51994 5.13294L10.1339 5.92227ZM9.89076 6.11754L9.25249 5.34773L9.89076 6.11754ZM9.65108 6.31627L10.2894 7.08608L9.65108 6.31627ZM9.60788 6.71144L8.63985 6.96225L9.60788 6.71144ZM9.68452 7.00724L8.71649 7.25805L9.68452 7.00724ZM9.76116 7.30304L8.79313 7.55386L9.76116 7.30304ZM9.55116 7.53144L9.78007 6.55799L9.55116 7.53144ZM8.97786 7.39662L8.74894 8.37007L8.97786 7.39662ZM8.76884 7.62601L9.73629 7.37295L8.76884 7.62601ZM8.84648 7.92281L7.87903 8.17588L8.84648 7.92281ZM8.92411 8.21961L9.89156 7.96654L8.92411 8.21961ZM8.80991 8.54379L8.66862 7.55382L8.80991 8.54379ZM8.42622 8.59854L8.56751 9.58851L8.42622 8.59854ZM8.17996 8.79069L7.23041 8.47709L8.17996 8.79069ZM8.07112 9.12024L9.02068 9.43384L8.07112 9.12024ZM7.81198 9.29951L7.74132 8.30201L7.81198 9.29951ZM7.40254 9.32852L7.47321 10.326L7.40254 9.32852ZM7.01583 9.38025L6.81543 8.40053L7.01583 9.38025ZM6.65184 9.4547L6.85223 10.4344L6.65184 9.4547ZM6.47317 9.71442L7.47305 9.6995L6.47317 9.71442ZM6.47649 9.93692L5.4766 9.95184L6.47649 9.93692ZM6.47981 10.1594L5.47992 10.1743L6.47981 10.1594ZM6.30952 10.4275L6.05542 9.46035L6.30952 10.4275ZM6.13591 10.4731L6.39002 11.4403L6.13591 10.4731ZM5.96231 10.5188L5.7082 9.55157L5.96231 10.5188ZM5.72136 11.5929L5.05474 10.8475L5.72136 11.5929ZM5.60564 11.6964L6.27226 12.4418L5.60564 11.6964ZM5.48992 11.7999L4.8233 11.0545L5.48992 11.7999ZM5.11075 11.8592L4.94525 12.8454L5.11075 11.8592ZM4.58385 11.7708L4.74936 10.7845L4.58385 11.7708ZM4.36525 11.9906L3.37937 12.158L4.36525 11.9906ZM4.41009 12.2546L5.39597 12.0871L4.41009 12.2546ZM4.45494 12.5186L3.46906 12.686L4.45494 12.5186ZM4.39262 12.8946L3.66995 12.2034L4.39262 12.8946ZM4.28545 13.0067L3.56279 12.3155L4.28545 13.0067ZM4.17829 13.1187L4.90096 13.8099L4.17829 13.1187ZM3.97872 13.3575L4.78685 13.9465L3.97872 13.3575ZM3.7939 13.6111L2.98577 13.0221L3.7939 13.6111ZM2.64106 13.8366L1.70053 14.1764L2.64106 13.8366ZM2.71621 14.0447L3.65673 13.705L2.71621 14.0447ZM2.79136 14.2528L3.73189 13.913L2.79136 14.2528ZM2.83469 14.6131L3.81355 14.8177L2.83469 14.6131ZM2.77103 14.9178L1.79217 14.7132L2.77103 14.9178ZM2.54899 15.1743L3.02959 16.0513L2.54899 15.1743ZM2.16856 15.3828L1.68796 14.5059L2.16856 15.3828ZM1.89789 15.6246L2.76107 16.1295L1.89789 15.6246ZM1.73697 15.8998L0.873783 15.3949L1.73697 15.8998ZM1.74149 16.2251L0.830447 16.6374L1.74149 16.2251ZM1.91146 16.6007L2.8225 16.1883L1.91146 16.6007ZM2.04684 16.9657L1.08494 17.2392L2.04684 16.9657ZM2.09723 17.143L1.13534 17.4164L2.09723 17.143ZM2.14762 17.3203L3.10952 17.0468L2.14762 17.3203ZM2.19802 17.5978L3.19802 17.5977L2.19802 17.5978ZM2.19803 17.7982L1.19803 17.7982L2.19803 17.7982ZM2.18168 18.079L1.18575 17.9888L2.18168 18.079ZM2.14897 18.4402L3.14489 18.5304L2.14897 18.4402ZM2.30578 18.6028L2.40935 19.5974L2.30578 18.6028ZM2.65212 18.5667L2.54856 17.5721L2.65212 18.5667ZM2.94994 18.4256L2.2473 17.714L2.94994 18.4256ZM3.19923 18.1794L3.90187 18.891L3.19923 18.1794ZM3.48015 18.0376L3.59952 19.0304L3.48015 18.0376ZM3.79269 18L3.67332 17.0071L3.79269 18ZM4.10544 17.963L3.9903 16.9697L4.10544 17.963ZM4.7282 17.8802L4.91045 18.8635L4.7282 17.8802ZM4.88155 17.8518L5.0638 18.835L4.88155 17.8518ZM5.0349 17.8234L4.85265 16.8401L5.0349 17.8234ZM5.31516 17.6793L5.98863 18.4185L5.31516 17.6793ZM5.44206 17.5637L4.76859 16.8245L5.44206 17.5637ZM5.56897 17.4481L6.24245 18.1873L5.56897 17.4481ZM5.90215 17.3635L5.75347 18.3523L5.90215 17.3635ZM6.31468 17.4255L6.46336 16.4366L6.31468 17.4255ZM6.54596 17.2244L5.55172 17.1173L6.54596 17.2244ZM6.57098 16.9923L7.56522 17.0994L6.57098 16.9923ZM6.59599 16.7602L7.59023 16.8673L6.59599 16.7602ZM6.77629 16.4642L6.39562 15.5395L6.77629 16.4642ZM7.08686 16.3363L7.46752 17.261L7.08686 16.3363ZM7.23041 16.0415L6.2317 16.0922L7.23041 16.0415ZM7.20695 15.5796L8.20566 15.5289L7.20695 15.5796ZM7.45898 15.3933L7.62547 14.4072L7.45898 15.3933ZM7.9865 15.4823L7.82001 16.4684L7.9865 15.4823ZM8.40437 15.4618L8.79358 16.3829L8.40437 15.4618ZM8.55846 15.3966L8.94768 16.3178L8.55846 15.3966ZM8.71256 15.3315L8.32334 14.4104L8.71256 15.3315ZM8.77946 14.96L7.81766 15.2338L8.77946 14.96ZM8.60505 14.3473L7.64325 14.621L8.60505 14.3473ZM8.62222 13.9261L7.88223 13.2535L8.62222 13.9261ZM8.83097 13.6964L9.57096 14.369L8.83097 13.6964ZM9.07919 13.5062L8.61514 12.6204L9.07919 13.5062ZM9.36689 13.3555L9.83094 14.2413L9.36689 13.3555ZM10.2412 13.3529L10.3403 12.3579L10.2412 13.3529ZM10.5018 13.1751L9.50534 13.0907L10.5018 13.1751ZM10.536 12.771L9.53958 12.6866L10.536 12.771ZM10.7197 12.0779L9.77264 11.7567L10.7197 12.0779ZM10.9575 11.8773L10.7593 10.8971L10.9575 11.8773ZM11.3222 11.8036L11.5204 12.7837L11.3222 11.8036ZM11.578 11.621L10.6852 11.1707L11.578 11.621ZM11.725 11.3296L12.6179 11.7799L11.725 11.3296ZM11.9492 11.1153L11.5354 10.205L11.9492 11.1153ZM12.0999 11.0468L11.6861 10.1365L12.0999 11.0468ZM12.2506 10.9783L12.6644 11.8887L12.2506 10.9783ZM12.4339 10.7232L13.419 10.8951L12.4339 10.7232ZM12.4664 10.5366L11.4813 10.3647L12.4664 10.5366ZM12.499 10.3499L11.5139 10.178L12.499 10.3499ZM12.721 10.1335L12.8763 11.1214L12.721 10.1335ZM13.0999 10.074L12.9445 9.0861L13.0999 10.074ZM13.2935 9.82924L12.2937 9.80944L13.2935 9.82924ZM13.3021 9.39938L14.3019 9.41918L13.3021 9.39938ZM13.5491 9.20805L13.6458 8.21273L13.5491 9.20805ZM13.7919 9.23164L13.6952 10.227L13.7919 9.23164ZM14.0348 9.25524L13.938 10.2505L14.0348 9.25524ZM14.4288 9.21088L14.8386 10.1231L14.4288 9.21088ZM14.5801 9.14293L14.9899 10.0551L14.5801 9.14293ZM14.7314 9.07498L14.3216 8.1628L14.7314 9.07498ZM14.9965 8.90172L15.6754 9.63593L14.9965 8.90172ZM15.1104 8.7964L14.4315 8.06219L15.1104 8.7964ZM15.2243 8.69109L15.9032 9.4253L15.2243 8.69109ZM15.3725 7.96249L14.374 7.90757L15.3725 7.96249ZM15.6094 7.76105L15.6374 6.76144L15.6094 7.76105ZM15.835 7.76736L15.807 8.76697L15.835 7.76736ZM16.0605 7.77367L16.0885 6.77406L16.0605 7.77367ZM16.3124 7.58713L15.3216 7.45184L16.3124 7.58713ZM16.365 7.20141L17.3558 7.33669L16.365 7.20141ZM16.3852 6.7832L15.3856 6.81056L16.3852 6.7832ZM16.379 6.55784L15.3794 6.58521L16.379 6.55784ZM16.3728 6.33249L15.3732 6.35985L16.3728 6.33249ZM16.6464 6.16762L16.8578 5.19021L16.6464 6.16762ZM17.2058 6.28859L16.9945 7.266L17.2058 6.28859ZM17.5687 6.22423L18.4011 6.77837L17.5687 6.22423ZM17.6518 6.09937L16.8194 5.54522L17.6518 6.09937ZM17.7349 5.97451L18.5673 6.52866L17.7349 5.97451ZM17.7748 5.80641L17.0677 6.51357L17.7748 5.80641ZM17.7315 5.76316L18.4386 5.056L17.7315 5.76316ZM17.6883 5.71991L16.9812 6.42707L17.6883 5.71991ZM17.7395 5.55428L18.531 6.16553L17.7395 5.55428ZM17.834 5.43189L18.6255 6.04314L18.72 5.92075L17.9286 5.3095L17.1371 4.69825L17.0426 4.82064L17.834 5.43189ZM17.9286 5.3095L18.72 5.92075C18.9116 5.67269 19.0159 5.37987 19.0288 5.07193L18.0296 5.03023L17.0305 4.98853C17.0323 4.94474 17.041 4.89296 17.0608 4.83818C17.0807 4.78326 17.1079 4.73609 17.1371 4.69825L17.9286 5.3095ZM18.0296 5.03023L19.0288 5.07193L19.0353 4.91504L18.0362 4.87334L17.0371 4.83164L17.0305 4.98853L18.0296 5.03023ZM18.0362 4.87334L19.0353 4.91504L19.0419 4.75816L18.0427 4.71646L17.0436 4.67476L17.0371 4.83164L18.0362 4.87334ZM18.0427 4.71646L19.0419 4.75816C19.0401 4.79994 19.0323 4.84241 19.0188 4.88273C19.0053 4.92262 18.9886 4.9534 18.9745 4.97461L18.1426 4.41969L17.3107 3.86477C17.1542 4.0993 17.0562 4.37396 17.0436 4.67476L18.0427 4.71646ZM18.1426 4.41969L18.9745 4.97461L19.0678 4.83473L18.2359 4.27981L17.404 3.72489L17.3107 3.86477L18.1426 4.41969ZM18.2359 4.27981L19.0678 4.83473L19.1611 4.69485L18.3292 4.13993L17.4973 3.58501L17.404 3.72489L18.2359 4.27981ZM18.3292 4.13993L19.1611 4.69485C19.3757 4.3731 19.4553 3.97366 19.3398 3.57131L18.3786 3.84718L17.4174 4.12304C17.3938 4.04072 17.3838 3.93933 17.4022 3.8303C17.4203 3.72289 17.4606 3.64001 17.4973 3.58501L18.3292 4.13993ZM18.3786 3.84718L19.3398 3.57131L19.296 3.41844L18.3348 3.69431L17.3736 3.97017L17.4174 4.12304L18.3786 3.84718ZM18.3348 3.69431L19.296 3.41844L19.2521 3.26558L18.2909 3.54144L17.3297 3.81731L17.3736 3.97017L18.3348 3.69431ZM18.2909 3.54144L19.2521 3.26558C19.1398 2.8742 18.8772 2.59313 18.569 2.42517L18.0905 3.30325L17.6119 4.18133C17.5706 4.15879 17.5112 4.11766 17.4537 4.04933C17.3946 3.97912 17.353 3.89841 17.3297 3.81731L18.2909 3.54144ZM18.0905 3.30325L18.569 2.42517L18.4124 2.33985L17.9339 3.21793L17.4554 4.09601L17.6119 4.18133L18.0905 3.30325ZM17.9339 3.21793L18.4124 2.33985L18.2558 2.25453L17.7773 3.13261L17.2988 4.01069L17.4554 4.09601L17.9339 3.21793ZM17.7773 3.13261L18.2558 2.25453C18.4196 2.34376 18.5669 2.50619 18.6314 2.71864C18.6857 2.8974 18.6556 3.02712 18.6503 3.04859L17.6793 2.80962L16.7082 2.57066C16.6639 2.75057 16.6307 3.01334 16.7177 3.29976C16.8149 3.61987 17.0307 3.86458 17.2988 4.01069L17.7773 3.13261ZM17.6793 2.80962L18.6503 3.04859L18.7088 2.81093L17.7377 2.57196L16.7667 2.333L16.7082 2.57066L17.6793 2.80962ZM17.7377 2.57196L18.7088 2.81093L18.7673 2.57327L17.7962 2.3343L16.8252 2.09534L16.7667 2.333L17.7377 2.57196ZM17.7962 2.3343L18.7673 2.57327C18.7916 2.47418 18.8198 2.31941 18.8023 2.13838C18.7839 1.94766 18.7071 1.67341 18.4687 1.44732C18.2317 1.2226 17.9566 1.16083 17.7704 1.15094C17.592 1.14146 17.4409 1.17467 17.3434 1.20238L17.6169 2.16426L17.8904 3.12613C17.8722 3.1313 17.7879 3.1547 17.6642 3.14812C17.5326 3.14112 17.2997 3.09498 17.0926 2.8986C16.884 2.70085 16.8248 2.46767 16.8116 2.33072C16.7993 2.20347 16.8203 2.1152 16.8252 2.09534L17.7962 2.3343ZM17.6169 2.16426L17.3434 1.20238L17.1056 1.26999L17.3791 2.23187L17.6526 3.19375L17.8904 3.12613L17.6169 2.16426ZM17.3791 2.23187L17.1056 1.26999L16.8678 1.33761L17.1413 2.29949L17.4147 3.26137L17.6526 3.19375L17.3791 2.23187ZM17.1413 2.29949L16.8678 1.33761C16.9594 1.31158 17.2288 1.26699 17.506 1.45344C17.7574 1.62256 17.8122 1.84907 17.8193 1.8808L16.8435 2.09922L15.8676 2.31764C15.9147 2.52796 16.0391 2.87714 16.3898 3.11302C16.7663 3.36622 17.1646 3.33248 17.4147 3.26137L17.1413 2.29949ZM16.8435 2.09922L17.8193 1.8808L17.7594 1.61292L16.7835 1.83134L15.8077 2.04975L15.8676 2.31764L16.8435 2.09922ZM16.7835 1.83134L17.7594 1.61292L17.6994 1.34504L16.7236 1.56345L15.7477 1.78187L15.8077 2.04975L16.7835 1.83134ZM16.7236 1.56345L17.6994 1.34504C17.6607 1.17208 17.5728 0.894046 17.3393 0.661118C17.0572 0.379729 16.6839 0.282458 16.3395 0.331791L16.4812 1.32169L16.623 2.31159C16.5293 2.325 16.4045 2.32457 16.2668 2.28157C16.1265 2.23777 16.0118 2.16188 15.9267 2.07702C15.846 1.99648 15.8019 1.91824 15.7795 1.8702C15.7571 1.82215 15.7493 1.789 15.7477 1.78187L16.7236 1.56345ZM16.4812 1.32169L16.3395 0.331791L16.1571 0.357913L16.2988 1.34781L16.4406 2.33771L16.623 2.31159L16.4812 1.32169ZM16.2988 1.34781L16.1571 0.357913L15.9747 0.384035L16.1165 1.37393L16.2582 2.36383L16.4406 2.33771L16.2988 1.34781ZM16.1165 1.37393L15.9747 0.384035C15.774 0.412785 15.5764 0.465541 15.3861 0.5461L15.7759 1.46701L16.1656 2.38793C16.1862 2.37921 16.2158 2.36991 16.2582 2.36383L16.1165 1.37393ZM15.7759 1.46701L15.3861 0.5461L15.2279 0.613058L15.6177 1.53397L16.0074 2.45488L16.1656 2.38793L15.7759 1.46701ZM15.6177 1.53397L15.2279 0.613058L15.0697 0.680016L15.4595 1.60093L15.8492 2.52184L16.0074 2.45488L15.6177 1.53397ZM15.4595 1.60093L15.0697 0.680016C14.8767 0.761695 14.6949 0.870904 14.5307 1.01045L15.1782 1.77244L15.8258 2.53443C15.8262 2.53411 15.8276 2.53295 15.8307 2.53104C15.8339 2.5291 15.8398 2.52584 15.8492 2.52184L15.4595 1.60093ZM15.1782 1.77244L14.5307 1.01045L14.4076 1.115L15.0552 1.87699L15.7028 2.63898L15.8258 2.53443L15.1782 1.77244ZM15.0552 1.87699L14.4076 1.115L14.2846 1.21956L14.9322 1.98155L15.5798 2.74354L15.7028 2.63898L15.0552 1.87699ZM14.9322 1.98155L14.2846 1.21956C14.29 1.21495 14.2967 1.21021 14.304 1.206C14.3113 1.20182 14.3173 1.1993 14.321 1.198L14.6541 2.14088L14.9873 3.08376C15.2034 3.00738 15.4031 2.89368 15.5798 2.74354L14.9322 1.98155ZM14.6541 2.14088L14.321 1.198L14.166 1.25278L14.4991 2.19566L14.8322 3.13854L14.9873 3.08376L14.6541 2.14088ZM14.4991 2.19566L14.166 1.25278L14.0109 1.30756L14.3441 2.25044L14.6772 3.19332L14.8322 3.13854L14.4991 2.19566ZM14.3441 2.25044L14.0109 1.30756C13.9359 1.33406 13.853 1.35952 13.7616 1.38349L14.0153 2.35077L14.2691 3.31805C14.4092 3.28129 14.5455 3.23986 14.6772 3.19332L14.3441 2.25044ZM14.0153 2.35077L13.7616 1.38349L13.588 1.42904L13.8417 2.39632L14.0954 3.3636L14.2691 3.31805L14.0153 2.35077ZM13.8417 2.39632L13.588 1.42904L13.4143 1.47459L13.668 2.44187L13.9217 3.40915L14.0954 3.3636L13.8417 2.39632ZM13.668 2.44187L13.4143 1.47459C13.1135 1.55349 12.8237 1.75111 12.6548 2.0794C12.5073 2.36606 12.5056 2.64938 12.5241 2.83211L13.5191 2.73131L14.514 2.6305C14.516 2.65065 14.531 2.80443 14.4331 2.99461C14.3138 3.22643 14.1068 3.36062 13.9217 3.40915L13.668 2.44187ZM13.5191 2.73131L12.5241 2.83211L12.5489 3.07599L13.5438 2.97519L14.5387 2.87439L14.514 2.6305L13.5191 2.73131ZM13.5438 2.97519L12.5489 3.07599L12.5736 3.31988L13.5685 3.21907L14.5634 3.11827L14.5387 2.87439L13.5438 2.97519ZM13.5685 3.21907L12.5736 3.31988C12.5725 3.30924 12.5614 3.20255 12.6185 3.05637C12.6865 2.88193 12.8243 2.724 13.01 2.63419L13.4454 3.53442L13.8809 4.43464C14.5389 4.11637 14.5975 3.45488 14.5634 3.11827L13.5685 3.21907ZM13.4454 3.53442L13.01 2.63419L12.8623 2.70566L13.2977 3.60588L13.7331 4.50611L13.8809 4.43464L13.4454 3.53442ZM13.2977 3.60588L12.8623 2.70566L12.7145 2.77712L13.1499 3.67735L13.5854 4.57757L13.7331 4.50611L13.2977 3.60588ZM13.1499 3.67735L12.7145 2.77712C12.5679 2.84803 12.4275 2.9304 12.2946 3.0249L12.8741 3.8399L13.4535 4.6549C13.4914 4.62794 13.535 4.60195 13.5854 4.57757L13.1499 3.67735ZM12.8741 3.8399L12.2946 3.0249L12.1665 3.11599L12.746 3.93099L13.3254 4.74599L13.4535 4.6549L12.8741 3.8399ZM12.746 3.93099L12.1665 3.11599L12.0384 3.20708L12.6178 4.02208L13.1973 4.83708L13.3254 4.74599L12.746 3.93099ZM12.6178 4.02208L12.0384 3.20708C11.7265 3.42882 11.5509 3.74102 11.4751 4.05437L12.447 4.28964L13.4189 4.52491C13.4109 4.55827 13.3928 4.61179 13.3539 4.67266C13.3139 4.73535 13.2604 4.79221 13.1973 4.83708L12.6178 4.02208ZM12.447 4.28964L11.4751 4.05437L11.4324 4.23084L12.4043 4.46611L13.3762 4.70138L13.4189 4.52491L12.447 4.28964ZM12.4043 4.46611L11.4324 4.23084L11.3896 4.40731L12.3616 4.64258L13.3335 4.87785L13.3762 4.70138L12.4043 4.46611ZM12.3616 4.64258L11.3896 4.40731C11.4263 4.25598 11.5286 4.06464 11.731 3.93389C11.9096 3.81846 12.0689 3.81395 12.1149 3.81485L12.0952 4.81466L12.0756 5.81447C12.2706 5.8183 12.5489 5.78657 12.8163 5.61378C13.1075 5.42568 13.2684 5.14683 13.3335 4.87785L12.3616 4.64258ZM12.0952 4.81466L12.1149 3.81485L11.8913 3.81046L11.8716 4.81027L11.852 5.81007L12.0756 5.81447L12.0952 4.81466ZM11.8716 4.81027L11.8913 3.81046L11.6676 3.80606L11.648 4.80587L11.6283 5.80568L11.852 5.81007L11.8716 4.81027ZM11.648 4.80587L11.6676 3.80606C11.4493 3.80177 11.1005 3.84657 10.8034 4.11884C10.498 4.39865 10.4252 4.75431 10.4195 4.9915L11.4192 5.01551L12.4189 5.03953C12.4167 5.13403 12.3837 5.3834 12.1546 5.59333C11.9338 5.79571 11.6976 5.80704 11.6283 5.80568L11.648 4.80587ZM11.4192 5.01551L10.4195 4.9915L10.4144 5.20554L11.4141 5.22955L12.4138 5.25356L12.4189 5.03953L11.4192 5.01551ZM11.4141 5.22955L10.4144 5.20554L10.4092 5.41958L11.4089 5.44359L12.4087 5.4676L12.4138 5.25356L11.4141 5.22955ZM11.4089 5.44359L10.4092 5.41958C10.4115 5.32386 10.4452 5.07172 10.6778 4.86122C10.9008 4.65942 11.1376 4.65048 11.2044 4.65219L11.1788 5.65186L11.1532 6.65153C11.37 6.65709 11.7201 6.61536 12.0198 6.34414C12.3292 6.06421 12.4029 5.70602 12.4087 5.4676L11.4089 5.44359ZM11.1788 5.65186L11.2044 4.65219L10.9794 4.64642L10.9538 5.64609L10.9282 6.64576L11.1532 6.65153L11.1788 5.65186ZM10.9538 5.64609L10.9794 4.64642L10.7544 4.64065L10.7288 5.64032L10.7032 6.64L10.9282 6.64576L10.9538 5.64609ZM10.7288 5.64032L10.7544 4.64065C10.4728 4.63343 10.0967 4.68429 9.76654 4.94113L10.3805 5.73046L10.9945 6.51979C10.8287 6.64876 10.6848 6.63953 10.7032 6.64L10.7288 5.64032ZM10.3805 5.73046L9.76654 4.94113L9.64324 5.03703L10.2572 5.82637L10.8712 6.6157L10.9945 6.51979L10.3805 5.73046ZM10.2572 5.82637L9.64324 5.03703L9.51994 5.13294L10.1339 5.92227L10.7479 6.71161L10.8712 6.6157L10.2572 5.82637ZM10.1339 5.92227L9.51994 5.13294C9.42957 5.20324 9.34041 5.27483 9.25249 5.34773L9.89076 6.11754L10.529 6.88735C10.6009 6.82777 10.6738 6.76918 10.7479 6.71161L10.1339 5.92227ZM9.89076 6.11754L9.25249 5.34773L9.13265 5.4471L9.77092 6.21691L10.4092 6.98672L10.529 6.88735L9.89076 6.11754ZM9.77092 6.21691L9.13265 5.4471L9.01281 5.54646L9.65108 6.31627L10.2894 7.08608L10.4092 6.98672L9.77092 6.21691ZM9.65108 6.31627L9.01281 5.54646C8.72174 5.78779 8.61356 6.10657 8.58628 6.35607C8.56081 6.58907 8.59849 6.80265 8.63985 6.96225L9.60788 6.71144L10.5759 6.46062C10.5662 6.42302 10.5855 6.47214 10.5744 6.57342C10.5616 6.69119 10.5005 6.91099 10.2894 7.08608L9.65108 6.31627ZM9.60788 6.71144L8.63985 6.96225L8.71649 7.25805L9.68452 7.00724L10.6526 6.75643L10.5759 6.46062L9.60788 6.71144ZM9.68452 7.00724L8.71649 7.25805L8.79313 7.55386L9.76116 7.30304L10.7292 7.05223L10.6526 6.75643L9.68452 7.00724ZM9.76116 7.30304L8.79313 7.55386C8.79072 7.54456 8.77141 7.47129 8.77916 7.35923C8.78736 7.24071 8.83125 7.02653 9.01087 6.83119C9.19481 6.63114 9.41484 6.56603 9.55315 6.5495C9.67893 6.53448 9.76462 6.55436 9.78007 6.55799L9.55116 7.53144L9.32224 8.50489C9.46012 8.53731 10.0458 8.66045 10.4831 8.1849C10.8985 7.73311 10.7624 7.18053 10.7292 7.05223L9.76116 7.30304ZM9.55116 7.53144L9.78007 6.55799L9.49342 6.49058L9.26451 7.46403L9.03559 8.43748L9.32224 8.50489L9.55116 7.53144ZM9.26451 7.46403L9.49342 6.49058L9.20677 6.42318L8.97786 7.39662L8.74894 8.37007L9.03559 8.43748L9.26451 7.46403ZM8.97786 7.39662L9.20677 6.42318C9.06918 6.39082 8.48027 6.26697 8.0431 6.74675C7.63013 7.19998 7.76815 7.75198 7.80139 7.87908L8.76884 7.62601L9.73629 7.37295C9.73858 7.3817 9.75793 7.45423 9.75067 7.56554C9.743 7.68296 9.70041 7.89737 9.52145 8.09378C9.33768 8.29547 9.11673 8.3616 8.97732 8.37846C8.85077 8.39375 8.76448 8.37373 8.74894 8.37007L8.97786 7.39662ZM8.76884 7.62601L7.80139 7.87908L7.87903 8.17588L8.84648 7.92281L9.81393 7.66975L9.73629 7.37295L8.76884 7.62601ZM8.84648 7.92281L7.87903 8.17588L7.95667 8.47268L8.92411 8.21961L9.89156 7.96654L9.81393 7.66975L8.84648 7.92281ZM8.92411 8.21961L7.95667 8.47268C7.95662 8.47249 7.95495 8.46614 7.95298 8.45436C7.95104 8.44273 7.94829 8.42279 7.94709 8.39587C7.94489 8.34667 7.94642 8.24389 7.9912 8.11677C8.03989 7.97856 8.13355 7.83153 8.28336 7.71751C8.42709 7.60812 8.57163 7.56766 8.66862 7.55382L8.80991 8.54379L8.95119 9.53376C9.11213 9.51079 9.3094 9.44997 9.49461 9.30901C9.68591 9.16341 9.80983 8.97358 9.87756 8.78133C9.9972 8.44174 9.93333 8.12622 9.89156 7.96654L8.92411 8.21961ZM8.80991 8.54379L8.66862 7.55382L8.47678 7.5812L8.61807 8.57117L8.75935 9.56113L8.95119 9.53376L8.80991 8.54379ZM8.61807 8.57117L8.47678 7.5812L8.28494 7.60857L8.42622 8.59854L8.56751 9.58851L8.75935 9.56113L8.61807 8.57117ZM8.42622 8.59854L8.28494 7.60857C8.08934 7.63649 7.86174 7.70945 7.65357 7.87187C7.43948 8.03892 7.30343 8.25598 7.23041 8.47709L8.17996 8.79069L9.12951 9.1043C9.09277 9.21556 9.01591 9.34567 8.8839 9.44867C8.75782 9.54704 8.63521 9.57885 8.56751 9.58851L8.42622 8.59854ZM8.17996 8.79069L7.23041 8.47709L7.17599 8.64186L8.12554 8.95547L9.0751 9.26907L9.12951 9.1043L8.17996 8.79069ZM8.12554 8.95547L7.17599 8.64186L7.12157 8.80663L8.07112 9.12024L9.02068 9.43384L9.0751 9.26907L8.12554 8.95547ZM8.07112 9.12024L7.12157 8.80663C7.16432 8.67719 7.25634 8.5315 7.4102 8.42506C7.5526 8.32654 7.68362 8.3061 7.74132 8.30201L7.81198 9.29951L7.88265 10.297C8.07682 10.2833 8.31928 10.2281 8.54806 10.0698C8.7883 9.90363 8.94165 9.67313 9.02068 9.43384L8.07112 9.12024ZM7.81198 9.29951L7.74132 8.30201L7.5366 8.31652L7.60726 9.31402L7.67793 10.3115L7.88265 10.297L7.81198 9.29951ZM7.60726 9.31402L7.5366 8.31652L7.33188 8.33102L7.40254 9.32852L7.47321 10.326L7.67793 10.3115L7.60726 9.31402ZM7.40254 9.32852L7.33188 8.33102C7.15627 8.34346 6.98374 8.36611 6.81543 8.40053L7.01583 9.38025L7.21622 10.36C7.29057 10.3448 7.37585 10.3329 7.47321 10.326L7.40254 9.32852ZM7.01583 9.38025L6.81543 8.40053L6.63344 8.43776L6.83383 9.41747L7.03423 10.3972L7.21622 10.36L7.01583 9.38025ZM6.83383 9.41747L6.63344 8.43776L6.45144 8.47498L6.65184 9.4547L6.85223 10.4344L7.03423 10.3972L6.83383 9.41747ZM6.65184 9.4547L6.45144 8.47498C6.18578 8.52933 5.89448 8.67758 5.6923 8.97147C5.50547 9.24305 5.47031 9.53029 5.47328 9.72934L6.47317 9.71442L7.47305 9.6995C7.47381 9.75022 7.46732 9.92002 7.34005 10.105C7.19743 10.3123 6.99657 10.4049 6.85223 10.4344L6.65184 9.4547ZM6.47317 9.71442L5.47328 9.72934L5.4766 9.95184L6.47649 9.93692L7.47637 9.922L7.47305 9.6995L6.47317 9.71442ZM6.47649 9.93692L5.4766 9.95184L5.47992 10.1743L6.47981 10.1594L7.47969 10.1445L7.47637 9.922L6.47649 9.93692ZM6.47981 10.1594L5.47992 10.1743C5.47924 10.1287 5.48452 9.97514 5.59476 9.80156C5.71951 9.60515 5.90354 9.50025 6.05542 9.46035L6.30952 10.4275L6.56362 11.3947C6.83124 11.3244 7.10152 11.1596 7.28302 10.8738C7.45003 10.6109 7.48259 10.3384 7.47969 10.1445L6.47981 10.1594ZM6.30952 10.4275L6.05542 9.46035L5.88181 9.50596L6.13591 10.4731L6.39002 11.4403L6.56362 11.3947L6.30952 10.4275ZM6.13591 10.4731L5.88181 9.50596L5.7082 9.55157L5.96231 10.5188L6.21641 11.4859L6.39002 11.4403L6.13591 10.4731ZM5.96231 10.5188L5.7082 9.55157C5.42734 9.62536 5.14854 9.80315 4.97135 10.1069C4.81169 10.3806 4.79226 10.6585 4.80216 10.8478L5.80079 10.7956L6.79943 10.7434C6.80127 10.7786 6.80473 10.9332 6.6989 11.1146C6.57555 11.3261 6.38154 11.4425 6.21641 11.4859L5.96231 10.5188ZM5.80079 10.7956L4.80216 10.8478L4.81425 11.0791L5.81289 11.0269L6.81152 10.9747L6.79943 10.7434L5.80079 10.7956ZM5.81289 11.0269L4.81425 11.0791L4.82634 11.3104L5.82498 11.2582L6.82362 11.206L6.81152 10.9747L5.81289 11.0269ZM5.82498 11.2582L4.82634 11.3104C4.82609 11.3055 4.82309 11.2482 4.84984 11.1618C4.87916 11.0671 4.94132 10.949 5.05474 10.8475L5.72136 11.5929L6.38797 12.3383C6.78436 11.9838 6.83951 11.5099 6.82362 11.206L5.82498 11.2582ZM5.72136 11.5929L5.05474 10.8475L4.93902 10.951L5.60564 11.6964L6.27226 12.4418L6.38797 12.3383L5.72136 11.5929ZM5.60564 11.6964L4.93902 10.951L4.8233 11.0545L5.48992 11.7999L6.15654 12.5453L6.27226 12.4418L5.60564 11.6964ZM5.48992 11.7999L4.8233 11.0545C4.95909 10.9331 5.10055 10.8913 5.18282 10.8785C5.25822 10.8667 5.29649 10.8764 5.27626 10.873L5.11075 11.8592L4.94525 12.8454C5.2119 12.8901 5.73211 12.9249 6.15654 12.5453L5.48992 11.7999ZM5.11075 11.8592L5.27626 10.873L5.01281 10.8288L4.8473 11.815L4.6818 12.8012L4.94525 12.8454L5.11075 11.8592ZM4.8473 11.815L5.01281 10.8288L4.74936 10.7845L4.58385 11.7708L4.41835 12.757L4.6818 12.8012L4.8473 11.815ZM4.58385 11.7708L4.74936 10.7845C4.56976 10.7544 4.07856 10.7062 3.68845 11.0984C3.29938 11.4896 3.34903 11.9794 3.37937 12.158L4.36525 11.9906L5.35113 11.8231C5.35157 11.8257 5.4227 12.1909 5.10651 12.5088C4.78926 12.8278 4.42232 12.7576 4.41835 12.757L4.58385 11.7708ZM4.36525 11.9906L3.37937 12.158L3.42421 12.422L4.41009 12.2546L5.39597 12.0871L5.35113 11.8231L4.36525 11.9906ZM4.41009 12.2546L3.42421 12.422L3.46906 12.686L4.45494 12.5186L5.44081 12.3511L5.39597 12.0871L4.41009 12.2546ZM4.45494 12.5186L3.46906 12.686C3.47234 12.7053 3.46174 12.6625 3.47523 12.5811C3.49012 12.4913 3.5376 12.3418 3.66995 12.2034L4.39262 12.8946L5.11528 13.5858C5.5241 13.1584 5.48606 12.6175 5.44081 12.3511L4.45494 12.5186ZM4.39262 12.8946L3.66995 12.2034L3.56279 12.3155L4.28545 13.0067L5.00812 13.6979L5.11528 13.5858L4.39262 12.8946ZM4.28545 13.0067L3.56279 12.3155L3.45563 12.4275L4.17829 13.1187L4.90096 13.8099L5.00812 13.6979L4.28545 13.0067ZM4.17829 13.1187L3.45563 12.4275C3.35309 12.5347 3.25807 12.6485 3.17059 12.7685L3.97872 13.3575L4.78685 13.9465C4.82258 13.8975 4.86061 13.8521 4.90096 13.8099L4.17829 13.1187ZM3.97872 13.3575L3.17059 12.7685L3.07818 12.8953L3.88631 13.4843L4.69444 14.0733L4.78685 13.9465L3.97872 13.3575ZM3.88631 13.4843L3.07818 12.8953L2.98577 13.0221L3.7939 13.6111L4.60203 14.2001L4.69444 14.0733L3.88631 13.4843ZM3.7939 13.6111L2.98577 13.0221C3.12034 12.8375 3.29358 12.7602 3.3981 12.7326C3.48996 12.7083 3.54003 12.7177 3.51343 12.7152L3.41759 13.7106L3.32175 14.706C3.57738 14.7306 4.20572 14.7439 4.60203 14.2001L3.7939 13.6111ZM3.41759 13.7106L3.51343 12.7152L3.22953 12.6878L3.1337 13.6832L3.03786 14.6786L3.32175 14.706L3.41759 13.7106ZM3.1337 13.6832L3.22953 12.6878L2.94564 12.6605L2.8498 13.6559L2.75396 14.6513L3.03786 14.6786L3.1337 13.6832ZM2.8498 13.6559L2.94564 12.6605C2.84762 12.6511 2.71565 12.6462 2.57005 12.6699C2.42849 12.6928 2.2061 12.7539 2.00112 12.9314C1.48348 13.3796 1.63111 13.9842 1.70053 14.1764L2.64106 13.8366L3.58158 13.4969C3.59751 13.541 3.63843 13.6683 3.62116 13.8448C3.60097 14.051 3.50407 14.2756 3.31021 14.4434C3.14002 14.5908 2.96738 14.6315 2.89053 14.644C2.80964 14.6572 2.75734 14.6516 2.75396 14.6513L2.8498 13.6559ZM2.64106 13.8366L1.70053 14.1764L1.77568 14.3844L2.71621 14.0447L3.65673 13.705L3.58158 13.4969L2.64106 13.8366ZM2.71621 14.0447L1.77568 14.3844L1.85084 14.5925L2.79136 14.2528L3.73189 13.913L3.65673 13.705L2.71621 14.0447ZM2.79136 14.2528L1.85084 14.5925C1.85554 14.6055 1.85045 14.5956 1.84692 14.5662C1.84327 14.5359 1.84084 14.4803 1.85583 14.4086L2.83469 14.6131L3.81355 14.8177C3.88544 14.4736 3.81973 14.1562 3.73189 13.913L2.79136 14.2528ZM2.83469 14.6131L1.85583 14.4086L1.824 14.5609L2.80286 14.7655L3.78172 14.97L3.81355 14.8177L2.83469 14.6131ZM2.80286 14.7655L1.824 14.5609L1.79217 14.7132L2.77103 14.9178L3.74989 15.1223L3.78172 14.97L2.80286 14.7655ZM2.77103 14.9178L1.79217 14.7132C1.85159 14.4289 2.04411 14.3107 2.06839 14.2974L2.54899 15.1743L3.02959 16.0513C3.30749 15.899 3.64804 15.6098 3.74989 15.1223L2.77103 14.9178ZM2.54899 15.1743L2.06839 14.2974L1.87817 14.4017L2.35878 15.2786L2.83938 16.1555L3.02959 16.0513L2.54899 15.1743ZM2.35878 15.2786L1.87817 14.4017L1.68796 14.5059L2.16856 15.3828L2.64917 16.2598L2.83938 16.1555L2.35878 15.2786ZM2.16856 15.3828L1.68796 14.5059C1.45752 14.6322 1.20711 14.825 1.0347 15.1198L1.89789 15.6246L2.76107 16.1295C2.69595 16.2409 2.62599 16.2725 2.64917 16.2598L2.16856 15.3828ZM1.89789 15.6246L1.0347 15.1198L0.954244 15.2573L1.81743 15.7622L2.68061 16.2671L2.76107 16.1295L1.89789 15.6246ZM1.81743 15.7622L0.954244 15.2573L0.873783 15.3949L1.73697 15.8998L2.60015 16.4047L2.68061 16.2671L1.81743 15.7622ZM1.73697 15.8998L0.873783 15.3949C0.609619 15.8465 0.68354 16.3128 0.830447 16.6374L1.74149 16.2251L2.65253 15.8128C2.66631 15.8432 2.69617 15.9212 2.69777 16.036C2.69949 16.1599 2.6673 16.2898 2.60015 16.4047L1.73697 15.8998ZM1.74149 16.2251L0.830447 16.6374L0.915431 16.8252L1.82647 16.4129L2.73751 16.0006L2.65253 15.8128L1.74149 16.2251ZM1.82647 16.4129L0.915431 16.8252L1.00041 17.013L1.91146 16.6007L2.8225 16.1883L2.73751 16.0006L1.82647 16.4129ZM1.91146 16.6007L1.00041 17.013C1.03906 17.0984 1.06632 17.1736 1.08494 17.2392L2.04684 16.9657L3.00873 16.6923C2.96016 16.5214 2.89716 16.3533 2.8225 16.1883L1.91146 16.6007ZM2.04684 16.9657L1.08494 17.2392L1.13534 17.4164L2.09723 17.143L3.05912 16.8696L3.00873 16.6923L2.04684 16.9657ZM2.09723 17.143L1.13534 17.4164L1.18573 17.5937L2.14762 17.3203L3.10952 17.0468L3.05912 16.8696L2.09723 17.143ZM2.14762 17.3203L1.18573 17.5937C1.19079 17.6115 1.19448 17.6258 1.19711 17.6367C1.19976 17.6478 1.20105 17.6544 1.20152 17.657C1.20202 17.6597 1.2013 17.6564 1.20039 17.6477C1.19951 17.6394 1.19802 17.6222 1.19802 17.5978L2.19802 17.5978L3.19802 17.5977C3.19802 17.3912 3.151 17.1928 3.10952 17.0468L2.14762 17.3203ZM2.19802 17.5978L1.19802 17.5978L1.19803 17.698L2.19803 17.698L3.19803 17.6979L3.19802 17.5977L2.19802 17.5978ZM2.19803 17.698L1.19803 17.698L1.19803 17.7982L2.19803 17.7982L3.19803 17.7981L3.19803 17.6979L2.19803 17.698ZM2.19803 17.7982L1.19803 17.7982C1.19803 17.82 1.19574 17.8785 1.18575 17.9888L2.18168 18.079L3.1776 18.1692C3.18943 18.0386 3.19803 17.9099 3.19803 17.7981L2.19803 17.7982ZM2.18168 18.079L1.18575 17.9888L1.1694 18.1694L2.16532 18.2596L3.16125 18.3498L3.1776 18.1692L2.18168 18.079ZM2.16532 18.2596L1.1694 18.1694L1.15304 18.35L2.14897 18.4402L3.14489 18.5304L3.16125 18.3498L2.16532 18.2596ZM2.14897 18.4402L1.15304 18.35C1.137 18.5272 1.13743 18.9307 1.46023 19.2654C1.79507 19.6125 2.21422 19.6177 2.40935 19.5974L2.30578 18.6028L2.20221 17.6082C2.2819 17.5999 2.61718 17.584 2.89975 17.8769C3.17028 18.1574 3.15003 18.4736 3.14489 18.5304L2.14897 18.4402ZM2.30578 18.6028L2.40935 19.5974L2.58252 19.5794L2.47895 18.5847L2.37539 17.5901L2.20221 17.6082L2.30578 18.6028ZM2.47895 18.5847L2.58252 19.5794L2.75569 19.5613L2.65212 18.5667L2.54856 17.5721L2.37539 17.5901L2.47895 18.5847ZM2.65212 18.5667L2.75569 19.5613C3.0987 19.5256 3.40884 19.3778 3.65258 19.1371L2.94994 18.4256L2.2473 17.714C2.2807 17.6811 2.32671 17.6463 2.38496 17.6187C2.44329 17.5911 2.50012 17.5771 2.54856 17.5721L2.65212 18.5667ZM2.94994 18.4256L3.65258 19.1371L3.77722 19.0141L3.07459 18.3025L2.37195 17.591L2.2473 17.714L2.94994 18.4256ZM3.07459 18.3025L3.77722 19.0141L3.90187 18.891L3.19923 18.1794L2.49659 17.4679L2.37195 17.591L3.07459 18.3025ZM3.19923 18.1794L3.90187 18.891C3.8777 18.9148 3.83848 18.9468 3.78259 18.975C3.72557 19.0038 3.66287 19.0228 3.59952 19.0304L3.48015 18.0376L3.36078 17.0447C3.01145 17.0867 2.7187 17.2486 2.49659 17.4679L3.19923 18.1794ZM3.48015 18.0376L3.59952 19.0304L3.75579 19.0116L3.63642 18.0188L3.51705 17.0259L3.36078 17.0447L3.48015 18.0376ZM3.63642 18.0188L3.75579 19.0116L3.91207 18.9928L3.79269 18L3.67332 17.0071L3.51705 17.0259L3.63642 18.0188ZM3.79269 18L3.91207 18.9928C4.01483 18.9805 4.11767 18.9683 4.22057 18.9564L4.10544 17.963L3.9903 16.9697C3.88458 16.982 3.77892 16.9944 3.67332 17.0071L3.79269 18ZM4.10544 17.963L4.22057 18.9564L4.37704 18.9383L4.26191 17.9449L4.14677 16.9516L3.9903 16.9697L4.10544 17.963ZM4.26191 17.9449L4.37704 18.9383L4.53351 18.9201L4.41838 17.9268L4.30324 16.9334L4.14677 16.9516L4.26191 17.9449ZM4.41838 17.9268L4.53351 18.9201C4.66008 18.9055 4.78574 18.8866 4.91045 18.8635L4.7282 17.8802L4.54595 16.897C4.46618 16.9118 4.3853 16.9239 4.30324 16.9334L4.41838 17.9268ZM4.7282 17.8802L4.91045 18.8635L5.0638 18.835L4.88155 17.8518L4.6993 16.8685L4.54595 16.897L4.7282 17.8802ZM4.88155 17.8518L5.0638 18.835L5.21715 18.8066L5.0349 17.8234L4.85265 16.8401L4.6993 16.8685L4.88155 17.8518ZM5.0349 17.8234L5.21715 18.8066C5.52087 18.7503 5.78059 18.6081 5.98863 18.4185L5.31516 17.6793L4.64168 16.9401C4.65877 16.9245 4.68612 16.9035 4.7245 16.8837C4.76347 16.8637 4.80707 16.8486 4.85265 16.8401L5.0349 17.8234ZM5.31516 17.6793L5.98863 18.4185L6.11554 18.3029L5.44206 17.5637L4.76859 16.8245L4.64168 16.9401L5.31516 17.6793ZM5.44206 17.5637L6.11554 18.3029L6.24245 18.1873L5.56897 17.4481L4.8955 16.7089L4.76859 16.8245L5.44206 17.5637ZM5.56897 17.4481L6.24245 18.1873C6.16321 18.2595 6.06532 18.3121 5.96186 18.3383C5.864 18.3632 5.78889 18.3577 5.75347 18.3523L5.90215 17.3635L6.05083 16.3746C5.68626 16.3198 5.25051 16.3854 4.8955 16.7089L5.56897 17.4481ZM5.90215 17.3635L5.75347 18.3523L5.95974 18.3834L6.10842 17.3945L6.25709 16.4056L6.05083 16.3746L5.90215 17.3635ZM6.10842 17.3945L5.95974 18.3834L6.166 18.4144L6.31468 17.4255L6.46336 16.4366L6.25709 16.4056L6.10842 17.3945ZM6.31468 17.4255L6.166 18.4144C6.41429 18.4517 6.80011 18.4337 7.13177 18.1454C7.43923 17.878 7.51858 17.5322 7.54021 17.3315L6.54596 17.2244L5.55172 17.1173C5.55667 17.0713 5.58914 16.8364 5.8195 16.6361C6.07407 16.4147 6.35259 16.4199 6.46336 16.4366L6.31468 17.4255ZM6.54596 17.2244L7.54021 17.3315L7.56522 17.0994L6.57098 16.9923L5.57673 16.8851L5.55172 17.1173L6.54596 17.2244ZM6.57098 16.9923L7.56522 17.0994L7.59023 16.8673L6.59599 16.7602L5.60174 16.653L5.57673 16.8851L6.57098 16.9923ZM6.59599 16.7602L7.59023 16.8673C7.58799 16.8881 7.57586 16.9783 7.50763 17.0903C7.43075 17.2165 7.30867 17.3264 7.15695 17.3889L6.77629 16.4642L6.39562 15.5395C5.82591 15.774 5.64032 16.2951 5.60174 16.653L6.59599 16.7602ZM6.77629 16.4642L7.15695 17.3889L7.31224 17.325L6.93157 16.4002L6.55091 15.4755L6.39562 15.5395L6.77629 16.4642ZM6.93157 16.4002L7.31224 17.325L7.46752 17.261L7.08686 16.3363L6.70619 15.4116L6.55091 15.4755L6.93157 16.4002ZM7.08686 16.3363L7.46752 17.261C7.7399 17.1489 7.96544 16.9437 8.09948 16.6684C8.22145 16.4179 8.23828 16.171 8.22912 15.9907L7.23041 16.0415L6.2317 16.0922C6.23036 16.0658 6.22717 15.9451 6.30129 15.7929C6.38748 15.6159 6.53734 15.4811 6.70619 15.4116L7.08686 16.3363ZM7.23041 16.0415L8.22912 15.9907L8.21739 15.7598L7.21868 15.8106L6.21997 15.8613L6.2317 16.0922L7.23041 16.0415ZM7.21868 15.8106L8.21739 15.7598L8.20566 15.5289L7.20695 15.5796L6.20824 15.6304L6.21997 15.8613L7.21868 15.8106ZM7.20695 15.5796L8.20566 15.5289C8.21013 15.6169 8.19879 15.9701 7.85868 16.2216C7.57044 16.4348 7.29431 16.3796 7.29248 16.3793L7.45898 15.3933L7.62547 14.4072C7.44781 14.3772 7.04174 14.3383 6.6695 14.6136C6.24538 14.9272 6.19594 15.3884 6.20824 15.6304L7.20695 15.5796ZM7.45898 15.3933L7.29248 16.3793L7.55625 16.4238L7.72274 15.4378L7.88924 14.4518L7.62547 14.4072L7.45898 15.3933ZM7.72274 15.4378L7.55625 16.4238L7.82001 16.4684L7.9865 15.4823L8.153 14.4963L7.88924 14.4518L7.72274 15.4378ZM7.9865 15.4823L7.82001 16.4684C8.08117 16.5125 8.43971 16.5324 8.79358 16.3829L8.40437 15.4618L8.01515 14.5406C8.09491 14.5069 8.15443 14.5016 8.17367 14.5007C8.19288 14.4997 8.18835 14.5023 8.153 14.4963L7.9865 15.4823ZM8.40437 15.4618L8.79358 16.3829L8.94768 16.3178L8.55846 15.3966L8.16925 14.4755L8.01515 14.5406L8.40437 15.4618ZM8.55846 15.3966L8.94768 16.3178L9.10178 16.2527L8.71256 15.3315L8.32334 14.4104L8.16925 14.4755L8.55846 15.3966ZM8.71256 15.3315L9.10178 16.2527C9.50859 16.0808 9.72849 15.7277 9.7905 15.3833C9.8412 15.1018 9.78705 14.8472 9.74126 14.6863L8.77946 14.96L7.81766 15.2338C7.83 15.2772 7.79377 15.1866 7.82216 15.0289C7.83853 14.938 7.87907 14.8116 7.97362 14.6851C8.07147 14.5542 8.19719 14.4637 8.32334 14.4104L8.71256 15.3315ZM8.77946 14.96L9.74126 14.6863L9.65405 14.3799L8.69225 14.6537L7.73045 14.9274L7.81766 15.2338L8.77946 14.96ZM8.69225 14.6537L9.65405 14.3799L9.56685 14.0735L8.60505 14.3473L7.64325 14.621L7.73045 14.9274L8.69225 14.6537ZM8.60505 14.3473L9.56685 14.0735C9.55357 14.0269 9.56799 14.054 9.56491 14.1295C9.56164 14.2098 9.53389 14.4098 9.36221 14.5987L8.62222 13.9261L7.88223 13.2535C7.64097 13.5189 7.57557 13.8274 7.56657 14.0481C7.55777 14.264 7.59839 14.4634 7.64325 14.621L8.60505 14.3473ZM8.62222 13.9261L9.36221 14.5987L9.46659 14.4839L8.7266 13.8113L7.9866 13.1386L7.88223 13.2535L8.62222 13.9261ZM8.7266 13.8113L9.46659 14.4839L9.57096 14.369L8.83097 13.6964L8.09098 13.0238L7.9866 13.1386L8.7266 13.8113ZM8.83097 13.6964L9.57096 14.369C9.56523 14.3754 9.55914 14.3809 9.55341 14.3853C9.54773 14.3896 9.54393 14.3917 9.54324 14.3921L9.07919 13.5062L8.61514 12.6204C8.42037 12.7225 8.24297 12.8566 8.09098 13.0238L8.83097 13.6964ZM9.07919 13.5062L9.54324 14.3921L9.68709 14.3167L9.22304 13.4309L8.75899 12.5451L8.61514 12.6204L9.07919 13.5062ZM9.22304 13.4309L9.68709 14.3167L9.83094 14.2413L9.36689 13.3555L8.90284 12.4697L8.75899 12.5451L9.22304 13.4309ZM9.36689 13.3555L9.83094 14.2413C9.75616 14.2805 9.69536 14.2927 9.66645 14.2965C9.63846 14.3002 9.63216 14.2972 9.65509 14.2995L9.75422 13.3044L9.85335 12.3094C9.58879 12.283 9.23874 12.2938 8.90284 12.4697L9.36689 13.3555ZM9.75422 13.3044L9.65509 14.2995L9.89857 14.3238L9.9977 13.3287L10.0968 12.3336L9.85335 12.3094L9.75422 13.3044ZM9.9977 13.3287L9.89857 14.3238L10.142 14.348L10.2412 13.3529L10.3403 12.3579L10.0968 12.3336L9.9977 13.3287ZM10.2412 13.3529L10.142 14.348C10.3345 14.3672 10.6721 14.3647 10.9917 14.1466C11.3514 13.9012 11.475 13.5339 11.4982 13.2595L10.5018 13.1751L9.50534 13.0907C9.51717 12.951 9.59161 12.6807 9.86443 12.4946C10.0971 12.3358 10.3102 12.3549 10.3403 12.3579L10.2412 13.3529ZM10.5018 13.1751L11.4982 13.2595L11.5153 13.0575L10.5189 12.973L9.52246 12.8886L9.50534 13.0907L10.5018 13.1751ZM10.5189 12.973L11.5153 13.0575L11.5324 12.8554L10.536 12.771L9.53958 12.6866L9.52246 12.8886L10.5189 12.973ZM10.536 12.771L11.5324 12.8554C11.5382 12.7878 11.5487 12.747 11.5557 12.7264L10.6086 12.4052L9.66162 12.0841C9.5946 12.2817 9.55667 12.4847 9.53958 12.6866L10.536 12.771ZM10.6086 12.4052L11.5557 12.7264L11.6112 12.5627L10.6641 12.2415L9.71713 11.9204L9.66162 12.0841L10.6086 12.4052ZM10.6641 12.2415L11.6112 12.5627L11.6667 12.399L10.7197 12.0779L9.77264 11.7567L9.71713 11.9204L10.6641 12.2415ZM10.7197 12.0779L11.6667 12.399C11.6333 12.4973 11.5663 12.6136 11.4515 12.7104C11.3398 12.8045 11.2273 12.843 11.1557 12.8575L10.9575 11.8773L10.7593 10.8971C10.3211 10.9857 9.93432 11.2799 9.77264 11.7567L10.7197 12.0779ZM10.9575 11.8773L11.1557 12.8575L11.338 12.8206L11.1399 11.8404L10.9417 10.8603L10.7593 10.8971L10.9575 11.8773ZM11.1399 11.8404L11.338 12.8206L11.5204 12.7837L11.3222 11.8036L11.124 10.8234L10.9417 10.8603L11.1399 11.8404ZM11.3222 11.8036L11.5204 12.7837C11.8949 12.708 12.2633 12.4829 12.4709 12.0713L11.578 11.621L10.6852 11.1707C10.7307 11.0803 10.802 10.9929 10.8964 10.9255C10.9873 10.8606 11.072 10.8339 11.124 10.8234L11.3222 11.8036ZM11.578 11.621L12.4709 12.0713L12.5444 11.9256L11.6515 11.4753L10.7587 11.025L10.6852 11.1707L11.578 11.621ZM11.6515 11.4753L12.5444 11.9256L12.6179 11.7799L11.725 11.3296L10.8321 10.8793L10.7587 11.025L11.6515 11.4753ZM11.725 11.3296L12.6179 11.7799C12.5938 11.8276 12.5579 11.8791 12.5086 11.9262C12.4595 11.9731 12.408 12.0052 12.363 12.0257L11.9492 11.1153L11.5354 10.205C11.2307 10.3435 10.9853 10.5755 10.8321 10.8793L11.725 11.3296ZM11.9492 11.1153L12.363 12.0257L12.5137 11.9572L12.0999 11.0468L11.6861 10.1365L11.5354 10.205L11.9492 11.1153ZM12.0999 11.0468L12.5137 11.9572L12.6644 11.8887L12.2506 10.9783L11.8368 10.068L11.6861 10.1365L12.0999 11.0468ZM12.2506 10.9783L12.6644 11.8887C13.1127 11.6849 13.35 11.2904 13.419 10.8951L12.4339 10.7232L11.4488 10.5513C11.4585 10.4952 11.486 10.3994 11.5596 10.2969C11.6366 10.1897 11.7369 10.1134 11.8368 10.068L12.2506 10.9783ZM12.4339 10.7232L13.419 10.8951L13.4516 10.7085L12.4664 10.5366L11.4813 10.3647L11.4488 10.5513L12.4339 10.7232ZM12.4664 10.5366L13.4516 10.7085L13.4841 10.5218L12.499 10.3499L11.5139 10.178L11.4813 10.3647L12.4664 10.5366ZM12.499 10.3499L13.4841 10.5218C13.467 10.6199 13.4131 10.7779 13.2688 10.9186C13.1255 11.0584 12.9688 11.1069 12.8763 11.1214L12.721 10.1335L12.5657 9.14567C12.3469 9.18007 12.0901 9.27457 11.8727 9.48648C11.6545 9.69928 11.5527 9.95561 11.5139 10.178L12.499 10.3499ZM12.721 10.1335L12.8763 11.1214L13.0658 11.0916L12.9104 10.1037L12.7551 9.11589L12.5657 9.14567L12.721 10.1335ZM12.9104 10.1037L13.0658 11.0916L13.2552 11.0618L13.0999 10.074L12.9445 9.0861L12.7551 9.11589L12.9104 10.1037ZM13.0999 10.074L13.2552 11.0618C13.507 11.0222 13.805 10.8991 14.0271 10.6185C14.2379 10.3521 14.2892 10.058 14.2933 9.84904L13.2935 9.82924L12.2937 9.80944C12.295 9.74373 12.3126 9.56207 12.4589 9.37728C12.6164 9.17827 12.819 9.10584 12.9445 9.0861L13.0999 10.074ZM13.2935 9.82924L14.2933 9.84904L14.2976 9.63411L13.2978 9.61431L12.298 9.59451L12.2937 9.80944L13.2935 9.82924ZM13.2978 9.61431L14.2976 9.63411L14.3019 9.41918L13.3021 9.39938L12.3022 9.37958L12.298 9.59451L13.2978 9.61431ZM13.3021 9.39938L14.3019 9.41918C14.2997 9.52961 14.2573 9.81862 13.9782 10.0347C13.7302 10.2268 13.488 10.2068 13.4524 10.2034L13.5491 9.20805L13.6458 8.21273C13.4484 8.19355 13.084 8.19763 12.7537 8.45344C12.3922 8.73333 12.3073 9.12586 12.3022 9.37958L13.3021 9.39938ZM13.5491 9.20805L13.4524 10.2034L13.6952 10.227L13.7919 9.23164L13.8887 8.23633L13.6458 8.21273L13.5491 9.20805ZM13.7919 9.23164L13.6952 10.227L13.938 10.2505L14.0348 9.25524L14.1315 8.25993L13.8887 8.23633L13.7919 9.23164ZM14.0348 9.25524L13.938 10.2505C14.1971 10.2757 14.5215 10.2655 14.8386 10.1231L14.4288 9.21088L14.0191 8.2987C14.0795 8.27154 14.1251 8.26422 14.1428 8.26222C14.1601 8.26028 14.1582 8.26252 14.1315 8.25993L14.0348 9.25524ZM14.4288 9.21088L14.8386 10.1231L14.9899 10.0551L14.5801 9.14293L14.1703 8.23075L14.0191 8.2987L14.4288 9.21088ZM14.5801 9.14293L14.9899 10.0551L15.1411 9.98717L14.7314 9.07498L14.3216 8.1628L14.1703 8.23075L14.5801 9.14293ZM14.7314 9.07498L15.1411 9.98717C15.3339 9.90057 15.5147 9.78456 15.6754 9.63593L14.9965 8.90172L14.3176 8.16751C14.3215 8.1639 14.3247 8.16161 14.3263 8.16057C14.3278 8.15958 14.3266 8.16055 14.3216 8.1628L14.7314 9.07498ZM14.9965 8.90172L15.6754 9.63593L15.7893 9.53062L15.1104 8.7964L14.4315 8.06219L14.3176 8.16751L14.9965 8.90172ZM15.1104 8.7964L15.7893 9.53062L15.9032 9.4253L15.2243 8.69109L14.5454 7.95688L14.4315 8.06219L15.1104 8.7964ZM15.2243 8.69109L15.9032 9.4253C16.2276 9.12538 16.3312 8.73996 16.3481 8.43294L15.3496 8.37802L14.3511 8.32309C14.3528 8.29309 14.3729 8.11638 14.5454 7.95688L15.2243 8.69109ZM15.3496 8.37802L16.3481 8.43294L16.3595 8.22518L15.361 8.17026L14.3625 8.11533L14.3511 8.32309L15.3496 8.37802ZM15.361 8.17026L16.3595 8.22518L16.371 8.01742L15.3725 7.96249L14.374 7.90757L14.3625 8.11533L15.361 8.17026ZM15.3725 7.96249L16.371 8.01742C16.365 8.12567 16.3181 8.37208 16.0851 8.57014C15.8669 8.75565 15.6434 8.76239 15.5814 8.76066L15.6094 7.76105L15.6374 6.76144C15.4251 6.7555 15.0869 6.79371 14.7897 7.04636C14.4777 7.31157 14.3875 7.66081 14.374 7.90757L15.3725 7.96249ZM15.6094 7.76105L15.5814 8.76066L15.807 8.76697L15.835 7.76736L15.8629 6.76775L15.6374 6.76144L15.6094 7.76105ZM15.835 7.76736L15.807 8.76697L16.0325 8.77328L16.0605 7.77367L16.0885 6.77406L15.8629 6.76775L15.835 7.76736ZM16.0605 7.77367L16.0325 8.77328C16.2359 8.77897 16.5454 8.74563 16.8314 8.53378C17.1399 8.30529 17.2673 7.985 17.3032 7.72241L16.3124 7.58713L15.3216 7.45184C15.3398 7.31782 15.4165 7.09291 15.641 6.9266C15.8431 6.77694 16.0354 6.77258 16.0885 6.77406L16.0605 7.77367ZM16.3124 7.58713L17.3032 7.72241L17.3295 7.52955L16.3387 7.39427L15.3479 7.25898L15.3216 7.45184L16.3124 7.58713ZM16.3387 7.39427L17.3295 7.52955L17.3558 7.33669L16.365 7.20141L15.3742 7.06613L15.3479 7.25898L16.3387 7.39427ZM16.365 7.20141L17.3558 7.33669C17.3818 7.14659 17.3902 6.95213 17.3848 6.75583L16.3852 6.7832L15.3856 6.81056C15.3884 6.91474 15.3834 6.99909 15.3742 7.06613L16.365 7.20141ZM16.3852 6.7832L17.3848 6.75583L17.3786 6.53047L16.379 6.55784L15.3794 6.58521L15.3856 6.81056L16.3852 6.7832ZM16.379 6.55784L17.3786 6.53047L17.3725 6.30512L16.3728 6.33249L15.3732 6.35985L15.3794 6.58521L16.379 6.55784ZM16.3728 6.33249L17.3725 6.30512C17.3757 6.42437 17.3371 6.80435 16.9543 7.03506C16.8002 7.12796 16.6577 7.1496 16.577 7.15386C16.4972 7.15806 16.4454 7.14726 16.435 7.14503L16.6464 6.16762L16.8578 5.19021C16.6944 5.15489 16.3038 5.092 15.922 5.32212C15.448 5.60779 15.3658 6.09037 15.3732 6.35985L16.3728 6.33249ZM16.6464 6.16762L16.435 7.14503L16.7147 7.20552L16.9261 6.22811L17.1375 5.2507L16.8578 5.19021L16.6464 6.16762ZM16.9261 6.22811L16.7147 7.20552L16.9945 7.266L17.2058 6.28859L17.4172 5.31119L17.1375 5.2507L16.9261 6.22811ZM17.2058 6.28859L16.9945 7.266C17.152 7.30007 17.3719 7.32981 17.6111 7.28737C17.8747 7.24061 18.1887 7.09738 18.4011 6.77837L17.5687 6.22423L16.7362 5.67008C16.8932 5.43431 17.1191 5.34343 17.2617 5.31812C17.38 5.29714 17.4461 5.31745 17.4172 5.31119L17.2058 6.28859ZM17.5687 6.22423L18.4011 6.77837L18.4842 6.65352L17.6518 6.09937L16.8194 5.54522L16.7362 5.67008L17.5687 6.22423ZM17.6518 6.09937L18.4842 6.65352L18.5673 6.52866L17.7349 5.97451L16.9025 5.42036L16.8194 5.54522L17.6518 6.09937ZM17.7349 5.97451L18.5673 6.52866C18.6197 6.45001 18.7124 6.29902 18.7594 6.1008C18.8098 5.88833 18.8354 5.45279 18.4818 5.09925L17.7748 5.80641L17.0677 6.51357C16.7429 6.18886 16.7763 5.79575 16.8134 5.63932C16.8323 5.55985 16.8577 5.50315 16.8717 5.4748C16.8867 5.44448 16.8989 5.42577 16.9025 5.42036L17.7349 5.97451ZM17.7748 5.80641L18.4818 5.09925L18.4386 5.056L17.7315 5.76316L17.0245 6.47032L17.0677 6.51357L17.7748 5.80641ZM17.7315 5.76316L18.4386 5.056L18.3953 5.01275L17.6883 5.71991L16.9812 6.42707L17.0245 6.47032L17.7315 5.76316ZM17.6883 5.71991L18.3953 5.01275C18.5484 5.16584 18.6383 5.35945 18.6656 5.55493C18.6905 5.73265 18.659 5.87404 18.6347 5.95257C18.6097 6.03328 18.5793 6.08937 18.5638 6.11582C18.547 6.14455 18.534 6.1616 18.531 6.16553L17.7395 5.55428L16.9481 4.94303C16.8915 5.01624 16.7855 5.16296 16.7242 5.36119C16.6577 5.57587 16.6001 6.04607 16.9812 6.42707L17.6883 5.71991ZM17.7395 5.55428L18.531 6.16553L18.6255 6.04314L17.834 5.43189L17.0426 4.82064L16.9481 4.94303L17.7395 5.55428Z" fill="var(--stroke-0, #555D6D)"/>
<path id="Vector_2" d="M13.2071 3.45956C12.8166 3.06904 12.1834 3.06904 11.7929 3.45956C11.4024 3.85008 11.4024 4.48325 11.7929 4.87377L12.5 4.16667L13.2071 3.45956ZM12.5707 4.23738L13.2806 3.53304L13.2778 3.53027L12.5707 4.23738ZM13.1469 5.49261L12.4325 6.19236L13.1469 5.49261ZM13.7272 5.78907L13.8661 6.77939L13.7272 5.78907ZM14.2371 5.71759L14.3759 6.70791L14.2371 5.71759ZM14.9368 5.89472L15.3685 4.99271L14.9368 5.89472ZM15.0791 6.19081L14.0795 6.16447L15.0791 6.19081ZM15.0673 6.64108L16.0669 6.66741L15.0673 6.64108ZM15.2348 6.91196L14.9798 7.87889L15.2348 6.91196ZM15.5817 7.00346L15.8367 6.03653L15.5817 7.00346ZM15.8439 7.09272L15.4037 7.9906L15.8439 7.09272ZM16.0214 7.17973L16.4616 6.28184L16.0214 7.17973ZM15.9717 7.36162L16.2796 8.31303L16.5086 8.23892L16.6788 8.06872L15.9717 7.36162ZM15.7626 7.42929L15.4547 6.47788L13.9001 6.981L15.0555 8.1364L15.7626 7.42929ZM15.1262 8.20711C15.5168 8.59763 16.1499 8.59763 16.5404 8.20711C16.931 7.81658 16.931 7.18342 16.5404 6.79289L15.8333 7.5L15.1262 8.20711ZM12.5 4.16667L11.7929 4.87377L11.8636 4.94448L12.5707 4.23738L13.2778 3.53027L13.2071 3.45956L12.5 4.16667ZM12.5707 4.23738L11.8608 4.9417L12.044 5.12627L12.7538 4.42195L13.4637 3.71762L13.2806 3.53305L12.5707 4.23738ZM12.7538 4.42195L12.044 5.12627C12.0625 5.14492 11.9904 5.08003 11.9708 4.9301L12.9623 4.80035L13.9539 4.67061C13.9004 4.26223 13.6894 3.94507 13.4637 3.71762L12.7538 4.42195ZM12.9623 4.80035L11.9708 4.9301L11.9961 5.12394L12.9877 4.99419L13.9792 4.86445L13.9539 4.67061L12.9623 4.80035ZM12.9877 4.99419L11.9961 5.12394L12.0215 5.31778L13.0131 5.18803L14.0046 5.05829L13.9792 4.86445L12.9877 4.99419ZM13.0131 5.18803L12.0215 5.31778C12.0591 5.60518 12.1727 5.92712 12.4325 6.19236L13.1469 5.49261L13.8613 4.79285C13.9765 4.91044 14.0008 5.02934 14.0046 5.05829L13.0131 5.18803ZM13.1469 5.49261L12.4325 6.19236L12.541 6.3031L13.2554 5.60334L13.9697 4.90359L13.8613 4.79285L13.1469 5.49261ZM13.2554 5.60334L12.541 6.3031L12.6494 6.41383L13.3638 5.71408L14.0782 5.01432L13.9697 4.90359L13.2554 5.60334ZM13.3638 5.71408L12.6494 6.41383C13.0578 6.83077 13.5885 6.81831 13.8661 6.77939L13.7272 5.78907L13.5884 4.79876C13.5762 4.80047 13.6252 4.79112 13.711 4.80883C13.8062 4.82848 13.9497 4.88316 14.0782 5.01432L13.3638 5.71408ZM13.7272 5.78907L13.8661 6.77939L14.121 6.74365L13.9822 5.75333L13.8433 4.76302L13.5884 4.79876L13.7272 5.78907ZM13.9822 5.75333L14.121 6.74365L14.3759 6.70791L14.2371 5.71759L14.0983 4.72728L13.8433 4.76302L13.9822 5.75333ZM14.2371 5.71759L14.3759 6.70791C14.4053 6.7038 14.4035 6.70693 14.3784 6.70474C14.3527 6.70249 14.2893 6.69345 14.2086 6.65482L14.6403 5.75281L15.072 4.8508C14.7216 4.68309 14.3613 4.6904 14.0983 4.72728L14.2371 5.71759ZM14.6403 5.75281L14.2086 6.65482L14.3568 6.72577L14.7886 5.82376L15.2203 4.92176L15.072 4.8508L14.6403 5.75281ZM14.7886 5.82376L14.3568 6.72577L14.5051 6.79673L14.9368 5.89472L15.3685 4.99271L15.2203 4.92176L14.7886 5.82376ZM14.9368 5.89472L14.5051 6.79673C14.3493 6.72217 14.2202 6.59337 14.1452 6.43743C14.0794 6.3005 14.0787 6.19235 14.0795 6.16447L15.0791 6.19081L16.0788 6.21714C16.0886 5.84529 15.9565 5.27411 15.3685 4.99271L14.9368 5.89472ZM15.0791 6.19081L14.0795 6.16447L14.0735 6.38961L15.0732 6.41594L16.0728 6.44228L16.0788 6.21714L15.0791 6.19081ZM15.0732 6.41594L14.0735 6.38961L14.0676 6.61474L15.0673 6.64108L16.0669 6.66741L16.0728 6.44228L15.0732 6.41594ZM15.0673 6.64108L14.0676 6.61474C14.0625 6.80724 14.0911 7.0812 14.2557 7.34734C14.4357 7.63839 14.7082 7.80727 14.9798 7.87889L15.2348 6.91196L15.4898 5.94503C15.6457 5.98615 15.8325 6.09464 15.9567 6.29539C16.0654 6.47124 16.068 6.62501 16.0669 6.66741L15.0673 6.64108ZM15.2348 6.91196L14.9798 7.87889L15.1532 7.92464L15.4082 6.95771L15.6633 5.99078L15.4898 5.94503L15.2348 6.91196ZM15.4082 6.95771L15.1532 7.92464L15.3267 7.97039L15.5817 7.00346L15.8367 6.03653L15.6633 5.99078L15.4082 6.95771ZM15.5817 7.00346L15.3267 7.97039C15.368 7.98131 15.3955 7.98979 15.4117 7.9953C15.4195 7.99795 15.4227 7.99925 15.4221 7.999C15.4217 7.99885 15.415 7.99618 15.4037 7.9906L15.8439 7.09272L16.2841 6.19483C16.1361 6.12225 15.9736 6.07262 15.8367 6.03653L15.5817 7.00346ZM15.8439 7.09272L15.4037 7.9906L15.4924 8.03411L15.9326 7.13622L16.3728 6.23833L16.2841 6.19483L15.8439 7.09272ZM15.9326 7.13622L15.4924 8.03411L15.5811 8.07762L16.0214 7.17973L16.4616 6.28184L16.3728 6.23833L15.9326 7.13622ZM16.0214 7.17973L15.5811 8.07762C15.5284 8.05175 15.1667 7.86988 15.0853 7.40055C15.0029 6.92536 15.2887 6.63038 15.3338 6.58532L16.0409 7.29243L16.748 7.99953C16.8392 7.90835 17.1448 7.57152 17.0559 7.05876C16.968 6.55186 16.5735 6.33671 16.4616 6.28184L16.0214 7.17973ZM16.0409 7.29243L15.3338 6.58532L15.2646 6.65451L15.9717 7.36162L16.6788 8.06872L16.748 7.99953L16.0409 7.29243ZM15.9717 7.36162L15.6638 6.4102L15.4547 6.47788L15.7626 7.42929L16.0705 8.3807L16.2796 8.31303L15.9717 7.36162ZM15.7626 7.42929L15.0555 8.1364L15.1262 8.20711L15.8333 7.5L16.5404 6.79289L16.4697 6.72218L15.7626 7.42929Z" fill="var(--stroke-0, #555D6D)"/>
</g>
<defs>
<clipPath id="clip0_0_32">
<rect width="20" height="20" fill="white"/>
</clipPath>
</defs>
</svg>
