<svg preserveAspectRatio="none" width="100%" height="100%" overflow="visible" style="display: block;" viewBox="0 0 12 14.9998" fill="none" xmlns="http://www.w3.org/2000/svg">
<g id="Frame 2085667280">
<path id="Vector" d="M10.9867 6.36732L11.5754 6.4834L10.9867 6.36732ZM10.9413 6.50046L10.4023 6.23689L10.9413 6.50046ZM10.902 6.63228L11.4984 6.69748L10.902 6.63228ZM10.9583 6.7742L11.4178 6.38844L10.9583 6.7742ZM11.0082 6.91738L10.4201 6.79842L11.0082 6.91738ZM10.9418 7.18383L10.5338 6.74396L10.9418 7.18383ZM10.7238 7.68922L11.3204 7.75251L10.7238 7.68922ZM10.679 7.95988L10.1536 7.67016L10.679 7.95988ZM10.5721 8.20938L10.8279 8.75213L10.5721 8.20938ZM10.4802 8.31831L9.88481 8.24393L10.4802 8.31831ZM10.4107 8.58474L9.81931 8.68627L10.4107 8.58474ZM10.3423 8.70142L10.1095 8.14842L10.3423 8.70142ZM10.0863 9.18049L9.92898 8.6015V8.6015L10.0863 9.18049ZM9.95595 9.41979L10.4333 9.78329L9.95595 9.41979ZM9.84301 9.5089L10.1053 10.0485L9.84301 9.5089ZM9.81054 9.65038L9.24717 9.85683L9.81054 9.65038ZM9.73591 9.76275L9.76574 10.362L9.73591 9.76275ZM9.60191 9.83653L9.02684 9.66538L9.60191 9.83653ZM9.52698 9.94888L9.1495 9.4825L9.52698 9.94888ZM9.50652 10.1016L10.0788 9.92119L9.50652 10.1016ZM9.43098 10.2138L9.4104 9.61414V9.61414L9.43098 10.2138ZM9.2761 10.2681L8.8287 9.86829L9.2761 10.2681ZM9.22692 10.5732L8.65783 10.3831L9.22692 10.5732ZM9.16112 10.6954L8.6929 10.3202L9.16112 10.6954ZM8.90594 10.8396L8.31956 10.7125L8.90594 10.8396ZM8.85512 10.9744L9.37474 11.2743L8.85512 10.9744ZM8.60183 11.2958L8.95162 11.7833L8.60183 11.2958ZM8.49795 11.3859L8.06377 10.9718L8.49795 11.3859ZM8.25786 11.535L7.70886 11.2929L8.25786 11.535ZM8.19772 11.6646L7.65853 11.4013L8.19772 11.6646ZM8.11183 11.7705L7.74519 11.2955L8.11183 11.7705ZM8.04198 11.8925L8.6316 12.0036L8.04198 11.8925ZM7.6747 12.1027L8.14694 12.4728L7.6747 12.1027ZM7.50742 12.3196L7.44672 11.7227L7.50742 12.3196ZM7.38129 12.5825L6.84091 12.3217L7.38129 12.5825ZM7.03843 12.814L6.49406 12.5616L7.03843 12.814ZM6.9551 12.9251L7.34014 13.3852L6.9551 12.9251ZM6.81096 12.9667L6.82338 12.3668V12.3668L6.81096 12.9667ZM6.52312 13.2584L6.90057 13.7248L6.52312 13.2584ZM6.40451 13.3237L6.59975 13.891L6.40451 13.3237ZM6.30077 13.4182L5.76967 13.139L6.30077 13.4182ZM6.1931 13.5078L6.04595 12.9261L6.1931 13.5078ZM6.05317 13.4796L5.72478 13.9818L6.05317 13.4796ZM5.59901 13.2648L5.31109 13.7912L5.59901 13.2648ZM5.28455 13.0084L4.75738 13.2949L5.28455 13.0084ZM5.18408 12.9158L4.94245 13.465L5.18408 12.9158ZM5.08048 12.8284L4.57632 13.1537L5.08048 12.8284ZM4.98608 12.7313L4.6484 13.2273L4.98608 12.7313ZM4.8294 12.7005L4.78284 12.1023L4.8294 12.7005ZM4.70632 12.6336L4.1331 12.8109L4.70632 12.6336ZM4.61377 12.5323L4.82861 11.9721L4.61377 12.5323ZM4.0493 11.9413L4.36219 11.4293L4.0493 11.9413ZM3.93759 11.86L4.32982 11.4059L3.93759 11.86ZM3.62612 11.4066L3.04098 11.5393L3.62612 11.4066ZM3.5366 11.3042L3.74414 10.7412L3.5366 11.3042ZM3.243 11.0199L3.44223 10.454L3.243 11.0199ZM3.14805 10.9227L3.72346 10.7527L3.14805 10.9227ZM3.05566 10.8222L3.28336 10.2671L3.05566 10.8222ZM2.95682 10.7276L2.40372 10.9602L2.95682 10.7276ZM2.88714 10.6089L2.41647 10.981L2.88714 10.6089ZM2.78246 10.5179L2.47303 11.0319L2.78246 10.5179ZM2.65988 10.44L2.32605 10.9386L2.65988 10.44ZM2.52985 10.1961L2.67229 9.61322L2.52985 10.1961ZM2.38783 9.96288L2.02341 10.4395L2.38783 9.96288ZM2.27245 9.87676L1.91906 10.3617L2.27245 9.87676ZM2.20668 9.75679L2.80413 9.70158L2.20668 9.75679ZM2.08718 9.50962L2.66206 9.68143L2.08718 9.50962ZM2.09253 9.3463L1.53134 9.55857L2.09253 9.3463ZM1.89595 9.14869L2.46039 9.35219L1.89595 9.14869ZM1.80007 8.89134L2.36528 8.68998L1.80007 8.89134ZM1.71799 8.78124L1.35093 9.25587L1.71799 8.78124ZM1.63499 8.67147L2.1973 8.46216L1.63499 8.67147ZM1.46831 8.44818L1.12615 8.94106L1.46831 8.44818ZM1.38713 8.1862L0.814618 8.36574L1.38713 8.1862ZM1.2025 7.81669L0.635683 8.01347L1.2025 7.81669ZM1.19146 7.67669L0.598305 7.58632L1.19146 7.67669ZM1.08104 7.28085L1.64027 7.06347L1.08104 7.28085ZM0.996393 6.7397L0.500899 7.07806L0.996393 6.7397ZM1.05153 6.06033L1.61825 5.86329L1.05153 6.06033ZM0.98061 5.91904L0.47705 6.24527L0.98061 5.91904ZM1.09241 5.65963L1.56161 6.03359L1.09241 5.65963ZM1.0916 5.52141L0.586591 5.8454L1.0916 5.52141ZM1.07352 5.23981L0.511167 5.44899L1.07352 5.23981ZM1.06728 5.0968L0.499591 4.90256L1.06728 5.0968ZM1.29409 4.73603L1.84117 4.48965L1.29409 4.73603ZM1.28993 4.59006L0.769837 4.29089L1.28993 4.59006ZM1.33703 4.46079L0.746671 4.35367L1.33703 4.46079ZM1.64264 4.00512L1.12954 3.6941L1.64264 4.00512ZM1.73675 3.90469L1.38575 3.41808L1.73675 3.90469ZM1.89282 3.6855L2.44809 3.91282L1.89282 3.6855ZM1.95056 3.56179L1.41979 3.282L1.95056 3.56179ZM1.98595 3.41797L1.38652 3.39191L1.98595 3.41797ZM2.03833 3.28544L2.46343 3.70887L2.03833 3.28544ZM2.14779 3.19872L1.83081 2.68929L2.14779 3.19872ZM2.33234 2.99716L2.14086 2.42853L2.33234 2.99716ZM2.457 2.92864L2.06884 2.47111L2.457 2.92864ZM3.07138 2.39149L3.52422 2.78511L3.07138 2.39149ZM3.20186 2.34362L3.16443 2.94245L3.20186 2.34362ZM3.32446 2.28209L3.84499 2.58049L3.32446 2.28209ZM3.41179 2.16353L3.84736 2.57618L3.41179 2.16353ZM3.67681 2.08401L3.58684 2.67723L3.67681 2.08401ZM3.9186 1.96255L4.03165 1.3733L3.9186 1.96255ZM4.05805 1.94394L3.75616 1.42542L4.05805 1.94394ZM4.15509 1.81879L4.70784 2.05218L4.15509 1.81879ZM4.27813 1.76252L4.05014 2.31752L4.27813 1.76252ZM4.54722 1.70756L4.68089 1.12264L4.54722 1.70756ZM4.68297 1.68602L4.35617 1.18283V1.18283L4.68297 1.68602ZM4.80165 1.59783L4.41621 1.13802L4.80165 1.59783ZM5.21872 1.61084L5.25989 2.20943L5.21872 1.61084ZM5.61913 1.54498L5.25359 1.06919L5.61913 1.54498ZM5.88938 1.55152L5.64174 1.00501L5.88938 1.55152ZM6.16079 1.50362L5.75132 1.06507L6.16079 1.50362ZM6.56896 1.50531L6.97697 1.0654L6.56896 1.50531ZM6.97261 1.57334L6.45718 1.88048L6.97261 1.57334ZM7.22996 1.67496L7.16669 1.0783L7.22996 1.67496ZM7.35665 1.72142L6.93682 2.15008L7.35665 1.72142ZM8.49566 2.14957L8.47336 1.54999L8.49566 2.14957ZM8.61643 2.21008L8.11435 2.53859L8.61643 2.21008ZM8.70167 2.33033L8.22626 2.69637L8.70167 2.33033ZM8.82432 2.3902L8.84777 1.79066L8.82432 2.3902ZM8.9342 2.46636L8.38174 2.70044L8.9342 2.46636ZM9.05637 2.5304L9.1155 3.12748L9.05637 2.5304ZM9.28534 2.6767L9.76672 2.31855L9.28534 2.6767ZM9.40812 2.74455L9.3223 3.33838L9.40812 2.74455ZM9.5336 2.80967L9.99471 2.42578L9.5336 2.80967ZM9.77695 3.14695L9.31531 3.53022L9.77695 3.14695ZM9.89652 3.22461L10.0855 2.65514L9.89652 3.22461ZM9.94559 3.359L9.36311 3.21508L9.94559 3.359ZM9.95867 3.52145L9.47907 3.88198L9.95867 3.52145ZM10.3247 3.762L9.80647 4.06442L10.3247 3.762ZM10.3874 3.88512L10.9367 3.64391L10.3874 3.88512ZM10.4462 4.00997L9.91057 4.28033L10.4462 4.00997ZM10.5183 4.28011L9.98393 4.55302L10.5183 4.28011ZM10.6168 4.38506L10.9469 3.88403L10.6168 4.38506ZM10.6619 4.51295L11.2412 4.66943L10.6619 4.51295ZM10.635 4.66976L11.2339 4.70581L10.635 4.66976ZM10.853 4.88214L10.253 4.88268L10.853 4.88214ZM10.8685 5.30191L11.3676 5.63487L10.8685 5.30191ZM11.0129 5.9696L11.4237 5.53225L11.0129 5.9696ZM11.0148 6.10442L11.4546 6.51249L11.0148 6.10442ZM10.9867 6.36732L10.398 6.25125C10.3989 6.24687 10.3999 6.24331 10.4008 6.24069C10.4017 6.23809 10.4023 6.23681 10.4023 6.23689L10.9413 6.50046L11.4803 6.76404C11.5232 6.67637 11.5558 6.58258 11.5754 6.4834L10.9867 6.36732ZM10.9413 6.50046L10.4023 6.23689C10.3534 6.3369 10.3186 6.44761 10.3055 6.56709L10.902 6.63228L11.4984 6.69748C11.495 6.72871 11.4864 6.75155 11.4803 6.76404L10.9413 6.50046ZM10.902 6.63228L10.3055 6.56709C10.2758 6.83876 10.4021 7.04487 10.4987 7.15996L10.9583 6.7742L11.4178 6.38844C11.4297 6.40254 11.5184 6.51404 11.4984 6.69748L10.902 6.63228ZM10.9583 6.7742L10.4987 7.15996C10.4772 7.13433 10.3792 7.0007 10.4201 6.79842L11.0082 6.91738L11.5963 7.03634C11.6554 6.74413 11.5241 6.51505 11.4178 6.38844L10.9583 6.7742ZM11.0082 6.91738L10.4201 6.79842C10.4003 6.89642 10.3941 6.99511 10.4001 7.09298L10.999 7.05576L11.5978 7.01855C11.598 7.02183 11.5979 7.02826 11.5963 7.03634L11.0082 6.91738ZM10.999 7.05576L10.4001 7.09298C10.3957 7.02132 10.4085 6.94701 10.439 6.87867C10.4683 6.81307 10.5065 6.76926 10.5338 6.74396L10.9418 7.18383L11.3499 7.62369C11.4962 7.48796 11.614 7.27882 11.5978 7.01855L10.999 7.05576ZM10.9418 7.18383L10.5338 6.74396C10.4264 6.8436 10.3246 6.98399 10.2808 7.1684L10.8646 7.30702L11.4483 7.44563C11.4255 7.54196 11.3752 7.60023 11.3499 7.62369L10.9418 7.18383ZM10.8646 7.30702L10.2808 7.1684C10.2948 7.10936 10.3221 7.06515 10.3456 7.0379L10.7999 7.42987L11.2541 7.82183C11.343 7.71888 11.4134 7.59276 11.4483 7.44563L10.8646 7.30702ZM10.7999 7.42987L10.3456 7.0379C10.2468 7.15241 10.1724 7.29686 10.1474 7.46586L10.741 7.55371L11.3345 7.64156C11.3227 7.72114 11.2876 7.78303 11.2541 7.82183L10.7999 7.42987ZM10.741 7.55371L10.1474 7.46586C10.1396 7.51886 10.1328 7.57222 10.1271 7.62594L10.7238 7.68922L11.3204 7.75251C11.3244 7.71496 11.3291 7.67798 11.3345 7.64156L10.741 7.55371ZM10.7238 7.68922L10.1271 7.62594C10.1206 7.68711 10.1165 7.74873 10.1147 7.81072L10.7144 7.82862L11.3141 7.84653C11.3151 7.81392 11.3172 7.78261 11.3204 7.75251L10.7238 7.68922ZM10.7144 7.82862L10.1147 7.81072C10.116 7.76582 10.1283 7.71598 10.1536 7.67016L10.679 7.95988L11.2044 8.2496C11.274 8.12337 11.31 7.98603 11.3141 7.84653L10.7144 7.82862ZM10.679 7.95988L10.1536 7.67016C10.0712 7.81961 10.042 7.98031 10.0518 8.13367L10.6506 8.09517L11.2493 8.05667C11.2528 8.11005 11.2425 8.18056 11.2044 8.2496L10.679 7.95988ZM10.6506 8.09517L10.0518 8.13367C10.0456 8.03659 10.0692 7.92293 10.1388 7.82156C10.2025 7.7287 10.2785 7.68447 10.3164 7.66664L10.5721 8.20938L10.8279 8.75213C10.9213 8.70814 11.0381 8.63179 11.128 8.50086C11.2238 8.36142 11.2588 8.20373 11.2493 8.05667L10.6506 8.09517ZM10.5721 8.20938L10.3164 7.66664C10.1399 7.74981 9.92389 7.93115 9.88481 8.24393L10.4802 8.31831L11.0756 8.39269C11.0638 8.48655 11.0244 8.57408 10.966 8.64329C10.912 8.70721 10.8563 8.73875 10.8279 8.75213L10.5721 8.20938ZM10.4802 8.31831L9.88481 8.24393C9.89002 8.20227 9.90542 8.15756 9.93153 8.11753L10.434 8.44539L10.9365 8.77325C11.0126 8.65671 11.0587 8.52727 11.0756 8.39269L10.4802 8.31831ZM10.434 8.44539L9.93153 8.11753C9.80693 8.30851 9.79008 8.51601 9.81931 8.68627L10.4107 8.58474L11.002 8.48321C11.0068 8.51084 11.0102 8.55433 11.0012 8.60818C10.9919 8.6639 10.9706 8.72098 10.9365 8.77325L10.434 8.44539ZM10.4107 8.58474L9.81931 8.68627C9.80576 8.60729 9.80747 8.48025 9.883 8.35143C9.95544 8.22785 10.056 8.17093 10.1095 8.14842L10.3423 8.70142L10.575 9.25442C10.6835 9.20876 10.8229 9.12082 10.9182 8.95835C11.0165 8.79063 11.0249 8.61683 11.002 8.48321L10.4107 8.58474ZM10.3423 8.70142L10.1095 8.14842C9.99054 8.19848 9.83885 8.29885 9.74745 8.48482C9.65671 8.66946 9.66946 8.84894 9.70004 8.97053L10.2819 8.82418L10.8638 8.67784C10.8796 8.74072 10.895 8.8704 10.8244 9.01412C10.7531 9.15917 10.639 9.2275 10.575 9.25442L10.3423 8.70142ZM10.2819 8.82418L9.70004 8.97053C9.68472 8.90962 9.66799 8.77842 9.74026 8.63235C9.81384 8.48364 9.93231 8.4149 9.99861 8.38829L10.2221 8.94513L10.4455 9.50196C10.5665 9.45342 10.7223 9.35355 10.8158 9.16453C10.908 8.97815 10.8939 8.79743 10.8638 8.67784L10.2819 8.82418ZM10.2221 8.94513L9.99861 8.38829C9.87739 8.43694 9.7261 8.53493 9.63225 8.71674C9.53961 8.89617 9.54668 9.07268 9.57288 9.19369L10.1593 9.06674L10.7457 8.93979C10.7591 9.00165 10.7702 9.12833 10.6985 9.26723C10.6256 9.40849 10.5121 9.47525 10.4455 9.50196L10.2221 8.94513ZM10.1593 9.06674L9.57288 9.19369C9.55757 9.12297 9.54591 8.97107 9.64559 8.81564C9.74156 8.66598 9.87528 8.61609 9.92898 8.6015L10.0863 9.18049L10.2437 9.75949C10.3588 9.72819 10.5354 9.65099 10.6557 9.46342C10.7797 9.27007 10.7738 9.06965 10.7457 8.93979L10.1593 9.06674ZM10.0863 9.18049L9.92898 8.6015C9.82507 8.62974 9.68091 8.69102 9.56331 8.82735C9.43688 8.97391 9.39293 9.14687 9.39587 9.29723L9.99576 9.2855L10.5956 9.27377C10.5975 9.37083 10.5682 9.49963 10.4719 9.61119C10.3845 9.71251 10.2862 9.74794 10.2437 9.75949L10.0863 9.18049ZM9.99576 9.2855L9.39587 9.29723C9.39474 9.23941 9.41064 9.14554 9.4786 9.05629L9.95595 9.41979L10.4333 9.78329C10.5564 9.62161 10.5989 9.43821 10.5956 9.27377L9.99576 9.2855ZM9.95595 9.41979L9.4786 9.05629C9.51666 9.00631 9.55794 8.98034 9.58076 8.96925L9.84301 9.5089L10.1053 10.0485C10.2235 9.99108 10.3401 9.9057 10.4333 9.78329L9.95595 9.41979ZM9.84301 9.5089L9.58076 8.96925C9.41153 9.05149 9.26461 9.20829 9.21431 9.42744C9.17207 9.6115 9.21497 9.76896 9.24717 9.85683L9.81054 9.65038L10.3739 9.44394C10.38 9.46068 10.4153 9.55898 10.3839 9.69588C10.3668 9.7704 10.3317 9.84686 10.2754 9.91456C10.2202 9.9809 10.1578 10.023 10.1053 10.0485L9.84301 9.5089ZM9.81054 9.65038L9.24717 9.85683C9.23904 9.83463 9.16289 9.62381 9.31163 9.39987C9.45999 9.17649 9.68312 9.16463 9.70609 9.16349L9.73591 9.76275L9.76574 10.362C9.86452 10.3571 10.138 10.3246 10.3112 10.0638C10.4848 9.80239 10.4081 9.53728 10.3739 9.44394L9.81054 9.65038ZM9.73591 9.76275L9.70609 9.16349C9.55254 9.17113 9.15293 9.2417 9.02684 9.66538L9.60191 9.83653L10.177 10.0077C10.1351 10.1483 10.0391 10.2523 9.93493 10.3096C9.84809 10.3574 9.77805 10.3614 9.76574 10.362L9.73591 9.76275ZM9.60191 9.83653L9.02684 9.66538C9.04747 9.59603 9.0907 9.53009 9.1495 9.4825L9.52698 9.94888L9.90447 10.4153C10.0361 10.3087 10.1293 10.1678 10.177 10.0077L9.60191 9.83653ZM9.52698 9.94888L9.1495 9.4825C8.81612 9.75234 8.88891 10.1381 8.93427 10.2819L9.50652 10.1016L10.0788 9.92119C10.0823 9.93234 10.1017 9.99559 10.0892 10.0889C10.0744 10.1995 10.0172 10.324 9.90447 10.4153L9.52698 9.94888ZM9.50652 10.1016L8.93427 10.2819C8.92729 10.2598 8.86497 10.0598 9.00699 9.8488C9.15507 9.62881 9.37557 9.61533 9.4104 9.61414L9.43098 10.2138L9.45155 10.8134C9.55953 10.8097 9.8292 10.7763 10.0025 10.5189C10.1697 10.2705 10.1085 10.0156 10.0788 9.92119L9.50652 10.1016ZM9.43098 10.2138L9.4104 9.61414C9.27141 9.61891 9.01927 9.65503 8.8287 9.86829L9.2761 10.2681L9.72349 10.6679C9.6581 10.7411 9.58571 10.778 9.5359 10.7955C9.48881 10.812 9.45651 10.8133 9.45155 10.8134L9.43098 10.2138ZM9.2761 10.2681L8.8287 9.86829C8.6487 10.0697 8.62681 10.3084 8.64348 10.4723L9.2404 10.4116L9.83732 10.3509C9.84138 10.3908 9.84329 10.5338 9.72349 10.6679L9.2761 10.2681ZM9.2404 10.4116L8.64348 10.4723C8.64345 10.472 8.64259 10.4636 8.64383 10.4486C8.6451 10.4335 8.64861 10.4107 8.65783 10.3831L9.22692 10.5732L9.79601 10.7633C9.84489 10.617 9.84983 10.4738 9.83732 10.3509L9.2404 10.4116ZM9.22692 10.5732L8.65783 10.3831C8.66371 10.3655 8.67476 10.3428 8.6929 10.3202L9.16112 10.6954L9.62933 11.0706C9.70463 10.9766 9.75955 10.8725 9.79601 10.7633L9.22692 10.5732ZM9.16112 10.6954L8.6929 10.3202C8.80577 10.1793 8.94526 10.1609 8.9719 10.1587L9.02021 10.7568L9.06852 11.3548C9.22589 11.3421 9.45931 11.2828 9.62933 11.0706L9.16112 10.6954ZM9.02021 10.7568L8.9719 10.1587C8.87092 10.1669 8.72716 10.1966 8.59062 10.2956C8.44127 10.4038 8.35335 10.5566 8.31956 10.7125L8.90594 10.8396L9.49233 10.9667C9.46935 11.0727 9.40589 11.1867 9.29462 11.2673C9.19617 11.3387 9.10414 11.352 9.06852 11.3548L9.02021 10.7568ZM8.90594 10.8396L8.31956 10.7125C8.32051 10.7081 8.32436 10.6937 8.3355 10.6744L8.85512 10.9744L9.37474 11.2743C9.43202 11.1751 9.46974 11.0709 9.49233 10.9667L8.90594 10.8396ZM8.85512 10.9744L8.3355 10.6744C8.3769 10.6027 8.43508 10.5461 8.49896 10.5079C8.5591 10.4719 8.61164 10.4595 8.64033 10.455L8.73213 11.048L8.82393 11.6409C9.00552 11.6128 9.23545 11.5156 9.37474 11.2743L8.85512 10.9744ZM8.73213 11.048L8.64033 10.455C8.50389 10.4762 8.31761 10.5452 8.18389 10.7275C8.0562 10.9016 8.04398 11.0879 8.05288 11.2042L8.65113 11.1584L9.24938 11.1126C9.25335 11.1644 9.25216 11.3 9.15147 11.4373C9.04475 11.5828 8.90143 11.6289 8.82393 11.6409L8.73213 11.048ZM8.65113 11.1584L8.05288 11.2042C8.05092 11.1785 8.0497 11.1167 8.07776 11.0385C8.10864 10.9524 8.16735 10.8691 8.25204 10.8083L8.60183 11.2958L8.95162 11.7833C9.22231 11.5891 9.26339 11.2956 9.24938 11.1126L8.65113 11.1584ZM8.60183 11.2958L8.25204 10.8083C8.18453 10.8568 8.12155 10.9113 8.06377 10.9718L8.49795 11.3859L8.93213 11.8001C8.93725 11.7947 8.94352 11.7891 8.95162 11.7833L8.60183 11.2958ZM8.49795 11.3859L8.06377 10.9718C8.13401 10.8982 8.21025 10.8722 8.24831 10.8644L8.36886 11.4522L8.48941 12.04C8.6367 12.0098 8.799 11.9396 8.93213 11.8001L8.49795 11.3859ZM8.36886 11.4522L8.24831 10.8644C8.03823 10.9075 7.82001 11.0408 7.70886 11.2929L8.25786 11.535L8.80685 11.7771C8.77658 11.8457 8.72682 11.9116 8.65882 11.9623C8.59362 12.0109 8.53073 12.0315 8.48941 12.04L8.36886 11.4522ZM8.25786 11.535L7.70886 11.2929C7.69254 11.3299 7.67576 11.3661 7.65853 11.4013L8.19772 11.6646L8.7369 11.9278C8.76107 11.8783 8.78438 11.828 8.80685 11.7771L8.25786 11.535ZM8.19772 11.6646L7.65853 11.4013C7.6774 11.3627 7.7071 11.3249 7.74519 11.2955L8.11183 11.7705L8.47848 12.2454C8.58968 12.1596 8.67664 12.0512 8.7369 11.9278L8.19772 11.6646ZM8.11183 11.7705L7.74519 11.2955C7.5728 11.4286 7.48468 11.6099 7.45236 11.7814L8.04198 11.8925L8.6316 12.0036C8.62609 12.0329 8.61391 12.0744 8.58766 12.1203C8.56067 12.1674 8.52362 12.2106 8.47848 12.2454L8.11183 11.7705ZM8.04198 11.8925L7.45236 11.7814C7.47558 11.6582 7.55637 11.5085 7.71828 11.4212C7.84926 11.3505 7.96087 11.3613 7.98252 11.3636L7.9168 11.96L7.85108 12.5564C7.94618 12.5669 8.11537 12.5704 8.28807 12.4773C8.49172 12.3674 8.59837 12.1799 8.6316 12.0036L8.04198 11.8925ZM7.9168 11.96L7.98252 11.3636C7.84161 11.3481 7.53844 11.3466 7.31358 11.5994L7.76192 11.9982L8.21026 12.3969C8.13045 12.4867 8.03621 12.5289 7.96646 12.5461C7.90294 12.5617 7.85909 12.5573 7.85108 12.5564L7.9168 11.96ZM7.76192 11.9982L7.31358 11.5994C7.27531 11.6425 7.23828 11.6869 7.20247 11.7326L7.6747 12.1027L8.14694 12.4728C8.16779 12.4462 8.18891 12.4209 8.21026 12.3969L7.76192 11.9982ZM7.6747 12.1027L7.20247 11.7326C7.11465 11.8446 7.06084 11.9682 7.03078 12.0893L7.61311 12.2338L8.19543 12.3784C8.19084 12.3969 8.17809 12.4331 8.14694 12.4728L7.6747 12.1027ZM7.61311 12.2338L7.03078 12.0893C7.05044 12.0101 7.09949 11.9086 7.19914 11.8278C7.29452 11.7504 7.39153 11.7283 7.44672 11.7227L7.50742 12.3196L7.56811 12.9165C7.68104 12.905 7.82452 12.8657 7.95513 12.7597C8.09001 12.6503 8.16305 12.5089 8.19543 12.3784L7.61311 12.2338ZM7.50742 12.3196L7.44672 11.7227C7.30966 11.7366 7.13098 11.7942 6.99093 11.9535C6.85632 12.1066 6.82228 12.2803 6.81749 12.398L7.417 12.4224L8.0165 12.4468C8.01426 12.5018 7.99657 12.6271 7.8921 12.7459C7.78219 12.8709 7.64744 12.9084 7.56811 12.9165L7.50742 12.3196ZM7.417 12.4224L6.81749 12.398C6.81737 12.401 6.81794 12.3694 6.84091 12.3217L7.38129 12.5825L7.92168 12.8432C7.98714 12.7076 8.01152 12.5692 8.0165 12.4468L7.417 12.4224ZM7.38129 12.5825L6.84091 12.3217C6.86092 12.2803 6.89151 12.2359 6.93496 12.1961C6.97837 12.1563 7.02498 12.13 7.06731 12.1139L7.28057 12.6747L7.49383 13.2356C7.68243 13.1638 7.83344 13.0261 7.92168 12.8432L7.38129 12.5825ZM7.28057 12.6747L7.06731 12.1139C7.03151 12.1275 6.99499 12.1403 6.95773 12.1522L7.14073 12.7236L7.32374 13.2951C7.38112 13.2767 7.43782 13.2569 7.49383 13.2356L7.28057 12.6747ZM7.14073 12.7236L6.95773 12.1522C6.75075 12.2185 6.58554 12.3643 6.49406 12.5616L7.03843 12.814L7.5828 13.0663C7.56157 13.1121 7.52744 13.1626 7.47676 13.2074C7.42608 13.2521 7.37173 13.2797 7.32374 13.2951L7.14073 12.7236ZM7.03843 12.814L6.49406 12.5616C6.50663 12.5345 6.53052 12.498 6.57006 12.4649L6.9551 12.9251L7.34014 13.3852C7.44902 13.2941 7.52846 13.1835 7.5828 13.0663L7.03843 12.814ZM6.9551 12.9251L6.57006 12.4649C6.68114 12.372 6.79217 12.3661 6.82338 12.3668L6.81096 12.9667L6.79853 13.5665C6.9526 13.5697 7.15973 13.5362 7.34014 13.3852L6.9551 12.9251ZM6.81096 12.9667L6.82338 12.3668C6.6113 12.3624 6.32309 12.4443 6.16028 12.7339L6.68329 13.0279L7.2063 13.322C7.15929 13.4056 7.08514 13.4775 6.99258 13.522C6.90741 13.5628 6.83449 13.5673 6.79853 13.5665L6.81096 12.9667ZM6.68329 13.0279L6.16028 12.7339C6.13774 12.774 6.11506 12.8138 6.09223 12.8533L6.61176 13.1534L7.13129 13.4536C7.15648 13.41 7.18148 13.3661 7.2063 13.322L6.68329 13.0279ZM6.61176 13.1534L6.09223 12.8533C6.10266 12.8352 6.12009 12.8127 6.14566 12.792L6.52312 13.2584L6.90057 13.7248C6.99633 13.6473 7.07285 13.5547 7.13129 13.4536L6.61176 13.1534ZM6.52312 13.2584L6.14566 12.792C6.16661 12.775 6.18912 12.7633 6.20926 12.7563L6.40451 13.3237L6.59975 13.891C6.70785 13.8538 6.80944 13.7985 6.90057 13.7248L6.52312 13.2584ZM6.40451 13.3237L6.20926 12.7563C5.99724 12.8293 5.85354 12.9795 5.76967 13.139L6.30077 13.4182L6.83186 13.6974C6.817 13.7257 6.79138 13.7642 6.74976 13.8021C6.70696 13.8411 6.6556 13.8718 6.59975 13.891L6.40451 13.3237ZM6.30077 13.4182L5.76967 13.139C5.788 13.1042 5.81975 13.0581 5.87133 13.0152C5.92432 12.9711 5.98509 12.9415 6.04595 12.9261L6.1931 13.5078L6.34026 14.0894C6.57373 14.0304 6.73852 13.875 6.83186 13.6974L6.30077 13.4182ZM6.1931 13.5078L6.04595 12.9261C6.10859 12.9102 6.17595 12.9082 6.24139 12.9213C6.30472 12.9341 6.35183 12.958 6.38156 12.9775L6.05317 13.4796L5.72478 13.9818C5.88715 14.088 6.10439 14.1491 6.34026 14.0894L6.1931 13.5078ZM6.05317 13.4796L6.38156 12.9775C6.28046 12.9114 6.14907 12.8593 5.99477 12.8561C5.84088 12.853 5.7084 12.8993 5.60601 12.9596L5.91028 13.4767L6.21455 13.9938C6.16073 14.0255 6.07635 14.0581 5.97009 14.0559C5.86342 14.0537 5.77919 14.0174 5.72478 13.9818L6.05317 13.4796ZM5.91028 13.4767L5.60601 12.9596C5.65011 12.9336 5.73772 12.8942 5.85766 12.8975C5.98534 12.9009 6.08925 12.9511 6.1586 13.0074L5.78031 13.4732L5.40202 13.9389C5.50945 14.0261 5.65406 14.0924 5.82507 14.097C5.98833 14.1015 6.12188 14.0483 6.21455 13.9938L5.91028 13.4767ZM5.78031 13.4732L6.1586 13.0074C6.18594 13.0297 6.2118 13.0607 6.23 13.0977L5.69156 13.3624L5.15313 13.6272C5.21349 13.75 5.29852 13.8548 5.40202 13.9389L5.78031 13.4732ZM5.69156 13.3624L6.23 13.0977C6.15622 12.9477 6.03966 12.8219 5.88692 12.7384L5.59901 13.2648L5.31109 13.7912C5.2396 13.7521 5.18474 13.6915 5.15313 13.6272L5.69156 13.3624ZM5.59901 13.2648L5.88692 12.7384C5.80959 12.6961 5.72913 12.6626 5.64676 12.6368L5.46786 13.2095L5.28895 13.7823C5.30021 13.7858 5.30718 13.7891 5.31109 13.7912L5.59901 13.2648ZM5.46786 13.2095L5.64676 12.6368C5.68047 12.6474 5.71955 12.6652 5.75861 12.6936C5.798 12.7223 5.83023 12.7566 5.85471 12.7927L5.35838 13.1298L4.86205 13.4669C4.96861 13.6238 5.12012 13.7295 5.28895 13.7823L5.46786 13.2095ZM5.35838 13.1298L5.85471 12.7927C5.84004 12.7711 5.82566 12.7475 5.81171 12.7219L5.28455 13.0084L4.75738 13.2949C4.78953 13.3541 4.82438 13.4115 4.86205 13.4669L5.35838 13.1298ZM5.28455 13.0084L5.81171 12.7219C5.7256 12.5634 5.59204 12.4398 5.4257 12.3666L5.18408 12.9158L4.94245 13.465C4.9071 13.4494 4.86998 13.4264 4.83549 13.3946C4.80103 13.3628 4.77538 13.328 4.75738 13.2949L5.28455 13.0084ZM5.18408 12.9158L5.4257 12.3666C5.48533 12.3928 5.54376 12.4397 5.58464 12.5031L5.08048 12.8284L4.57632 13.1537C4.66748 13.2949 4.79496 13.4001 4.94245 13.465L5.18408 12.9158ZM5.08048 12.8284L5.58464 12.5031C5.51661 12.3976 5.42886 12.3069 5.32376 12.2354L4.98608 12.7313L4.6484 13.2273C4.61889 13.2072 4.59407 13.1812 4.57632 13.1537L5.08048 12.8284ZM4.98608 12.7313L5.32376 12.2354C5.13144 12.1044 4.92464 12.0913 4.78284 12.1023L4.8294 12.7005L4.87595 13.2987C4.86748 13.2994 4.76514 13.3068 4.6484 13.2273L4.98608 12.7313ZM4.8294 12.7005L4.78284 12.1023C4.81749 12.0996 4.91869 12.0972 5.03506 12.1605C5.16858 12.233 5.2468 12.3505 5.27954 12.4564L4.70632 12.6336L4.1331 12.8109C4.18122 12.9665 4.28765 13.1201 4.46219 13.2149C4.61959 13.3004 4.77464 13.3066 4.87595 13.2987L4.8294 12.7005ZM4.70632 12.6336L5.27954 12.4564C5.21293 12.241 5.05658 12.0596 4.82861 11.9721L4.61377 12.5323L4.39893 13.0926C4.34249 13.0709 4.28138 13.0334 4.22869 12.9757C4.17667 12.9188 4.14789 12.8587 4.1331 12.8109L4.70632 12.6336ZM4.61377 12.5323L4.82861 11.9721C4.83145 11.9732 4.84217 11.9778 4.85633 11.9887L4.49041 12.4642L4.12448 12.9397C4.21051 13.0059 4.30347 13.056 4.39893 13.0926L4.61377 12.5323ZM4.49041 12.4642L4.85633 11.9887C4.87639 12.0042 4.89166 12.0218 4.90187 12.0375L4.39822 12.3636L3.89457 12.6897C3.95583 12.7843 4.03255 12.869 4.12448 12.9397L4.49041 12.4642ZM4.39822 12.3636L4.90187 12.0375C4.8902 12.0195 4.87919 12 4.86895 11.9788L4.32864 12.2397L3.78833 12.5006C3.81981 12.5658 3.85519 12.6289 3.89457 12.6897L4.39822 12.3636ZM4.32864 12.2397L4.86895 11.9788C4.85456 11.949 4.84075 11.9175 4.8276 11.8844L4.26992 12.1057L3.71223 12.3271C3.73566 12.3861 3.761 12.444 3.78833 12.5006L4.32864 12.2397ZM4.26992 12.1057L4.8276 11.8844C4.75266 11.6956 4.61003 11.5429 4.41777 11.4582L4.17595 12.0073L3.93412 12.5564C3.88902 12.5366 3.84129 12.5055 3.79874 12.4609C3.75638 12.4165 3.72888 12.369 3.71223 12.3271L4.26992 12.1057ZM4.17595 12.0073L4.41777 11.4582C4.39712 11.4491 4.37871 11.4394 4.36219 11.4293L4.0493 11.9413L3.73642 12.4532C3.80004 12.4921 3.86606 12.5265 3.93412 12.5564L4.17595 12.0073ZM4.0493 11.9413L4.36219 11.4293C4.34919 11.4214 4.33861 11.4135 4.32982 11.4059L3.93759 11.86L3.54536 12.314C3.60538 12.3659 3.66928 12.4122 3.73642 12.4532L4.0493 11.9413ZM3.93759 11.86L4.32982 11.4059C4.27585 11.3593 4.21906 11.3163 4.15977 11.2769L3.82752 11.7765L3.49527 12.2761C3.51392 12.2885 3.53052 12.3012 3.54536 12.314L3.93759 11.86ZM3.82752 11.7765L4.15977 11.2769C4.20569 11.3074 4.24697 11.3481 4.27913 11.3965C4.31063 11.444 4.32702 11.4893 4.33517 11.524L3.75112 11.6614L3.16707 11.7988C3.20955 11.9794 3.31435 12.1558 3.49527 12.2761L3.82752 11.7765ZM3.75112 11.6614L4.33517 11.524C4.30411 11.3919 4.24331 11.257 4.13994 11.1388L3.68824 11.5337L3.23653 11.9286C3.19309 11.879 3.17422 11.8292 3.16707 11.7988L3.75112 11.6614ZM3.68824 11.5337L4.13994 11.1388C4.18405 11.1893 4.20373 11.2407 4.21126 11.2739L3.62612 11.4066L3.04098 11.5393C3.0714 11.6734 3.13249 11.8096 3.23653 11.9286L3.68824 11.5337ZM3.62612 11.4066L4.21126 11.2739C4.15526 11.027 3.98454 10.8299 3.74414 10.7412L3.5366 11.3042L3.32905 11.8672C3.27179 11.8461 3.203 11.8062 3.14345 11.7381C3.08403 11.6701 3.05413 11.5973 3.04098 11.5393L3.62612 11.4066ZM3.5366 11.3042L3.74414 10.7412C3.79712 10.7608 3.86197 10.7974 3.91976 10.8604C3.9779 10.9238 4.01005 10.9934 4.02548 11.0523L3.44508 11.2044L2.86468 11.3565C2.92834 11.5994 3.10127 11.7832 3.32905 11.8672L3.5366 11.3042ZM3.44508 11.2044L4.02548 11.0523C3.98269 10.889 3.89059 10.7331 3.74128 10.6162L3.37142 11.0886L3.00156 11.5611C2.96652 11.5336 2.93547 11.4997 2.91084 11.4609C2.88654 11.4227 2.87247 11.3862 2.86468 11.3565L3.44508 11.2044ZM3.37142 11.0886L3.74128 10.6162C3.64723 10.5425 3.54506 10.4902 3.44223 10.454L3.243 11.0199L3.04378 11.5859C3.03951 11.5844 3.02294 11.5778 3.00156 11.5611L3.37142 11.0886ZM3.243 11.0199L3.44223 10.454C3.49117 10.4712 3.55378 10.5042 3.61154 10.5634C3.6702 10.6234 3.7054 10.6916 3.72346 10.7527L3.14805 10.9227L2.57263 11.0927C2.64469 11.3366 2.82467 11.5088 3.04378 11.5859L3.243 11.0199ZM3.14805 10.9227L3.72346 10.7527C3.65563 10.5231 3.49165 10.3526 3.28336 10.2671L3.05566 10.8222L2.82795 11.3773C2.78098 11.3581 2.72423 11.3241 2.67278 11.2681C2.62083 11.2116 2.58927 11.149 2.57263 11.0927L3.14805 10.9227ZM3.05566 10.8222L3.28336 10.2671C3.32025 10.2823 3.36596 10.3082 3.4102 10.3505C3.4552 10.3936 3.48843 10.444 3.50992 10.4951L2.95682 10.7276L2.40372 10.9602C2.48927 11.1636 2.64774 11.3034 2.82795 11.3773L3.05566 10.8222ZM2.95682 10.7276L3.50992 10.4951C3.47145 10.4036 3.421 10.3167 3.35782 10.2368L2.88714 10.6089L2.41647 10.981C2.40955 10.9722 2.40555 10.9645 2.40372 10.9602L2.95682 10.7276ZM2.88714 10.6089L3.35782 10.2368C3.28179 10.1406 3.19093 10.0635 3.0919 10.0038L2.78246 10.5179L2.47303 11.0319C2.45731 11.0225 2.43624 11.006 2.41647 10.981L2.88714 10.6089ZM2.78246 10.5179L3.0919 10.0038C3.05843 9.98369 3.02571 9.96291 2.99372 9.94149L2.65988 10.44L2.32605 10.9386C2.37419 10.9708 2.42319 11.0019 2.47303 11.0319L2.78246 10.5179ZM2.65988 10.44L2.99372 9.94149C3.07261 9.99431 3.13802 10.0728 3.17521 10.1673C3.20951 10.2545 3.20893 10.327 3.20564 10.3631L2.60812 10.3085L2.01061 10.2539C1.99133 10.465 2.05265 10.7555 2.32605 10.9386L2.65988 10.44ZM2.60812 10.3085L3.20564 10.3631C3.21689 10.2398 3.20268 10.0608 3.08517 9.89199C2.96601 9.7208 2.79939 9.64428 2.67229 9.61322L2.52985 10.1961L2.38741 10.7789C2.31805 10.762 2.19334 10.7112 2.10027 10.5775C2.00886 10.4462 2.00491 10.3163 2.01061 10.2539L2.60812 10.3085ZM2.52985 10.1961L2.67229 9.61322C2.73092 9.62755 2.83964 9.66895 2.93023 9.78014C3.02372 9.89489 3.0445 10.0182 3.04389 10.0953L2.44391 10.0906L1.84393 10.0858C1.84288 10.2192 1.87776 10.3882 1.9999 10.5381C2.11913 10.6844 2.27105 10.7505 2.38741 10.7789L2.52985 10.1961ZM2.44391 10.0906L3.04389 10.0953C3.04553 9.88898 2.96799 9.65118 2.75226 9.48623L2.38783 9.96288L2.02341 10.4395C1.96382 10.394 1.9133 10.3316 1.88086 10.2577C1.84982 10.1871 1.84362 10.125 1.84393 10.0858L2.44391 10.0906ZM2.38783 9.96288L2.75226 9.48623C2.71072 9.45447 2.66858 9.42302 2.62584 9.39187L2.27245 9.87676L1.91906 10.3617C1.9545 10.3875 1.98928 10.4134 2.02341 10.4395L2.38783 9.96288ZM2.27245 9.87676L2.62584 9.39187C2.67321 9.42639 2.7188 9.47492 2.75282 9.53697C2.7863 9.59805 2.79996 9.65645 2.80413 9.70158L2.20668 9.75679L1.60922 9.81199C1.6286 10.0217 1.73014 10.224 1.91906 10.3617L2.27245 9.87676ZM2.20668 9.75679L2.80413 9.70158C2.77974 9.43758 2.62433 9.22089 2.39624 9.10718L2.12855 9.64415L1.86085 10.1811C1.80854 10.155 1.74355 10.1084 1.69058 10.032C1.63722 9.95507 1.61509 9.87545 1.60922 9.81199L2.20668 9.75679ZM2.12855 9.64415L2.39624 9.10718C2.49901 9.15842 2.60847 9.26122 2.65621 9.41648C2.69698 9.54909 2.67104 9.65139 2.66206 9.68143L2.08718 9.50962L1.5123 9.33781C1.48357 9.43395 1.45464 9.59172 1.50921 9.76917C1.57074 9.96928 1.71075 10.1063 1.86085 10.1811L2.12855 9.64415ZM2.08718 9.50962L2.66206 9.68143C2.7013 9.55013 2.73481 9.34837 2.65373 9.13402L2.09253 9.3463L1.53134 9.55857C1.50663 9.49326 1.50244 9.43665 1.50365 9.39957C1.50483 9.36366 1.51113 9.34175 1.5123 9.33781L2.08718 9.50962ZM2.09253 9.3463L2.65373 9.13402C2.52676 8.79835 2.22189 8.69947 2.06324 8.67295L1.96431 9.26474L1.86539 9.85653C1.84935 9.85385 1.79367 9.84292 1.72631 9.80008C1.65065 9.75195 1.57404 9.67146 1.53134 9.55857L2.09253 9.3463ZM1.96431 9.26474L2.06324 8.67295C2.10483 8.67991 2.29284 8.71984 2.41223 8.92252C2.5322 9.12618 2.47522 9.31104 2.46039 9.35219L1.89595 9.14869L1.33152 8.94519C1.29296 9.05212 1.23552 9.28922 1.37828 9.53156C1.52045 9.77293 1.7545 9.83799 1.86539 9.85653L1.96431 9.26474ZM1.89595 9.14869L2.46039 9.35219C2.52254 9.1798 2.57826 8.81714 2.27085 8.54997L1.87726 9.00284L1.48368 9.45571C1.38793 9.3725 1.32907 9.25723 1.31394 9.13915C1.30091 9.03752 1.32398 8.96609 1.33152 8.94519L1.89595 9.14869ZM1.87726 9.00284L2.27085 8.54997C2.3083 8.58252 2.34409 8.6305 2.36528 8.68998L1.80007 8.89134L1.23487 9.09269C1.28662 9.23796 1.37387 9.36028 1.48368 9.45571L1.87726 9.00284ZM1.80007 8.89134L2.36528 8.68998C2.30782 8.52871 2.20636 8.40043 2.08504 8.30661L1.71799 8.78124L1.35093 9.25587C1.3085 9.22306 1.26176 9.16818 1.23487 9.09269L1.80007 8.89134ZM1.71799 8.78124L2.08504 8.30661C2.12545 8.33786 2.17045 8.39005 2.1973 8.46216L1.63499 8.67147L1.07268 8.88078C1.1313 9.03824 1.23164 9.16361 1.35093 9.25587L1.71799 8.78124ZM1.63499 8.67147L2.1973 8.46216C2.16452 8.37409 2.12148 8.29092 2.06887 8.21346L1.57254 8.55059L1.07621 8.88772C1.07509 8.88608 1.07369 8.88349 1.07268 8.88078L1.63499 8.67147ZM1.57254 8.55059L2.06887 8.21346C1.99561 8.10561 1.90508 8.02099 1.81047 7.9553L1.46831 8.44818L1.12615 8.94106C1.11901 8.9361 1.09797 8.91975 1.07621 8.88772L1.57254 8.55059ZM1.46831 8.44818L1.81047 7.9553C1.85481 7.98608 1.91026 8.0382 1.95171 8.11768C1.9939 8.19856 2.00704 8.27998 2.00485 8.34674L1.40517 8.32713L0.805494 8.30752C0.796752 8.57487 0.926656 8.80257 1.12615 8.94106L1.46831 8.44818ZM1.40517 8.32713L2.00485 8.34674C2.00848 8.23581 1.99545 8.12088 1.95964 8.00667L1.38713 8.1862L0.814618 8.36574C0.806154 8.33875 0.805158 8.31778 0.805494 8.30752L1.40517 8.32713ZM1.38713 8.1862L1.95964 8.00667C1.92089 7.88312 1.85834 7.77318 1.77879 7.67883L1.32006 8.06557L0.861342 8.45232C0.843852 8.43158 0.826007 8.40206 0.814618 8.36574L1.38713 8.1862ZM1.32006 8.06557L1.77879 7.67883C1.78958 7.69163 1.80175 7.71053 1.81077 7.7345L1.24926 7.94593L0.687742 8.15735C0.729117 8.26724 0.788492 8.36591 0.861342 8.45232L1.32006 8.06557ZM1.24926 7.94593L1.81077 7.7345C1.79642 7.69638 1.7826 7.65819 1.76931 7.61991L1.2025 7.81669L0.635683 8.01347C0.65239 8.06159 0.669744 8.10955 0.687742 8.15735L1.24926 7.94593ZM1.2025 7.81669L1.76931 7.61991C1.78967 7.67856 1.79004 7.73145 1.78461 7.76707L1.19146 7.67669L0.598305 7.58632C0.577601 7.7222 0.585327 7.86842 0.635683 8.01347L1.2025 7.81669ZM1.19146 7.67669L1.78461 7.76707C1.78962 7.73419 1.79616 7.70091 1.80431 7.66719L1.22108 7.52631L0.637852 7.38543C0.621782 7.45196 0.608572 7.51893 0.598305 7.58632L1.19146 7.67669ZM1.22108 7.52631L1.80431 7.66719C1.83486 7.54069 1.8354 7.39299 1.77931 7.24458C1.72472 7.10012 1.63252 6.99726 1.54592 6.92846L1.17267 7.39823L0.799422 7.868C0.757207 7.83446 0.695263 7.77058 0.656803 7.66881C0.616851 7.5631 0.619405 7.4618 0.637852 7.38543L1.22108 7.52631ZM1.17267 7.39823L1.54592 6.92846C1.56586 6.9443 1.61054 6.98698 1.64027 7.06347L1.08104 7.28085L0.521804 7.49824C0.58496 7.66071 0.690728 7.78164 0.799422 7.868L1.17267 7.39823ZM1.08104 7.28085L1.64027 7.06347C1.66497 7.12699 1.67421 7.19412 1.66947 7.25789C1.66491 7.31918 1.64845 7.36537 1.63543 7.39331L1.09151 7.14005L0.547581 6.88678C0.470916 7.05143 0.433352 7.27069 0.521804 7.49824L1.08104 7.28085ZM1.09151 7.14005L1.63543 7.39331C1.7078 7.2379 1.7483 7.03062 1.67493 6.80984L1.10555 6.99904L0.536162 7.18825C0.491456 7.05371 0.522599 6.94043 0.547581 6.88678L1.09151 7.14005ZM1.10555 6.99904L1.67493 6.80984C1.66039 6.76608 1.64571 6.72213 1.63089 6.67801L1.06213 6.86911L0.493375 7.0602C0.507781 7.10308 0.522044 7.14576 0.536162 7.18825L1.10555 6.99904ZM1.06213 6.86911L1.63089 6.67801C1.59664 6.57608 1.54824 6.48386 1.49189 6.40134L0.996393 6.7397L0.500899 7.07806C0.50297 7.08109 0.498392 7.07513 0.493375 7.0602L1.06213 6.86911ZM0.996393 6.7397L1.49189 6.40134C1.51405 6.43379 1.53954 6.48815 1.5452 6.55906L0.947094 6.60675L0.348993 6.65443C0.36196 6.81706 0.42032 6.96005 0.500899 7.07806L0.996393 6.7397ZM0.947094 6.60675L1.5452 6.55906C1.554 6.66941 1.51727 6.75169 1.49181 6.79143L0.986647 6.46768L0.481488 6.14393C0.395969 6.27737 0.33288 6.45236 0.348993 6.65443L0.947094 6.60675ZM0.986647 6.46768L1.49181 6.79143C1.53808 6.71923 1.57963 6.64235 1.61357 6.56084L1.05967 6.33019L0.50578 6.09954C0.502398 6.10766 0.495262 6.12244 0.481488 6.14393L0.986647 6.46768ZM1.05967 6.33019L1.61357 6.56084C1.66659 6.43351 1.69275 6.29112 1.67904 6.14133L1.08154 6.19599L0.484033 6.25066C0.478499 6.19017 0.490078 6.13725 0.50578 6.09954L1.05967 6.33019ZM1.08154 6.19599L1.67904 6.14133C1.67017 6.04439 1.64889 5.95141 1.61825 5.86329L1.05153 6.06033L0.484807 6.25737C0.486008 6.26083 0.484731 6.25829 0.484033 6.25066L1.08154 6.19599ZM1.05153 6.06033L1.61825 5.86329C1.58389 5.76445 1.53691 5.67421 1.48417 5.59281L0.98061 5.91904L0.47705 6.24527C0.487034 6.26068 0.487334 6.26464 0.484807 6.25737L1.05153 6.06033ZM0.98061 5.91904L1.48417 5.59281C1.51879 5.64625 1.56614 5.74801 1.55805 5.8844C1.54981 6.02331 1.48855 6.12349 1.43993 6.17897L0.988647 5.78357L0.537364 5.38817C0.452028 5.48556 0.371073 5.62928 0.360153 5.81333C0.349382 5.99489 0.41107 6.14343 0.47705 6.24527L0.98061 5.91904ZM0.988647 5.78357L1.43993 6.17897C1.48237 6.13054 1.52296 6.08208 1.56161 6.03359L1.09241 5.65963L0.623202 5.28567C0.59694 5.31862 0.568365 5.35279 0.537364 5.38817L0.988647 5.78357ZM1.09241 5.65963L1.56161 6.03359C1.65152 5.92078 1.71758 5.76886 1.71653 5.59102C1.71555 5.42284 1.65492 5.28832 1.5966 5.19742L1.0916 5.52141L0.586591 5.8454C0.561265 5.80593 0.51727 5.72015 0.516554 5.59805C0.515782 5.46628 0.565746 5.35776 0.623202 5.28567L1.09241 5.65963ZM1.0916 5.52141L1.5966 5.19742C1.61397 5.22449 1.64479 5.28174 1.65637 5.36567C1.6689 5.45651 1.65491 5.55192 1.61458 5.6372L1.07218 5.38067L0.529788 5.12414C0.394728 5.4097 0.480144 5.67948 0.586591 5.8454L1.0916 5.52141ZM1.07218 5.38067L1.61458 5.6372C1.71566 5.42348 1.70094 5.20554 1.63588 5.03063L1.07352 5.23981L0.511167 5.44899C0.49946 5.41752 0.487002 5.36914 0.487584 5.30795C0.488185 5.24474 0.502662 5.18149 0.529788 5.12414L1.07218 5.38067ZM1.07352 5.23981L1.63588 5.03063C1.65562 5.08371 1.67282 5.18042 1.63497 5.29105L1.06728 5.0968L0.499591 4.90256C0.431744 5.10085 0.453104 5.2929 0.511167 5.44899L1.07352 5.23981ZM1.06728 5.0968L1.63497 5.29105C1.63773 5.28299 1.64149 5.27438 1.64683 5.26495L1.12466 4.96942L0.602491 4.67389C0.561315 4.74664 0.526827 4.82296 0.499591 4.90256L1.06728 5.0968ZM1.12466 4.96942L1.64683 5.26495C1.59295 5.36015 1.52411 5.39677 1.51251 5.40252L1.24617 4.86487L0.979831 4.32722C0.852726 4.39019 0.702884 4.49651 0.602491 4.67389L1.12466 4.96942ZM1.24617 4.86487L1.51251 5.40252C1.62242 5.34807 1.78422 5.23437 1.86382 5.02038C1.94466 4.80304 1.89433 4.60769 1.84117 4.48965L1.29409 4.73603L0.747015 4.98242C0.719651 4.92166 0.674233 4.77643 0.739106 4.60203C0.802728 4.43098 0.927672 4.35306 0.979831 4.32722L1.24617 4.86487ZM1.29409 4.73603L1.84117 4.48965C1.85175 4.51314 1.87134 4.56527 1.87346 4.63947C1.87575 4.71964 1.8568 4.80791 1.81002 4.88924L1.28993 4.59006L0.769837 4.29089C0.618546 4.55391 0.673028 4.81814 0.747015 4.98242L1.29409 4.73603ZM1.28993 4.59006L1.81002 4.88924C1.86784 4.78873 1.90695 4.68055 1.92739 4.56792L1.33703 4.46079L0.746671 4.35367C0.750358 4.33335 0.758074 4.31134 0.769837 4.29089L1.28993 4.59006ZM1.33703 4.46079L1.92739 4.56792C1.92815 4.56371 1.92899 4.56141 1.92955 4.56006L1.37624 4.32802L0.822926 4.09598C0.78796 4.17935 0.762658 4.26556 0.746671 4.35367L1.33703 4.46079ZM1.37624 4.32802L1.92955 4.56006C1.88131 4.6751 1.79899 4.73521 1.75327 4.75882L1.47798 4.2257L1.20268 3.69259C1.05685 3.76789 0.9067 3.89622 0.822926 4.09598L1.37624 4.32802ZM1.47798 4.2257L1.75327 4.75882C1.89433 4.68598 2.04356 4.56205 2.12957 4.36645L1.58033 4.12493L1.03109 3.8834C1.08075 3.77047 1.16175 3.71373 1.20268 3.69259L1.47798 4.2257ZM1.58033 4.12493L2.12957 4.36645C2.13725 4.349 2.14595 4.33228 2.15574 4.31613L1.64264 4.00512L1.12954 3.6941C1.0926 3.75504 1.05977 3.81819 1.03109 3.8834L1.58033 4.12493ZM1.64264 4.00512L2.15574 4.31613C2.13424 4.35159 2.10853 4.37633 2.08776 4.39131L1.73675 3.90469L1.38575 3.41808C1.28621 3.48987 1.19776 3.58156 1.12954 3.6941L1.64264 4.00512ZM1.73675 3.90469L2.08776 4.39131C2.18411 4.32181 2.27112 4.23345 2.33948 4.12457L1.83133 3.80553L1.32318 3.4865C1.3442 3.45301 1.36817 3.43076 1.38575 3.41808L1.73675 3.90469ZM1.83133 3.80553L2.33948 4.12457C2.38195 4.05692 2.41808 3.98614 2.44809 3.91282L1.89282 3.6855L1.33755 3.45819C1.33292 3.46951 1.32805 3.47875 1.32318 3.4865L1.83133 3.80553ZM1.89282 3.6855L2.44809 3.91282C2.45816 3.88824 2.46924 3.86452 2.48134 3.84157L1.95056 3.56179L1.41979 3.282C1.38955 3.33937 1.36214 3.39813 1.33755 3.45819L1.89282 3.6855ZM1.95056 3.56179L2.48134 3.84157C2.55221 3.70711 2.57997 3.56853 2.58538 3.44402L1.98595 3.41797L1.38652 3.39191C1.38708 3.37884 1.39125 3.33614 1.41979 3.282L1.95056 3.56179ZM1.98595 3.41797L2.58538 3.44402C2.58275 3.50463 2.55792 3.61401 2.46343 3.70887L2.03833 3.28544L1.61323 2.86201C1.45374 3.02213 1.39399 3.21986 1.38652 3.39191L1.98595 3.41797ZM2.03833 3.28544L2.46343 3.70887C2.46219 3.71011 2.46215 3.70979 2.46478 3.70816L2.14779 3.19872L1.83081 2.68929C1.75249 2.73803 1.67947 2.79552 1.61323 2.86201L2.03833 3.28544ZM2.14779 3.19872L2.46478 3.70816C2.62333 3.6095 2.73616 3.46482 2.79737 3.29782L2.23404 3.09131L1.6707 2.88479C1.68289 2.85153 1.7024 2.81402 1.73185 2.77735C1.76146 2.74045 1.79579 2.71108 1.83081 2.68929L2.14779 3.19872ZM2.23404 3.09131L2.79737 3.29782C2.77726 3.35269 2.74187 3.41314 2.68637 3.46628C2.63137 3.51896 2.57234 3.54945 2.52383 3.56578L2.33234 2.99716L2.14086 2.42853C1.92696 2.50056 1.75287 2.66064 1.6707 2.88479L2.23404 3.09131ZM2.33234 2.99716L2.52383 3.56578C2.63512 3.52831 2.74565 3.47059 2.84515 3.38617L2.457 2.92864L2.06884 2.47111C2.09918 2.44537 2.12661 2.43333 2.14086 2.42853L2.33234 2.99716ZM2.457 2.92864L2.84515 3.38617C2.79505 3.42868 2.74493 3.44705 2.71367 3.45393L2.58478 2.86794L2.45588 2.28195C2.32342 2.31108 2.18811 2.36992 2.06884 2.47111L2.457 2.92864ZM2.58478 2.86794L2.71367 3.45393C2.88972 3.4152 3.05786 3.30682 3.16108 3.12696C3.25055 2.97106 3.25977 2.81583 3.25613 2.72006L2.65657 2.74285L2.057 2.76563C2.05611 2.74212 2.05474 2.64388 2.12028 2.52967C2.19957 2.39151 2.33044 2.30954 2.45588 2.28195L2.58478 2.86794ZM2.65657 2.74285L3.25613 2.72006C3.25715 2.74681 3.25958 2.87832 3.15863 3.01584C3.03739 3.181 2.8649 3.22741 2.75924 3.23109L2.73833 2.63145L2.71742 2.03182C2.55451 2.0375 2.33976 2.10347 2.19127 2.30576C2.06307 2.48041 2.05324 2.66662 2.057 2.76563L2.65657 2.74285ZM2.73833 2.63145L2.75924 3.23109C2.88158 3.22682 3.03404 3.19205 3.17329 3.0855C3.31353 2.97819 3.38798 2.83817 3.42368 2.71647L2.84794 2.54758L2.2722 2.3787C2.29209 2.31091 2.34036 2.21184 2.44407 2.13248C2.54679 2.05389 2.65235 2.03409 2.71742 2.03182L2.73833 2.63145ZM2.84794 2.54758L3.42368 2.71647C3.40805 2.76978 3.37122 2.8525 3.28989 2.92689C3.20575 3.00385 3.1104 3.03855 3.03383 3.04956L2.94843 2.45567L2.86302 1.86178C2.73528 1.88015 2.59759 1.93384 2.47996 2.04145C2.36513 2.14648 2.30365 2.27147 2.2722 2.3787L2.84794 2.54758ZM2.94843 2.45567L3.03383 3.04956C3.21201 3.02394 3.38914 2.94052 3.52422 2.78511L3.07138 2.39149L2.61853 1.99788C2.6516 1.95983 2.69282 1.92678 2.7399 1.90221C2.7862 1.87805 2.82936 1.86662 2.86302 1.86178L2.94843 2.45567ZM3.07138 2.39149L3.52422 2.78511C3.47409 2.84278 3.40835 2.88888 3.33373 2.91625C3.26256 2.94236 3.2018 2.94479 3.16443 2.94245L3.20186 2.34362L3.2393 1.74479C3.03834 1.73223 2.79692 1.79265 2.61853 1.99788L3.07138 2.39149ZM3.20186 2.34362L3.16443 2.94245C3.27409 2.94931 3.40885 2.93486 3.54381 2.86712C3.6822 2.79766 3.78105 2.69203 3.84499 2.58049L3.32446 2.28209L2.80392 1.98369C2.84233 1.91669 2.90799 1.84358 3.00551 1.79463C3.09961 1.7474 3.18584 1.74145 3.2393 1.74479L3.20186 2.34362ZM3.32446 2.28209L3.84499 2.58049C3.84871 2.57401 3.84991 2.57348 3.84736 2.57618L3.41179 2.16353L2.97623 1.75087C2.90828 1.82259 2.85127 1.9011 2.80392 1.98369L3.32446 2.28209ZM3.41179 2.16353L3.84736 2.57618C3.80957 2.61607 3.75815 2.64894 3.70037 2.6663L3.52777 2.09166L3.35516 1.51702C3.20814 1.56118 3.07941 1.64196 2.97623 1.75087L3.41179 2.16353ZM3.52777 2.09166L3.70037 2.6663C3.64537 2.68282 3.60355 2.67976 3.58684 2.67723L3.67681 2.08401L3.76679 1.4908C3.64059 1.47165 3.4994 1.4737 3.35516 1.51702L3.52777 2.09166ZM3.67681 2.08401L3.58684 2.67723C3.71115 2.69608 3.86718 2.6879 4.02182 2.60868C4.17553 2.52993 4.27214 2.40955 4.32903 2.3017L3.79834 2.02175L3.26765 1.7418C3.29827 1.68377 3.36148 1.59866 3.47469 1.54067C3.58882 1.4822 3.69722 1.48024 3.76679 1.4908L3.67681 2.08401ZM3.79834 2.02175L4.32903 2.3017C4.2986 2.35939 4.23326 2.44876 4.11312 2.5079C3.99138 2.56783 3.8769 2.56549 3.80555 2.55181L3.9186 1.96255L4.03165 1.3733C3.9064 1.34927 3.74493 1.35163 3.58311 1.43129C3.42288 1.51017 3.32436 1.63431 3.26765 1.7418L3.79834 2.02175ZM3.9186 1.96255L3.80555 2.55181C3.96996 2.58335 4.17023 2.57291 4.35994 2.46246L4.05805 1.94394L3.75616 1.42542C3.86773 1.36046 3.97503 1.36244 4.03165 1.3733L3.9186 1.96255ZM4.05805 1.94394L4.35994 2.46246C4.55224 2.3505 4.65388 2.17997 4.70784 2.05218L4.15509 1.81879L3.60234 1.58541C3.60506 1.57898 3.642 1.49188 3.75616 1.42542L4.05805 1.94394ZM4.15509 1.81879L4.70784 2.05218C4.68876 2.09737 4.62212 2.22826 4.4546 2.30486C4.27653 2.3863 4.11936 2.34595 4.05014 2.31752L4.27813 1.76252L4.50613 1.20753C4.3805 1.15592 4.17462 1.11337 3.95554 1.21356C3.74701 1.30893 3.64705 1.47953 3.60234 1.58541L4.15509 1.81879ZM4.27813 1.76252L4.05014 2.31752C4.14688 2.35726 4.28069 2.39073 4.43552 2.3698C4.59891 2.34772 4.73627 2.27158 4.83827 2.17103L4.41704 1.74375L3.99581 1.31647C4.06161 1.25161 4.15772 1.19644 4.27481 1.18061C4.38333 1.16595 4.46579 1.19096 4.50613 1.20753L4.27813 1.76252ZM4.41704 1.74375L4.83827 2.17103C4.79324 2.21542 4.72608 2.26138 4.63743 2.28602C4.54938 2.3105 4.47052 2.3055 4.41354 2.29248L4.54722 1.70756L4.68089 1.12264C4.4356 1.06659 4.18158 1.13334 3.99581 1.31647L4.41704 1.74375ZM4.54722 1.70756L4.41354 2.29248C4.60654 2.33659 4.8207 2.312 5.00977 2.18921L4.68297 1.68602L4.35617 1.18283C4.40389 1.15184 4.46146 1.12835 4.52506 1.11826C4.5875 1.10835 4.64131 1.1136 4.68089 1.12264L4.54722 1.70756ZM4.68297 1.68602L5.00977 2.18921C5.07154 2.14909 5.13061 2.105 5.1871 2.05765L4.80165 1.59783L4.41621 1.13802C4.39427 1.15641 4.37421 1.17111 4.35617 1.18283L4.68297 1.68602ZM4.80165 1.59783L5.1871 2.05765C5.15645 2.08334 5.10599 2.11292 5.03896 2.12551L4.92828 1.5358L4.8176 0.946101C4.66015 0.975652 4.52528 1.04659 4.41621 1.13802L4.80165 1.59783ZM4.92828 1.5358L5.03896 2.12551C4.90097 2.15141 4.80098 2.10519 4.76681 2.08485L5.0737 1.56928L5.38059 1.0537C5.24293 0.971761 5.046 0.903232 4.8176 0.946101L4.92828 1.5358ZM5.0737 1.56928L4.76681 2.08485C4.88869 2.1574 5.05828 2.22329 5.25989 2.20943L5.21872 1.61084L5.17755 1.01225C5.28929 1.00457 5.3622 1.04275 5.38059 1.0537L5.0737 1.56928ZM5.21872 1.61084L5.25989 2.20943C5.41855 2.19851 5.55962 2.14425 5.67752 2.06715L5.34912 1.565L5.02073 1.06285C5.05462 1.04068 5.10875 1.01699 5.17755 1.01225L5.21872 1.61084ZM5.34912 1.565L5.67752 2.06715C5.61943 2.10514 5.53832 2.13799 5.44086 2.14232C5.34524 2.14656 5.2683 2.12187 5.21816 2.09714L5.48356 1.55903L5.74896 1.02092C5.52446 0.910194 5.2526 0.91121 5.02073 1.06285L5.34912 1.565ZM5.48356 1.55903L5.21816 2.09714C5.32594 2.1503 5.46213 2.18578 5.615 2.16994C5.76724 2.15417 5.89184 2.0921 5.98468 2.02077L5.61913 1.54498L5.25359 1.06919C5.30366 1.03072 5.38429 0.987418 5.49134 0.976328C5.59902 0.965171 5.6888 0.991247 5.74896 1.02092L5.48356 1.55903ZM5.61913 1.54498L5.98468 2.02077C5.92934 2.06329 5.8364 2.11234 5.71268 2.11813C5.58967 2.12388 5.49426 2.08413 5.43782 2.04929L5.75297 1.53873L6.06812 1.02816C5.96521 0.964637 5.82427 0.911599 5.65665 0.919434C5.48832 0.927303 5.35169 0.993824 5.25359 1.06919L5.61913 1.54498ZM5.75297 1.53873L5.43782 2.04929C5.63065 2.16832 5.8868 2.21141 6.13702 2.09803L5.88938 1.55152L5.64174 1.00501C5.70778 0.975085 5.78957 0.957769 5.87795 0.966057C5.9634 0.974071 6.02802 1.00341 6.06812 1.02816L5.75297 1.53873ZM5.88938 1.55152L6.13702 2.09803C6.09655 2.11637 6.04479 2.13128 5.98474 2.13414C5.9244 2.137 5.8692 2.12705 5.82307 2.11071L6.02343 1.54515L6.22379 0.979588C6.02866 0.910461 5.82351 0.922645 5.64174 1.00501L5.88938 1.55152ZM6.02343 1.54515L5.82307 2.11071C6.15111 2.22692 6.42459 2.07819 6.57026 1.94218L6.16079 1.50362L5.75132 1.06507C5.77366 1.0442 5.82836 0.999406 5.91782 0.972361C6.01676 0.942452 6.12513 0.944637 6.22379 0.979588L6.02343 1.54515ZM6.16079 1.50362L6.57026 1.94218C6.52706 1.98251 6.40145 2.0794 6.20597 2.07179C6.00973 2.06414 5.8914 1.95703 5.85062 1.91211L6.2949 1.50885L6.73917 1.10559C6.65567 1.0136 6.49363 0.882085 6.25269 0.872697C6.0125 0.863338 5.8412 0.98115 5.75132 1.06507L6.16079 1.50362ZM6.2949 1.50885L5.85062 1.91211C5.93831 2.00872 6.10217 2.137 6.34144 2.14497C6.57498 2.15274 6.74315 2.04083 6.83283 1.9606L6.43276 1.51344L6.0327 1.06629C6.07319 1.03006 6.19379 0.939384 6.38138 0.945631C6.57468 0.952069 6.6942 1.05605 6.73917 1.10559L6.2949 1.50885ZM6.43276 1.51344L6.83283 1.9606C6.80068 1.98936 6.70095 2.0677 6.53944 2.07734C6.36013 2.08804 6.22852 2.0079 6.16095 1.94523L6.56896 1.50531L6.97697 1.0654C6.86779 0.964138 6.69268 0.86606 6.46796 0.879469C6.26105 0.891815 6.11403 0.993514 6.0327 1.06629L6.43276 1.51344ZM6.56896 1.50531L6.16095 1.94523C6.30253 2.07655 6.51657 2.18246 6.77629 2.14966L6.70111 1.55439L6.62593 0.95912C6.6989 0.949904 6.77371 0.958668 6.84209 0.984061C6.90744 1.00833 6.95177 1.04203 6.97697 1.0654L6.56896 1.50531ZM6.70111 1.55439L6.77629 2.14966C6.88142 2.13639 6.98022 2.10816 7.07144 2.07106L6.84539 1.51527L6.61935 0.959476C6.61117 0.962801 6.61379 0.960654 6.62593 0.95912L6.70111 1.55439ZM6.84539 1.51527L7.07144 2.07106C6.96853 2.11291 6.81751 2.12993 6.66531 2.06045C6.53455 2.00076 6.47412 1.90891 6.45718 1.88048L6.97261 1.57334L7.48803 1.2662C7.43598 1.17884 7.33679 1.04785 7.16363 0.968806C6.96901 0.879968 6.77194 0.897413 6.61935 0.959476L6.84539 1.51527ZM6.97261 1.57334L6.45718 1.88048C6.53501 2.0111 6.70216 2.21852 6.99923 2.26494L7.09186 1.67213L7.1845 1.07933C7.39279 1.11187 7.48043 1.25343 7.48803 1.2662L6.97261 1.57334ZM7.09186 1.67213L6.99923 2.26494C7.09853 2.28046 7.1971 2.2818 7.29323 2.27161L7.22996 1.67496L7.16669 1.0783C7.16747 1.07822 7.17398 1.07768 7.1845 1.07933L7.09186 1.67213ZM7.22996 1.67496L7.29323 2.27161C7.23188 2.27812 7.1615 2.27203 7.09078 2.24609C7.02131 2.22061 6.97039 2.18295 6.93682 2.15008L7.35665 1.72142L7.77648 1.29277C7.62262 1.14208 7.40695 1.05282 7.16669 1.0783L7.22996 1.67496ZM7.35665 1.72142L6.93682 2.15008C7.02966 2.241 7.14719 2.32041 7.29043 2.36686L7.47554 1.79613L7.66065 1.2254C7.71895 1.24431 7.75722 1.27391 7.77648 1.29277L7.35665 1.72142ZM7.47554 1.79613L7.29043 2.36686C7.59148 2.46451 7.84268 2.33535 7.96027 2.2581L7.63084 1.75662L7.30141 1.25515C7.30751 1.25114 7.34079 1.22974 7.39829 1.21511C7.46043 1.1993 7.55457 1.19099 7.66065 1.2254L7.47554 1.79613ZM7.63084 1.75662L7.96027 2.2581C7.946 2.26747 7.8857 2.30534 7.78739 2.31744C7.67173 2.33167 7.5413 2.30473 7.43134 2.22598L7.7807 1.73818L8.13006 1.25038C7.78911 1.0062 7.44258 1.16242 7.30141 1.25515L7.63084 1.75662ZM7.7807 1.73818L7.43134 2.22598C7.4613 2.24744 7.49066 2.2697 7.51942 2.29278L7.89489 1.82478L8.27035 1.35677C8.22455 1.32003 8.17779 1.28456 8.13006 1.25038L7.7807 1.73818ZM7.89489 1.82478L7.51942 2.29278C7.66101 2.40637 7.83041 2.46631 8.00628 2.47157L8.0242 1.87184L8.04213 1.2721C8.0773 1.27316 8.1179 1.27969 8.16036 1.29515C8.20299 1.31066 8.24002 1.33244 8.27035 1.35677L7.89489 1.82478ZM8.0242 1.87184L8.00628 2.47157C7.94346 2.46969 7.87189 2.45352 7.80256 2.41554C7.73443 2.37822 7.68813 2.33068 7.65938 2.29132L8.14389 1.9374L8.62839 1.58348C8.49696 1.40357 8.29043 1.27952 8.04213 1.2721L8.0242 1.87184ZM8.14389 1.9374L7.65938 2.29132C7.70188 2.3495 7.74706 2.4053 7.79514 2.45818L8.23905 2.05451L8.68295 1.65084C8.66588 1.63206 8.64761 1.60979 8.62839 1.58348L8.14389 1.9374ZM8.23905 2.05451L7.79514 2.45818C7.89067 2.56323 8.01209 2.64784 8.15672 2.69767L8.35216 2.13039L8.5476 1.56311C8.60658 1.58343 8.65259 1.61745 8.68295 1.65084L8.23905 2.05451ZM8.35216 2.13039L8.15672 2.69767C8.28016 2.74019 8.40333 2.75342 8.51796 2.74916L8.49566 2.14957L8.47336 1.54999C8.48232 1.54966 8.50982 1.55009 8.5476 1.56311L8.35216 2.13039ZM8.49566 2.14957L8.51796 2.74916C8.4612 2.75127 8.3813 2.74205 8.29671 2.69966C8.21084 2.65664 8.15127 2.59501 8.11435 2.53859L8.61643 2.21008L9.11851 1.88158C8.96936 1.65362 8.72468 1.54064 8.47336 1.54999L8.49566 2.14957ZM8.61643 2.21008L8.11435 2.53859C8.14995 2.59301 8.18722 2.64567 8.22626 2.69637L8.70167 2.33033L9.17708 1.96429C9.15782 1.93927 9.13826 1.91177 9.11851 1.88158L8.61643 2.21008ZM8.70167 2.33033L8.22626 2.69637C8.37592 2.89074 8.59095 2.98153 8.80086 2.98974L8.82432 2.3902L8.84777 1.79066C8.89171 1.79238 8.95212 1.80263 9.01742 1.83451C9.0843 1.86716 9.13814 1.91371 9.17708 1.96429L8.70167 2.33033ZM8.82432 2.3902L8.80086 2.98974C8.73411 2.98713 8.64088 2.96728 8.54946 2.90392C8.45821 2.84068 8.40732 2.76081 8.38174 2.70044L8.9342 2.46636L9.48665 2.23228C9.44043 2.1232 9.36091 2.00628 9.23303 1.91765C9.10499 1.8289 8.96713 1.79533 8.84777 1.79066L8.82432 2.3902ZM8.9342 2.46636L8.38174 2.70044C8.43763 2.83233 8.54017 2.96568 8.70168 3.05033C8.8548 3.13059 9.00611 3.13831 9.1155 3.12748L9.05637 2.5304L8.99725 1.93332C9.04583 1.92851 9.14637 1.92857 9.25877 1.98748C9.37955 2.05079 9.45141 2.14911 9.48665 2.23228L8.9342 2.46636ZM9.05637 2.5304L9.1155 3.12748C9.08897 3.13011 9.03598 3.13161 8.96893 3.11207C8.8973 3.09119 8.8246 3.05041 8.76439 2.98819L9.19558 2.57096L9.62677 2.15374C9.42832 1.94865 9.17604 1.91562 8.99725 1.93332L9.05637 2.5304ZM9.19558 2.57096L8.76439 2.98819C8.77815 3.00241 8.79134 3.01789 8.80396 3.03486L9.28534 2.6767L9.76672 2.31855C9.72365 2.26066 9.677 2.20565 9.62677 2.15374L9.19558 2.57096ZM9.28534 2.6767L8.80396 3.03486C8.94321 3.22201 9.13928 3.31193 9.3223 3.33838L9.40812 2.74455L9.49394 2.15072C9.52689 2.15548 9.57454 2.16752 9.62713 2.19659C9.68139 2.22657 9.72943 2.26843 9.76672 2.31855L9.28534 2.6767ZM9.40812 2.74455L9.3223 3.33838C9.29311 3.33416 9.25093 3.3238 9.20361 3.29924C9.1549 3.27396 9.10961 3.23817 9.07248 3.19356L9.5336 2.80967L9.99471 2.42578C9.85374 2.25645 9.66705 2.17574 9.49394 2.15072L9.40812 2.74455ZM9.5336 2.80967L9.07248 3.19356C9.04989 3.16643 9.03851 3.14129 9.03352 3.12641L9.60241 2.93572L10.1713 2.74503C10.1339 2.6333 10.0766 2.52413 9.99471 2.42578L9.5336 2.80967ZM9.60241 2.93572L9.03352 3.12641C9.08169 3.27011 9.16834 3.40936 9.30305 3.51818L9.68009 3.05144L10.0571 2.58471C10.1207 2.63609 10.1556 2.69819 10.1713 2.74503L9.60241 2.93572ZM9.68009 3.05144L9.30305 3.51818C9.3079 3.5221 9.31181 3.52601 9.31531 3.53022L9.77695 3.14695L10.2386 2.76369C10.184 2.698 10.1234 2.63824 10.0571 2.58471L9.68009 3.05144ZM9.77695 3.14695L9.31531 3.53022C9.42781 3.66573 9.56935 3.74823 9.70757 3.79409L9.89652 3.22461L10.0855 2.65514C10.1223 2.66736 10.1841 2.69809 10.2386 2.76369L9.77695 3.14695ZM9.89652 3.22461L9.70757 3.79409C9.65349 3.77614 9.58613 3.74308 9.52212 3.68427C9.45647 3.62393 9.41041 3.55115 9.3832 3.47661C9.33318 3.33963 9.35856 3.23347 9.36311 3.21508L9.94559 3.359L10.5281 3.50293C10.5506 3.41176 10.5768 3.24682 10.5104 3.06504C10.4313 2.8484 10.2609 2.71336 10.0855 2.65514L9.89652 3.22461ZM9.94559 3.359L9.36311 3.21508C9.33073 3.3461 9.28803 3.62785 9.47907 3.88198L9.95867 3.52145L10.4383 3.16092C10.507 3.2523 10.5285 3.34514 10.5334 3.40603C10.538 3.46271 10.5291 3.49861 10.5281 3.50293L9.94559 3.359ZM9.95867 3.52145L9.47907 3.88198C9.60169 4.04509 9.76508 4.13109 9.90805 4.17391L10.0802 3.59914L10.2524 3.02438C10.2867 3.03466 10.3691 3.06885 10.4383 3.16092L9.95867 3.52145ZM10.0802 3.59914L9.90805 4.17391C9.91881 4.17714 9.91852 4.17838 9.9115 4.17407L10.2258 3.66297L10.5401 3.15187C10.4476 3.095 10.3503 3.05369 10.2524 3.02438L10.0802 3.59914ZM10.2258 3.66297L9.9115 4.17407C9.87788 4.15339 9.83744 4.11748 9.80647 4.06442L10.3247 3.762L10.8429 3.45959C10.7655 3.32703 10.6592 3.2251 10.5401 3.15187L10.2258 3.66297ZM10.3247 3.762L9.80647 4.06442C9.81806 4.08429 9.82856 4.10489 9.83798 4.12634L10.3874 3.88512L10.9367 3.64391C10.909 3.58069 10.8777 3.51921 10.8429 3.45959L10.3247 3.762ZM10.3874 3.88512L9.83798 4.12634C9.86085 4.17842 9.88504 4.22975 9.91057 4.28033L10.4462 4.00997L10.9818 3.73961C10.9661 3.70839 10.951 3.6765 10.9367 3.64391L10.3874 3.88512ZM10.4462 4.00997L9.91057 4.28033C9.8923 4.24414 9.88536 4.21056 9.88373 4.18694L10.4823 4.14552L11.0809 4.10411C11.0724 3.98154 11.0414 3.85758 10.9818 3.73961L10.4462 4.00997ZM10.4823 4.14552L9.88373 4.18694C9.89219 4.30921 9.92313 4.43399 9.98393 4.55302L10.5183 4.28011L11.0526 4.0072C11.0723 4.04574 11.0793 4.08079 11.0809 4.10411L10.4823 4.14552ZM10.5183 4.28011L9.98393 4.55302C10.0601 4.70222 10.1718 4.81044 10.2867 4.8861L10.6168 4.38506L10.9469 3.88403C10.9715 3.90024 11.0175 3.93849 11.0526 4.0072L10.5183 4.28011ZM10.6168 4.38506L10.2867 4.8861C10.2219 4.84342 10.1402 4.76394 10.0961 4.63912C10.0534 4.5181 10.0671 4.41413 10.0827 4.35648L10.6619 4.51295L11.2412 4.66943C11.2717 4.55624 11.2854 4.40318 11.2277 4.23953C11.1685 4.07208 11.0568 3.95643 10.9469 3.88403L10.6168 4.38506ZM10.6619 4.51295L10.0827 4.35648C10.0588 4.44485 10.0419 4.53776 10.0361 4.63371L10.635 4.66976L11.2339 4.70581C11.234 4.70375 11.235 4.69213 11.2412 4.66943L10.6619 4.51295ZM10.635 4.66976L10.0361 4.63371C10.024 4.83446 10.0996 5.02183 10.2353 5.15752C10.3513 5.2735 10.4843 5.32576 10.57 5.35136L10.7418 4.77649L10.9136 4.20162C10.9251 4.20507 11.0033 4.22846 11.0837 4.30886C11.1275 4.35262 11.1705 4.41219 11.1998 4.48797C11.2292 4.56413 11.2379 4.63942 11.2339 4.70581L10.635 4.66976ZM10.7418 4.77649L10.57 5.35136C10.559 5.34809 10.4879 5.32667 10.412 5.2546C10.3193 5.16656 10.2532 5.03346 10.253 4.88268L10.853 4.88214L11.453 4.8816C11.4529 4.68255 11.3681 4.50769 11.2383 4.38444C11.1254 4.27715 10.9987 4.22705 10.9136 4.20162L10.7418 4.77649ZM10.853 4.88214L10.253 4.88268C10.2532 5.03222 10.2906 5.17891 10.366 5.31198L10.8881 5.01634L11.4102 4.7207C11.4389 4.7714 11.453 4.82862 11.453 4.8816L10.853 4.88214ZM10.8881 5.01634L10.366 5.31198C10.3379 5.2624 10.3228 5.20442 10.3229 5.1482L10.9229 5.14931L11.5229 5.15041C11.5232 4.99927 11.4849 4.85264 11.4102 4.7207L10.8881 5.01634ZM10.9229 5.14931L10.3229 5.1482C10.3231 5.04091 10.3638 4.97727 10.3693 4.96895L10.8685 5.30191L11.3676 5.63487C11.4456 5.518 11.5225 5.35263 11.5229 5.15041L10.9229 5.14931ZM10.8685 5.30191L10.3693 4.96895C10.3158 5.04925 10.2552 5.16873 10.2407 5.32089C10.2248 5.4863 10.2679 5.64631 10.3572 5.77887L10.8549 5.4438L11.3526 5.10873C11.4147 5.20096 11.4465 5.31717 11.4352 5.43529C11.4252 5.54014 11.385 5.60884 11.3676 5.63487L10.8685 5.30191ZM10.8549 5.4438L10.3572 5.77887C10.3234 5.72876 10.2969 5.65799 10.2962 5.5773L10.8962 5.5724L11.4962 5.56749C11.4947 5.39598 11.4406 5.23949 11.3526 5.10873L10.8549 5.4438ZM10.8962 5.5724L10.2962 5.5773C10.2982 5.82587 10.4193 6.01373 10.5434 6.1332L10.9594 5.70085L11.3755 5.26849C11.416 5.30751 11.4949 5.40974 11.4962 5.56749L10.8962 5.5724ZM10.9594 5.70085L10.5434 6.1332C10.4999 6.09136 10.4309 6.00519 10.4066 5.87181C10.3815 5.73417 10.4174 5.62034 10.454 5.55166L10.9836 5.83355L11.5133 6.11544C11.5755 5.99852 11.6203 5.83844 11.5871 5.65657C11.5547 5.47896 11.4607 5.35056 11.3755 5.26849L10.9594 5.70085ZM10.9836 5.83355L10.454 5.55166C10.387 5.67748 10.3453 5.84501 10.3851 6.03007C10.423 6.20602 10.5202 6.32994 10.6022 6.40696L11.0129 5.9696L11.4237 5.53225C11.4605 5.56681 11.5301 5.64682 11.5582 5.77741C11.5883 5.91712 11.5546 6.03786 11.5133 6.11544L10.9836 5.83355ZM11.0129 5.9696L10.6022 6.40696C10.5524 6.36019 10.45 6.23776 10.4474 6.04332C10.4448 5.85526 10.538 5.73618 10.5749 5.69635L11.0148 6.10442L11.4546 6.51249C11.5356 6.42525 11.6504 6.25998 11.6472 6.02699C11.644 5.78761 11.5187 5.62148 11.4237 5.53225L11.0129 5.9696ZM11.0148 6.10442L10.5749 5.69635C10.4717 5.80765 10.3094 6.04195 10.3734 6.35722L10.9614 6.23768L11.5494 6.11814C11.5966 6.35056 11.4699 6.49602 11.4546 6.51249L11.0148 6.10442ZM10.9614 6.23768L10.3734 6.35722C10.3798 6.38863 10.393 6.44889 10.4194 6.5129C10.4314 6.54209 10.4609 6.6093 10.5188 6.67907C10.5714 6.74244 10.7263 6.89982 10.987 6.89982V6.29982V5.69982C11.2434 5.69982 11.394 5.8546 11.4423 5.9128C11.4959 5.97739 11.5211 6.03683 11.5289 6.05566C11.5467 6.09897 11.5514 6.12815 11.5494 6.11814L10.9614 6.23768ZM10.987 6.29982V6.89982C10.8448 6.89982 10.7054 6.84879 10.5958 6.75334C10.498 6.6682 10.452 6.5726 10.4309 6.51689C10.392 6.41444 10.3934 6.3291 10.3934 6.3137C10.3937 6.26533 10.401 6.236 10.398 6.25125L10.9867 6.36732L11.5754 6.4834C11.5812 6.45364 11.5931 6.39056 11.5934 6.31968C11.5936 6.29304 11.5939 6.19926 11.5528 6.09118C11.5306 6.03266 11.4833 5.93495 11.3839 5.8484C11.2727 5.75154 11.1314 5.69982 10.987 5.69982V6.29982Z" fill="var(--stroke-0, #6C6C6C)"/>
<path id="Vector_2" d="M7.9863 6.70252L8.54299 6.92635L7.9863 6.70252ZM7.98997 6.84285L8.54669 6.61912L7.98997 6.84285ZM7.85174 7.08538L7.2533 7.04222L7.85174 7.08538ZM7.80622 7.3566L8.38778 7.20902L7.80622 7.3566ZM7.6755 7.59388L7.0823 7.50383L7.6755 7.59388ZM7.63247 7.73098L8.16833 8.0009L7.63247 7.73098ZM7.55611 7.84816L7.09318 7.46646L7.55611 7.84816ZM7.43072 7.91851L7.5494 8.50666L7.43072 7.91851ZM7.32026 8.00424L6.76842 7.76871L7.32026 8.00424ZM7.12925 8.20631L7.56826 8.6153L7.12925 8.20631ZM7.00902 8.27345L7.1305 8.86102L7.00902 8.27345ZM6.59971 8.35372L6.40269 7.78699L6.59971 8.35372ZM6.34965 8.45344L6.35804 9.05339L6.34965 8.45344ZM6.21454 8.46132L6.27644 9.05812L6.21454 8.46132ZM5.94619 8.54279L5.58666 9.02314L5.94619 8.54279ZM5.67895 8.4527L5.45223 9.00822L5.67895 8.4527ZM5.40134 8.44505L4.98012 8.87233V8.87233L5.40134 8.44505ZM5.14167 8.34571L4.93963 8.91067L5.14167 8.34571ZM5.00327 8.30904L4.89598 8.89936L5.00327 8.30904ZM4.69275 8.03022L4.22668 8.40809L4.69275 8.03022ZM4.49177 7.84118L4.33621 8.42067L4.49177 7.84118ZM4.27069 7.50186L3.71636 7.27226L4.27069 7.50186ZM4.27494 7.34474L3.78708 7.69401L4.27494 7.34474ZM4.07341 7.13598L3.70077 7.60623L4.07341 7.13598ZM3.99978 6.73301L3.4083 6.63227L3.99978 6.73301ZM3.99709 6.59514L3.41072 6.72232L3.99709 6.59514ZM4.01311 6.46047L3.46748 6.2109L4.01311 6.46047ZM4.03377 6.18758L3.54184 6.5311L4.03377 6.18758ZM4.16968 5.66683L3.97035 5.10091L4.16968 5.66683ZM4.40549 5.33434L4.29357 4.74487L4.40549 5.33434ZM4.52289 5.25415L3.9719 5.01664L4.52289 5.25415ZM4.66972 5.02379L4.07368 4.95493L4.66972 5.02379ZM4.75564 4.91984L4.64211 4.33068L4.75564 4.91984ZM4.99996 4.79152L4.4421 4.57064L4.99996 4.79152ZM5.49314 4.57951L5.10974 4.11798L5.49314 4.57951ZM5.75602 4.51473L5.98592 5.06894L5.75602 4.51473ZM6.16696 4.47225L5.8923 3.9388L6.16696 4.47225ZM6.70889 4.57441L6.25376 4.96538L6.70889 4.57441ZM7.14002 4.92205L6.94946 5.49099L7.14002 4.92205ZM7.40906 5.021L7.86687 4.63317L7.40906 5.021ZM7.60505 5.38782L7.0183 5.51321L7.60505 5.38782ZM7.69398 5.49216L7.44341 6.03733V6.03733L7.69398 5.49216ZM7.76974 5.60088L8.36955 5.58583L7.76974 5.60088ZM7.82654 5.72558L7.42287 6.16948L7.82654 5.72558ZM7.85285 5.85604L7.28751 5.65509L7.85285 5.85604ZM7.90897 5.98321L7.61956 6.5088L7.90897 5.98321ZM8.01535 6.09686L7.4444 6.2813L8.01535 6.09686ZM8.0191 6.23598L8.60147 6.38037L8.0191 6.23598ZM7.97487 6.47292L8.41287 6.06285L7.97487 6.47292ZM8.00633 6.56835L7.40887 6.62351C7.4041 6.57178 7.41259 6.52101 7.42961 6.4787L7.9863 6.70252L8.54299 6.92635C8.59516 6.79659 8.61701 6.65637 8.60379 6.51319L8.00633 6.56835ZM7.9863 6.70252L7.42961 6.4787C7.34613 6.68632 7.36421 6.89482 7.43324 7.06659L7.98997 6.84285L8.54669 6.61912C8.55942 6.65078 8.57232 6.69703 8.57383 6.75471C8.57537 6.81386 8.56455 6.87271 8.54299 6.92635L7.9863 6.70252ZM7.98997 6.84285L7.43324 7.06659C7.39682 6.97596 7.37497 6.83349 7.43768 6.68197C7.49408 6.54572 7.58779 6.47875 7.62488 6.45603L7.93832 6.96765L8.25176 7.47927C8.34331 7.42318 8.47286 7.31873 8.54647 7.14088C8.6264 6.94777 8.60314 6.75958 8.54669 6.61912L7.98997 6.84285ZM7.93832 6.96765L7.62488 6.45603C7.47815 6.54592 7.27564 6.73243 7.2533 7.04222L7.85174 7.08538L8.45019 7.12855C8.44305 7.22754 8.40646 7.3133 8.35921 7.37755C8.31575 7.43665 8.27118 7.46737 8.25176 7.47927L7.93832 6.96765ZM7.85174 7.08538L7.2533 7.04222C7.25592 7.00589 7.26647 6.96718 7.2852 6.93174L7.81569 7.21207L8.34617 7.49239C8.40647 7.37829 8.44106 7.25513 8.45019 7.12855L7.85174 7.08538ZM7.81569 7.21207L7.2852 6.93174C7.1751 7.14009 7.18566 7.35052 7.22465 7.50418L7.80622 7.3566L8.38778 7.20902C8.39784 7.24863 8.41471 7.3627 8.34617 7.49239L7.81569 7.21207ZM7.80622 7.3566L7.22465 7.50418C7.2108 7.4496 7.19592 7.33953 7.24641 7.21103C7.29944 7.07608 7.39501 6.99559 7.46784 6.95547L7.75733 7.48102L8.04681 8.00656C8.16671 7.94052 8.29395 7.82633 8.36328 7.6499C8.43007 7.47994 8.4161 7.32062 8.38778 7.20902L7.80622 7.3566ZM7.75733 7.48102L7.46784 6.95547C7.2719 7.0634 7.1202 7.25416 7.0823 7.50383L7.6755 7.59388L8.2687 7.68393C8.25916 7.74684 8.23401 7.81648 8.18734 7.88085C8.1416 7.94395 8.08862 7.98354 8.04681 8.00656L7.75733 7.48102ZM7.6755 7.59388L7.0823 7.50383C7.08376 7.49423 7.0877 7.47877 7.09662 7.46106L7.63247 7.73098L8.16833 8.0009C8.21965 7.89903 8.25227 7.79217 8.2687 7.68393L7.6755 7.59388ZM7.63247 7.73098L7.09662 7.46106C7.09531 7.46366 7.09424 7.46517 7.09318 7.46646L7.55611 7.84816L8.01905 8.22985C8.0774 8.15908 8.12724 8.08248 8.16833 8.0009L7.63247 7.73098ZM7.55611 7.84816L7.09318 7.46646C7.16608 7.37804 7.25589 7.3417 7.31204 7.33037L7.43072 7.91851L7.5494 8.50666C7.71333 8.47358 7.88673 8.39033 8.01905 8.22985L7.55611 7.84816ZM7.43072 7.91851L7.31204 7.33037C7.08558 7.37606 6.87378 7.52186 6.76842 7.76871L7.32026 8.00424L7.8721 8.23977C7.84521 8.30278 7.7991 8.3689 7.73056 8.42209C7.6638 8.47391 7.59702 8.49705 7.5494 8.50666L7.43072 7.91851ZM7.32026 8.00424L6.76842 7.76871C6.78786 7.72317 6.82558 7.66835 6.88598 7.62528L7.23434 8.1138L7.58269 8.60232C7.71815 8.50572 7.81316 8.37787 7.8721 8.23977L7.32026 8.00424ZM7.23434 8.1138L6.88598 7.62528C6.81451 7.67625 6.74928 7.73396 6.69025 7.79732L7.12925 8.20631L7.56826 8.6153C7.57428 8.60884 7.5791 8.60488 7.58269 8.60232L7.23434 8.1138ZM7.12925 8.20631L6.69025 7.79732C6.71485 7.77092 6.74568 7.74586 6.78228 7.72542C6.81877 7.70504 6.855 7.69261 6.88754 7.68588L7.00902 8.27345L7.1305 8.86102C7.2974 8.82652 7.44922 8.74308 7.56826 8.6153L7.12925 8.20631ZM7.00902 8.27345L6.88754 7.68588C6.90832 7.68158 6.9231 7.68241 6.92844 7.68303L6.85851 8.27895L6.78859 8.87486C6.89934 8.88785 7.01446 8.88502 7.1305 8.86102L7.00902 8.27345ZM6.85851 8.27895L6.92844 7.68303C6.7792 7.66552 6.60602 7.68234 6.43918 7.77105L6.72086 8.30082L7.00254 8.83059C6.91383 8.87776 6.83241 8.88 6.78859 8.87486L6.85851 8.27895ZM6.72086 8.30082L6.43918 7.77105C6.42731 7.77736 6.41522 7.78263 6.40269 7.78699L6.59971 8.35372L6.79674 8.92045C6.86762 8.89581 6.93631 8.86581 7.00254 8.83059L6.72086 8.30082ZM6.59971 8.35372L6.40269 7.78699C6.31263 7.8183 6.22895 7.86025 6.15182 7.91012L6.47758 8.41398L6.80335 8.91784C6.80563 8.91637 6.80337 8.91814 6.79674 8.92045L6.59971 8.35372ZM6.47758 8.41398L6.15182 7.91012C6.20308 7.87698 6.26979 7.8545 6.34125 7.8535L6.34965 8.45344L6.35804 9.05339C6.52067 9.05111 6.67268 9.00232 6.80335 8.91784L6.47758 8.41398ZM6.34965 8.45344L6.34125 7.8535C6.27814 7.85439 6.21524 7.85803 6.15264 7.86452L6.21454 8.46132L6.27644 9.05812C6.30281 9.05539 6.32999 9.05378 6.35804 9.05339L6.34965 8.45344ZM6.21454 8.46132L6.15264 7.86452C5.93684 7.88691 5.77546 7.99471 5.66975 8.09426L6.08111 8.53105L6.49247 8.96784C6.47568 8.98365 6.40326 9.04497 6.27644 9.05812L6.21454 8.46132ZM6.08111 8.53105L5.66975 8.09426C5.71132 8.05512 5.80944 7.98092 5.96203 7.96765C6.1216 7.95376 6.24202 8.01476 6.30572 8.06244L5.94619 8.54279L5.58666 9.02314C5.69585 9.10486 5.8615 9.18093 6.06604 9.16313C6.26361 9.14594 6.40645 9.04885 6.49247 8.96784L6.08111 8.53105ZM5.94619 8.54279L6.30572 8.06244C6.19445 7.97915 6.04705 7.90517 5.8676 7.88799L5.81041 8.48525L5.75323 9.08252C5.66384 9.07397 5.60696 9.03834 5.58666 9.02314L5.94619 8.54279ZM5.81041 8.48525L5.8676 7.88799C5.88181 7.88935 5.89505 7.89285 5.90568 7.89719L5.67895 8.4527L5.45223 9.00822C5.54807 9.04733 5.64894 9.07254 5.75323 9.08252L5.81041 8.48525ZM5.67895 8.4527L5.90568 7.89719C5.67051 7.80121 5.44557 7.84391 5.28394 7.91872L5.53598 8.46322L5.78801 9.00772C5.76254 9.01951 5.71712 9.03613 5.65528 9.04068C5.59043 9.04545 5.52 9.03588 5.45223 9.00822L5.67895 8.4527ZM5.53598 8.46322L5.28394 7.91872C5.33232 7.89633 5.42424 7.86633 5.54305 7.88237C5.668 7.89924 5.76289 7.95893 5.82256 8.01777L5.40134 8.44505L4.98012 8.87233C5.07684 8.96768 5.21268 9.04866 5.38251 9.07159C5.5462 9.09368 5.68691 9.05452 5.78801 9.00772L5.53598 8.46322ZM5.40134 8.44505L5.82256 8.01777C5.70615 7.903 5.55213 7.81481 5.36695 7.78656L5.27647 8.3797L5.18599 8.97284C5.09322 8.95869 5.02245 8.91406 4.98012 8.87233L5.40134 8.44505ZM5.27647 8.3797L5.36695 7.78656C5.35844 7.78526 5.35088 7.78331 5.34371 7.78075L5.14167 8.34571L4.93963 8.91067C5.01978 8.93933 5.10209 8.96004 5.18599 8.97284L5.27647 8.3797ZM5.14167 8.34571L5.34371 7.78075C5.26728 7.75341 5.1893 7.73302 5.11056 7.71871L5.00327 8.30904L4.89598 8.89936C4.91445 8.90272 4.92875 8.90677 4.93963 8.91067L5.14167 8.34571ZM5.00327 8.30904L5.11056 7.71871C5.21482 7.73765 5.31843 7.79258 5.39579 7.88139C5.46521 7.96109 5.48789 8.0384 5.49524 8.07157L4.90943 8.2013L4.32363 8.33103C4.34492 8.42719 4.39022 8.55395 4.49092 8.66956C4.59955 8.79428 4.74311 8.87158 4.89598 8.89936L5.00327 8.30904ZM4.90943 8.2013L5.49524 8.07157C5.47315 7.97183 5.4251 7.84013 5.31715 7.72231C5.20112 7.59567 5.05174 7.52447 4.90056 7.50205L4.81255 8.09556L4.72454 8.68907C4.624 8.67416 4.51608 8.62433 4.43235 8.53295C4.3567 8.45037 4.33177 8.36779 4.32363 8.33103L4.90943 8.2013ZM4.81255 8.09556L4.90056 7.50205C4.93638 7.50736 4.98262 7.51996 5.0319 7.54684C5.08209 7.57421 5.12515 7.61083 5.15882 7.65236L4.69275 8.03022L4.22668 8.40809C4.36056 8.57322 4.54194 8.66199 4.72454 8.68907L4.81255 8.09556ZM4.69275 8.03022L5.15882 7.65236C5.13967 7.62874 5.12177 7.60473 5.10505 7.58031L4.60999 7.91931L4.11494 8.25832C4.15012 8.30969 4.18738 8.35961 4.22668 8.40809L4.69275 8.03022ZM4.60999 7.91931L5.10505 7.58031C4.98334 7.40258 4.81062 7.30554 4.64733 7.2617L4.49177 7.84118L4.33621 8.42067C4.27865 8.40522 4.18475 8.36026 4.11494 8.25832L4.60999 7.91931ZM4.49177 7.84118L4.64733 7.2617C4.75208 7.28982 4.89791 7.37116 4.9792 7.54184C5.04803 7.68637 5.02734 7.80784 5.02109 7.83845L4.43324 7.71829L3.8454 7.59812C3.82529 7.69647 3.80744 7.8723 3.89578 8.05779C3.99657 8.26944 4.17859 8.37836 4.33621 8.42067L4.49177 7.84118ZM4.43324 7.71829L5.02109 7.83845C5.04719 7.71076 5.06036 7.46453 4.87558 7.24955C4.70377 7.04965 4.47787 7.01711 4.37147 7.01169L4.34096 7.61092L4.31045 8.21014C4.27942 8.20856 4.10658 8.19584 3.96553 8.03173C3.81152 7.85253 3.83314 7.65807 3.8454 7.59812L4.43324 7.71829ZM4.34096 7.61092L4.37147 7.01169C4.38619 7.01244 4.62028 7.02151 4.77123 7.25579C4.92466 7.49391 4.83215 7.71426 4.82502 7.73147L4.27069 7.50186L3.71636 7.27226C3.68071 7.35833 3.58565 7.63129 3.7625 7.90576C3.93688 8.17639 4.22037 8.20556 4.31045 8.21014L4.34096 7.61092ZM4.27069 7.50186L4.82502 7.73147C4.87723 7.60541 4.97463 7.29135 4.76281 6.99547L4.27494 7.34474L3.78708 7.69401C3.71025 7.5867 3.69122 7.47401 3.69337 7.39471C3.69529 7.32366 3.71347 7.27924 3.71636 7.27226L4.27069 7.50186ZM4.27494 7.34474L4.76281 6.99547C4.7199 6.93553 4.67285 6.87918 4.62262 6.82621L4.18725 7.23907L3.75188 7.65193C3.76719 7.66808 3.77861 7.68217 3.78708 7.69401L4.27494 7.34474ZM4.18725 7.23907L4.62262 6.82621C4.5676 6.7682 4.50808 6.71488 4.44605 6.66573L4.07341 7.13598L3.70077 7.60623C3.72498 7.62542 3.74135 7.64083 3.75188 7.65193L4.18725 7.23907ZM4.07341 7.13598L4.44605 6.66573C4.47098 6.68548 4.50434 6.71801 4.53408 6.76655C4.56471 6.81653 4.58528 6.8735 4.59344 6.93269L3.99907 7.01465L3.40469 7.09661C3.43575 7.32184 3.55812 7.4932 3.70077 7.60623L4.07341 7.13598ZM3.99907 7.01465L4.59344 6.93269C4.59043 6.91087 4.58882 6.88907 4.58857 6.86716L3.98861 6.87393L3.38865 6.8807C3.38946 6.95298 3.39482 7.025 3.40469 7.09661L3.99907 7.01465ZM3.98861 6.87393L4.58857 6.86716C4.58845 6.85641 4.58928 6.84541 4.59126 6.83375L3.99978 6.73301L3.4083 6.63227C3.39432 6.71431 3.3877 6.79726 3.38865 6.8807L3.98861 6.87393ZM3.99978 6.73301L4.59126 6.83375C4.61171 6.71367 4.60998 6.59029 4.58346 6.46797L3.99709 6.59514L3.41072 6.72232C3.40374 6.69012 3.4038 6.65866 3.4083 6.63227L3.99978 6.73301ZM3.99709 6.59514L4.58346 6.46797C4.59239 6.50915 4.59491 6.55359 4.58956 6.59856C4.58426 6.6431 4.57214 6.68075 4.55874 6.71004L4.01311 6.46047L3.46748 6.2109C3.39692 6.36516 3.37159 6.54189 3.41072 6.72232L3.99709 6.59514ZM4.01311 6.46047L4.55874 6.71004C4.587 6.64827 4.61223 6.58542 4.63388 6.52157L4.06564 6.32895L3.4974 6.13632C3.48992 6.1584 3.48013 6.18323 3.46748 6.2109L4.01311 6.46047ZM4.06564 6.32895L4.63388 6.52157C4.73095 6.23521 4.62628 5.9881 4.52571 5.84407L4.03377 6.18758L3.54184 6.5311C3.52772 6.51088 3.49931 6.46445 3.48328 6.39332C3.46595 6.31645 3.46692 6.22624 3.4974 6.13632L4.06564 6.32895ZM4.03377 6.18758L4.52571 5.84407C4.53843 5.8623 4.57701 5.92643 4.57874 6.02788L3.97883 6.03808L3.37891 6.04829C3.38228 6.24651 3.4575 6.41031 3.54184 6.5311L4.03377 6.18758ZM3.97883 6.03808L4.57874 6.02788C4.57943 6.06835 4.57354 6.11259 4.55878 6.15719C4.54409 6.20158 4.5233 6.23826 4.50192 6.26664L4.02264 5.90569L3.54336 5.54473C3.43562 5.68779 3.37574 5.86171 3.37891 6.04829L3.97883 6.03808ZM4.02264 5.90569L4.50192 6.26664C4.60104 6.13503 4.6606 5.97864 4.67108 5.8099L4.07223 5.77271L3.47338 5.73552C3.47781 5.66433 3.50431 5.59658 3.54336 5.54473L4.02264 5.90569ZM4.07223 5.77271L4.67108 5.8099C4.66423 5.92018 4.61925 6.03025 4.54034 6.11599C4.47017 6.19223 4.3981 6.22251 4.36901 6.23275L4.16968 5.66683L3.97035 5.10091C3.87933 5.13297 3.76004 5.19181 3.65739 5.30334C3.546 5.42437 3.48326 5.57648 3.47338 5.73552L4.07223 5.77271ZM4.16968 5.66683L4.36901 6.23275C4.52175 6.17895 4.75692 6.04834 4.85309 5.76002L4.28392 5.57017L3.71475 5.38032C3.78248 5.17725 3.94149 5.11107 3.97035 5.10091L4.16968 5.66683ZM4.28392 5.57017L4.85309 5.76002C4.88584 5.66184 4.90282 5.56311 4.909 5.46765L4.31026 5.42885L3.71152 5.39005C3.71102 5.39777 3.71043 5.39325 3.71475 5.38032L4.28392 5.57017ZM4.31026 5.42885L4.909 5.46765C4.90277 5.56382 4.86337 5.68905 4.75922 5.79241C4.66409 5.88682 4.56275 5.9152 4.51742 5.92381L4.40549 5.33434L4.29357 4.74487C4.18809 4.7649 4.04081 4.81474 3.91393 4.94066C3.77804 5.07552 3.72109 5.24229 3.71152 5.39005L4.31026 5.42885ZM4.40549 5.33434L4.51742 5.92381C4.70041 5.88906 4.9515 5.77558 5.07389 5.49165L4.52289 5.25415L3.9719 5.01664C4.00947 4.92948 4.07071 4.85865 4.14152 4.81028C4.20697 4.76558 4.26516 4.75027 4.29357 4.74487L4.40549 5.33434ZM4.52289 5.25415L5.07389 5.49165C5.04968 5.5478 5.00793 5.60156 4.95297 5.64073L4.60473 5.15213L4.2565 4.66353C4.12866 4.75464 4.03235 4.8764 3.9719 5.01664L4.52289 5.25415ZM4.60473 5.15213L4.95297 5.64073C5.17035 5.48579 5.24634 5.26069 5.26575 5.09264L4.66972 5.02379L4.07368 4.95493C4.07933 4.90606 4.11199 4.76652 4.2565 4.66353L4.60473 5.15213ZM4.66972 5.02379L5.26575 5.09264C5.26024 5.1404 5.23928 5.23804 5.15882 5.33538C5.07194 5.44049 4.96028 5.49144 4.86917 5.509L4.75564 4.91984L4.64211 4.33068C4.5006 4.35794 4.34943 4.43108 4.2339 4.57084C4.1248 4.70283 4.08608 4.84758 4.07368 4.95493L4.66972 5.02379ZM4.75564 4.91984L4.86917 5.509C4.92942 5.49739 4.98827 5.48447 5.04556 5.47014L4.89989 4.88809L4.75421 4.30604C4.71998 4.31461 4.68267 4.32286 4.64211 4.33068L4.75564 4.91984ZM4.89989 4.88809L5.04556 5.47014C5.31883 5.40174 5.48234 5.20305 5.55783 5.0124L4.99996 4.79152L4.4421 4.57064C4.45611 4.53525 4.48533 4.47886 4.5426 4.4236C4.6029 4.3654 4.67705 4.32535 4.75421 4.30604L4.89989 4.88809ZM4.99996 4.79152L5.55783 5.0124C5.54199 5.0524 5.50755 5.11814 5.43787 5.17951C5.36407 5.24452 5.27655 5.28169 5.19281 5.29445L5.10238 4.7013L5.01196 4.10816C4.71048 4.15412 4.52404 4.36368 4.4421 4.57064L4.99996 4.79152ZM5.10238 4.7013L5.19281 5.29445C5.23777 5.2876 5.28185 5.28115 5.32504 5.27511L5.24197 4.68089L5.1589 4.08667C5.11062 4.09342 5.06164 4.10058 5.01196 4.10816L5.10238 4.7013ZM5.24197 4.68089L5.32504 5.27511C5.4088 5.2634 5.49173 5.24364 5.57289 5.215L5.37322 4.64919L5.17355 4.08339C5.17118 4.08423 5.16661 4.08559 5.1589 4.08667L5.24197 4.68089ZM5.37322 4.64919L5.57289 5.215C5.68917 5.17396 5.79031 5.11266 5.87654 5.04103L5.49314 4.57951L5.10974 4.11798C5.1196 4.10979 5.1408 4.09495 5.17355 4.08339L5.37322 4.64919ZM5.49314 4.57951L5.87654 5.04103C5.84464 5.06753 5.80042 5.09518 5.74403 5.11405C5.68701 5.13313 5.63011 5.13899 5.57864 5.13538L5.62062 4.53685L5.6626 3.93832C5.45207 3.92356 5.25919 3.99383 5.10974 4.11798L5.49314 4.57951ZM5.62062 4.53685L5.57864 5.13538C5.71855 5.1452 5.85675 5.12253 5.98592 5.06894L5.75602 4.51473L5.52613 3.96052C5.56838 3.943 5.6163 3.93508 5.6626 3.93832L5.62062 4.53685ZM5.75602 4.51473L5.98592 5.06894C5.94577 5.0856 5.89767 5.09442 5.84848 5.09102L5.88993 4.49245L5.93139 3.89388C5.79057 3.88413 5.6532 3.90782 5.52613 3.96052L5.75602 4.51473ZM5.88993 4.49245L5.84848 5.09102C5.89006 5.0939 5.93134 5.0972 5.97232 5.10092L6.02658 4.50338L6.08084 3.90584C6.03124 3.90133 5.98143 3.89735 5.93139 3.89388L5.88993 4.49245ZM6.02658 4.50338L5.97232 5.10092C6.15155 5.11719 6.31193 5.07246 6.44162 5.00569L6.16696 4.47225L5.8923 3.9388C5.92538 3.92177 5.99218 3.89779 6.08084 3.90584L6.02658 4.50338ZM6.16696 4.47225L6.44162 5.00569C6.34948 5.05313 6.20012 5.08854 6.03637 5.03095C5.89322 4.98061 5.82194 4.88734 5.80081 4.85645L6.29598 4.51762L6.79114 4.17879C6.73229 4.09278 6.62066 3.96439 6.4345 3.89892C6.22774 3.82621 6.03273 3.8665 5.8923 3.9388L6.16696 4.47225ZM6.29598 4.51762L5.80081 4.85645C5.86147 4.94511 5.97017 5.06687 6.1464 5.13309C6.33828 5.20518 6.52434 5.17964 6.66633 5.11838L6.42865 4.56747L6.19097 4.01655C6.28222 3.97718 6.4208 3.95428 6.56846 4.00976C6.70047 4.05936 6.76819 4.14524 6.79114 4.17879L6.29598 4.51762ZM6.42865 4.56747L6.66633 5.11838C6.67107 5.11633 6.66932 5.11772 6.66204 5.11872L6.5808 4.52424L6.49956 3.92977C6.39087 3.94462 6.28768 3.97483 6.19097 4.01655L6.42865 4.56747ZM6.5808 4.52424L6.66204 5.11872C6.59797 5.12747 6.5167 5.12342 6.43203 5.09026C6.3484 5.05751 6.28998 5.00755 6.25376 4.96538L6.70889 4.57441L7.16402 4.18345C7.00306 3.99607 6.76156 3.89396 6.49956 3.92977L6.5808 4.52424ZM6.70889 4.57441L6.25376 4.96538C6.29866 5.01765 6.34513 5.06758 6.3933 5.1146L6.81243 4.68527L7.23157 4.25594C7.21104 4.2359 7.18849 4.21193 7.16402 4.18345L6.70889 4.57441ZM6.81243 4.68527L6.3933 5.1146C6.4124 5.13325 6.43007 5.15248 6.44643 5.17231L6.90927 4.7905L7.37211 4.40869C7.32804 4.35527 7.28115 4.30435 7.23157 4.25594L6.81243 4.68527ZM6.90927 4.7905L6.44643 5.17231C6.52966 5.2732 6.63599 5.35958 6.76538 5.4186L7.01441 4.87273L7.26344 4.32685C7.31306 4.34948 7.3493 4.38104 7.37211 4.40869L6.90927 4.7905ZM7.01441 4.87273L6.76538 5.4186C6.82535 5.44596 6.8868 5.47 6.94946 5.49099L7.14002 4.92205L7.33059 4.35312C7.30553 4.34473 7.28324 4.33588 7.26344 4.32685L7.01441 4.87273ZM7.14002 4.92205L6.94946 5.49099C7.03107 5.51832 7.114 5.53703 7.19624 5.54931L7.28486 4.95589L7.37347 4.36247C7.35031 4.35901 7.33669 4.35517 7.33059 4.35312L7.14002 4.92205ZM7.28486 4.95589L7.19624 5.54931C7.16539 5.54471 7.12323 5.53379 7.07685 5.50948C7.02938 5.4846 6.98633 5.45024 6.95125 5.40884L7.40906 5.021L7.86687 4.63317C7.72922 4.47068 7.54802 4.38854 7.37347 4.36247L7.28486 4.95589ZM7.40906 5.021L6.95125 5.40884C6.95492 5.41317 6.95842 5.41814 6.96187 5.42444L7.48817 5.13632L8.01446 4.84819C7.97265 4.77182 7.92341 4.69992 7.86687 4.63317L7.40906 5.021ZM7.48817 5.13632L6.96187 5.42444C6.9861 5.4687 7.01041 5.51222 7.03479 5.555L7.55606 5.25788L8.07733 4.96076C8.05645 4.92413 8.03549 4.88661 8.01446 4.84819L7.48817 5.13632ZM7.55606 5.25788L7.03479 5.555C7.02541 5.53855 7.0205 5.52354 7.0183 5.51321L7.60505 5.38782L8.1918 5.26243C8.16954 5.15826 8.13197 5.05662 8.07733 4.96076L7.55606 5.25788ZM7.60505 5.38782L7.0183 5.51321C7.07343 5.77119 7.24775 5.94741 7.44341 6.03733L7.69398 5.49216L7.94454 4.94698C7.98454 4.96537 8.04016 4.99972 8.09144 5.0599C8.14446 5.1221 8.17708 5.19355 8.1918 5.26243L7.60505 5.38782ZM7.69398 5.49216L7.44341 6.03733C7.39289 6.01412 7.31859 5.96687 7.25761 5.87937C7.19462 5.78899 7.17186 5.6929 7.16993 5.61593L7.76974 5.60088L8.36955 5.58583C8.36637 5.45901 8.33036 5.31989 8.24212 5.19327C8.15588 5.06952 8.04432 4.99284 7.94454 4.94698L7.69398 5.49216ZM7.76974 5.60088L7.16993 5.61593C7.17525 5.82815 7.26409 6.02509 7.42287 6.16948L7.82654 5.72558L8.23022 5.28168C8.26702 5.31515 8.30391 5.36146 8.3309 5.42072C8.35785 5.47989 8.36834 5.53746 8.36955 5.58583L7.76974 5.60088ZM7.82654 5.72558L7.42287 6.16948C7.35808 6.11056 7.29622 6.01976 7.27243 5.90179C7.25001 5.79064 7.27079 5.70213 7.28751 5.65509L7.85285 5.85604L8.4182 6.057C8.454 5.95628 8.47993 5.8192 8.44874 5.66456C8.41618 5.5031 8.33163 5.3739 8.23022 5.28168L7.82654 5.72558ZM7.85285 5.85604L7.28751 5.65509C7.23904 5.79145 7.21894 5.97837 7.30365 6.17032C7.38341 6.35108 7.52033 6.45415 7.61956 6.5088L7.90897 5.98321L8.19839 5.45763C8.24113 5.48116 8.34045 5.54749 8.4015 5.68586C8.46751 5.83543 8.44759 5.97431 8.4182 6.057L7.85285 5.85604ZM7.90897 5.98321L7.61956 6.5088C7.59291 6.49412 7.49215 6.42912 7.4444 6.2813L8.01535 6.09686L8.58629 5.91241C8.50969 5.67528 8.33802 5.53452 8.19839 5.45763L7.90897 5.98321ZM8.01535 6.09686L7.4444 6.2813C7.4225 6.2135 7.42332 6.14569 7.43673 6.09159L8.0191 6.23598L8.60147 6.38037C8.63873 6.23008 8.63705 6.06952 8.58629 5.91241L8.01535 6.09686ZM8.0191 6.23598L7.43673 6.09159C7.43024 6.11776 7.42243 6.14297 7.41333 6.16738L7.97548 6.3771L8.53763 6.58682C8.56284 6.51926 8.58411 6.45039 8.60147 6.38037L8.0191 6.23598ZM7.97548 6.3771L7.41333 6.16738C7.39193 6.22473 7.36319 6.31823 7.36247 6.43175C7.3617 6.55322 7.3947 6.73113 7.53687 6.88299L7.97487 6.47292L8.41287 6.06285C8.5383 6.19681 8.56302 6.3498 8.56245 6.43934C8.56193 6.52092 8.54187 6.57545 8.53763 6.58682L7.97548 6.3771ZM7.97487 6.47292L7.53687 6.88299C7.46806 6.80948 7.43808 6.7363 7.42547 6.69805C7.41239 6.65837 7.40951 6.6304 7.40887 6.62351L8.00633 6.56835L8.60379 6.51319C8.59659 6.43523 8.57154 6.23233 8.41287 6.06285L7.97487 6.47292Z" fill="var(--stroke-0, #6C6C6C)"/>
</g>
</svg>
