<svg preserveAspectRatio="none" width="100%" height="100%" overflow="visible" style="display: block;" viewBox="0 0 24 24" fill="none" xmlns="http://www.w3.org/2000/svg">
<g id="Frame">
<g id="Vector">
<path d="M2 9.5C2.00002 8.3872 2.33759 7.30058 2.96813 6.38366C3.59867 5.46674 4.49252 4.76266 5.53161 4.3644C6.5707 3.96614 7.70616 3.89244 8.78801 4.15304C9.86987 4.41364 10.8472 4.99628 11.591 5.824C11.6434 5.88001 11.7067 5.92467 11.7771 5.9552C11.8474 5.98573 11.9233 6.00148 12 6.00148C12.0767 6.00148 12.1526 5.98573 12.2229 5.9552C12.2933 5.92467 12.3566 5.88001 12.409 5.824C13.1504 4.9909 14.128 4.40337 15.2116 4.1396C16.2952 3.87584 17.4335 3.94835 18.4749 4.34748C19.5163 4.74662 20.4114 5.45345 21.0411 6.3739C21.6708 7.29435 22.0053 8.38476 22 9.5C22 11.79 20.5 13.5 19 15L13.508 20.313C13.3217 20.527 13.0919 20.6989 12.834 20.8173C12.5762 20.9357 12.296 20.9978 12.0123 20.9996C11.7285 21.0014 11.4476 20.9428 11.1883 20.8277C10.9289 20.7126 10.697 20.5436 10.508 20.332L5 15C3.5 13.5 2 11.8 2 9.5Z" fill="var(--fill-0, #7ACC2D)"/>
<path d="M1.99831 8.29905L0.998456 8.28175L1.99831 8.29905ZM2.70624 7.0856L2.15296 6.25261L2.70624 7.0856ZM3.22884 5.72361L3.61595 6.64564L3.22884 5.72361ZM3.70932 5.52188L3.3222 4.59985L3.70932 5.52188ZM4.36728 5.22294L4.79573 6.1265L4.36728 5.22294ZM4.97196 4.89207L5.55104 5.70734L4.97196 4.89207ZM5.15891 4.75928L4.57983 3.94401L5.15891 4.75928ZM5.34586 4.62649L4.76678 3.81122L5.34586 4.62649ZM5.75062 4.41746L5.42025 3.47361L5.75062 4.41746ZM5.96843 4.34122L6.29881 5.28507L5.96843 4.34122ZM6.18624 4.26498L5.85587 3.32113L6.18624 4.26498ZM7.55347 4.11757L7.47494 5.11448L7.55347 4.11757ZM8.01238 4.15372L7.93385 5.15063L8.01238 4.15372ZM8.47557 4.19185L8.39012 5.18819L8.47557 4.19185ZM9.84073 4.4986L9.49254 5.43602L9.84073 4.4986ZM10.203 4.78493L11.0259 4.21667L10.203 4.78493ZM10.344 4.98905L9.52113 5.55731L10.344 4.98905ZM10.4849 5.19318L9.66209 5.76143L10.4849 5.19318ZM10.8328 5.50442L10.373 6.39245L10.8328 5.50442ZM11.0397 5.61155L11.4995 4.72352L11.0397 5.61155ZM11.2466 5.71867L10.7868 6.6067L11.2466 5.71867ZM11.7309 5.89854L11.4772 6.86582L11.7309 5.89854ZM12.0082 5.97129L11.7545 6.93857L12.0082 5.97129ZM12.2856 6.04404L12.5393 5.07676L12.2856 6.04404ZM12.6808 5.89233L13.5662 6.35705L12.6808 5.89233ZM12.7986 5.66786L11.9131 5.20314L12.7986 5.66786ZM12.9164 5.44339L13.8019 5.90812L12.9164 5.44339ZM13.2301 5.08989L12.68 4.25477L13.2301 5.08989ZM13.6219 4.83181L14.172 5.66693L13.6219 4.83181ZM14.0476 4.65248L13.8338 3.6756L14.0476 4.65248ZM14.5073 4.55188L14.7211 5.52876L14.5073 4.55188ZM14.9437 4.37685L14.4269 3.52074L14.9437 4.37685ZM15.1503 4.25211L14.6335 3.396L15.1503 4.25211ZM15.357 4.12738L14.8402 3.27127L15.357 4.12738ZM15.8001 4.08342L16.1233 3.1371L15.8001 4.08342ZM16.0366 4.16421L15.7134 5.11053L16.0366 4.16421ZM16.2732 4.24499L16.5964 3.29867L16.2732 4.24499ZM17.1708 4.36327L17.1142 5.36167L17.1708 4.36327ZM17.6181 4.39571L17.5305 5.39187L17.6181 4.39571ZM17.8449 4.41565L17.7573 5.41181L17.8449 4.41565ZM18.0718 4.4356L18.1593 3.43944L18.0718 4.4356ZM18.499 4.56219L18.9688 3.67941L18.499 4.56219ZM18.8998 4.77548L18.43 5.65826L18.8998 4.77548ZM19.3554 4.92465L19.191 5.91105L19.3554 4.92465ZM19.6106 4.96718L19.775 3.98078L19.6106 4.96718ZM19.8658 5.00971L19.7014 5.9961L19.8658 5.00971ZM20.2855 5.55344L21.2357 5.24161L20.2855 5.55344ZM20.3678 5.80404L19.4176 6.11587L20.3678 5.80404ZM20.586 6.23212L19.7921 6.84024L20.586 6.23212ZM20.7219 6.4096L21.5158 5.80149V5.80149L20.7219 6.4096ZM20.8579 6.58709L21.6517 5.97897L20.8579 6.58709ZM21.2322 6.91105L20.7086 7.76303L21.2322 6.91105ZM21.7089 7.20402L21.1853 8.05599L21.7089 7.20402ZM21.9041 7.61305L20.9174 7.45088L21.9041 7.61305ZM21.861 7.8756L20.8742 7.71343L21.861 7.8756ZM21.8178 8.13815L22.8046 8.30032L21.8178 8.13815ZM21.7541 8.63028L22.7501 8.71965L21.7541 8.63028ZM21.7335 8.85986L20.7375 8.7705L21.7335 8.85986ZM21.7129 9.08945L20.7169 9.00008L21.7129 9.08945ZM21.9089 9.79645L22.8195 9.38333L21.9089 9.79645ZM22.0172 10.0352L21.1065 10.4483L22.0172 10.0352ZM22.0827 10.5145L21.0981 10.3397L22.0827 10.5145ZM22.04 10.7551L23.0246 10.9299L22.04 10.7551ZM21.9973 10.9957L21.0127 10.821L21.9973 10.9957ZM21.7399 11.3994L22.3447 12.1958L21.7399 11.3994ZM21.3106 11.7255L20.7058 10.9291L21.3106 11.7255ZM20.9907 12.0896L21.8768 12.5531L20.9907 12.0896ZM20.7803 12.4918L19.8942 12.0283L20.7803 12.4918ZM20.6187 12.9432L19.6432 12.7231L20.6187 12.9432ZM20.5057 13.4439L21.4812 13.664L20.5057 13.4439ZM20.2265 13.8115L19.7604 12.9267L20.2265 13.8115ZM19.781 14.0462L20.247 14.9309L19.781 14.0462ZM19.4097 14.3449L20.1834 14.9785L19.4097 14.3449ZM19.1125 14.7078L19.8862 15.3414L19.1125 14.7078ZM18.8646 15.1239L17.9438 14.734L18.8646 15.1239ZM18.7653 15.3585L17.8444 14.9686L18.7653 15.3585ZM18.666 15.5931L17.7451 15.2032L18.666 15.5931ZM18.3772 15.9699L18.9775 16.7697L18.3772 15.9699ZM18.1878 16.1121L17.5875 15.3123L18.1878 16.1121ZM17.9983 16.2543L18.5986 17.054L17.9983 16.2543ZM17.6512 16.5714L18.394 17.2409L17.6512 16.5714ZM17.4935 16.7464L16.7507 16.0768L17.4935 16.7464ZM17.3358 16.9213L18.0786 17.5908L17.3358 16.9213ZM16.9925 17.2425L16.3737 16.4569L16.9925 17.2425ZM16.807 17.3886L16.1881 16.6031L16.807 17.3886ZM16.1942 17.7692L15.8513 16.8299L16.1942 17.7692ZM15.711 17.9457L16.054 18.885L15.711 17.9457ZM15.3308 18.2286L16.1454 18.8085L15.3308 18.2286ZM15.0535 18.618L14.2389 18.038L15.0535 18.618ZM14.7693 19.0001L13.9796 18.3866L14.7693 19.0001ZM14.6236 19.1876L15.4133 19.8011L14.6236 19.1876ZM14.478 19.375L13.6884 18.7614L14.478 19.375ZM14.1092 19.6697L14.5424 20.571L14.1092 19.6697ZM13.886 19.777L13.4528 18.8757L13.886 19.777ZM13.6628 19.8843L13.2296 18.983L13.6628 19.8843ZM13.3038 20.1833L12.4878 19.6053L13.3038 20.1833ZM13.0323 20.5667L13.8483 21.1446L13.0323 20.5667ZM12.673 20.7817L12.5691 19.7871L12.673 20.7817ZM12.4495 20.8051L12.5534 21.7997L12.4495 20.8051ZM12.226 20.8284L12.1221 19.8338L12.226 20.8284ZM11.5557 20.806L11.6577 19.8112L11.5557 20.806ZM11.3323 20.7831L11.2303 21.7779L11.3323 20.7831ZM10.9416 20.6012L10.2526 21.326L10.9416 20.6012ZM10.6072 20.2833L11.2962 19.5585L10.6072 20.2833ZM10.2927 19.9386L11.0761 19.3172L10.2927 19.9386ZM10.1454 19.7529L10.9288 19.1315L10.1454 19.7529ZM9.99806 19.5672L9.21458 20.1886L9.99806 19.5672ZM9.68323 19.2167L10.3845 18.5038L9.68323 19.2167ZM9.34818 18.887L10.0495 18.1742L9.34818 18.887ZM8.93562 18.6375L8.60875 19.5826L8.93562 18.6375ZM8.44555 18.468L8.77241 17.5229L8.44555 18.468ZM8.05266 18.1981L7.27126 18.8221L8.05266 18.1981ZM7.75696 17.8278L8.53837 17.2038L7.75696 17.8278ZM7.46642 17.4522L8.26673 16.8526L7.46642 17.4522ZM7.18103 17.0713L6.38072 17.6709L7.18103 17.0713ZM6.88488 16.7015L7.64468 16.0513L6.88488 16.7015ZM6.57795 16.3428L7.33776 15.6926L6.57795 16.3428ZM6.24922 16.0066L5.58246 16.7519L6.24922 16.0066ZM5.89867 15.693L6.56542 14.9477L5.89867 15.693ZM5.56369 15.3644L6.2962 14.6836L5.56369 15.3644ZM5.24429 15.0207L4.51179 15.7015L5.24429 15.0207ZM4.62527 14.3192L3.86979 14.9744L4.62527 14.3192ZM4.32721 13.9621L3.54738 14.5881L4.32721 13.9621ZM4.03731 13.6009L4.81715 12.975L4.03731 13.6009ZM3.77106 13.2262L2.92289 13.7559L3.77106 13.2262ZM3.52846 12.8377L2.68029 13.3674L3.52846 12.8377ZM3.21997 12.4881L2.58137 13.2577L3.21997 12.4881ZM3.03278 12.3328L2.39418 13.1023L3.03278 12.3328ZM2.8456 12.1775L3.4842 11.4079L2.8456 12.1775ZM2.36339 11.3829L3.27136 10.9638L2.36339 11.3829ZM2.10218 10.0598L1.10257 10.0878L2.10218 10.0598ZM1.99698 9.02484L2.99696 9.01849L2.99546 8.78091L1.99548 8.78726L0.995497 8.79361L0.997005 9.03119L1.99698 9.02484ZM1.99548 8.78726L2.99546 8.78091C2.9945 8.63083 2.99539 8.47599 2.99816 8.31636L1.99831 8.29905L0.998456 8.28175C0.995436 8.45629 0.994439 8.62692 0.995497 8.79361L1.99548 8.78726ZM1.99831 8.29905L2.99816 8.31636L3.00249 8.06573L2.00264 8.04843L1.00279 8.03112L0.998456 8.28175L1.99831 8.29905ZM2.00264 8.04843L3.00249 8.06573L3.00683 7.81511L2.00698 7.7978L1.00713 7.7805L1.00279 8.03112L2.00264 8.04843ZM2.00698 7.7978L3.00683 7.81511C3.00553 7.89028 2.98491 7.98441 2.9319 8.07529C2.88109 8.16238 2.82262 8.2088 2.79624 8.22631L2.24296 7.39332L1.68968 6.56032C1.29638 6.82156 1.0164 7.2447 1.00713 7.7805L2.00698 7.7978ZM2.24296 7.39332L2.79624 8.22631L3.02788 8.07245L2.4746 7.23946L1.92132 6.40647L1.68968 6.56032L2.24296 7.39332ZM2.4746 7.23946L3.02788 8.07245L3.25953 7.91859L2.70624 7.0856L2.15296 6.25261L1.92132 6.40647L2.4746 7.23946ZM2.70624 7.0856L3.25953 7.91859C3.67839 7.64038 3.92642 7.205 3.94952 6.70068L2.95057 6.65492L1.95161 6.60917C1.95372 6.56312 1.96751 6.4884 2.01336 6.40758C2.05914 6.32688 2.11577 6.27731 2.15296 6.25261L2.70624 7.0856ZM2.95057 6.65492L3.94952 6.70068L3.9622 6.42386L2.96324 6.37811L1.96429 6.33235L1.95161 6.60917L2.95057 6.65492ZM2.96324 6.37811L3.9622 6.42386L3.97487 6.14704L2.97592 6.10129L1.97697 6.05554L1.96429 6.33235L2.96324 6.37811ZM2.97592 6.10129L3.97487 6.14704C3.97258 6.19714 3.956 6.30599 3.87639 6.42488C3.79428 6.5475 3.68923 6.61487 3.61595 6.64564L3.22884 5.72361L2.84173 4.80157C2.60829 4.89958 2.38101 5.06353 2.21459 5.31204C2.05067 5.55682 1.98772 5.82089 1.97697 6.05554L2.97592 6.10129ZM3.22884 5.72361L3.61595 6.64564L3.85619 6.54478L3.46908 5.62274L3.08197 4.70071L2.84173 4.80157L3.22884 5.72361ZM3.46908 5.62274L3.85619 6.54478L4.09643 6.44391L3.70932 5.52188L3.3222 4.59985L3.08197 4.70071L3.46908 5.62274ZM3.70932 5.52188L4.09643 6.44391C4.26879 6.37155 4.43241 6.29878 4.58687 6.22554L4.15842 5.32198L3.72996 4.41841C3.60595 4.47722 3.47016 4.53773 3.3222 4.59985L3.70932 5.52188ZM4.15842 5.32198L4.58687 6.22554L4.79573 6.1265L4.36728 5.22294L3.93883 4.31937L3.72996 4.41841L4.15842 5.32198ZM4.36728 5.22294L4.79573 6.1265L5.0046 6.02746L4.57614 5.1239L4.14769 4.22034L3.93883 4.31937L4.36728 5.22294ZM4.57614 5.1239L5.0046 6.02746C5.1961 5.93666 5.37848 5.82991 5.55104 5.70734L4.97196 4.89207L4.39288 4.0768C4.31616 4.13129 4.23467 4.17909 4.14769 4.22034L4.57614 5.1239ZM4.97196 4.89207L5.55104 5.70734L5.73799 5.57455L5.15891 4.75928L4.57983 3.94401L4.39288 4.0768L4.97196 4.89207ZM5.15891 4.75928L5.73799 5.57455L5.92494 5.44176L5.34586 4.62649L4.76678 3.81122L4.57983 3.94401L5.15891 4.75928ZM5.34586 4.62649L5.92494 5.44176C5.97262 5.40789 6.02374 5.38135 6.081 5.36131L5.75062 4.41746L5.42025 3.47361C5.18709 3.55522 4.96837 3.66803 4.76678 3.81122L5.34586 4.62649ZM5.75062 4.41746L6.081 5.36131L6.29881 5.28507L5.96843 4.34122L5.63806 3.39737L5.42025 3.47361L5.75062 4.41746ZM5.96843 4.34122L6.29881 5.28507L6.51662 5.20883L6.18624 4.26498L5.85587 3.32113L5.63806 3.39737L5.96843 4.34122ZM6.18624 4.26498L6.51662 5.20883C6.58613 5.1845 6.65689 5.16891 6.7306 5.16176L6.63404 4.16643L6.53749 3.1711C6.30455 3.1937 6.07677 3.24381 5.85587 3.32113L6.18624 4.26498ZM6.63404 4.16643L6.7306 5.16176L6.96059 5.13945L6.86404 4.14412L6.76748 3.14879L6.53749 3.1711L6.63404 4.16643ZM6.86404 4.14412L6.96059 5.13945L7.19058 5.11713L7.09403 4.12181L6.99747 3.12648L6.76748 3.14879L6.86404 4.14412ZM7.09403 4.12181L7.19058 5.11713C7.28593 5.10788 7.38049 5.10704 7.47494 5.11448L7.55347 4.11757L7.63201 3.12066C7.42051 3.104 7.20877 3.10598 6.99747 3.12648L7.09403 4.12181ZM7.55347 4.11757L7.47494 5.11448L7.70439 5.13256L7.78293 4.13565L7.86146 3.13874L7.63201 3.12066L7.55347 4.11757ZM7.78293 4.13565L7.70439 5.13256L7.93385 5.15063L8.01238 4.15372L8.09091 3.15681L7.86146 3.13874L7.78293 4.13565ZM8.01238 4.15372L7.93385 5.15063C8.08446 5.1625 8.23655 5.17502 8.39012 5.18819L8.47557 4.19185L8.56102 3.1955C8.40294 3.18195 8.24623 3.16905 8.09091 3.15681L8.01238 4.15372ZM8.47557 4.19185L8.39012 5.18819L8.62385 5.20824L8.70931 4.21189L8.79476 3.21555L8.56102 3.1955L8.47557 4.19185ZM8.70931 4.21189L8.62385 5.20824L8.85759 5.22828L8.94304 4.23194L9.0285 3.2356L8.79476 3.21555L8.70931 4.21189ZM8.94304 4.23194L8.85759 5.22828C8.923 5.23389 8.98634 5.248 9.04991 5.27162L9.39809 4.33419L9.74628 3.39677C9.51476 3.31077 9.27473 3.25672 9.0285 3.2356L8.94304 4.23194ZM9.39809 4.33419L9.04991 5.27162L9.27122 5.35382L9.61941 4.41639L9.9676 3.47897L9.74628 3.39677L9.39809 4.33419ZM9.61941 4.41639L9.27122 5.35382L9.49254 5.43602L9.84073 4.4986L10.1889 3.56117L9.9676 3.47897L9.61941 4.41639ZM9.84073 4.4986L9.49254 5.43602C9.47049 5.42783 9.44544 5.41444 9.42189 5.39583C9.39872 5.37752 9.38545 5.36084 9.38016 5.35318L10.203 4.78493L11.0259 4.21667C10.8216 3.92083 10.5389 3.69117 10.1889 3.56117L9.84073 4.4986ZM10.203 4.78493L9.38016 5.35318L9.52113 5.55731L10.344 4.98905L11.1668 4.4208L11.0259 4.21667L10.203 4.78493ZM10.344 4.98905L9.52113 5.55731L9.66209 5.76143L10.4849 5.19318L11.3078 4.62492L11.1668 4.4208L10.344 4.98905ZM10.4849 5.19318L9.66209 5.76143C9.84289 6.02324 10.0803 6.24091 10.373 6.39245L10.8328 5.50442L11.2926 4.6164C11.2952 4.61775 11.2982 4.61953 11.3014 4.6217C11.3045 4.62386 11.3072 4.62599 11.3092 4.62781C11.3136 4.63176 11.3127 4.63208 11.3078 4.62492L10.4849 5.19318ZM10.8328 5.50442L10.373 6.39245L10.5799 6.49957L11.0397 5.61155L11.4995 4.72352L11.2926 4.6164L10.8328 5.50442ZM11.0397 5.61155L10.5799 6.49957L10.7868 6.6067L11.2466 5.71867L11.7064 4.83064L11.4995 4.72352L11.0397 5.61155ZM11.2466 5.71867L10.7868 6.6067C11.0033 6.71878 11.2365 6.80271 11.4772 6.86582L11.7309 5.89854L11.9846 4.93126C11.8554 4.89738 11.7658 4.86139 11.7064 4.83064L11.2466 5.71867ZM11.7309 5.89854L11.4772 6.86582L11.7545 6.93857L12.0082 5.97129L12.2619 5.00401L11.9846 4.93126L11.7309 5.89854ZM12.0082 5.97129L11.7545 6.93857L12.0319 7.01132L12.2856 6.04404L12.5393 5.07676L12.2619 5.00401L12.0082 5.97129ZM12.2856 6.04404L12.0319 7.01132C12.2563 7.07018 12.5615 7.09889 12.8815 6.97605C13.2172 6.84716 13.4375 6.6023 13.5662 6.35705L12.6808 5.89233L11.7953 5.42761C11.8455 5.332 11.9607 5.18724 12.1647 5.10893C12.3529 5.03666 12.4998 5.06641 12.5393 5.07676L12.2856 6.04404ZM12.6808 5.89233L13.5662 6.35705L13.684 6.13258L12.7986 5.66786L11.9131 5.20314L11.7953 5.42761L12.6808 5.89233ZM12.7986 5.66786L13.684 6.13258L13.8019 5.90812L12.9164 5.44339L12.0309 4.97867L11.9131 5.20314L12.7986 5.66786ZM12.9164 5.44339L13.8019 5.90812C13.8062 5.89979 13.8069 5.9007 13.8017 5.90654C13.7992 5.9093 13.796 5.91256 13.792 5.916C13.7881 5.91943 13.784 5.92247 13.7802 5.92501L13.2301 5.08989L12.68 4.25477C12.3968 4.44132 12.1816 4.6916 12.0309 4.97867L12.9164 5.44339ZM13.2301 5.08989L13.7802 5.92501L13.9761 5.79597L13.426 4.96085L12.8759 4.12573L12.68 4.25477L13.2301 5.08989ZM13.426 4.96085L13.9761 5.79597L14.172 5.66693L13.6219 4.83181L13.0719 3.99669L12.8759 4.12573L13.426 4.96085ZM13.6219 4.83181L14.172 5.66693C14.1999 5.64858 14.2277 5.63673 14.2614 5.62935L14.0476 4.65248L13.8338 3.6756C13.5611 3.73528 13.3052 3.84299 13.0719 3.99669L13.6219 4.83181ZM14.0476 4.65248L14.2614 5.62935L14.4913 5.57906L14.2775 4.60218L14.0636 3.6253L13.8338 3.6756L14.0476 4.65248ZM14.2775 4.60218L14.4913 5.57906L14.7211 5.52876L14.5073 4.55188L14.2935 3.575L14.0636 3.6253L14.2775 4.60218ZM14.5073 4.55188L14.7211 5.52876C14.984 5.47122 15.2315 5.37119 15.4605 5.23296L14.9437 4.37685L14.4269 3.52074C14.3804 3.54882 14.337 3.56548 14.2935 3.575L14.5073 4.55188ZM14.9437 4.37685L15.4605 5.23296L15.6671 5.10822L15.1503 4.25211L14.6335 3.396L14.4269 3.52074L14.9437 4.37685ZM15.1503 4.25211L15.6671 5.10822L15.8738 4.98348L15.357 4.12738L14.8402 3.27127L14.6335 3.396L15.1503 4.25211ZM15.357 4.12738L15.8738 4.98348C15.8262 5.01219 15.756 5.04058 15.6698 5.04914C15.5846 5.05759 15.5169 5.04342 15.4769 5.02975L15.8001 4.08342L16.1233 3.1371C15.6975 2.99165 15.241 3.0293 14.8402 3.27127L15.357 4.12738ZM15.8001 4.08342L15.4769 5.02975L15.7134 5.11053L16.0366 4.16421L16.3599 3.21789L16.1233 3.1371L15.8001 4.08342ZM16.0366 4.16421L15.7134 5.11053L15.9499 5.19132L16.2732 4.24499L16.5964 3.29867L16.3599 3.21789L16.0366 4.16421ZM16.2732 4.24499L15.9499 5.19132C16.1825 5.27076 16.4246 5.32256 16.6734 5.33667L16.7301 4.33828L16.7867 3.33988C16.7417 3.33733 16.6791 3.32694 16.5964 3.29867L16.2732 4.24499ZM16.7301 4.33828L16.6734 5.33667L16.8938 5.34917L16.9505 4.35077L17.0071 3.35238L16.7867 3.33988L16.7301 4.33828ZM16.9505 4.35077L16.8938 5.34917L17.1142 5.36167L17.1708 4.36327L17.2275 3.36488L17.0071 3.35238L16.9505 4.35077ZM17.1708 4.36327L17.1142 5.36167C17.2505 5.36939 17.3892 5.37945 17.5305 5.39187L17.6181 4.39571L17.7056 3.39955C17.5444 3.38538 17.385 3.37381 17.2275 3.36488L17.1708 4.36327ZM17.6181 4.39571L17.5305 5.39187L17.7573 5.41181L17.8449 4.41565L17.9325 3.4195L17.7056 3.39955L17.6181 4.39571ZM17.8449 4.41565L17.7573 5.41181L17.9842 5.43175L18.0718 4.4356L18.1593 3.43944L17.9325 3.4195L17.8449 4.41565ZM18.0718 4.4356L17.9842 5.43175C18.0021 5.43333 18.0145 5.43714 18.0292 5.44496L18.499 4.56219L18.9688 3.67941C18.7163 3.54504 18.4439 3.46445 18.1593 3.43944L18.0718 4.4356ZM18.499 4.56219L18.0292 5.44496L18.2296 5.55161L18.6994 4.66883L19.1692 3.78605L18.9688 3.67941L18.499 4.56219ZM18.6994 4.66883L18.2296 5.55161L18.43 5.65826L18.8998 4.77548L19.3696 3.8927L19.1692 3.78605L18.6994 4.66883ZM18.8998 4.77548L18.43 5.65826C18.6715 5.78674 18.9288 5.86735 19.191 5.91105L19.3554 4.92465L19.5198 3.93825C19.4417 3.92524 19.3954 3.90641 19.3696 3.8927L18.8998 4.77548ZM19.3554 4.92465L19.191 5.91105L19.4462 5.95358L19.6106 4.96718L19.775 3.98078L19.5198 3.93825L19.3554 4.92465ZM19.6106 4.96718L19.4462 5.95358L19.7014 5.9961L19.8658 5.00971L20.0302 4.02331L19.775 3.98078L19.6106 4.96718ZM19.8658 5.00971L19.7014 5.9961C19.6337 5.98481 19.5258 5.9494 19.422 5.8592C19.3191 5.76981 19.2718 5.67151 19.2531 5.61467L20.2033 5.30284L21.1534 4.99101C21.0799 4.76709 20.949 4.5364 20.7336 4.34931C20.5172 4.1614 20.2681 4.06295 20.0302 4.02331L19.8658 5.00971ZM20.2033 5.30284L19.2531 5.61467L19.3354 5.86527L20.2855 5.55344L21.2357 5.24161L21.1534 4.99101L20.2033 5.30284ZM20.2855 5.55344L19.3354 5.86527L19.4176 6.11587L20.3678 5.80404L21.3179 5.49221L21.2357 5.24161L20.2855 5.55344ZM20.3678 5.80404L19.4176 6.11587C19.5014 6.37104 19.622 6.61823 19.7921 6.84024L20.586 6.23212L21.3798 5.62401C21.3686 5.60937 21.3438 5.57117 21.3179 5.49221L20.3678 5.80404ZM20.586 6.23212L19.7921 6.84024L19.9281 7.01772L20.7219 6.4096L21.5158 5.80149L21.3798 5.62401L20.586 6.23212ZM20.7219 6.4096L19.9281 7.01772L20.064 7.1952L20.8579 6.58709L21.6517 5.97897L21.5158 5.80149L20.7219 6.4096ZM20.8579 6.58709L20.064 7.1952C20.2452 7.43166 20.4707 7.6168 20.7086 7.76303L21.2322 6.91105L21.7558 6.05907C21.7166 6.03501 21.6904 6.01502 21.6739 6.00069C21.6575 5.9865 21.6516 5.9788 21.6517 5.97897L20.8579 6.58709ZM21.2322 6.91105L20.7086 7.76303L20.947 7.90951L21.4706 7.05753L21.9941 6.20556L21.7558 6.05907L21.2322 6.91105ZM21.4706 7.05753L20.947 7.90951L21.1853 8.05599L21.7089 7.20402L22.2325 6.35204L21.9941 6.20556L21.4706 7.05753ZM21.7089 7.20402L21.1853 8.05599C21.1392 8.02761 21.0425 7.95292 20.9744 7.81023C20.9044 7.6636 20.9045 7.52892 20.9174 7.45088L21.9041 7.61305L22.8909 7.77522C22.9325 7.52214 22.9144 7.23177 22.7794 6.9488C22.6462 6.66976 22.4376 6.47807 22.2325 6.35204L21.7089 7.20402ZM21.9041 7.61305L20.9174 7.45088L20.8742 7.71343L21.861 7.8756L22.8477 8.03777L22.8909 7.77522L21.9041 7.61305ZM21.861 7.8756L20.8742 7.71343L20.8311 7.97598L21.8178 8.13815L22.8046 8.30032L22.8477 8.03777L21.861 7.8756ZM21.8178 8.13815L20.8311 7.97598C20.7989 8.17157 20.7743 8.36012 20.7581 8.54092L21.7541 8.63028L22.7501 8.71965C22.7613 8.59433 22.7792 8.45479 22.8046 8.30032L21.8178 8.13815ZM21.7541 8.63028L20.7581 8.54092L20.7375 8.7705L21.7335 8.85986L22.7295 8.94923L22.7501 8.71965L21.7541 8.63028ZM21.7335 8.85986L20.7375 8.7705L20.7169 9.00008L21.7129 9.08945L22.7089 9.17881L22.7295 8.94923L21.7335 8.85986ZM21.7129 9.08945L20.7169 9.00008C20.6857 9.34767 20.7563 9.67633 20.8899 9.97086L21.8006 9.55774L22.7112 9.14462C22.7051 9.13098 22.7059 9.12887 22.7074 9.13725C22.7091 9.14628 22.7105 9.16101 22.7089 9.17881L21.7129 9.08945ZM21.8006 9.55774L20.8899 9.97086L20.9982 10.2096L21.9089 9.79645L22.8195 9.38333L22.7112 9.14462L21.8006 9.55774ZM21.9089 9.79645L20.9982 10.2096L21.1065 10.4483L22.0172 10.0352L22.9278 9.62204L22.8195 9.38333L21.9089 9.79645ZM22.0172 10.0352L21.1065 10.4483C21.1059 10.447 21.1002 10.4336 21.0969 10.4099C21.0936 10.3856 21.0944 10.3609 21.0981 10.3397L22.0827 10.5145L23.0673 10.6893C23.1337 10.3152 23.0771 9.95112 22.9278 9.62204L22.0172 10.0352ZM22.0827 10.5145L21.0981 10.3397L21.0554 10.5803L22.04 10.7551L23.0246 10.9299L23.0673 10.6893L22.0827 10.5145ZM22.04 10.7551L21.0554 10.5803L21.0127 10.821L21.9973 10.9957L22.9819 11.1705L23.0246 10.9299L22.04 10.7551ZM21.9973 10.9957L21.0127 10.821C21.0209 10.7749 21.0394 10.7249 21.0684 10.6793C21.0966 10.6352 21.1243 10.6112 21.1351 10.603L21.7399 11.3994L22.3447 12.1958C22.6657 11.952 22.9048 11.6049 22.9819 11.1705L21.9973 10.9957ZM21.7399 11.3994L21.1351 10.603L20.9204 10.766L21.5252 11.5624L22.13 12.3588L22.3447 12.1958L21.7399 11.3994ZM21.5252 11.5624L20.9204 10.766L20.7058 10.9291L21.3106 11.7255L21.9154 12.5218L22.13 12.3588L21.5252 11.5624ZM21.3106 11.7255L20.7058 10.9291C20.4673 11.1102 20.2545 11.3395 20.1046 11.6261L20.9907 12.0896L21.8768 12.5531C21.8725 12.5613 21.8703 12.5628 21.8746 12.558C21.8791 12.5528 21.8912 12.5402 21.9154 12.5218L21.3106 11.7255ZM20.9907 12.0896L20.1046 11.6261L19.9994 11.8272L20.8855 12.2907L21.7716 12.7542L21.8768 12.5531L20.9907 12.0896ZM20.8855 12.2907L19.9994 11.8272L19.8942 12.0283L20.7803 12.4918L21.6664 12.9553L21.7716 12.7542L20.8855 12.2907ZM20.7803 12.4918L19.8942 12.0283C19.779 12.2485 19.6975 12.4824 19.6432 12.7231L20.6187 12.9432L21.5941 13.1633C21.6151 13.0703 21.6414 13.0032 21.6664 12.9553L20.7803 12.4918ZM20.6187 12.9432L19.6432 12.7231L19.5867 12.9734L20.5622 13.1935L21.5376 13.4137L21.5941 13.1633L20.6187 12.9432ZM20.5622 13.1935L19.5867 12.9734L19.5302 13.2237L20.5057 13.4439L21.4812 13.664L21.5376 13.4137L20.5622 13.1935ZM20.5057 13.4439L19.5302 13.2237C19.5393 13.1833 19.562 13.1209 19.6113 13.0561C19.6608 12.9909 19.7173 12.9495 19.7604 12.9267L20.2265 13.8115L20.6925 14.6963C21.1056 14.4787 21.3805 14.1099 21.4812 13.664L20.5057 13.4439ZM20.2265 13.8115L19.7604 12.9267L19.5377 13.0441L20.0037 13.9288L20.4698 14.8136L20.6925 14.6963L20.2265 13.8115ZM20.0037 13.9288L19.5377 13.0441L19.315 13.1614L19.781 14.0462L20.247 14.9309L20.4698 14.8136L20.0037 13.9288ZM19.781 14.0462L19.315 13.1614C19.0569 13.2973 18.8258 13.4795 18.636 13.7114L19.4097 14.3449L20.1834 14.9785C20.1917 14.9684 20.2081 14.9514 20.247 14.9309L19.781 14.0462ZM19.4097 14.3449L18.636 13.7114L18.4874 13.8928L19.2611 14.5264L20.0348 15.1599L20.1834 14.9785L19.4097 14.3449ZM19.2611 14.5264L18.4874 13.8928L18.3388 14.0743L19.1125 14.7078L19.8862 15.3414L20.0348 15.1599L19.2611 14.5264ZM19.1125 14.7078L18.3388 14.0743C18.1744 14.2751 18.044 14.4973 17.9438 14.734L18.8646 15.1239L19.7855 15.5138C19.8177 15.4377 19.8526 15.3825 19.8862 15.3414L19.1125 14.7078ZM18.8646 15.1239L17.9438 14.734L17.8444 14.9686L18.7653 15.3585L19.6862 15.7484L19.7855 15.5138L18.8646 15.1239ZM18.7653 15.3585L17.8444 14.9686L17.7451 15.2032L18.666 15.5931L19.5868 15.983L19.6862 15.7484L18.7653 15.3585ZM18.666 15.5931L17.7451 15.2032C17.7426 15.2092 17.7434 15.2054 17.7504 15.1963C17.7576 15.1869 17.767 15.1776 17.7769 15.1701L18.3772 15.9699L18.9775 16.7697C19.2556 16.561 19.4572 16.2892 19.5868 15.983L18.666 15.5931ZM18.3772 15.9699L17.7769 15.1701L17.5875 15.3123L18.1878 16.1121L18.788 16.9119L18.9775 16.7697L18.3772 15.9699ZM18.1878 16.1121L17.5875 15.3123L17.3981 15.4545L17.9983 16.2543L18.5986 17.054L18.788 16.9119L18.1878 16.1121ZM17.9983 16.2543L17.3981 15.4545C17.2205 15.5878 17.057 15.737 16.9084 15.9019L17.6512 16.5714L18.394 17.2409C18.4557 17.1725 18.5236 17.1103 18.5986 17.054L17.9983 16.2543ZM17.6512 16.5714L16.9084 15.9019L16.7507 16.0768L17.4935 16.7464L18.2363 17.4159L18.394 17.2409L17.6512 16.5714ZM17.4935 16.7464L16.7507 16.0768L16.593 16.2518L17.3358 16.9213L18.0786 17.5908L18.2363 17.4159L17.4935 16.7464ZM17.3358 16.9213L16.593 16.2518C16.5259 16.3262 16.453 16.3945 16.3737 16.4569L16.9925 17.2425L17.6114 18.028C17.7795 17.8955 17.9354 17.7497 18.0786 17.5908L17.3358 16.9213ZM16.9925 17.2425L16.3737 16.4569L16.1881 16.6031L16.807 17.3886L17.4258 18.1742L17.6114 18.028L16.9925 17.2425ZM16.807 17.3886L16.1881 16.6031L16.0026 16.7493L16.6214 17.5348L17.2402 18.3203L17.4258 18.1742L16.807 17.3886ZM16.6214 17.5348L16.0026 16.7493C15.9692 16.7756 15.9216 16.8042 15.8513 16.8299L16.1942 17.7692L16.5372 18.7086C16.789 18.6166 17.0262 18.4889 17.2402 18.3203L16.6214 17.5348ZM16.1942 17.7692L15.8513 16.8299L15.6096 16.9181L15.9526 17.8574L16.2956 18.7968L16.5372 18.7086L16.1942 17.7692ZM15.9526 17.8574L15.6096 16.9181L15.368 17.0063L15.711 17.9457L16.054 18.885L16.2956 18.7968L15.9526 17.8574ZM15.711 17.9457L15.368 17.0063C15.0322 17.1289 14.7348 17.3414 14.5161 17.6486L15.3308 18.2286L16.1454 18.8085C16.1316 18.8279 16.1131 18.8471 16.0921 18.8628C16.0715 18.8781 16.0565 18.8841 16.054 18.885L15.711 17.9457ZM15.3308 18.2286L14.5161 17.6486L14.3775 17.8433L15.1921 18.4233L16.0068 19.0032L16.1454 18.8085L15.3308 18.2286ZM15.1921 18.4233L14.3775 17.8433L14.2389 18.038L15.0535 18.618L15.8682 19.1979L16.0068 19.0032L15.1921 18.4233ZM15.0535 18.618L14.2389 18.038C14.1545 18.1565 14.0681 18.2727 13.9796 18.3866L14.7693 19.0001L15.5589 19.6137C15.6646 19.4776 15.7677 19.339 15.8682 19.1979L15.0535 18.618ZM14.7693 19.0001L13.9796 18.3866L13.834 18.574L14.6236 19.1876L15.4133 19.8011L15.5589 19.6137L14.7693 19.0001ZM14.6236 19.1876L13.834 18.574L13.6884 18.7614L14.478 19.375L15.2676 19.9886L15.4133 19.8011L14.6236 19.1876ZM14.478 19.375L13.6884 18.7614C13.6879 18.762 13.6879 18.762 13.6882 18.7617C13.6885 18.7613 13.6888 18.7611 13.6887 18.7612C13.6887 18.7612 13.6879 18.7618 13.6861 18.763C13.6843 18.7641 13.681 18.766 13.6759 18.7684L14.1092 19.6697L14.5424 20.571C14.8244 20.4354 15.0715 20.2411 15.2676 19.9886L14.478 19.375ZM14.1092 19.6697L13.6759 18.7684L13.4528 18.8757L13.886 19.777L14.3192 20.6783L14.5424 20.571L14.1092 19.6697ZM13.886 19.777L13.4528 18.8757L13.2296 18.983L13.6628 19.8843L14.096 20.7856L14.3192 20.6783L13.886 19.777ZM13.6628 19.8843L13.2296 18.983C12.9364 19.1239 12.6818 19.3314 12.4878 19.6053L13.3038 20.1833L14.1199 20.7612C14.1152 20.7678 14.1087 20.775 14.1014 20.781C14.0944 20.7869 14.0913 20.7878 14.096 20.7856L13.6628 19.8843ZM13.3038 20.1833L12.4878 19.6053L12.352 19.797L13.168 20.375L13.9841 20.9529L14.1199 20.7612L13.3038 20.1833ZM13.168 20.375L12.352 19.797L12.2162 19.9887L13.0323 20.5667L13.8483 21.1446L13.9841 20.9529L13.168 20.375ZM13.0323 20.5667L12.2162 19.9887C12.2414 19.9531 12.2879 19.902 12.361 19.8583C12.4351 19.8139 12.5095 19.7934 12.5691 19.7871L12.673 20.7817L12.7769 21.7763C13.2267 21.7293 13.6 21.4952 13.8483 21.1446L13.0323 20.5667ZM12.673 20.7817L12.5691 19.7871L12.3456 19.8105L12.4495 20.8051L12.5534 21.7997L12.7769 21.7763L12.673 20.7817ZM12.4495 20.8051L12.3456 19.8105L12.1221 19.8338L12.226 20.8284L12.33 21.823L12.5534 21.7997L12.4495 20.8051ZM12.226 20.8284L12.1221 19.8338C12.0415 19.8423 11.9616 19.8423 11.8811 19.8341L11.7791 20.8289L11.6772 21.8237C11.8946 21.8459 12.1126 21.8457 12.33 21.823L12.226 20.8284ZM11.7791 20.8289L11.8811 19.8341L11.6577 19.8112L11.5557 20.806L11.4537 21.8008L11.6772 21.8237L11.7791 20.8289ZM11.5557 20.806L11.6577 19.8112L11.4342 19.7883L11.3323 20.7831L11.2303 21.7779L11.4537 21.8008L11.5557 20.806ZM11.3323 20.7831L11.4342 19.7883C11.4659 19.7915 11.5048 19.8009 11.5449 19.8196C11.5848 19.8381 11.6134 19.8601 11.6306 19.8764L10.9416 20.6012L10.2526 21.326C10.5198 21.58 10.8548 21.7394 11.2303 21.7779L11.3323 20.7831ZM10.9416 20.6012L11.6306 19.8764L11.4634 19.7175L10.7744 20.4422L10.0854 21.167L10.2526 21.326L10.9416 20.6012ZM10.7744 20.4422L11.4634 19.7175L11.2962 19.5585L10.6072 20.2833L9.91819 21.0081L10.0854 21.167L10.7744 20.4422ZM10.6072 20.2833L11.2962 19.5585C11.2195 19.4856 11.1461 19.4054 11.0761 19.3172L10.2927 19.9386L9.50917 20.56C9.63562 20.7195 9.77192 20.869 9.91819 21.0081L10.6072 20.2833ZM10.2927 19.9386L11.0761 19.3172L10.9288 19.1315L10.1454 19.7529L9.36188 20.3743L9.50917 20.56L10.2927 19.9386ZM10.1454 19.7529L10.9288 19.1315L10.7815 18.9458L9.99806 19.5672L9.21458 20.1886L9.36188 20.3743L10.1454 19.7529ZM9.99806 19.5672L10.7815 18.9458C10.6581 18.7901 10.5257 18.6427 10.3845 18.5038L9.68323 19.2167L8.98193 19.9295C9.06412 20.0104 9.14165 20.0967 9.21458 20.1886L9.99806 19.5672ZM9.68323 19.2167L10.3845 18.5038L10.217 18.339L9.51571 19.0519L8.8144 19.7647L8.98193 19.9295L9.68323 19.2167ZM9.51571 19.0519L10.217 18.339L10.0495 18.1742L9.34818 18.887L8.64687 19.5999L8.8144 19.7647L9.51571 19.0519ZM9.34818 18.887L10.0495 18.1742C9.82126 17.9497 9.55169 17.7924 9.26248 17.6924L8.93562 18.6375L8.60875 19.5826C8.62886 19.5895 8.63952 19.5954 8.6437 19.5979C8.64759 19.6002 8.64793 19.6009 8.64687 19.5999L9.34818 18.887ZM8.93562 18.6375L9.26248 17.6924L9.01744 17.6077L8.69058 18.5527L8.36372 19.4978L8.60875 19.5826L8.93562 18.6375ZM8.69058 18.5527L9.01744 17.6077L8.77241 17.5229L8.44555 18.468L8.11869 19.4131L8.36372 19.4978L8.69058 18.5527ZM8.44555 18.468L8.77241 17.5229C8.76818 17.5215 8.77632 17.5238 8.79102 17.5339C8.80626 17.5443 8.82151 17.5584 8.83407 17.5741L8.05266 18.1981L7.27126 18.8221C7.49896 19.1072 7.79399 19.3008 8.11869 19.4131L8.44555 18.468ZM8.05266 18.1981L8.83407 17.5741L8.68622 17.3889L7.90481 18.013L7.12341 18.637L7.27126 18.8221L8.05266 18.1981ZM7.90481 18.013L8.68622 17.3889L8.53837 17.2038L7.75696 17.8278L6.97556 18.4518L7.12341 18.637L7.90481 18.013ZM7.75696 17.8278L8.53837 17.2038C8.44626 17.0885 8.35571 16.9714 8.26673 16.8526L7.46642 17.4522L6.66611 18.0518C6.76739 18.187 6.87053 18.3203 6.97556 18.4518L7.75696 17.8278ZM7.46642 17.4522L8.26673 16.8526L8.12404 16.6622L7.32373 17.2617L6.52341 17.8613L6.66611 18.0518L7.46642 17.4522ZM7.32373 17.2617L8.12404 16.6622L7.98134 16.4717L7.18103 17.0713L6.38072 17.6709L6.52341 17.8613L7.32373 17.2617ZM7.18103 17.0713L7.98134 16.4717C7.87337 16.3276 7.76115 16.1874 7.64468 16.0513L6.88488 16.7015L6.12507 17.3516C6.21322 17.4546 6.29844 17.561 6.38072 17.6709L7.18103 17.0713ZM6.88488 16.7015L7.64468 16.0513L7.49122 15.872L6.73142 16.5221L5.97161 17.1723L6.12507 17.3516L6.88488 16.7015ZM6.73142 16.5221L7.49122 15.872L7.33776 15.6926L6.57795 16.3428L5.81815 16.9929L5.97161 17.1723L6.73142 16.5221ZM6.57795 16.3428L7.33776 15.6926C7.20669 15.5395 7.06604 15.3956 6.91597 15.2614L6.24922 16.0066L5.58246 16.7519C5.6661 16.8267 5.74461 16.907 5.81815 16.9929L6.57795 16.3428ZM6.24922 16.0066L6.91597 15.2614L6.7407 15.1046L6.07394 15.8498L5.40719 16.5951L5.58246 16.7519L6.24922 16.0066ZM6.07394 15.8498L6.7407 15.1046L6.56542 14.9477L5.89867 15.693L5.23191 16.4383L5.40719 16.5951L6.07394 15.8498ZM5.89867 15.693L6.56542 14.9477C6.47141 14.8636 6.3817 14.7756 6.2962 14.6836L5.56369 15.3644L4.83118 16.0451C4.95862 16.1823 5.09222 16.3133 5.23191 16.4383L5.89867 15.693ZM5.56369 15.3644L6.2962 14.6836L6.1365 14.5118L5.40399 15.1925L4.67149 15.8733L4.83118 16.0451L5.56369 15.3644ZM5.40399 15.1925L6.1365 14.5118L5.9768 14.3399L5.24429 15.0207L4.51179 15.7015L4.67149 15.8733L5.40399 15.1925ZM5.24429 15.0207L5.9768 14.3399C5.87811 14.2337 5.7815 14.1261 5.68697 14.0171L4.93149 14.6723L4.17601 15.3275C4.28562 15.4539 4.39755 15.5785 4.51179 15.7015L5.24429 15.0207ZM4.93149 14.6723L5.68697 14.0171L5.53386 13.8406L4.77838 14.4958L4.0229 15.1509L4.17601 15.3275L4.93149 14.6723ZM4.77838 14.4958L5.53386 13.8406L5.38075 13.664L4.62527 14.3192L3.86979 14.9744L4.0229 15.1509L4.77838 14.4958ZM4.62527 14.3192L5.38075 13.664C5.2869 13.5558 5.19567 13.4465 5.10705 13.3361L4.32721 13.9621L3.54738 14.5881C3.65202 14.7184 3.75949 14.8472 3.86979 14.9744L4.62527 14.3192ZM4.32721 13.9621L5.10705 13.3361L4.9621 13.1555L4.18226 13.7815L3.40243 14.4075L3.54738 14.5881L4.32721 13.9621ZM4.18226 13.7815L4.9621 13.1555L4.81715 12.975L4.03731 13.6009L3.25748 14.2269L3.40243 14.4075L4.18226 13.7815ZM4.03731 13.6009L4.81715 12.975C4.74489 12.8849 4.679 12.7921 4.61923 12.6964L3.77106 13.2262L2.92289 13.7559C3.02486 13.9191 3.13647 14.0762 3.25748 14.2269L4.03731 13.6009ZM3.77106 13.2262L4.61923 12.6964L4.49793 12.5022L3.64976 13.0319L2.80159 13.5617L2.92289 13.7559L3.77106 13.2262ZM3.64976 13.0319L4.49793 12.5022L4.37663 12.308L3.52846 12.8377L2.68029 13.3674L2.80159 13.5617L3.64976 13.0319ZM3.52846 12.8377L4.37663 12.308C4.23573 12.0824 4.06045 11.8861 3.85858 11.7186L3.21997 12.4881L2.58137 13.2577C2.62908 13.2973 2.65945 13.3341 2.68029 13.3674L3.52846 12.8377ZM3.21997 12.4881L3.85858 11.7186L3.67139 11.5633L3.03278 12.3328L2.39418 13.1023L2.58137 13.2577L3.21997 12.4881ZM3.03278 12.3328L3.67139 11.5633L3.4842 11.4079L2.8456 12.1775L2.20699 12.947L2.39418 13.1023L3.03278 12.3328ZM2.8456 12.1775L3.4842 11.4079C3.47554 11.4007 3.472 11.3964 3.47104 11.3951C3.47017 11.394 3.46932 11.3928 3.46804 11.39L2.56007 11.809L1.6521 12.2281C1.78248 12.5106 1.9717 12.7517 2.20699 12.947L2.8456 12.1775ZM2.56007 11.809L3.46804 11.39L3.3697 11.1769L2.46173 11.596L1.55376 12.015L1.6521 12.2281L2.56007 11.809ZM2.46173 11.596L3.3697 11.1769L3.27136 10.9638L2.36339 11.3829L1.45542 11.8019L1.55376 12.015L2.46173 11.596ZM2.36339 11.3829L3.27136 10.9638C3.24255 10.9014 3.22283 10.8377 3.21137 10.7706L2.22564 10.9389L1.2399 11.1072C1.281 11.3479 1.35311 11.5802 1.45542 11.8019L2.36339 11.3829ZM2.22564 10.9389L3.21137 10.7706L3.17196 10.5398L2.18623 10.7081L1.20049 10.8764L1.2399 11.1072L2.22564 10.9389ZM2.18623 10.7081L3.17196 10.5398L3.13255 10.309L2.14681 10.4773L1.16108 10.6455L1.20049 10.8764L2.18623 10.7081ZM2.14681 10.4773L3.13255 10.309C3.1123 10.1903 3.10367 10.0991 3.10179 10.0318L2.10218 10.0598L1.10257 10.0878C1.10765 10.2693 1.12878 10.4564 1.16108 10.6455L2.14681 10.4773ZM2.10218 10.0598L3.10179 10.0318L3.09657 9.84523L2.09696 9.8732L1.09735 9.90117L1.10257 10.0878L2.10218 10.0598ZM2.09696 9.8732L3.09657 9.84523L3.09135 9.65863L2.09174 9.6866L1.09213 9.71457L1.09735 9.90117L2.09696 9.8732ZM2.09174 9.6866L3.09135 9.65863C3.08936 9.58754 3.08516 9.49416 3.07222 9.40423C3.06708 9.36848 3.05247 9.27091 3.01079 9.15995C2.9915 9.10862 2.94197 8.98628 2.83599 8.86001C2.72512 8.72793 2.46827 8.5 2.06489 8.5V9.5V10.5C1.66511 10.5 1.4117 10.274 1.30409 10.1458C1.20137 10.0234 1.15493 9.90693 1.13857 9.86337C1.10272 9.76797 1.09328 9.69372 1.09261 9.68908C1.08862 9.66134 1.09064 9.66126 1.09213 9.71457L2.09174 9.6866ZM2.06489 9.5V8.5H2.04326V9.5V10.5H2.06489V9.5ZM2.04326 9.5V8.5H2.02163V9.5V10.5H2.04326V9.5ZM2.02163 9.5V8.5C2.53376 8.5 2.79464 8.85753 2.85742 8.95507C2.93576 9.07679 2.96652 9.18506 2.97517 9.216C2.98772 9.26089 2.9936 9.29546 2.99597 9.31045C2.99871 9.32778 2.99993 9.33967 3.00032 9.34368C3.00102 9.35085 2.99893 9.32841 2.99847 9.25607L1.99849 9.26242L0.998512 9.26877C0.999058 9.35482 1.00133 9.45116 1.00974 9.53753C1.01313 9.57231 1.02198 9.65769 1.04897 9.7543C1.06039 9.79515 1.09413 9.91084 1.17565 10.0375C1.24162 10.14 1.50589 10.5 2.02163 10.5V9.5ZM1.99849 9.26242L2.99847 9.25607L2.99696 9.01849L1.99698 9.02484L0.997005 9.03119L0.998512 9.26877L1.99849 9.26242Z" fill="var(--stroke-0, #7ACC2D)"/>
</g>
</g>
</svg>
