<svg preserveAspectRatio="none" width="100%" height="100%" overflow="visible" style="display: block;" viewBox="0 0 20 20" fill="none" xmlns="http://www.w3.org/2000/svg">
<g id="Frame">
<path id="Vector" d="M3.31427 14.1314C3.3786 13.8392 3.35405 13.5344 3.24377 13.2562C2.47635 11.6639 2.29596 9.85176 2.73444 8.13946C3.17292 6.42715 4.20208 4.92472 5.64035 3.89726C7.07861 2.8698 8.83356 2.38334 10.5955 2.52369C12.3575 2.66405 14.0133 3.42221 15.2708 4.6644C16.5283 5.9066 17.3066 7.553 17.4685 9.31313C17.6303 11.0733 17.1653 12.834 16.1555 14.2847C15.1457 15.7354 13.656 16.7828 11.9491 17.2422C10.2423 17.7016 8.42805 17.5433 6.82651 16.7954C6.56366 16.6956 6.27805 16.6717 6.00226 16.7264L3.44252 17.4749C3.31904 17.5077 3.18924 17.5084 3.06542 17.4769C2.9416 17.4454 2.82787 17.3829 2.73502 17.2951C2.64216 17.2074 2.57326 17.0974 2.53485 16.9755C2.49644 16.8537 2.48978 16.724 2.51552 16.5989L3.31427 14.1314Z" stroke="var(--stroke-0, #2A3038)" stroke-width="2" stroke-linecap="round"/>
</g>
</svg>
