<svg preserveAspectRatio="none" width="100%" height="100%" overflow="visible" style="display: block;" viewBox="0 0 40 40" fill="none" xmlns="http://www.w3.org/2000/svg">
<path d="M20.4258 9.57324C22.4559 9.65414 24.7012 10.4258 26.1016 11.9512C26.4638 12.3457 26.787 12.7885 27.083 13.2344C27.4032 13.7168 27.6984 14.2218 27.9062 14.7637C28.5612 16.4714 28.4235 18.4739 28.4287 20.2764C28.4308 20.9841 28.4118 21.7033 28.4951 22.4072C28.5409 22.7941 28.6023 23.1798 28.7178 23.5527C28.8715 24.0491 29.2655 24.6903 29.2432 25.21C29.2338 25.427 29.1426 25.6405 28.9814 25.7881C28.3982 26.3217 25.496 26.8498 24.6191 26.9639C24.2684 28.4413 23.7344 29.2604 22.4189 30.1064C21.4196 30.7491 19.9804 30.8098 18.8613 30.5469C17.8861 30.3175 16.7357 29.402 16.2402 28.5332C15.9955 28.1041 15.6689 27.4421 15.5342 26.959C14.579 26.7513 13.6495 26.6101 12.6836 26.3418C12.0738 26.1725 10.8051 25.9339 11.0254 24.9746C11.0922 24.6838 11.2864 24.2624 11.3975 23.9707C11.6522 23.3014 11.7955 22.5946 11.8213 21.8789C11.782 21.2627 11.8164 20.2669 11.8066 19.6348C11.7976 19.0481 11.7798 17.7314 11.8711 17.1934C11.9086 16.1548 12.1684 14.9663 12.6592 14.0381C12.8741 13.6315 13.1475 13.2591 13.417 12.8877C13.7431 12.4381 14.0759 12.0116 14.4844 11.6318C16.0309 10.194 18.336 9.49 20.4258 9.57324ZM17.6299 27.2012C17.8425 27.7571 18.2657 28.2069 18.8076 28.4531C19.5728 28.7992 20.4442 28.8268 21.2295 28.5293C21.5681 28.402 21.7484 28.2852 22.0264 28.0605C22.307 27.7815 22.4523 27.5832 22.6152 27.2139C21.5995 27.3003 20.5796 27.3306 19.5605 27.3047C18.9988 27.2852 18.1426 27.1939 17.6299 27.2012ZM19.6689 11.4814C18.2344 11.5946 17.516 11.8046 16.3516 12.6611C15.8743 13.0122 15.6049 13.1807 15.1904 13.6641C14.6668 14.2789 14.2817 14.9994 14.0615 15.7764C13.6245 17.357 13.8646 20.0285 13.7676 21.749C13.7029 22.8952 13.4997 23.5246 13.3291 24.5898C15.9558 25.1662 17.9581 25.4215 20.6748 25.3926C22.3796 25.3657 24.0786 25.1855 25.751 24.8535C26.0981 24.7834 26.6567 24.6747 26.9863 24.5684C26.7801 24.0868 26.7087 23.4907 26.6191 22.9824C26.012 19.5353 27.5572 15.269 24.1865 12.8584C23.6773 12.4942 23.195 12.1055 22.6006 11.8789C21.8238 11.5753 20.4941 11.3903 19.6689 11.4814Z" fill="#B5B5B5"/>
</svg>
