<svg preserveAspectRatio="none" width="100%" height="100%" overflow="visible" style="display: block;" viewBox="0 0 40 40" fill="none" xmlns="http://www.w3.org/2000/svg">
<g id="Frame 2085667317">
<path id="Subtract" d="M20.5336 10.2969C22.4178 10.3721 24.5014 11.0891 25.8011 12.5049C26.1373 12.8711 26.4375 13.2814 26.7123 13.6953C27.0095 14.1432 27.284 14.6122 27.4769 15.1152C28.0848 16.7003 27.9565 18.5594 27.9613 20.2324C27.9632 20.8892 27.9455 21.5567 28.0228 22.21C28.0653 22.5689 28.1228 22.9265 28.2299 23.2725C28.3725 23.7333 28.7379 24.3291 28.7172 24.8115C28.7084 25.0131 28.6237 25.2117 28.474 25.3486C27.9318 25.8439 25.2387 26.3336 24.4252 26.4395C24.0996 27.811 23.6035 28.571 22.3822 29.3565C21.4547 29.9528 20.12 30.0096 19.0814 29.7656C18.1761 29.5529 17.1078 28.702 16.6478 27.8955C16.4206 27.4971 16.1175 26.8829 15.9925 26.4346C15.106 26.2418 14.2435 26.1113 13.347 25.8623C12.781 25.7051 11.6035 25.4833 11.808 24.5928C11.87 24.3229 12.0496 23.9318 12.1527 23.6611C12.3892 23.0399 12.5224 22.384 12.5463 21.7197C12.5097 21.1478 12.5416 20.2236 12.5326 19.6367C12.5242 19.0922 12.5074 17.8696 12.5922 17.3701C12.627 16.4062 12.8681 15.3029 13.3236 14.4414C13.5231 14.064 13.7776 13.7188 14.0277 13.374C14.3304 12.9568 14.6388 12.5605 15.0179 12.208C16.4535 10.8734 18.5937 10.2196 20.5336 10.2969ZM17.9379 26.6592C18.1351 27.1753 18.5276 27.5927 19.0306 27.8213C19.741 28.1427 20.5506 28.1679 21.2797 27.8916C21.5936 27.7735 21.7609 27.6656 22.0189 27.457C22.2794 27.198 22.4135 27.0138 22.5648 26.6709C21.6221 26.7512 20.6757 26.7799 19.7299 26.7559C19.2085 26.7378 18.4138 26.6524 17.9379 26.6592ZM19.8304 12.0674C18.4989 12.1724 17.832 12.3682 16.7513 13.1631C16.3083 13.4889 16.0589 13.6461 15.6742 14.0947C15.1882 14.6653 14.8307 15.3336 14.6263 16.0547C14.2207 17.5219 14.4429 20.0016 14.3529 21.5986C14.2929 22.6625 14.104 23.2467 13.9457 24.2354C16.3838 24.7703 18.2424 25.0073 20.764 24.9805C22.3465 24.9556 23.9236 24.7886 25.4759 24.4805C25.7981 24.4154 26.3165 24.3145 26.6224 24.2158C26.431 23.7688 26.3647 23.215 26.2816 22.7432C25.7182 19.5436 27.1523 15.5842 24.0238 13.3467C23.5512 13.0087 23.1038 12.6479 22.5521 12.4375C21.8312 12.1557 20.5964 11.9828 19.8304 12.0674Z" fill="var(--fill-0, #2A3038)"/>
<rect id="Rectangle 161123902" x="23.8479" y="9.38505" width="6.61084" height="6.61084" rx="3.30542" fill="var(--fill-0, #EF4141)" stroke="var(--stroke-0, #FCFCF9)" stroke-width="2"/>
</g>
</svg>
