<svg preserveAspectRatio="none" width="100%" height="100%" overflow="visible" style="display: block;" viewBox="0 0 10 10" fill="none" xmlns="http://www.w3.org/2000/svg">
<g id="Frame" clip-path="url(#clip0_0_4)">
<path id="Vector" d="M4.8175 1.36083C4.83548 1.32817 4.86191 1.30093 4.89401 1.28196C4.92611 1.26299 4.96271 1.25298 5 1.25298C5.03729 1.25298 5.07389 1.26299 5.10599 1.28196C5.13809 1.30093 5.16452 1.32817 5.1825 1.36083L6.4125 3.69583C6.44183 3.7499 6.48277 3.7968 6.53238 3.83317C6.58198 3.86954 6.63903 3.89448 6.69942 3.90619C6.7598 3.9179 6.82203 3.9161 6.88164 3.90091C6.94125 3.88572 6.99675 3.85752 7.04417 3.81833L8.82625 2.29167C8.86046 2.26384 8.90261 2.24759 8.94665 2.24525C8.99068 2.24291 9.03432 2.2546 9.07129 2.27864C9.10826 2.30269 9.13664 2.33784 9.15236 2.37904C9.16807 2.42024 9.17031 2.46536 9.15875 2.50792L7.97792 6.77708C7.95381 6.86444 7.90188 6.94156 7.83 6.99675C7.75812 7.05194 7.6702 7.08219 7.57958 7.08292H2.42083C2.33014 7.08228 2.24213 7.05208 2.17016 6.99688C2.0982 6.94168 2.04621 6.86451 2.02208 6.77708L0.841667 2.50833C0.830104 2.46578 0.832342 2.42065 0.848059 2.37945C0.863775 2.33825 0.892159 2.3031 0.929125 2.27906C0.966091 2.25502 1.00973 2.24333 1.05377 2.24567C1.0978 2.24801 1.13996 2.26426 1.17417 2.29208L2.95583 3.81875C3.00325 3.85793 3.05875 3.88613 3.11836 3.90132C3.17797 3.91651 3.2402 3.91832 3.30058 3.90661C3.36097 3.8949 3.41801 3.86996 3.46762 3.83359C3.51723 3.79722 3.55817 3.75032 3.5875 3.69625L4.8175 1.36083Z" fill="var(--fill-0, white)"/>
<path id="Vector_2" d="M2.08333 8.75H7.91667" stroke="var(--stroke-0, white)" stroke-width="1.2" stroke-linecap="round" stroke-linejoin="round"/>
</g>
<defs>
<clipPath id="clip0_0_4">
<rect width="10" height="10" fill="white"/>
</clipPath>
</defs>
</svg>
