<svg preserveAspectRatio="none" width="100%" height="100%" overflow="visible" style="display: block;" viewBox="0 0 24 24" fill="none" xmlns="http://www.w3.org/2000/svg">
<g id="Frame">
<path id="Vector" d="M5 11.4C4.66863 11.4 4.4 11.6686 4.4 12C4.4 12.3314 4.66863 12.6 5 12.6V12V11.4ZM5.1 12V12.6H5.36036L5.5382 12.4099L5.1 12ZM5.837 11.9965L5.59723 11.4465L5.837 11.9965ZM6.023 11.9154L5.78323 11.3654L6.023 11.9154ZM6.395 12.2156L5.9308 12.5957L6.395 12.2156ZM6.581 12.2611L6.22667 11.7769L6.581 12.2611ZM6.767 12.125L7.12133 12.6092L6.767 12.125ZM7.325 11.9097L6.95847 12.3848L7.325 11.9097ZM7.511 12.0532L7.87753 11.5782L7.511 12.0532ZM7.697 12.0863L7.4665 11.5323L7.697 12.0863ZM7.883 12.0089L8.1135 12.5629L7.883 12.0089ZM8.813 12.0649L8.42926 11.6036L8.813 12.0649ZM8.999 11.9101L8.61526 11.4489L8.999 11.9101ZM9.185 11.9409L8.73013 12.3321L9.185 11.9409ZM9.371 12.1571L9.82587 11.7658L9.371 12.1571ZM9.929 11.8758L9.89731 12.475L9.929 11.8758ZM10.301 11.878L10.3815 12.4726L10.301 11.878ZM10.487 11.8528L10.4065 11.2582L10.487 11.8528ZM10.859 11.7772L10.7269 11.192L10.859 11.7772ZM11.045 11.7651L10.9882 12.3624L11.045 11.7651ZM11.417 11.88L11.8305 11.4453L11.417 11.88ZM11.603 12.0569L11.1895 12.4917L11.603 12.0569ZM11.789 12.0957L11.5065 11.5664L11.789 12.0957ZM11.975 11.9965L12.2575 12.5258L11.975 11.9965ZM12.533 12.1265L12.2517 11.5966L12.533 12.1265ZM12.719 12.0278L13.0003 12.5578L12.719 12.0278ZM13.649 11.9499L13.1727 12.3148L13.649 11.9499ZM13.835 12.1927L14.3113 11.8278L13.835 12.1927ZM14.021 12.237L13.638 11.7751L14.021 12.237ZM15.323 12.2097L14.8567 12.5873L15.323 12.2097ZM16.067 11.8153L16.0329 11.2163L16.067 11.8153ZM16.253 11.8201L16.3178 11.2236L16.253 11.8201ZM16.439 11.8403L16.3742 12.4368L16.439 11.8403ZM16.997 11.9134L17.3312 12.4117L16.997 11.9134ZM17.183 11.7887L16.8488 11.2904L17.183 11.7887ZM17.369 11.8452L17.8416 11.4756L17.369 11.8452ZM17.555 12.083L17.0824 12.4527L17.555 12.083ZM18.113 11.9963L18.407 11.4733L18.113 11.9963ZM18.299 12.1009L18.005 12.6239L18.299 12.1009ZM19 11.9575L19.2345 12.5098L19.6 12.3546V11.9575H19ZM18.9 12L18.6655 11.4477L18.9 12.6V12ZM19 12.6C19.3314 12.6 19.6 12.3314 19.6 12C19.6 11.6686 19.3314 11.4 19 11.4V12V12.6ZM5 12V12.6H5.1V12V11.4H5V12ZM5.1 12L5.5382 12.4099L5.6742 12.2644L5.236 11.8546L4.7978 11.4447L4.6618 11.5901L5.1 12ZM5.236 11.8546L5.6742 12.2644C5.68943 12.2482 5.63927 12.3116 5.52143 12.3443C5.45346 12.3631 5.3674 12.37 5.2746 12.3475C5.18295 12.3253 5.11404 12.2816 5.06827 12.2413L5.465 11.7912L5.86173 11.341C5.68658 11.1867 5.44456 11.1204 5.20107 11.1878C5.00689 11.2416 4.87324 11.3641 4.7978 11.4447L5.236 11.8546ZM5.465 11.7912L5.06827 12.2413L5.16127 12.3232L5.558 11.8731L5.95473 11.423L5.86173 11.341L5.465 11.7912ZM5.558 11.8731L5.16127 12.3232L5.25427 12.4052L5.651 11.9551L6.04773 11.505L5.95473 11.423L5.558 11.8731ZM5.651 11.9551L5.25427 12.4052C5.33899 12.4799 5.45846 12.5575 5.61356 12.5921C5.7769 12.6285 5.93727 12.6073 6.07677 12.5465L5.837 11.9965L5.59723 11.4465C5.67473 11.4127 5.7731 11.3982 5.87444 11.4208C5.96754 11.4415 6.02501 11.4849 6.04773 11.505L5.651 11.9551ZM5.837 11.9965L6.07677 12.5465L6.16977 12.506L5.93 11.956L5.69023 11.406L5.59723 11.4465L5.837 11.9965ZM5.93 11.956L6.16977 12.506L6.26277 12.4654L6.023 11.9154L5.78323 11.3654L5.69023 11.406L5.93 11.956ZM6.023 11.9154L6.26277 12.4654C6.15047 12.5144 6.01638 12.5189 5.89674 12.4719C5.79769 12.433 5.75044 12.3755 5.7448 12.3686L6.209 11.9885L6.6732 11.6083C6.60556 11.5257 6.49631 11.4181 6.33526 11.3549C6.15363 11.2836 5.95753 11.2894 5.78323 11.3654L6.023 11.9154ZM6.209 11.9885L5.7448 12.3686L5.8378 12.4822L6.302 12.102L6.7662 11.7219L6.6732 11.6083L6.209 11.9885ZM6.302 12.102L5.8378 12.4822L5.9308 12.5957L6.395 12.2156L6.8592 11.8354L6.7662 11.7219L6.302 12.102ZM6.395 12.2156L5.9308 12.5957C6.0028 12.6836 6.13667 12.8155 6.34541 12.8665C6.58364 12.9248 6.7934 12.8491 6.93533 12.7453L6.581 12.2611L6.22667 11.7769C6.3066 11.7184 6.45436 11.6578 6.63059 11.7009C6.77733 11.7368 6.8492 11.8232 6.8592 11.8354L6.395 12.2156ZM6.581 12.2611L6.93533 12.7453L7.02833 12.6772L6.674 12.193L6.31967 11.7088L6.22667 11.7769L6.581 12.2611ZM6.674 12.193L7.02833 12.6772L7.12133 12.6092L6.767 12.125L6.41267 11.6408L6.31967 11.7088L6.674 12.193ZM6.767 12.125L7.12133 12.6092C7.1683 12.5748 7.21365 12.545 7.25734 12.5193L6.953 12.0022L6.64866 11.4851C6.56835 11.5324 6.4897 11.5844 6.41267 11.6408L6.767 12.125ZM6.953 12.0022L7.25734 12.5193L7.35034 12.4645L7.046 11.9474L6.74166 11.4304L6.64866 11.4851L6.953 12.0022ZM7.046 11.9474L7.35034 12.4645L7.44334 12.4098L7.139 11.8927L6.83466 11.3756L6.74166 11.4304L7.046 11.9474ZM7.139 11.8927L7.44334 12.4098C7.38348 12.445 7.29021 12.4774 7.17732 12.4671C7.06889 12.4572 6.99454 12.4126 6.95847 12.3848L7.325 11.9097L7.69153 11.4347C7.59346 11.359 7.45711 11.2877 7.28668 11.2721C7.11179 11.2561 6.95652 11.3039 6.83466 11.3756L7.139 11.8927ZM7.325 11.9097L6.95847 12.3848L7.05147 12.4565L7.418 11.9815L7.78453 11.5065L7.69153 11.4347L7.325 11.9097ZM7.418 11.9815L7.05147 12.4565L7.14447 12.5283L7.511 12.0532L7.87753 11.5782L7.78453 11.5065L7.418 11.9815ZM7.511 12.0532L7.14447 12.5283C7.3431 12.6815 7.63023 12.764 7.9275 12.6403L7.697 12.0863L7.4665 11.5323C7.53415 11.5042 7.61935 11.4907 7.70901 11.5066C7.79366 11.5217 7.85027 11.5572 7.87753 11.5782L7.511 12.0532ZM7.697 12.0863L7.9275 12.6403L8.0205 12.6016L7.79 12.0476L7.5595 11.4937L7.4665 11.5323L7.697 12.0863ZM7.79 12.0476L8.0205 12.6016L8.1135 12.5629L7.883 12.0089L7.6525 11.455L7.5595 11.4937L7.79 12.0476ZM7.883 12.0089L8.1135 12.5629C8.07192 12.5802 8.01783 12.5928 7.95618 12.5908C7.89494 12.5887 7.84437 12.5729 7.8084 12.5555L8.069 12.0151L8.3296 11.4746C8.11773 11.3724 7.87708 11.3615 7.6525 11.455L7.883 12.0089ZM8.069 12.0151L7.8084 12.5555L7.9014 12.6004L8.162 12.0599L8.4226 11.5195L8.3296 11.4746L8.069 12.0151ZM8.162 12.0599L7.9014 12.6004L7.9944 12.6452L8.255 12.1047L8.5156 11.5643L8.4226 11.5195L8.162 12.0599ZM8.255 12.1047L7.9944 12.6452C8.13182 12.7115 8.28665 12.7509 8.45284 12.7476L8.441 12.1478L8.42916 11.5479C8.47135 11.547 8.50218 11.5578 8.5156 11.5643L8.255 12.1047ZM8.441 12.1478L8.45284 12.7476L8.54584 12.7458L8.534 12.1459L8.52216 11.546L8.42916 11.5479L8.441 12.1478ZM8.534 12.1459L8.54584 12.7458L8.63884 12.744L8.627 12.1441L8.61516 11.5442L8.52216 11.546L8.534 12.1459ZM8.627 12.1441L8.63884 12.744C8.87318 12.7393 9.06184 12.6383 9.19674 12.5261L8.813 12.0649L8.42926 11.6036C8.44016 11.5946 8.50482 11.5464 8.61516 11.5442L8.627 12.1441ZM8.813 12.0649L9.19674 12.5261L9.28974 12.4487L8.906 11.9875L8.52226 11.5263L8.42926 11.6036L8.813 12.0649ZM8.906 11.9875L9.28974 12.4487L9.38274 12.3714L8.999 11.9101L8.61526 11.4489L8.52226 11.5263L8.906 11.9875ZM8.999 11.9101L9.38274 12.3714C9.3205 12.4232 9.18117 12.502 8.99415 12.4711C8.83055 12.4441 8.74571 12.3503 8.73013 12.3321L9.185 11.9409L9.63987 11.5496C9.56229 11.4594 9.41545 11.3245 9.18985 11.2872C8.94083 11.246 8.7395 11.3455 8.61526 11.4489L8.999 11.9101ZM9.185 11.9409L8.73013 12.3321L8.82313 12.4403L9.278 12.049L9.73287 11.6577L9.63987 11.5496L9.185 11.9409ZM9.278 12.049L8.82313 12.4403L8.91613 12.5484L9.371 12.1571L9.82587 11.7658L9.73287 11.6577L9.278 12.049ZM9.371 12.1571L8.91613 12.5484C8.99799 12.6436 9.16875 12.7992 9.43329 12.8128C9.70816 12.8269 9.89816 12.6794 9.99345 12.5784L9.557 12.1666L9.12055 11.7549C9.15384 11.7196 9.28184 11.6034 9.49471 11.6143C9.69725 11.6247 9.80601 11.7427 9.82587 11.7658L9.371 12.1571ZM9.557 12.1666L9.99345 12.5784L10.0864 12.4798L9.65 12.0681L9.21355 11.6563L9.12055 11.7549L9.557 12.1666ZM9.65 12.0681L10.0864 12.4798L10.1794 12.3812L9.743 11.9695L9.30655 11.5578L9.21355 11.6563L9.65 12.0681ZM9.743 11.9695L10.1794 12.3812C10.1771 12.3837 10.0797 12.4846 9.89731 12.475L9.929 11.8758L9.96069 11.2766C9.65434 11.2604 9.43295 11.4238 9.30655 11.5578L9.743 11.9695ZM9.929 11.8758L9.89731 12.475L9.99031 12.4799L10.022 11.8807L10.0537 11.2816L9.96069 11.2766L9.929 11.8758ZM10.022 11.8807L9.99031 12.4799L10.0833 12.4848L10.115 11.8856L10.1467 11.2865L10.0537 11.2816L10.022 11.8807ZM10.115 11.8856L10.0833 12.4848C10.183 12.4901 10.2826 12.4859 10.3815 12.4726L10.301 11.878L10.2205 11.2834C10.1954 11.2868 10.171 11.2878 10.1467 11.2865L10.115 11.8856ZM10.301 11.878L10.3815 12.4726L10.4745 12.46L10.394 11.8654L10.3135 11.2708L10.2205 11.2834L10.301 11.878ZM10.394 11.8654L10.4745 12.46L10.5675 12.4474L10.487 11.8528L10.4065 11.2582L10.3135 11.2708L10.394 11.8654ZM10.487 11.8528L10.5675 12.4474C10.6471 12.4366 10.7263 12.4223 10.8051 12.4045L10.673 11.8192L10.5409 11.2339C10.4957 11.2442 10.4509 11.2522 10.4065 11.2582L10.487 11.8528ZM10.673 11.8192L10.8051 12.4045L10.8981 12.3835L10.766 11.7982L10.6339 11.213L10.5409 11.2339L10.673 11.8192ZM10.766 11.7982L10.8981 12.3835L10.9911 12.3625L10.859 11.7772L10.7269 11.192L10.6339 11.213L10.766 11.7982ZM10.859 11.7772L10.9911 12.3625C10.9922 12.3622 10.9921 12.3623 10.9911 12.3624C10.9901 12.3625 10.989 12.3625 10.9882 12.3624L11.045 11.7651L11.1018 11.1678C10.9753 11.1557 10.8495 11.1643 10.7269 11.192L10.859 11.7772ZM11.045 11.7651L10.9882 12.3624L11.0812 12.3712L11.138 11.7739L11.1948 11.1766L11.1018 11.1678L11.045 11.7651ZM11.138 11.7739L11.0812 12.3712L11.1742 12.3801L11.231 11.7828L11.2878 11.1854L11.1948 11.1766L11.138 11.7739ZM11.231 11.7828L11.1742 12.3801C11.1189 12.3748 11.0753 12.3585 11.0459 12.3432C11.018 12.3285 11.0043 12.3156 11.0035 12.3148L11.417 11.88L11.8305 11.4453C11.7071 11.3279 11.5257 11.2081 11.2878 11.1854L11.231 11.7828ZM11.417 11.88L11.0035 12.3148L11.0965 12.4033L11.51 11.9685L11.9235 11.5337L11.8305 11.4453L11.417 11.88ZM11.51 11.9685L11.0965 12.4033L11.1895 12.4917L11.603 12.0569L12.0165 11.6221L11.9235 11.5337L11.51 11.9685ZM11.603 12.0569L11.1895 12.4917C11.2739 12.572 11.4012 12.6622 11.5734 12.6982C11.7573 12.7366 11.9309 12.7001 12.0715 12.6251L11.789 12.0957L11.5065 11.5664C11.5851 11.5245 11.6967 11.4981 11.8186 11.5235C11.9288 11.5465 11.9941 11.6008 12.0165 11.6221L11.603 12.0569ZM11.789 12.0957L12.0715 12.6251L12.1645 12.5755L11.882 12.0461L11.5995 11.5168L11.5065 11.5664L11.789 12.0957ZM11.882 12.0461L12.1645 12.5755L12.2575 12.5258L11.975 11.9965L11.6925 11.4671L11.5995 11.5168L11.882 12.0461ZM11.975 11.9965L12.2575 12.5258C12.2069 12.5528 12.1327 12.5768 12.0434 12.5731C11.9552 12.5695 11.8877 12.5404 11.8464 12.5151L12.161 12.0041L12.4756 11.4932C12.24 11.3482 11.9509 11.3293 11.6925 11.4671L11.975 11.9965ZM12.161 12.0041L11.8464 12.5151L11.9394 12.5723L12.254 12.0614L12.5686 11.5505L12.4756 11.4932L12.161 12.0041ZM12.254 12.0614L11.9394 12.5723L12.0324 12.6296L12.347 12.1186L12.6616 11.6077L12.5686 11.5505L12.254 12.0614ZM12.347 12.1186L12.0324 12.6296C12.2673 12.7742 12.5559 12.7937 12.8143 12.6565L12.533 12.1265L12.2517 11.5966C12.3023 11.5697 12.3764 11.546 12.4654 11.5498C12.5532 11.5535 12.6205 11.5824 12.6616 11.6077L12.347 12.1186ZM12.533 12.1265L12.8143 12.6565L12.9073 12.6071L12.626 12.0772L12.3447 11.5472L12.2517 11.5966L12.533 12.1265ZM12.626 12.0772L12.9073 12.6071L13.0003 12.5578L12.719 12.0278L12.4377 11.4978L12.3447 11.5472L12.626 12.0772ZM12.719 12.0278L13.0003 12.5578C12.9649 12.5766 12.9123 12.5957 12.8464 12.5995C12.7796 12.6033 12.7204 12.5902 12.6745 12.5711L12.905 12.0171L13.1355 11.4632C12.8994 11.365 12.6499 11.3852 12.4377 11.4978L12.719 12.0278ZM12.905 12.0171L12.6745 12.5711L12.7675 12.6098L12.998 12.0558L13.2285 11.5018L13.1355 11.4632L12.905 12.0171ZM12.998 12.0558L12.7675 12.6098L12.8605 12.6485L13.091 12.0945L13.3215 11.5405L13.2285 11.5018L12.998 12.0558ZM13.091 12.0945L12.8605 12.6485C13.1705 12.7774 13.4636 12.6797 13.6572 12.5212L13.277 12.057L12.8968 11.5928C12.9218 11.5724 12.9782 11.5339 13.0655 11.5163C13.159 11.4975 13.2493 11.5105 13.3215 11.5405L13.091 12.0945ZM13.277 12.057L13.6572 12.5212L13.7502 12.445L13.37 11.9809L12.9898 11.5167L12.8968 11.5928L13.277 12.057ZM13.37 11.9809L13.7502 12.445L13.8432 12.3689L13.463 11.9047L13.0828 11.4405L12.9898 11.5167L13.37 11.9809ZM13.463 11.9047L13.8432 12.3689C13.7697 12.429 13.6125 12.5091 13.4142 12.4609C13.253 12.4217 13.1785 12.3223 13.1727 12.3148L13.649 11.9499L14.1253 11.585C14.0575 11.4966 13.921 11.3492 13.6978 11.2949C13.4375 11.2316 13.2183 11.3296 13.0828 11.4405L13.463 11.9047ZM13.649 11.9499L13.1727 12.3148L13.2657 12.4362L13.742 12.0713L14.2183 11.7064L14.1253 11.585L13.649 11.9499ZM13.742 12.0713L13.2657 12.4362L13.3587 12.5576L13.835 12.1927L14.3113 11.8278L14.2183 11.7064L13.742 12.0713ZM13.835 12.1927L13.3587 12.5576C13.4266 12.6462 13.564 12.7946 13.789 12.8482C14.051 12.9105 14.2701 12.8099 14.404 12.6989L14.021 12.237L13.638 11.7751C13.7099 11.7155 13.867 11.6332 14.067 11.6808C14.23 11.7196 14.3054 11.8202 14.3113 11.8278L13.835 12.1927ZM14.021 12.237L14.404 12.6989L14.497 12.6218L14.114 12.1599L13.731 11.698L13.638 11.7751L14.021 12.237ZM14.114 12.1599L14.497 12.6218L14.59 12.5447L14.207 12.0828L13.824 11.6209L13.731 11.698L14.114 12.1599ZM14.207 12.0828L14.59 12.5447C14.6094 12.5285 14.6108 12.5322 14.5932 12.5384L14.393 11.9728L14.1928 11.4071C14.0512 11.4572 13.9286 11.5342 13.824 11.6209L14.207 12.0828ZM14.393 11.9728L14.5932 12.5384L14.6862 12.5055L14.486 11.9398L14.2858 11.3742L14.1928 11.4071L14.393 11.9728ZM14.486 11.9398L14.6862 12.5055L14.7792 12.4726L14.579 11.9069L14.3788 11.3413L14.2858 11.3742L14.486 11.9398ZM14.579 11.9069L14.7792 12.4726L14.7794 12.4716L14.765 11.8718L14.7506 11.272C14.6216 11.2751 14.497 11.2995 14.3788 11.3413L14.579 11.9069ZM14.765 11.8718L14.7794 12.4716L14.8724 12.4694L14.858 11.8696L14.8436 11.2698L14.7506 11.272L14.765 11.8718ZM14.858 11.8696L14.8724 12.4694L14.9654 12.4672L14.951 11.8674L14.9366 11.2675L14.8436 11.2698L14.858 11.8696ZM14.951 11.8674L14.9654 12.4672C14.8637 12.4696 14.7833 12.438 14.7332 12.4076C14.7096 12.3933 14.6935 12.3799 14.6842 12.3714C14.6795 12.367 14.6761 12.3635 14.674 12.3612C14.6718 12.3589 14.6708 12.3576 14.6707 12.3576L15.137 11.98L15.6033 11.6024C15.4936 11.4669 15.2725 11.2595 14.9366 11.2675L14.951 11.8674ZM15.137 11.98L14.6707 12.3576L14.7637 12.4724L15.23 12.0948L15.6963 11.7172L15.6033 11.6024L15.137 11.98ZM15.23 12.0948L14.7637 12.4724L14.8567 12.5873L15.323 12.2097L15.7893 11.8321L15.6963 11.7172L15.23 12.0948ZM15.323 12.2097L14.8567 12.5873C14.9361 12.6853 15.1314 12.8786 15.4434 12.8644C15.7425 12.8507 15.9187 12.6544 15.9881 12.5624L15.509 12.2012L15.0299 11.84C15.0373 11.8302 15.1515 11.6764 15.3886 11.6656C15.6386 11.6542 15.7719 11.8106 15.7893 11.8321L15.323 12.2097ZM15.509 12.2012L15.9881 12.5624L16.0811 12.4391L15.602 12.0778L15.1229 11.7166L15.0299 11.84L15.509 12.2012ZM15.602 12.0778L16.0811 12.4391L16.1741 12.3157L15.695 11.9545L15.2159 11.5933L15.1229 11.7166L15.602 12.0778ZM15.695 11.9545L16.1741 12.3157C16.1796 12.3084 16.1663 12.3285 16.1293 12.3542C16.089 12.382 16.0157 12.4192 15.9151 12.4249L15.881 11.8259L15.8469 11.2268C15.5209 11.2454 15.3161 11.4604 15.2159 11.5933L15.695 11.9545ZM15.881 11.8259L15.9151 12.4249L16.0081 12.4196L15.974 11.8206L15.9399 11.2215L15.8469 11.2268L15.881 11.8259ZM15.974 11.8206L16.0081 12.4196L16.1011 12.4143L16.067 11.8153L16.0329 11.2163L15.9399 11.2215L15.974 11.8206ZM16.067 11.8153L16.1011 12.4143C16.13 12.4127 16.1589 12.4134 16.1882 12.4166L16.253 11.8201L16.3178 11.2236C16.2231 11.2133 16.128 11.2109 16.0329 11.2163L16.067 11.8153ZM16.253 11.8201L16.1882 12.4166L16.2812 12.4267L16.346 11.8302L16.4108 11.2337L16.3178 11.2236L16.253 11.8201ZM16.346 11.8302L16.2812 12.4267L16.3742 12.4368L16.439 11.8403L16.5038 11.2438L16.4108 11.2337L16.346 11.8302ZM16.439 11.8403L16.3742 12.4368C16.391 12.4386 16.4105 12.4426 16.4333 12.4503L16.625 11.8818L16.8167 11.3132C16.7155 11.2791 16.611 11.2555 16.5038 11.2438L16.439 11.8403ZM16.625 11.8818L16.4333 12.4503L16.5263 12.4817L16.718 11.9131L16.9097 11.3445L16.8167 11.3132L16.625 11.8818ZM16.718 11.9131L16.5263 12.4817L16.6193 12.513L16.811 11.9445L17.0027 11.3759L16.9097 11.3445L16.718 11.9131ZM16.811 11.9445L16.6193 12.513C16.8845 12.6024 17.1392 12.5405 17.3312 12.4117L16.997 11.9134L16.6628 11.4151C16.6896 11.3972 16.7377 11.3718 16.8053 11.3606C16.8756 11.3488 16.9442 11.3562 17.0027 11.3759L16.811 11.9445ZM16.997 11.9134L17.3312 12.4117L17.4242 12.3494L17.09 11.8511L16.7558 11.3528L16.6628 11.4151L16.997 11.9134ZM17.09 11.8511L17.4242 12.3494L17.5172 12.287L17.183 11.7887L16.8488 11.2904L16.7558 11.3528L17.09 11.8511ZM17.183 11.7887L17.5172 12.287C17.4241 12.3494 17.2702 12.397 17.1015 12.3457C16.9656 12.3044 16.9023 12.2224 16.8964 12.2149L17.369 11.8452L17.8416 11.4756C17.7737 11.3888 17.6484 11.2577 17.4505 11.1976C17.2198 11.1274 17.0039 11.1864 16.8488 11.2904L17.183 11.7887ZM17.369 11.8452L16.8964 12.2149L16.9894 12.3338L17.462 11.9641L17.9346 11.5945L17.8416 11.4756L17.369 11.8452ZM17.462 11.9641L16.9894 12.3338L17.0824 12.4527L17.555 12.083L18.0276 11.7134L17.9346 11.5945L17.462 11.9641ZM17.555 12.083L17.0824 12.4527C17.1505 12.5398 17.2777 12.6729 17.4795 12.732C17.7146 12.8008 17.9309 12.7359 18.0829 12.6305L17.741 12.1375L17.3991 11.6444C17.4891 11.582 17.6434 11.5296 17.8165 11.5803C17.9563 11.6212 18.0215 11.7056 18.0276 11.7134L17.555 12.083ZM17.741 12.1375L18.0829 12.6305L18.1759 12.5661L17.834 12.073L17.4921 11.5799L17.3991 11.6444L17.741 12.1375ZM17.834 12.073L18.1759 12.5661L18.2689 12.5016L17.927 12.0085L17.5851 11.5154L17.4921 11.5799L17.834 12.073ZM17.927 12.0085L18.2689 12.5016C18.2296 12.5288 18.158 12.5655 18.0593 12.5719C17.958 12.5786 17.8743 12.5504 17.819 12.5193L18.113 11.9963L18.407 11.4733C18.2897 11.4073 18.144 11.3638 17.9807 11.3745C17.82 11.385 17.6864 11.4452 17.5851 11.5154L17.927 12.0085ZM18.113 11.9963L17.819 12.5193L17.912 12.5716L18.206 12.0486L18.5 11.5256L18.407 11.4733L18.113 11.9963ZM18.206 12.0486L17.912 12.5716L18.005 12.6239L18.299 12.1009L18.593 11.5779L18.5 11.5256L18.206 12.0486ZM18.299 12.1009L18.005 12.6239C18.0916 12.6726 18.1812 12.7149 18.2737 12.7497L18.485 12.1881L18.6963 11.6266C18.6648 11.6147 18.6304 11.5989 18.593 11.5779L18.299 12.1009ZM18.485 12.1881L18.2737 12.7497L18.3667 12.7847L18.578 12.2231L18.7893 11.6616L18.6963 11.6266L18.485 12.1881ZM18.578 12.2231L18.3667 12.7847L18.4597 12.8197L18.671 12.2581L18.8823 11.6965L18.7893 11.6616L18.578 12.2231ZM18.671 12.2581L18.4597 12.8197C18.5979 12.8717 18.7824 12.8946 18.9743 12.8194C19.1567 12.748 19.2685 12.618 19.332 12.5163L18.823 12.1986L18.314 11.8809C18.3381 11.8422 18.405 11.7536 18.5367 11.702C18.678 11.6467 18.8061 11.6679 18.8823 11.6965L18.671 12.2581ZM18.823 12.1986L19.332 12.5163L19.391 12.4218L18.882 12.1041L18.373 11.7863L18.314 11.8809L18.823 12.1986ZM18.882 12.1041L19.391 12.4218L19.45 12.3273L18.941 12.0096L18.432 11.6918L18.373 11.7863L18.882 12.1041ZM18.941 12.0096L19.45 12.3273C19.4694 12.2962 19.4675 12.3017 19.4526 12.3203C19.4476 12.3265 19.435 12.3418 19.4164 12.3605C19.406 12.3709 19.3556 12.4222 19.274 12.4648C19.2187 12.4937 18.8876 12.6447 18.5935 12.3749C18.4792 12.2701 18.4363 12.1505 18.4196 12.0869C18.402 12.0203 18.4 11.9654 18.4 11.9363H19H19.6C19.6 11.9055 19.5978 11.849 19.58 11.7813C19.5629 11.7166 19.5196 11.5961 19.4047 11.4907C19.1093 11.2197 18.7764 11.3709 18.7186 11.4011C18.6346 11.4449 18.5811 11.4987 18.567 11.5128C18.5447 11.5352 18.5278 11.5554 18.5179 11.5677C18.4833 11.6107 18.452 11.6599 18.432 11.6918L18.941 12.0096ZM19 11.9363H18.4V11.9575H19H19.6V11.9363H19ZM19 11.9575L18.7655 11.4053L18.6655 11.4477L18.9 12L19.1345 12.5523L19.2345 12.5098L19 11.9575ZM18.9 12V12.6H19V12V11.4H18.9V12Z" fill="var(--stroke-0, #CFCFCF)"/>
<path id="Vector_2" d="M12.6 5C12.6 4.66863 12.3314 4.4 12 4.4C11.6686 4.4 11.4 4.66863 11.4 5H12H12.6ZM12 5.1H11.4V5.20095L11.433 5.29634L12 5.1ZM12.1207 5.651L11.5233 5.70767V5.70767L12.1207 5.651ZM12.0841 5.837L11.5448 5.574L12.0841 5.837ZM11.9934 6.023L11.4541 5.76L11.9934 6.023ZM12.007 6.209L11.5002 6.53016L12.007 6.209ZM12.1575 7.325L11.7463 6.88809L12.1575 7.325ZM11.9599 7.511L12.3711 7.94791L11.9599 7.511ZM11.9831 7.697L12.3468 7.21978L11.9831 7.697ZM12.2272 7.883L11.8635 8.36022L12.2272 7.883ZM12.3347 8.069L12.9275 8.16149V8.16149L12.3347 8.069ZM12.3202 8.162L11.7274 8.06951V8.06951L12.3202 8.162ZM12.3057 8.255L11.7129 8.16251V8.16251L12.3057 8.255ZM12.198 8.441L11.7742 8.0162L12.198 8.441ZM12.0115 8.627L12.4352 9.0518L12.0115 8.627ZM12.0175 8.813L12.4277 8.37514L12.0175 8.813ZM12.2161 8.999L12.6263 8.56114L12.2161 8.999ZM12.3161 9.185L11.7161 9.19014L12.3161 9.185ZM11.7463 9.929L12.3162 9.74125V9.74125L11.7463 9.929ZM11.777 10.022L11.2071 10.2097V10.2097L11.777 10.022ZM11.8076 10.115L11.2377 10.3027L11.8076 10.115ZM11.8043 10.301L12.3679 10.5067L11.8043 10.301ZM11.7364 10.487L11.1728 10.2813L11.7364 10.487ZM11.8515 10.673L11.5338 11.182L11.8515 10.673ZM12.1495 10.859L12.4672 10.35L12.1495 10.859ZM12.2977 11.045L11.6977 11.0403L12.2977 11.045ZM12.2962 11.231L12.8962 11.2357L12.2962 11.231ZM12.2307 11.417L12.7231 11.7599L12.2307 11.417ZM12.1012 11.603L11.6088 11.2601L12.1012 11.603ZM12.0767 11.975L11.4829 12.0607L12.0767 11.975ZM12.2041 12.347L11.6486 12.5738L12.2041 12.347ZM12.1169 12.533L11.759 12.0515L12.1169 12.533ZM11.8667 12.719L12.2247 13.2005L11.8667 12.719ZM11.8318 13.091L11.2609 13.2756L11.8318 13.091ZM11.8069 13.463L11.2182 13.3469L11.8069 13.463ZM11.7794 13.649L11.1823 13.59L11.7794 13.649ZM11.761 13.835L12.3581 13.894L11.761 13.835ZM11.7445 14.021L11.1463 13.9739L11.7445 14.021ZM11.7314 14.765L12.1844 14.3716L11.7314 14.765ZM11.8929 14.951L11.4398 15.3444L11.8929 14.951ZM11.9962 15.881L11.4891 16.2017L11.9962 15.881ZM12.1138 16.067L12.621 15.7463L12.1138 16.067ZM12.0518 16.253L12.4179 16.7284L12.0518 16.253ZM11.8102 16.439L11.4442 15.9636L11.8102 16.439ZM11.6943 16.625L12.2935 16.5934L11.6943 16.625ZM11.7041 16.811L11.105 16.8426L11.7041 16.811ZM11.6939 16.997L12.2862 17.0932L11.6939 16.997ZM11.6637 17.183L11.0715 17.0868L11.6637 17.183ZM11.795 17.369L11.4732 17.8754L11.795 17.369ZM12.0877 17.555L12.4095 17.0486L12.0877 17.555ZM12.2547 17.741L11.6688 17.8706L12.2547 17.741ZM12.3081 18.206L11.7087 18.1792L12.3081 18.206ZM12.3039 18.299L11.7045 18.2722L12.3039 18.299ZM12.0024 19L11.4025 19.0141L11.4163 19.6H12.0024V19ZM12 18.9L12.5998 18.8859L11.4 18.9H12ZM11.4 19C11.4 19.3314 11.6686 19.6 12 19.6C12.3314 19.6 12.6 19.3314 12.6 19H12H11.4ZM12 5H11.4V5.1H12H12.6V5H12ZM12 5.1L11.433 5.29634L11.4801 5.43234L12.0471 5.236L12.6141 5.03966L12.567 4.90366L12 5.1ZM12.0471 5.236L11.4801 5.43234C11.491 5.46365 11.4977 5.48712 11.5018 5.50358C11.5059 5.52051 11.5061 5.52585 11.5057 5.52167L12.103 5.465L12.7003 5.40833C12.6882 5.28044 12.6537 5.15401 12.6141 5.03966L12.0471 5.236ZM12.103 5.465L11.5057 5.52167L11.5145 5.61467L12.1118 5.558L12.7092 5.50133L12.7003 5.40833L12.103 5.465ZM12.1118 5.558L11.5145 5.61467L11.5233 5.70767L12.1207 5.651L12.718 5.59433L12.7092 5.50133L12.1118 5.558ZM12.1207 5.651L11.5233 5.70767C11.5207 5.68028 11.5223 5.65325 11.5272 5.62836C11.532 5.60387 11.5392 5.58552 11.5448 5.574L12.0841 5.837L12.6234 6.1C12.6967 5.94981 12.7354 5.77777 12.718 5.59433L12.1207 5.651ZM12.0841 5.837L11.5448 5.574L11.4995 5.667L12.0388 5.93L12.5781 6.193L12.6234 6.1L12.0841 5.837ZM12.0388 5.93L11.4995 5.667L11.4541 5.76L11.9934 6.023L12.5327 6.286L12.5781 6.193L12.0388 5.93ZM11.9934 6.023L11.4541 5.76C11.3258 6.02322 11.3581 6.3059 11.5002 6.53016L12.007 6.209L12.5138 5.88784C12.5375 5.92527 12.5664 5.98828 12.5725 6.07231C12.5788 6.15824 12.5588 6.23249 12.5327 6.286L11.9934 6.023ZM12.007 6.209L11.5002 6.53016L11.5591 6.62316L12.0659 6.302L12.5727 5.98084L12.5138 5.88784L12.007 6.209ZM12.0659 6.302L11.5591 6.62316L11.6181 6.71616L12.1249 6.395L12.6317 6.07384L12.5727 5.98084L12.0659 6.302ZM12.1249 6.395L11.6181 6.71616C11.6102 6.70375 11.5976 6.6803 11.5883 6.64619C11.5787 6.61106 11.5743 6.57092 11.578 6.52896L12.1757 6.581L12.7734 6.63304C12.7922 6.41761 12.7283 6.22626 12.6317 6.07384L12.1249 6.395ZM12.1757 6.581L11.578 6.52896L11.5699 6.62196L12.1676 6.674L12.7653 6.72604L12.7734 6.63304L12.1757 6.581ZM12.1676 6.674L11.5699 6.62196L11.5618 6.71496L12.1595 6.767L12.7573 6.81904L12.7653 6.72604L12.1676 6.674ZM12.1595 6.767L11.5618 6.71496C11.5499 6.85175 11.5637 6.98652 11.6002 7.11585L12.1776 6.953L12.7551 6.79015C12.7557 6.79222 12.7566 6.79622 12.7572 6.8018C12.7577 6.80742 12.7577 6.81332 12.7573 6.81904L12.1595 6.767ZM12.1776 6.953L11.6002 7.11585L11.6264 7.20885L12.2039 7.046L12.7813 6.88315L12.7551 6.79015L12.1776 6.953ZM12.2039 7.046L11.6264 7.20885L11.6526 7.30185L12.2301 7.139L12.8076 6.97615L12.7813 6.88315L12.2039 7.046ZM12.2301 7.139L11.6526 7.30185C11.6247 7.20282 11.6324 7.10015 11.6661 7.01388C11.6959 6.93767 11.7364 6.89739 11.7463 6.88809L12.1575 7.325L12.5687 7.76191C12.7226 7.61714 12.9094 7.33715 12.8076 6.97615L12.2301 7.139ZM12.1575 7.325L11.7463 6.88809L11.6475 6.98109L12.0587 7.418L12.4699 7.85491L12.5687 7.76191L12.1575 7.325ZM12.0587 7.418L11.6475 6.98109L11.5487 7.07409L11.9599 7.511L12.3711 7.94791L12.4699 7.85491L12.0587 7.418ZM11.9599 7.511L11.5487 7.07409C11.4422 7.17426 11.284 7.38245 11.3209 7.67835C11.3543 7.94577 11.5286 8.10501 11.6194 8.17422L11.9831 7.697L12.3468 7.21978C12.3563 7.22699 12.486 7.32423 12.5117 7.52965C12.5409 7.76355 12.4117 7.90974 12.3711 7.94791L11.9599 7.511ZM11.9831 7.697L11.6194 8.17422L11.7415 8.26722L12.1052 7.79L12.4688 7.31278L12.3468 7.21978L11.9831 7.697ZM12.1052 7.79L11.7415 8.26722L11.8635 8.36022L12.2272 7.883L12.5909 7.40578L12.4688 7.31278L12.1052 7.79ZM12.2272 7.883L11.8635 8.36022C11.8629 8.35977 11.8552 8.35386 11.8436 8.34164C11.8321 8.32946 11.814 8.308 11.7956 8.27629C11.7552 8.20626 11.7226 8.09985 11.7419 7.97651L12.3347 8.069L12.9275 8.16149C12.989 7.76745 12.7303 7.51202 12.5909 7.40578L12.2272 7.883ZM12.3347 8.069L11.7419 7.97651L11.7274 8.06951L12.3202 8.162L12.913 8.25449L12.9275 8.16149L12.3347 8.069ZM12.3202 8.162L11.7274 8.06951L11.7129 8.16251L12.3057 8.255L12.8985 8.34749L12.913 8.25449L12.3202 8.162ZM12.3057 8.255L11.7129 8.16251C11.7293 8.05719 11.7812 8.00925 11.7742 8.0162L12.198 8.441L12.6217 8.8658C12.739 8.74875 12.8627 8.57681 12.8985 8.34749L12.3057 8.255ZM12.198 8.441L11.7742 8.0162L11.681 8.1092L12.1047 8.534L12.5285 8.9588L12.6217 8.8658L12.198 8.441ZM12.1047 8.534L11.681 8.1092L11.5878 8.2022L12.0115 8.627L12.4352 9.0518L12.5285 8.9588L12.1047 8.534ZM12.0115 8.627L11.5878 8.2022C11.4889 8.30076 11.3584 8.48309 11.3667 8.73945C11.3748 8.99032 11.5116 9.16122 11.6073 9.25086L12.0175 8.813L12.4277 8.37514C12.4572 8.40278 12.5599 8.51168 12.5661 8.70055C12.5724 8.89491 12.4719 9.01524 12.4352 9.0518L12.0115 8.627ZM12.0175 8.813L11.6073 9.25086L11.7066 9.34386L12.1168 8.906L12.527 8.46814L12.4277 8.37514L12.0175 8.813ZM12.1168 8.906L11.7066 9.34386L11.8058 9.43686L12.2161 8.999L12.6263 8.56114L12.527 8.46814L12.1168 8.906ZM12.2161 8.999L11.8058 9.43686C11.8044 9.43554 11.7839 9.41631 11.7623 9.37626C11.7391 9.33317 11.7168 9.26914 11.7161 9.19014L12.3161 9.185L12.9161 9.17986C12.9136 8.89048 12.7565 8.68315 12.6263 8.56114L12.2161 8.999ZM12.3161 9.185L11.7161 9.19014L11.7169 9.28314L12.3169 9.278L12.9169 9.27286L12.9161 9.17986L12.3161 9.185ZM12.3169 9.278L11.7169 9.28314L11.7177 9.37614L12.3177 9.371L12.9177 9.36586L12.9169 9.27286L12.3169 9.278ZM12.3177 9.371L11.7177 9.37614C11.7165 9.23297 11.7766 9.13328 11.8135 9.08749C11.8465 9.04649 11.8703 9.03557 11.8527 9.0464L12.1678 9.557L12.4829 10.0676C12.6061 9.99158 12.9212 9.77195 12.9177 9.36586L12.3177 9.371ZM12.1678 9.557L11.8527 9.0464L11.702 9.1394L12.0171 9.65L12.3322 10.1606L12.4829 10.0676L12.1678 9.557ZM12.0171 9.65L11.702 9.1394L11.5513 9.2324L11.8664 9.743L12.1815 10.2536L12.3322 10.1606L12.0171 9.65ZM11.8664 9.743L11.5513 9.2324C11.4656 9.28528 11.3459 9.37282 11.2569 9.5106C11.1531 9.67148 11.1017 9.88967 11.1765 10.1167L11.7463 9.929L12.3162 9.74125C12.3397 9.81266 12.3481 9.89356 12.335 9.97615C12.3223 10.0564 12.2926 10.1189 12.2651 10.1614C12.2162 10.2372 12.1667 10.2627 12.1815 10.2536L11.8664 9.743ZM11.7463 9.929L11.1765 10.1167L11.2071 10.2097L11.777 10.022L12.3468 9.83425L12.3162 9.74125L11.7463 9.929ZM11.777 10.022L11.2071 10.2097L11.2377 10.3027L11.8076 10.115L12.3775 9.92725L12.3468 9.83425L11.777 10.022ZM11.8076 10.115L11.2377 10.3027C11.228 10.2732 11.2215 10.2372 11.2222 10.1973C11.2229 10.1576 11.2306 10.1228 11.2407 10.0953L11.8043 10.301L12.3679 10.5067C12.4363 10.3195 12.4406 10.1189 12.3775 9.92725L11.8076 10.115ZM11.8043 10.301L11.2407 10.0953L11.2067 10.1883L11.7704 10.394L12.334 10.5997L12.3679 10.5067L11.8043 10.301ZM11.7704 10.394L11.2067 10.1883L11.1728 10.2813L11.7364 10.487L12.3 10.6927L12.334 10.5997L11.7704 10.394ZM11.7364 10.487L11.1728 10.2813C11.0912 10.5047 11.1336 10.7269 11.2379 10.8956C11.3263 11.0385 11.4481 11.1285 11.5338 11.182L11.8515 10.673L12.1692 10.164C12.1555 10.1555 12.2085 10.1835 12.2585 10.2644C12.2866 10.3099 12.3156 10.3753 12.3261 10.458C12.3369 10.5428 12.3253 10.6236 12.3 10.6927L11.7364 10.487ZM11.8515 10.673L11.5338 11.182L11.6828 11.275L12.0005 10.766L12.3182 10.257L12.1692 10.164L11.8515 10.673ZM12.0005 10.766L11.6828 11.275L11.8318 11.368L12.1495 10.859L12.4672 10.35L12.3182 10.257L12.0005 10.766ZM12.1495 10.859L11.8318 11.368C11.8485 11.3785 11.8247 11.3672 11.7918 11.326C11.7551 11.28 11.6966 11.1813 11.6977 11.0403L12.2977 11.045L12.8977 11.0497C12.9009 10.6472 12.5914 10.4276 12.4672 10.35L12.1495 10.859ZM12.2977 11.045L11.6977 11.0403L11.697 11.1333L12.297 11.138L12.897 11.1427L12.8977 11.0497L12.2977 11.045ZM12.297 11.138L11.697 11.1333L11.6963 11.2263L12.2962 11.231L12.8962 11.2357L12.897 11.1427L12.297 11.138ZM12.2962 11.231L11.6963 11.2263C11.6969 11.143 11.7277 11.0894 11.7384 11.0741L12.2307 11.417L12.7231 11.7599C12.8201 11.6206 12.8946 11.443 12.8962 11.2357L12.2962 11.231ZM12.2307 11.417L11.7384 11.0741L11.6736 11.1671L12.166 11.51L12.6583 11.8529L12.7231 11.7599L12.2307 11.417ZM12.166 11.51L11.6736 11.1671L11.6088 11.2601L12.1012 11.603L12.5936 11.9459L12.6583 11.8529L12.166 11.51ZM12.1012 11.603L11.6088 11.2601C11.4977 11.4197 11.421 11.6322 11.456 11.8747L12.0499 11.789L12.6437 11.7033C12.6514 11.7565 12.6472 11.809 12.6344 11.8557C12.622 11.9005 12.6042 11.9306 12.5936 11.9459L12.1012 11.603ZM12.0499 11.789L11.456 11.8747L11.4694 11.9677L12.0633 11.882L12.6571 11.7963L12.6437 11.7033L12.0499 11.789ZM12.0633 11.882L11.4694 11.9677L11.4829 12.0607L12.0767 11.975L12.6706 11.8893L12.6571 11.7963L12.0633 11.882ZM12.0767 11.975L11.4829 12.0607C11.4993 12.1743 11.5301 12.2836 11.5726 12.3878L12.1281 12.161L12.6836 11.9342C12.6755 11.9144 12.672 11.8997 12.6706 11.8893L12.0767 11.975ZM12.1281 12.161L11.5726 12.3878L11.6106 12.4808L12.1661 12.254L12.7215 12.0272L12.6836 11.9342L12.1281 12.161ZM12.1661 12.254L11.6106 12.4808L11.6486 12.5738L12.2041 12.347L12.7595 12.1202L12.7215 12.0272L12.1661 12.254ZM12.2041 12.347L11.6486 12.5738C11.6258 12.518 11.6109 12.4503 11.6131 12.3755C11.6154 12.301 11.6341 12.2364 11.6579 12.1855C11.7017 12.092 11.7588 12.0516 11.759 12.0515L12.1169 12.533L12.4749 13.0145C12.5584 12.9524 12.6718 12.85 12.7446 12.6945C12.8284 12.5156 12.8371 12.3101 12.7595 12.1202L12.2041 12.347ZM12.1169 12.533L11.759 12.0515L11.6339 12.1445L11.9918 12.626L12.3498 13.1075L12.4749 13.0145L12.1169 12.533ZM11.9918 12.626L11.6339 12.1445L11.5088 12.2375L11.8667 12.719L12.2247 13.2005L12.3498 13.1075L11.9918 12.626ZM11.8667 12.719L11.5088 12.2375C11.3617 12.3468 11.0581 12.6482 11.2008 13.0896L11.7717 12.905L12.3426 12.7204C12.3851 12.8519 12.3658 12.9851 12.3147 13.085C12.2928 13.1279 12.2691 13.157 12.2537 13.1736C12.2382 13.1903 12.2269 13.1989 12.2247 13.2005L11.8667 12.719ZM11.7717 12.905L11.2008 13.0896L11.2309 13.1826L11.8018 12.998L12.3727 12.8134L12.3426 12.7204L11.7717 12.905ZM11.8018 12.998L11.2309 13.1826L11.2609 13.2756L11.8318 13.091L12.4027 12.9064L12.3727 12.8134L11.8018 12.998ZM11.8318 13.091L11.2609 13.2756C11.2563 13.2613 11.2523 13.2431 11.251 13.2218C11.2496 13.2004 11.2512 13.1797 11.2549 13.1609L11.8436 13.277L12.4322 13.3931C12.4648 13.2278 12.4532 13.0623 12.4027 12.9064L11.8318 13.091ZM11.8436 13.277L11.2549 13.1609L11.2366 13.2539L11.8252 13.37L12.4139 13.4861L12.4322 13.3931L11.8436 13.277ZM11.8252 13.37L11.2366 13.2539L11.2182 13.3469L11.8069 13.463L12.3956 13.5791L12.4139 13.4861L11.8252 13.37ZM11.8069 13.463L11.2182 13.3469C11.2023 13.4275 11.1903 13.5086 11.1823 13.59L11.7794 13.649L12.3765 13.708C12.3807 13.6654 12.387 13.6225 12.3956 13.5791L11.8069 13.463ZM11.7794 13.649L11.1823 13.59L11.1731 13.683L11.7702 13.742L12.3673 13.801L12.3765 13.708L11.7794 13.649ZM11.7702 13.742L11.1731 13.683L11.1639 13.776L11.761 13.835L12.3581 13.894L12.3673 13.801L11.7702 13.742ZM11.761 13.835L11.1639 13.776C11.1574 13.8419 11.1515 13.9079 11.1463 13.9739L11.7445 14.021L12.3426 14.0681C12.3472 14.0101 12.3523 13.9521 12.3581 13.894L11.761 13.835ZM11.7445 14.021L11.1463 13.9739L11.139 14.0669L11.7371 14.114L12.3353 14.1611L12.3426 14.0681L11.7445 14.021ZM11.7371 14.114L11.139 14.0669L11.1317 14.1599L11.7298 14.207L12.3279 14.2541L12.3353 14.1611L11.7371 14.114ZM11.7298 14.207L11.1317 14.1599C11.1286 14.1992 11.1232 14.2389 11.1154 14.2792L11.7045 14.393L12.2936 14.5068C12.3098 14.4231 12.3213 14.3388 12.3279 14.2541L11.7298 14.207ZM11.7045 14.393L11.1154 14.2792L11.0974 14.3722L11.6865 14.486L12.2757 14.5998L12.2936 14.5068L11.7045 14.393ZM11.6865 14.486L11.0974 14.3722L11.0795 14.4652L11.6686 14.579L12.2577 14.6928L12.2757 14.5998L11.6865 14.486ZM11.6686 14.579L11.0795 14.4652C11.0225 14.76 11.1431 15.0026 11.2783 15.1584L11.7314 14.765L12.1844 14.3716C12.1961 14.3851 12.2238 14.4208 12.2438 14.4801C12.2653 14.5438 12.2721 14.618 12.2577 14.6928L11.6686 14.579ZM11.7314 14.765L11.2783 15.1584L11.3591 15.2514L11.8121 14.858L12.2652 14.4646L12.1844 14.3716L11.7314 14.765ZM11.8121 14.858L11.3591 15.2514L11.4398 15.3444L11.8929 14.951L12.3459 14.5576L12.2652 14.4646L11.8121 14.858ZM11.8929 14.951L11.4398 15.3444C11.4275 15.3302 11.3989 15.293 11.3786 15.2315C11.3569 15.1654 11.351 15.0892 11.3669 15.0136L11.9541 15.137L12.5413 15.2604C12.6039 14.9624 12.483 14.7155 12.3459 14.5576L11.8929 14.951ZM11.9541 15.137L11.3669 15.0136L11.3474 15.1066L11.9345 15.23L12.5217 15.3534L12.5413 15.2604L11.9541 15.137ZM11.9345 15.23L11.3474 15.1066L11.3278 15.1996L11.915 15.323L12.5022 15.4464L12.5217 15.3534L11.9345 15.23ZM11.915 15.323L11.3278 15.1996C11.3018 15.3233 11.2954 15.4496 11.3097 15.5763L11.9059 15.509L12.5022 15.4417C12.5023 15.4426 12.5023 15.4438 12.5023 15.4452C12.5022 15.4465 12.502 15.447 12.5022 15.4464L11.915 15.323ZM11.9059 15.509L11.3097 15.5763L11.3202 15.6693L11.9164 15.602L12.5127 15.5347L12.5022 15.4417L11.9059 15.509ZM11.9164 15.602L11.3202 15.6693L11.3307 15.7623L11.9269 15.695L12.5231 15.6277L12.5127 15.5347L11.9164 15.602ZM11.9269 15.695L11.3307 15.7623C11.3495 15.9289 11.4099 16.0764 11.4891 16.2017L11.9962 15.881L12.5034 15.5603C12.5042 15.5616 12.5183 15.5851 12.5231 15.6277L11.9269 15.695ZM11.9962 15.881L11.4891 16.2017L11.5479 16.2947L12.055 15.974L12.5622 15.6533L12.5034 15.5603L11.9962 15.881ZM12.055 15.974L11.5479 16.2947L11.6067 16.3877L12.1138 16.067L12.621 15.7463L12.5622 15.6533L12.055 15.974ZM12.1138 16.067L11.6067 16.3877C11.5794 16.3445 11.5505 16.282 11.5386 16.2022C11.5264 16.1203 11.5351 16.0405 11.5585 15.9703C11.6016 15.8411 11.6801 15.782 11.6858 15.7776L12.0518 16.253L12.4179 16.7284C12.5041 16.662 12.6332 16.5409 12.6969 16.3497C12.7717 16.1256 12.7235 15.9085 12.621 15.7463L12.1138 16.067ZM12.0518 16.253L11.6858 15.7776L11.565 15.8706L11.931 16.346L12.297 16.8214L12.4179 16.7284L12.0518 16.253ZM11.931 16.346L11.565 15.8706L11.4442 15.9636L11.8102 16.439L12.1762 16.9144L12.297 16.8214L11.931 16.346ZM11.8102 16.439L11.4442 15.9636C11.3083 16.0682 11.0762 16.2976 11.0952 16.6566L11.6943 16.625L12.2935 16.5934C12.2994 16.7057 12.264 16.7949 12.2301 16.8493C12.1998 16.8979 12.1722 16.9176 12.1762 16.9144L11.8102 16.439ZM11.6943 16.625L11.0952 16.6566L11.1001 16.7496L11.6992 16.718L12.2984 16.6864L12.2935 16.5934L11.6943 16.625ZM11.6992 16.718L11.1001 16.7496L11.105 16.8426L11.7041 16.811L12.3033 16.7794L12.2984 16.6864L11.6992 16.718ZM11.7041 16.811L11.105 16.8426C11.106 16.8614 11.105 16.8805 11.1017 16.9008L11.6939 16.997L12.2862 17.0932C12.303 16.9895 12.3089 16.8846 12.3033 16.7794L11.7041 16.811ZM11.6939 16.997L11.1017 16.9008L11.0866 16.9938L11.6788 17.09L12.2711 17.1862L12.2862 17.0932L11.6939 16.997ZM11.6788 17.09L11.0866 16.9938L11.0715 17.0868L11.6637 17.183L12.256 17.2792L12.2711 17.1862L11.6788 17.09ZM11.6637 17.183L11.0715 17.0868C10.9978 17.5403 11.3507 17.7975 11.4732 17.8754L11.795 17.369L12.1168 16.8626C12.1029 16.8538 12.1387 16.8726 12.1792 16.93C12.2278 16.9989 12.2812 17.1239 12.256 17.2792L11.6637 17.183ZM11.795 17.369L11.4732 17.8754L11.6196 17.9684L11.9414 17.462L12.2631 16.9556L12.1168 16.8626L11.795 17.369ZM11.9414 17.462L11.6196 17.9684L11.766 18.0614L12.0877 17.555L12.4095 17.0486L12.2631 16.9556L11.9414 17.462ZM12.0877 17.555L11.766 18.0614C11.785 18.0735 11.7759 18.0708 11.7561 18.0488C11.7358 18.0262 11.6902 17.9671 11.6688 17.8706L12.2547 17.741L12.8405 17.6114C12.7732 17.307 12.5413 17.1323 12.4095 17.0486L12.0877 17.555ZM12.2547 17.741L11.6688 17.8706L11.6894 17.9636L12.2753 17.834L12.8611 17.7044L12.8405 17.6114L12.2547 17.741ZM12.2753 17.834L11.6894 17.9636L11.71 18.0566L12.2958 17.927L12.8817 17.7974L12.8611 17.7044L12.2753 17.834ZM12.2958 17.927L11.71 18.0566C11.7126 18.0685 11.7132 18.0779 11.7128 18.0862L12.3122 18.113L12.9116 18.1398C12.9168 18.0241 12.9065 17.9095 12.8817 17.7974L12.2958 17.927ZM12.3122 18.113L11.7128 18.0862L11.7087 18.1792L12.3081 18.206L12.9075 18.2328L12.9116 18.1398L12.3122 18.113ZM12.3081 18.206L11.7087 18.1792L11.7045 18.2722L12.3039 18.299L12.9033 18.3258L12.9075 18.2328L12.3081 18.206ZM12.3039 18.299L11.7045 18.2722C11.7103 18.1441 11.7644 18.0565 11.7967 18.0162C11.8264 17.9794 11.8469 17.9695 11.831 17.9797L12.1545 18.485L12.478 18.9903C12.6056 18.9086 12.8866 18.7001 12.9033 18.3258L12.3039 18.299ZM12.1545 18.485L11.831 17.9797L11.6857 18.0727L12.0092 18.578L12.3327 19.0833L12.478 18.9903L12.1545 18.485ZM12.0092 18.578L11.6857 18.0727L11.5405 18.1657L11.864 18.671L12.1875 19.1763L12.3327 19.0833L12.0092 18.578ZM11.864 18.671L11.5405 18.1657C11.4777 18.2059 11.3226 18.3091 11.2331 18.4935C11.1786 18.6057 11.1416 18.7639 11.1868 18.9404C11.2302 19.1096 11.3305 19.2216 11.4083 19.2858L11.7902 18.823L12.1721 18.3602C12.2261 18.4048 12.3116 18.4956 12.3492 18.6423C12.3887 18.7963 12.3548 18.9306 12.3127 19.0175C12.2748 19.0954 12.229 19.1404 12.213 19.1552C12.1941 19.1727 12.1827 19.1794 12.1875 19.1763L11.864 18.671ZM11.7902 18.823L11.4083 19.2858L11.4798 19.3448L11.8617 18.882L12.2436 18.4192L12.1721 18.3602L11.7902 18.823ZM11.8617 18.882L11.4798 19.3448L11.5513 19.4038L11.9332 18.941L12.3151 18.4782L12.2436 18.4192L11.8617 18.882ZM11.9332 18.941L11.5513 19.4038C11.5749 19.4232 11.5911 19.4367 11.6009 19.4449C11.6063 19.4494 11.6074 19.4504 11.6063 19.4494C11.6058 19.449 11.6046 19.448 11.6029 19.4465C11.6015 19.4452 11.598 19.4421 11.5935 19.4379C11.5923 19.4368 11.5775 19.4231 11.5602 19.4042C11.5593 19.4032 11.5218 19.3639 11.4876 19.3062C11.4771 19.2885 11.4591 19.2563 11.4428 19.2134C11.4292 19.1777 11.3989 19.0896 11.4042 18.9731C11.4103 18.8356 11.4695 18.6517 11.6415 18.5215C11.7886 18.4102 11.9394 18.4 12.0035 18.4V19V19.6C12.0677 19.6 12.2185 19.5898 12.3656 19.4785C12.5376 19.3483 12.5968 19.1644 12.6029 19.0269C12.6082 18.9103 12.5779 18.8223 12.5643 18.7865C12.5479 18.7436 12.53 18.7114 12.5195 18.6937C12.4852 18.6359 12.4476 18.5965 12.4466 18.5953C12.429 18.5761 12.4137 18.562 12.4119 18.5603C12.403 18.552 12.3952 18.5452 12.3929 18.5432C12.3861 18.5373 12.3785 18.5309 12.3722 18.5256C12.3585 18.5141 12.3392 18.4981 12.3151 18.4782L11.9332 18.941ZM12.0035 19V18.4H12.0024V19V19.6H12.0035V19ZM12.0024 19L12.6022 18.9859L12.5998 18.8859L12 18.9L11.4002 18.9141L11.4025 19.0141L12.0024 19ZM12 18.9H11.4V19H12H12.6V18.9H12Z" fill="var(--stroke-0, #CFCFCF)"/>
</g>
</svg>
