<svg preserveAspectRatio="none" width="100%" height="100%" overflow="visible" style="display: block;" viewBox="0 0 10 10" fill="none" xmlns="http://www.w3.org/2000/svg">
<g id="Frame">
<path id="Vector" d="M0.833333 3.95833C0.833342 3.49467 0.973997 3.04191 1.23672 2.65986C1.49945 2.27781 1.87188 1.98444 2.30484 1.8185C2.73779 1.65256 3.2109 1.62185 3.66167 1.73043C4.11244 1.83902 4.51968 2.08178 4.82958 2.42667C4.85141 2.45001 4.8778 2.46861 4.90712 2.48133C4.93643 2.49405 4.96804 2.50062 5 2.50062C5.03196 2.50062 5.06357 2.49405 5.09289 2.48133C5.1222 2.46861 5.14859 2.45001 5.17042 2.42667C5.47935 2.07954 5.88668 1.83474 6.33818 1.72483C6.78969 1.61493 7.26396 1.64514 7.69786 1.81145C8.13177 1.97776 8.50474 2.27227 8.76713 2.65579C9.02952 3.03931 9.16888 3.49365 9.16667 3.95833C9.16667 4.9125 8.54167 5.625 7.91667 6.25L5.62833 8.46375C5.5507 8.55292 5.45497 8.62455 5.34752 8.67388C5.24007 8.7232 5.12335 8.7491 5.00512 8.74985C4.88689 8.7506 4.76985 8.72618 4.66179 8.67822C4.55372 8.63026 4.4571 8.55985 4.37833 8.47167L2.08333 6.25C1.45833 5.625 0.833333 4.91667 0.833333 3.95833Z" fill="var(--fill-0, white)"/>
</g>
</svg>
