<svg preserveAspectRatio="none" width="100%" height="100%" overflow="visible" style="display: block;" viewBox="0 0 24 24" fill="none" xmlns="http://www.w3.org/2000/svg">
<g id="Frame">
<path id="Vector" d="M3.72861 16.564L2.75839 16.3218L3.72861 16.564ZM3.70868 17.4907L2.70988 17.5397L3.70868 17.4907ZM3.57268 18.4199L4.55076 18.6281L3.57268 18.4199ZM3.35293 18.8428L2.60566 18.1783L3.35293 18.8428ZM2.85651 19.6863L1.85812 19.7431L2.85651 19.6863ZM3.55889 20.7923L3.97628 19.8836L3.55889 20.7923ZM3.98161 20.8006L4.39393 21.7117L3.98161 20.8006ZM4.38928 20.6161L3.97696 19.7051L4.38928 20.6161ZM4.83148 20.5017L4.73894 19.506L4.83148 20.5017ZM5.76355 20.34L6.16557 21.2556L5.76355 20.34ZM6.19751 20.1494L5.79549 19.2338L6.19751 20.1494ZM7.14881 20.0841L7.18947 19.0849L7.14881 20.0841ZM7.59918 20.1705L7.25057 21.1078L7.59918 20.1705ZM7.80479 20.247L8.1534 19.3097L7.80479 20.247ZM8.0104 20.3234L8.35901 19.3862L8.0104 20.3234ZM8.45395 20.4451L8.26728 21.4275L8.45395 20.4451ZM8.92983 20.5355L9.1165 19.5531L8.92983 20.5355ZM9.39607 20.6393L9.64435 19.6706L9.39607 20.6393ZM9.85266 20.7563L9.60438 21.725L9.85266 20.7563ZM10.3055 20.9239L10.7424 20.0244L10.3055 20.9239ZM10.53 21.033L10.967 20.1335L10.53 21.033ZM10.7545 21.142L10.3176 22.0415L10.7545 21.142ZM12.4295 21.1639L12.4125 20.164L12.4295 21.1639ZM12.6693 21.1598L12.6863 22.1596L12.6693 21.1598ZM13.1517 21.1443L13.1045 20.1454L13.1517 21.1443ZM13.6367 21.1214L13.6838 22.1203L13.6367 21.1214ZM14.0728 20.9187L14.7755 21.6302L14.0728 20.9187ZM14.2664 20.7275L13.5637 20.016L14.2664 20.7275ZM14.46 20.5363L15.1627 21.2478L14.46 20.5363ZM14.889 20.3136L14.7567 19.3224L14.889 20.3136ZM15.3598 20.2508L15.4921 21.242L15.3598 20.2508ZM15.7783 20.0683L16.4146 20.8398L15.7783 20.0683ZM16.1445 19.7662L15.5082 18.9948L16.1445 19.7662ZM16.6047 19.6101L16.6231 20.6099L16.6047 19.6101ZM17.1589 19.5999L17.1404 18.6L17.1589 19.5999ZM17.5376 19.3425L18.4651 19.7162L17.5376 19.3425ZM17.6392 19.0903L18.5668 19.464L17.6392 19.0903ZM17.7409 18.838L16.8133 18.4643L17.7409 18.838ZM18.0303 18.4466L17.4351 17.6431L18.0303 18.4466ZM18.406 18.1683L19.0013 18.9718L18.406 18.1683ZM18.7654 17.8663L18.0771 17.1409L18.7654 17.8663ZM18.937 17.7035L18.2486 16.9781L18.937 17.7035ZM19.1085 17.5407L19.7969 18.2661L19.1085 17.5407ZM19.4674 17.2144L20.125 17.9678L19.4674 17.2144ZM19.6547 17.0509L20.3124 17.8042L19.6547 17.0509ZM19.8421 16.8874L19.1845 16.134L19.8421 16.8874ZM20.0902 16.4847L19.121 16.2384L20.0902 16.4847ZM20.151 16.2456L21.1201 16.4919L20.151 16.2456ZM20.2117 16.0065L21.1809 16.2528L20.2117 16.0065ZM20.406 15.5622L21.2441 16.1077L20.406 15.5622ZM20.5396 15.357L19.7015 14.8115L20.5396 15.357ZM20.6731 15.1519L21.5112 15.6975L20.6731 15.1519ZM20.8115 14.6999L21.8113 14.7193L20.8115 14.6999ZM20.821 14.2061L19.8212 14.1867L20.821 14.2061ZM20.9127 13.732L19.9788 13.3747L20.9127 13.732ZM21.0866 13.2776L20.1526 12.9203L21.0866 13.2776ZM21.1968 12.3286L20.1973 12.2964L21.1968 12.3286ZM20.991 11.3853L20.0342 11.676L20.991 11.3853ZM20.9655 10.9035L21.9489 11.0852L20.9655 10.9035ZM21.057 10.4085L20.0737 10.2268L21.057 10.4085ZM21.0143 9.93511L21.9454 9.57049L21.0143 9.93511ZM20.8373 9.48325L19.9062 9.84787L20.8373 9.48325ZM20.6664 9.03263L19.7276 9.37729L20.6664 9.03263ZM20.5014 8.58326L19.5627 8.92791L20.5014 8.58326ZM20.2613 8.17294L19.499 8.82019L20.2613 8.17294ZM20.1037 7.98732L20.8659 7.34007L20.1037 7.98732ZM19.946 7.80169L20.7083 7.15444L19.946 7.80169ZM19.6587 7.4225L20.4893 6.86565L19.6587 7.4225ZM19.5289 7.22894L20.3595 6.67209L19.5289 7.22894ZM19.3991 7.03539L18.5685 7.59224L19.3991 7.03539ZM19.1593 6.62926L18.2713 7.08916L19.1593 6.62926ZM19.0492 6.41668L18.1612 6.87659L19.0492 6.41668ZM18.5345 5.61137L19.3251 4.999L18.5345 5.61137ZM18.3873 5.42129L17.5967 6.03366L18.3873 5.42129ZM18.0637 5.06626L17.3806 5.79655L18.0637 5.06626ZM17.711 4.73637L17.0279 5.46666L17.711 4.73637ZM17.1401 4.29017L16.5597 5.10451L17.1401 4.29017ZM16.9428 4.14955L17.5232 3.33522L16.9428 4.14955ZM16.4713 4.0252L16.4121 3.02695L16.4713 4.0252ZM15.4737 3.88225L14.7353 4.55656L15.4737 3.88225ZM15.1235 3.49872L15.862 2.82442L15.1235 3.49872ZM14.7267 3.20259L14.3008 4.10732L14.7267 3.20259ZM14.5051 3.09821L14.931 2.19348L14.5051 3.09821ZM14.2834 2.99384L13.8574 3.89858L14.2834 2.99384ZM12.8426 2.89596L12.7735 1.89835L12.8426 2.89596ZM11.6551 3.00527L11.7811 3.99729L11.6551 3.00527ZM11.4208 3.03504L11.2947 2.04302L11.4208 3.03504ZM10.9506 3.07723L10.898 2.07861L10.9506 3.07723ZM9.99946 3.12659L9.94966 2.12783L9.99946 3.12659ZM9.51278 3.15086L9.46298 2.1521L9.51278 3.15086ZM9.07591 3.32354L8.43743 2.5539L9.07591 3.32354ZM8.68884 3.64464L9.32731 4.41428L8.68884 3.64464ZM8.3013 3.93426L8.85522 4.76683L8.3013 3.93426ZM8.10729 4.06334L7.55338 3.23076L8.10729 4.06334ZM7.50279 4.41197L7.11716 3.48931L7.50279 4.41197ZM7.06982 4.59293L6.68419 3.67028L7.06982 4.59293ZM6.70803 4.87154L5.91662 4.26025L6.70803 4.87154ZM6.41741 5.24779L7.20881 5.85908L6.41741 5.24779ZM6.08227 5.56947L5.50687 4.75159L6.08227 5.56947ZM5.89243 5.70302L5.31704 4.88514L5.89243 5.70302ZM5.7026 5.83657L6.278 6.65444L5.7026 5.83657ZM5.22522 6.33155L4.44267 5.70896L5.22522 6.33155ZM5.08144 6.51226L5.86399 7.13485L5.08144 6.51226ZM4.82902 6.8963L5.71099 7.3676L4.82902 6.8963ZM4.72037 7.09962L3.8384 6.62832L4.72037 7.09962ZM4.61172 7.30294L5.49369 7.77424L4.61172 7.30294ZM4.32145 7.67302L3.64513 6.93641L4.32145 7.67302ZM3.95821 8.00653L4.63453 8.74314L3.95821 8.00653ZM3.71709 9.39534L2.81167 8.97084L3.71709 9.39534ZM3.61913 9.60428L4.52456 10.0288L3.61913 9.60428ZM3.52118 9.81321L2.61575 9.3887L3.52118 9.81321ZM3.2697 10.2344L2.45939 9.64843L3.2697 10.2344ZM2.96267 10.659L3.77299 11.245L2.96267 10.659ZM2.87509 11.1138L3.84007 10.8515L2.87509 11.1138ZM3.00697 11.599L2.04199 11.8613L3.00697 11.599ZM2.89964 12.5573L1.92771 12.3221L2.89964 12.5573ZM2.86214 13.5241L1.86253 13.5519L2.86214 13.5241ZM2.95884 13.9929L2.02972 14.3627L2.95884 13.9929ZM3.13874 14.4449L4.06786 14.0751L3.13874 14.4449ZM3.39145 14.8616L4.15198 14.2123L3.39145 14.8616ZM3.55421 15.0522L4.31474 14.4029L3.55421 15.0522ZM3.71697 15.2428L2.95645 15.8921L3.71697 15.2428ZM3.88293 15.552L4.88256 15.525L3.88293 15.552ZM3.88932 15.7889L2.88969 15.8159L3.88932 15.7889ZM3.78325 16.3452L2.81302 16.103L2.75839 16.3218L3.72861 16.564L4.69884 16.8062L4.75348 16.5874L3.78325 16.3452ZM3.72861 16.564L2.75839 16.3218C2.69712 16.5673 2.67446 16.8172 2.68675 17.0678L3.68555 17.0188L4.68435 16.9699C4.68121 16.9059 4.68726 16.8526 4.69884 16.8062L3.72861 16.564ZM3.68555 17.0188L2.68675 17.0678L2.69831 17.3038L3.69711 17.2548L4.69591 17.2058L4.68435 16.9699L3.68555 17.0188ZM3.69711 17.2548L2.69831 17.3038L2.70988 17.5397L3.70868 17.4907L4.70748 17.4417L4.69591 17.2058L3.69711 17.2548ZM3.70868 17.4907L2.70988 17.5397C2.71336 17.6107 2.70779 17.6799 2.69297 17.7495L3.67106 17.9577L4.64914 18.1659C4.69991 17.9274 4.71942 17.6853 4.70748 17.4417L3.70868 17.4907ZM3.67106 17.9577L2.69297 17.7495L2.64378 17.9806L3.62187 18.1888L4.59995 18.397L4.64914 18.1659L3.67106 17.9577ZM3.62187 18.1888L2.64378 17.9806L2.59459 18.2117L3.57268 18.4199L4.55076 18.6281L4.59995 18.397L3.62187 18.1888ZM3.57268 18.4199L2.59459 18.2117C2.59709 18.2 2.6013 18.1887 2.6058 18.18C2.61009 18.1718 2.61179 18.1714 2.60566 18.1783L3.35293 18.8428L4.1002 19.5073C4.31885 19.2614 4.4788 18.9662 4.55076 18.6281L3.57268 18.4199ZM3.35293 18.8428L2.60566 18.1783L2.4351 18.37L3.18237 19.0346L3.92964 19.6991L4.1002 19.5073L3.35293 18.8428ZM3.18237 19.0346L2.4351 18.37L2.26455 18.5618L3.01182 19.2264L3.75909 19.8909L3.92964 19.6991L3.18237 19.0346ZM3.01182 19.2264L2.26455 18.5618C1.96612 18.8974 1.83371 19.3138 1.85812 19.7431L2.85651 19.6863L3.85489 19.6295C3.8563 19.6542 3.85432 19.7004 3.83515 19.7572C3.81567 19.8149 3.7862 19.8604 3.75909 19.8909L3.01182 19.2264ZM2.85651 19.6863L1.85812 19.7431L1.87336 20.0112L2.87175 19.9544L3.87014 19.8977L3.85489 19.6295L2.85651 19.6863ZM2.87175 19.9544L1.87336 20.0112L1.88861 20.2793L2.88699 20.2226L3.88538 20.1658L3.87014 19.8977L2.87175 19.9544ZM2.88699 20.2226L1.88861 20.2793C1.90117 20.5003 1.95973 20.7499 2.10899 20.9849C2.26189 21.2257 2.4743 21.3946 2.70373 21.5L3.12112 20.5913L3.53851 19.6825C3.62203 19.7209 3.72245 19.7949 3.79731 19.9127C3.86852 20.0249 3.88299 20.1237 3.88538 20.1658L2.88699 20.2226ZM3.12112 20.5913L2.70373 21.5L2.92262 21.6005L3.34001 20.6918L3.7574 19.7831L3.53851 19.6825L3.12112 20.5913ZM3.34001 20.6918L2.92262 21.6005L3.1415 21.7011L3.55889 20.7923L3.97628 19.8836L3.7574 19.7831L3.34001 20.6918ZM3.55889 20.7923L3.1415 21.7011C3.52781 21.8785 3.97216 21.9025 4.39393 21.7117L3.98161 20.8006L3.56929 19.8896C3.62883 19.8626 3.70664 19.8432 3.79361 19.8449C3.8785 19.8465 3.94167 19.8677 3.97628 19.8836L3.55889 20.7923ZM3.98161 20.8006L4.39393 21.7117L4.59776 21.6194L4.18544 20.7084L3.77313 19.7973L3.56929 19.8896L3.98161 20.8006ZM4.18544 20.7084L4.59776 21.6194L4.8016 21.5272L4.38928 20.6161L3.97696 19.7051L3.77313 19.7973L4.18544 20.7084ZM4.38928 20.6161L4.8016 21.5272C4.82947 21.5145 4.8679 21.5026 4.92401 21.4974L4.83148 20.5017L4.73894 19.506C4.47723 19.5303 4.22087 19.5947 3.97696 19.7051L4.38928 20.6161ZM4.83148 20.5017L4.92401 21.4974L5.16237 21.4753L5.06984 20.4796L4.9773 19.4838L4.73894 19.506L4.83148 20.5017ZM5.06984 20.4796L5.16237 21.4753L5.40074 21.4531L5.3082 20.4574L5.21567 19.4617L4.9773 19.4838L5.06984 20.4796ZM5.3082 20.4574L5.40074 21.4531C5.66533 21.4285 5.92171 21.3627 6.16557 21.2556L5.76355 20.34L5.36152 19.4244C5.31608 19.4443 5.26889 19.4567 5.21567 19.4617L5.3082 20.4574ZM5.76355 20.34L6.16557 21.2556L6.38256 21.1603L5.98053 20.2447L5.5785 19.3291L5.36152 19.4244L5.76355 20.34ZM5.98053 20.2447L6.38256 21.1603L6.59954 21.0651L6.19751 20.1494L5.79549 19.2338L5.5785 19.3291L5.98053 20.2447ZM6.19751 20.1494L6.59954 21.0651C6.60194 21.064 6.60269 21.0639 6.60312 21.0638C6.60368 21.0637 6.60826 21.0629 6.6186 21.0633L6.65927 20.0641L6.69993 19.065C6.39004 19.0523 6.0842 19.107 5.79549 19.2338L6.19751 20.1494ZM6.65927 20.0641L6.6186 21.0633L6.86337 21.0733L6.90404 20.0741L6.9447 19.0749L6.69993 19.065L6.65927 20.0641ZM6.90404 20.0741L6.86337 21.0733L7.10814 21.0832L7.14881 20.0841L7.18947 19.0849L6.9447 19.0749L6.90404 20.0741ZM7.14881 20.0841L7.10814 21.0832C7.17821 21.0861 7.22304 21.0975 7.25057 21.1078L7.59918 20.1705L7.9478 19.2332C7.70119 19.1415 7.44576 19.0953 7.18947 19.0849L7.14881 20.0841ZM7.59918 20.1705L7.25057 21.1078L7.45618 21.1842L7.80479 20.247L8.1534 19.3097L7.9478 19.2332L7.59918 20.1705ZM7.80479 20.247L7.45618 21.1842L7.66178 21.2607L8.0104 20.3234L8.35901 19.3862L8.1534 19.3097L7.80479 20.247ZM8.0104 20.3234L7.66178 21.2607C7.85658 21.3332 8.05912 21.388 8.26728 21.4275L8.45395 20.4451L8.64061 19.4627C8.53152 19.442 8.43836 19.4157 8.35901 19.3862L8.0104 20.3234ZM8.45395 20.4451L8.26728 21.4275L8.50522 21.4728L8.69189 20.4903L8.87856 19.5079L8.64061 19.4627L8.45395 20.4451ZM8.69189 20.4903L8.50522 21.4728L8.74317 21.518L8.92983 20.5355L9.1165 19.5531L8.87856 19.5079L8.69189 20.4903ZM8.92983 20.5355L8.74317 21.518C8.88169 21.5443 9.01654 21.5743 9.14779 21.608L9.39607 20.6393L9.64435 19.6706C9.47121 19.6262 9.29524 19.5871 9.1165 19.5531L8.92983 20.5355ZM9.39607 20.6393L9.14779 21.608L9.37608 21.6665L9.62436 20.6978L9.87264 19.7291L9.64435 19.6706L9.39607 20.6393ZM9.62436 20.6978L9.37608 21.6665L9.60438 21.725L9.85266 20.7563L10.1009 19.7876L9.87264 19.7291L9.62436 20.6978ZM9.85266 20.7563L9.60438 21.725C9.6878 21.7464 9.77569 21.7783 9.86851 21.8234L10.3055 20.9239L10.7424 20.0244C10.5359 19.9241 10.3219 19.8442 10.1009 19.7876L9.85266 20.7563ZM10.3055 20.9239L9.86851 21.8234L10.093 21.9324L10.53 21.033L10.967 20.1335L10.7424 20.0244L10.3055 20.9239ZM10.53 21.033L10.093 21.9324L10.3176 22.0415L10.7545 21.142L11.1915 20.2425L10.967 20.1335L10.53 21.033ZM10.7545 21.142L10.3176 22.0415C10.6239 22.1903 10.9582 22.2561 11.303 22.228L11.2217 21.2313L11.1405 20.2346C11.1474 20.2341 11.1585 20.2342 11.1713 20.2367C11.1773 20.2378 11.1822 20.2392 11.186 20.2405C11.1898 20.2417 11.1916 20.2426 11.1915 20.2425L10.7545 21.142ZM11.2217 21.2313L11.303 22.228L11.5457 22.2082L11.4644 21.2115L11.3832 20.2149L11.1405 20.2346L11.2217 21.2313ZM11.4644 21.2115L11.5457 22.2082L11.7884 22.1885L11.7071 21.1918L11.6259 20.1951L11.3832 20.2149L11.4644 21.2115ZM11.7071 21.1918L11.7884 22.1885C11.9291 22.177 12.0685 22.1701 12.2066 22.1678L12.1897 21.1679L12.1727 20.1681C11.9911 20.1712 11.8088 20.1802 11.6259 20.1951L11.7071 21.1918ZM12.1897 21.1679L12.2066 22.1678L12.4465 22.1637L12.4295 21.1639L12.4125 20.164L12.1727 20.1681L12.1897 21.1679ZM12.4295 21.1639L12.4465 22.1637L12.6863 22.1596L12.6693 21.1598L12.6524 20.1599L12.4125 20.164L12.4295 21.1639ZM12.6693 21.1598L12.6863 22.1596C12.8564 22.1568 13.0272 22.1513 13.1988 22.1432L13.1517 21.1443L13.1045 20.1454C12.9528 20.1525 12.8021 20.1574 12.6524 20.1599L12.6693 21.1598ZM13.1517 21.1443L13.1988 22.1432L13.4413 22.1317L13.3942 21.1328L13.347 20.1339L13.1045 20.1454L13.1517 21.1443ZM13.3942 21.1328L13.4413 22.1317L13.6838 22.1203L13.6367 21.1214L13.5895 20.1225L13.347 20.1339L13.3942 21.1328ZM13.6367 21.1214L13.6838 22.1203C14.1223 22.0996 14.4937 21.9085 14.7755 21.6302L14.0728 20.9187L13.3701 20.2072C13.3767 20.2007 13.4012 20.1787 13.4455 20.1581C13.4916 20.1367 13.5421 20.1247 13.5895 20.1225L13.6367 21.1214ZM14.0728 20.9187L14.7755 21.6302L14.9691 21.439L14.2664 20.7275L13.5637 20.016L13.3701 20.2072L14.0728 20.9187ZM14.2664 20.7275L14.9691 21.439L15.1627 21.2478L14.46 20.5363L13.7573 19.8248L13.5637 20.016L14.2664 20.7275ZM14.46 20.5363L15.1627 21.2478C15.1647 21.2458 15.1527 21.2581 15.1247 21.2726C15.0954 21.2878 15.0595 21.2997 15.0213 21.3048L14.889 20.3136L14.7567 19.3224C14.3536 19.3762 14.0175 19.5678 13.7573 19.8248L14.46 20.5363ZM14.889 20.3136L15.0213 21.3048L15.2567 21.2734L15.1244 20.2822L14.9921 19.291L14.7567 19.3224L14.889 20.3136ZM15.1244 20.2822L15.2567 21.2734L15.4921 21.242L15.3598 20.2508L15.2274 19.2596L14.9921 19.291L15.1244 20.2822ZM15.3598 20.2508L15.4921 21.242C15.8342 21.1963 16.1483 21.0594 16.4146 20.8398L15.7783 20.0683L15.1419 19.2969C15.1498 19.2904 15.1636 19.281 15.1824 19.2728C15.2013 19.2646 15.2175 19.2609 15.2274 19.2596L15.3598 20.2508ZM15.7783 20.0683L16.4146 20.8398L16.5977 20.6887L15.9614 19.9173L15.3251 19.1459L15.1419 19.2969L15.7783 20.0683ZM15.9614 19.9173L16.5977 20.6887L16.7808 20.5377L16.1445 19.7662L15.5082 18.9948L15.3251 19.1459L15.9614 19.9173ZM16.1445 19.7662L16.7808 20.5377C16.7461 20.5663 16.7077 20.5867 16.6724 20.5987C16.6389 20.61 16.6196 20.61 16.6231 20.6099L16.6047 19.6101L16.5862 18.6103C16.2152 18.6171 15.8327 18.7271 15.5082 18.9948L16.1445 19.7662ZM16.6047 19.6101L16.6231 20.6099L16.9002 20.6048L16.8818 19.605L16.8633 18.6052L16.5862 18.6103L16.6047 19.6101ZM16.8818 19.605L16.9002 20.6048L17.1773 20.5997L17.1589 19.5999L17.1404 18.6L16.8633 18.6052L16.8818 19.605ZM17.1589 19.5999L17.1773 20.5997C17.4225 20.5952 17.6994 20.5332 17.9541 20.3601C18.2102 20.1861 18.3713 19.9491 18.4651 19.7162L17.5376 19.3425L16.61 18.9688C16.6361 18.9041 16.7002 18.7941 16.83 18.7059C16.9585 18.6186 17.0799 18.6012 17.1404 18.6L17.1589 19.5999ZM17.5376 19.3425L18.4651 19.7162L18.5668 19.464L17.6392 19.0903L16.7117 18.7165L16.61 18.9688L17.5376 19.3425ZM17.6392 19.0903L18.5668 19.464L18.6684 19.2117L17.7409 18.838L16.8133 18.4643L16.7117 18.7165L17.6392 19.0903ZM17.7409 18.838L18.6684 19.2117C18.6743 19.1972 18.6757 19.1984 18.6681 19.2087C18.6599 19.2197 18.6458 19.2352 18.6256 19.2501L18.0303 18.4466L17.4351 17.6431C17.1387 17.8626 16.9386 18.1533 16.8133 18.4643L17.7409 18.838ZM18.0303 18.4466L18.6256 19.2501L18.8135 19.1109L18.2182 18.3074L17.6229 17.5039L17.4351 17.6431L18.0303 18.4466ZM18.2182 18.3074L18.8135 19.1109L19.0013 18.9718L18.406 18.1683L17.8108 17.3647L17.6229 17.5039L18.2182 18.3074ZM18.406 18.1683L19.0013 18.9718C19.1595 18.8546 19.3104 18.7278 19.4538 18.5917L18.7654 17.8663L18.0771 17.1409C17.9918 17.2219 17.903 17.2964 17.8108 17.3647L18.406 18.1683ZM18.7654 17.8663L19.4538 18.5917L19.6253 18.4289L18.937 17.7035L18.2486 16.9781L18.0771 17.1409L18.7654 17.8663ZM18.937 17.7035L19.6253 18.4289L19.7969 18.2661L19.1085 17.5407L18.4202 16.8153L18.2486 16.9781L18.937 17.7035ZM19.1085 17.5407L19.7969 18.2661C19.9007 18.1676 20.0101 18.0681 20.125 17.9678L19.4674 17.2144L18.8098 16.461C18.675 16.5787 18.5451 16.6968 18.4202 16.8153L19.1085 17.5407ZM19.4674 17.2144L20.125 17.9678L20.3124 17.8042L19.6547 17.0509L18.9971 16.2975L18.8098 16.461L19.4674 17.2144ZM19.6547 17.0509L20.3124 17.8042L20.4997 17.6407L19.8421 16.8874L19.1845 16.134L18.9971 16.2975L19.6547 17.0509ZM19.8421 16.8874L20.4997 17.6407C20.7762 17.3993 20.9684 17.0888 21.0594 16.731L20.0902 16.4847L19.121 16.2384C19.1246 16.2242 19.1323 16.2032 19.1464 16.1803C19.1604 16.1576 19.1751 16.1422 19.1845 16.134L19.8421 16.8874ZM20.0902 16.4847L21.0594 16.731L21.1201 16.4919L20.151 16.2456L19.1818 15.9993L19.121 16.2384L20.0902 16.4847ZM20.151 16.2456L21.1201 16.4919L21.1809 16.2528L20.2117 16.0065L19.2425 15.7601L19.1818 15.9993L20.151 16.2456ZM20.2117 16.0065L21.1809 16.2528C21.1946 16.1988 21.2154 16.1519 21.2441 16.1077L20.406 15.5622L19.568 15.0166C19.4186 15.246 19.3098 15.4953 19.2425 15.7601L20.2117 16.0065ZM20.406 15.5622L21.2441 16.1077L21.3777 15.9026L20.5396 15.357L19.7015 14.8115L19.568 15.0166L20.406 15.5622ZM20.5396 15.357L21.3777 15.9026L21.5112 15.6975L20.6731 15.1519L19.835 14.6063L19.7015 14.8115L20.5396 15.357ZM20.6731 15.1519L21.5112 15.6975C21.7032 15.4024 21.8045 15.0692 21.8113 14.7193L20.8115 14.6999L19.8116 14.6805C19.8118 14.6743 19.813 14.6609 19.8183 14.6437C19.8235 14.6265 19.8304 14.6135 19.835 14.6063L20.6731 15.1519ZM20.8115 14.6999L21.8113 14.7193L21.816 14.4724L20.8162 14.453L19.8164 14.4336L19.8116 14.6805L20.8115 14.6999ZM20.8162 14.453L21.816 14.4724L21.8208 14.2255L20.821 14.2061L19.8212 14.1867L19.8164 14.4336L20.8162 14.453ZM20.821 14.2061L21.8208 14.2255C21.8218 14.1748 21.8307 14.1312 21.8467 14.0893L20.9127 13.732L19.9788 13.3747C19.8789 13.6358 19.8266 13.9083 19.8212 14.1867L20.821 14.2061ZM20.9127 13.732L21.8467 14.0893L21.9336 13.8621L20.9997 13.5048L20.0657 13.1475L19.9788 13.3747L20.9127 13.732ZM20.9997 13.5048L21.9336 13.8621L22.0206 13.6349L21.0866 13.2776L20.1526 12.9203L20.0657 13.1475L20.9997 13.5048ZM21.0866 13.2776L22.0206 13.6349C22.1179 13.3806 22.172 13.1148 22.1808 12.842L21.1813 12.8098L20.1818 12.7776C20.1802 12.8255 20.1712 12.8716 20.1526 12.9203L21.0866 13.2776ZM21.1813 12.8098L22.1808 12.842L22.1885 12.6014L21.189 12.5692L20.1895 12.537L20.1818 12.7776L21.1813 12.8098ZM21.189 12.5692L22.1885 12.6014L22.1962 12.3608L21.1968 12.3286L20.1973 12.2964L20.1895 12.537L21.189 12.5692ZM21.1968 12.3286L22.1962 12.3608C22.205 12.0892 22.1688 11.8219 22.0901 11.563L21.1333 11.8537L20.1765 12.1445C20.1928 12.1979 20.1989 12.2471 20.1973 12.2964L21.1968 12.3286ZM21.1333 11.8537L22.0901 11.563L22.019 11.3288L21.0622 11.6195L20.1054 11.9102L20.1765 12.1445L21.1333 11.8537ZM21.0622 11.6195L22.019 11.3288L21.9478 11.0945L20.991 11.3853L20.0342 11.676L20.1054 11.9102L21.0622 11.6195ZM20.991 11.3853L21.9478 11.0945C21.9474 11.0933 21.9474 11.0929 21.9475 11.0934C21.9475 11.0939 21.9476 11.0945 21.9476 11.095C21.9477 11.0965 21.9473 11.0938 21.9489 11.0852L20.9655 10.9035L19.9822 10.7218C19.9235 11.0396 19.9389 11.3623 20.0342 11.676L20.991 11.3853ZM20.9655 10.9035L21.9489 11.0852L21.9946 10.8377L21.0113 10.656L20.0279 10.4743L19.9822 10.7218L20.9655 10.9035ZM21.0113 10.656L21.9946 10.8377L22.0404 10.5902L21.057 10.4085L20.0737 10.2268L20.0279 10.4743L21.0113 10.656ZM21.057 10.4085L22.0404 10.5902C22.1034 10.249 22.075 9.90147 21.9454 9.57049L21.0143 9.93511L20.0831 10.2997C20.0789 10.2888 20.0748 10.2736 20.0732 10.2563C20.0717 10.2394 20.0733 10.2286 20.0737 10.2268L21.057 10.4085ZM21.0143 9.93511L21.9454 9.57049L21.857 9.34456L20.9258 9.70918L19.9946 10.0738L20.0831 10.2997L21.0143 9.93511ZM20.9258 9.70918L21.857 9.34456L21.7685 9.11863L20.8373 9.48325L19.9062 9.84787L19.9946 10.0738L20.9258 9.70918ZM20.8373 9.48325L21.7685 9.11863C21.7121 8.97454 21.6576 8.83099 21.6051 8.68797L20.6664 9.03263L19.7276 9.37729C19.7851 9.53385 19.8446 9.69071 19.9062 9.84787L20.8373 9.48325ZM20.6664 9.03263L21.6051 8.68797L21.5226 8.46329L20.5839 8.80794L19.6451 9.1526L19.7276 9.37729L20.6664 9.03263ZM20.5839 8.80794L21.5226 8.46329L21.4401 8.2386L20.5014 8.58326L19.5627 8.92791L19.6451 9.1526L20.5839 8.80794ZM20.5014 8.58326L21.4401 8.2386C21.3438 7.97641 21.2034 7.73756 21.0236 7.5257L20.2613 8.17294L19.499 8.82019C19.5293 8.85584 19.5489 8.89052 19.5627 8.92791L20.5014 8.58326ZM20.2613 8.17294L21.0236 7.5257L20.8659 7.34007L20.1037 7.98732L19.3414 8.63456L19.499 8.82019L20.2613 8.17294ZM20.1037 7.98732L20.8659 7.34007L20.7083 7.15444L19.946 7.80169L19.1838 8.44893L19.3414 8.63456L20.1037 7.98732ZM19.946 7.80169L20.7083 7.15444C20.6266 7.05822 20.5538 6.96192 20.4893 6.86565L19.6587 7.4225L18.8281 7.97935C18.9365 8.14116 19.0553 8.29765 19.1838 8.44893L19.946 7.80169ZM19.6587 7.4225L20.4893 6.86565L20.3595 6.67209L19.5289 7.22894L18.6983 7.7858L18.8281 7.97935L19.6587 7.4225ZM19.5289 7.22894L20.3595 6.67209L20.2297 6.47853L19.3991 7.03539L18.5685 7.59224L18.6983 7.7858L19.5289 7.22894ZM19.3991 7.03539L20.2297 6.47853C20.1647 6.38155 20.1038 6.27861 20.0472 6.16935L19.1593 6.62926L18.2713 7.08916C18.3615 7.26334 18.4605 7.43115 18.5685 7.59224L19.3991 7.03539ZM19.1593 6.62926L20.0472 6.16935L19.9371 5.95678L19.0492 6.41668L18.1612 6.87659L18.2713 7.08916L19.1593 6.62926ZM19.0492 6.41668L19.9371 5.95678L19.8271 5.74421L18.9391 6.20411L18.0511 6.66402L18.1612 6.87659L19.0492 6.41668ZM18.9391 6.20411L19.8271 5.74421C19.7257 5.5486 19.6073 5.36337 19.4723 5.18909L18.6817 5.80146L17.8912 6.41383C17.9525 6.49298 18.0056 6.5762 18.0511 6.66402L18.9391 6.20411ZM18.6817 5.80146L19.4723 5.18909L19.3251 4.999L18.5345 5.61137L17.7439 6.22374L17.8912 6.41383L18.6817 5.80146ZM18.5345 5.61137L19.3251 4.999L19.1778 4.80892L18.3873 5.42129L17.5967 6.03366L17.7439 6.22374L18.5345 5.61137ZM18.3873 5.42129L19.1778 4.80892C19.0469 4.63992 18.9031 4.48217 18.7468 4.33597L18.0637 5.06626L17.3806 5.79655C17.4594 5.87029 17.5313 5.94922 17.5967 6.03366L18.3873 5.42129ZM18.0637 5.06626L18.7468 4.33597L18.5705 4.17103L17.8874 4.90131L17.2042 5.6316L17.3806 5.79655L18.0637 5.06626ZM17.8874 4.90131L18.5705 4.17103L18.3942 4.00608L17.711 4.73637L17.0279 5.46666L17.2042 5.6316L17.8874 4.90131ZM17.711 4.73637L18.3942 4.00608C18.2442 3.86575 18.0853 3.73583 17.9178 3.61646L17.3374 4.4308L16.757 5.24513C16.8526 5.31326 16.9428 5.38706 17.0279 5.46666L17.711 4.73637ZM17.3374 4.4308L17.9178 3.61646L17.7205 3.47584L17.1401 4.29017L16.5597 5.10451L16.757 5.24513L17.3374 4.4308ZM17.1401 4.29017L17.7205 3.47584L17.5232 3.33522L16.9428 4.14955L16.3624 4.96388L16.5597 5.10451L17.1401 4.29017ZM16.9428 4.14955L17.5232 3.33522C17.1811 3.09137 16.7907 3.00448 16.4121 3.02695L16.4713 4.0252L16.5306 5.02344C16.5294 5.02351 16.5072 5.02456 16.4713 5.01508C16.4338 5.0052 16.3956 4.98755 16.3624 4.96388L16.9428 4.14955ZM16.4713 4.0252L16.4121 3.02695L16.1379 3.04323L16.1972 4.04147L16.2564 5.03971L16.5306 5.02344L16.4713 4.0252ZM16.1972 4.04147L16.1379 3.04323L15.8638 3.0595L15.923 4.05774L15.9823 5.05599L16.2564 5.03971L16.1972 4.04147ZM15.923 4.05774L15.8638 3.0595C15.8965 3.05755 15.9603 3.0604 16.0375 3.09055C16.1163 3.12135 16.1752 3.16742 16.2122 3.20795L15.4737 3.88225L14.7353 4.55656C15.0686 4.92154 15.5183 5.08352 15.9823 5.05599L15.923 4.05774ZM15.4737 3.88225L16.2122 3.20795L16.0371 3.01618L15.2986 3.69049L14.5602 4.36479L14.7353 4.55656L15.4737 3.88225ZM15.2986 3.69049L16.0371 3.01618L15.862 2.82442L15.1235 3.49872L14.3851 4.17303L14.5602 4.36479L15.2986 3.69049ZM15.1235 3.49872L15.862 2.82442C15.6625 2.60594 15.4257 2.42637 15.1527 2.29785L14.7267 3.20259L14.3008 4.10732C14.3234 4.11797 14.3511 4.13582 14.3851 4.17303L15.1235 3.49872ZM14.7267 3.20259L15.1527 2.29785L14.931 2.19348L14.5051 3.09821L14.0791 4.00295L14.3008 4.10732L14.7267 3.20259ZM14.5051 3.09821L14.931 2.19348L14.7094 2.0891L14.2834 2.99384L13.8574 3.89858L14.0791 4.00295L14.5051 3.09821ZM14.2834 2.99384L14.7094 2.0891C14.4315 1.9583 14.1342 1.89016 13.8271 1.887L13.8168 2.88694L13.8065 3.88689C13.8259 3.88709 13.8396 3.89021 13.8574 3.89858L14.2834 2.99384ZM13.8168 2.88694L13.8271 1.887L13.5823 1.88448L13.572 2.88442L13.5617 3.88437L13.8065 3.88689L13.8168 2.88694ZM13.572 2.88442L13.5823 1.88448L13.3374 1.88195L13.3271 2.8819L13.3168 3.88185L13.5617 3.88437L13.572 2.88442ZM13.3271 2.8819L13.3374 1.88195C13.1482 1.88001 12.9602 1.88543 12.7735 1.89835L12.8426 2.89596L12.9116 3.89358C13.0445 3.88438 13.1795 3.88043 13.3168 3.88185L13.3271 2.8819ZM12.8426 2.89596L12.7735 1.89835L12.5339 1.91493L12.6029 2.91254L12.672 3.91016L12.9116 3.89358L12.8426 2.89596ZM12.6029 2.91254L12.5339 1.91493L12.2942 1.93151L12.3633 2.92913L12.4323 3.92674L12.672 3.91016L12.6029 2.91254ZM12.3633 2.92913L12.2942 1.93151C12.1157 1.94387 11.9387 1.96117 11.7633 1.98347L11.8893 2.97549L12.0154 3.96751C12.1523 3.95011 12.2913 3.9365 12.4323 3.92674L12.3633 2.92913ZM11.8893 2.97549L11.7633 1.98347L11.529 2.01325L11.6551 3.00527L11.7811 3.99729L12.0154 3.96751L11.8893 2.97549ZM11.6551 3.00527L11.529 2.01325L11.2947 2.04302L11.4208 3.03504L11.5469 4.02706L11.7811 3.99729L11.6551 3.00527ZM11.4208 3.03504L11.2947 2.04302C11.1629 2.05977 11.0307 2.07163 10.898 2.07861L10.9506 3.07723L11.0031 4.07585C11.185 4.06628 11.3662 4.05002 11.5469 4.02706L11.4208 3.03504ZM10.9506 3.07723L10.898 2.07861L10.6621 2.09102L10.7146 3.08964L10.7672 4.08826L11.0031 4.07585L10.9506 3.07723ZM10.7146 3.08964L10.6621 2.09102L10.4262 2.10343L10.4787 3.10205L10.5312 4.10067L10.7672 4.08826L10.7146 3.08964ZM10.4787 3.10205L10.4262 2.10343C10.2698 2.11165 10.111 2.11979 9.94966 2.12783L9.99946 3.12659L10.0493 4.12535C10.2124 4.11722 10.373 4.10899 10.5312 4.10067L10.4787 3.10205ZM9.99946 3.12659L9.94966 2.12783L9.70632 2.13997L9.75612 3.13873L9.80592 4.13749L10.0493 4.12535L9.99946 3.12659ZM9.75612 3.13873L9.70632 2.13997L9.46298 2.1521L9.51278 3.15086L9.56258 4.14962L9.80592 4.13749L9.75612 3.13873ZM9.51278 3.15086L9.46298 2.1521C9.07761 2.17132 8.72704 2.31365 8.43743 2.5539L9.07591 3.32354L9.71438 4.09319C9.70337 4.10232 9.68157 4.1174 9.64949 4.13008C9.61707 4.1429 9.58633 4.14843 9.56258 4.14962L9.51278 3.15086ZM9.07591 3.32354L8.43743 2.5539L8.2439 2.71445L8.88237 3.48409L9.52085 4.25374L9.71438 4.09319L9.07591 3.32354ZM8.88237 3.48409L8.2439 2.71445L8.05037 2.87499L8.68884 3.64464L9.32731 4.41428L9.52085 4.25374L8.88237 3.48409ZM8.68884 3.64464L8.05037 2.87499C7.9463 2.96132 7.84526 3.03657 7.74738 3.10169L8.3013 3.93426L8.85522 4.76683C9.01602 4.65985 9.17333 4.54202 9.32731 4.41428L8.68884 3.64464ZM8.3013 3.93426L7.74738 3.10169L7.55338 3.23076L8.10729 4.06334L8.66121 4.89591L8.85522 4.76683L8.3013 3.93426ZM8.10729 4.06334L7.55338 3.23076L7.35937 3.35984L7.91329 4.19241L8.4672 5.02498L8.66121 4.89591L8.10729 4.06334ZM7.91329 4.19241L7.35937 3.35984C7.2835 3.41032 7.20306 3.45341 7.11716 3.48931L7.50279 4.41197L7.88843 5.33462C8.09118 5.24988 8.2844 5.1466 8.4672 5.02498L7.91329 4.19241ZM7.50279 4.41197L7.11716 3.48931L6.90067 3.5798L7.28631 4.50245L7.67194 5.4251L7.88843 5.33462L7.50279 4.41197ZM7.28631 4.50245L6.90067 3.5798L6.68419 3.67028L7.06982 4.59293L7.45545 5.51559L7.67194 5.4251L7.28631 4.50245ZM7.06982 4.59293L6.68419 3.67028C6.37772 3.79837 6.11802 3.99951 5.91662 4.26025L6.70803 4.87154L7.49943 5.48283C7.49761 5.48519 7.49164 5.49214 7.48126 5.50013C7.47082 5.50817 7.46124 5.51317 7.45545 5.51559L7.06982 4.59293ZM6.70803 4.87154L5.91662 4.26025L5.77131 4.44838L6.56272 5.05967L7.35412 5.67096L7.49943 5.48283L6.70803 4.87154ZM6.56272 5.05967L5.77131 4.44838L5.626 4.6365L6.41741 5.24779L7.20881 5.85908L7.35412 5.67096L6.56272 5.05967ZM6.41741 5.24779L5.626 4.6365C5.58888 4.68456 5.5495 4.7216 5.50687 4.75159L6.08227 5.56947L6.65766 6.38734C6.86814 6.23927 7.05219 6.06186 7.20881 5.85908L6.41741 5.24779ZM6.08227 5.56947L5.50687 4.75159L5.31704 4.88514L5.89243 5.70302L6.46783 6.52089L6.65766 6.38734L6.08227 5.56947ZM5.89243 5.70302L5.31704 4.88514L5.12721 5.01869L5.7026 5.83657L6.278 6.65444L6.46783 6.52089L5.89243 5.70302ZM5.7026 5.83657L5.12721 5.01869C4.92305 5.16232 4.74199 5.33274 4.58645 5.52824L5.369 6.15083L6.15154 6.77342C6.18771 6.72797 6.22905 6.68888 6.278 6.65444L5.7026 5.83657ZM5.369 6.15083L4.58645 5.52824L4.44267 5.70896L5.22522 6.33155L6.00777 6.95414L6.15154 6.77342L5.369 6.15083ZM5.22522 6.33155L4.44267 5.70896L4.2989 5.88967L5.08144 6.51226L5.86399 7.13485L6.00777 6.95414L5.22522 6.33155ZM5.08144 6.51226L4.2989 5.88967C4.16546 6.05738 4.04803 6.23602 3.94705 6.425L4.82902 6.8963L5.71099 7.3676C5.75488 7.28547 5.80572 7.20809 5.86399 7.13485L5.08144 6.51226ZM4.82902 6.8963L3.94705 6.425L3.8384 6.62832L4.72037 7.09962L5.60234 7.57092L5.71099 7.3676L4.82902 6.8963ZM4.72037 7.09962L3.8384 6.62832L3.72975 6.83164L4.61172 7.30294L5.49369 7.77424L5.60234 7.57092L4.72037 7.09962ZM4.61172 7.30294L3.72975 6.83164C3.71401 6.86109 3.689 6.89614 3.64513 6.93641L4.32145 7.67302L4.99777 8.40963C5.19607 8.22756 5.36456 8.01589 5.49369 7.77424L4.61172 7.30294ZM4.32145 7.67302L3.64513 6.93641L3.46351 7.10316L4.13983 7.83977L4.81615 8.57638L4.99777 8.40963L4.32145 7.67302ZM4.13983 7.83977L3.46351 7.10316L3.2819 7.26992L3.95821 8.00653L4.63453 8.74314L4.81615 8.57638L4.13983 7.83977ZM3.95821 8.00653L3.2819 7.26992C2.93794 7.58572 2.76976 8.01203 2.78693 8.46449L3.78621 8.42656L4.78549 8.38864C4.78706 8.4301 4.78126 8.4971 4.74982 8.57387C4.71807 8.6514 4.67281 8.70799 4.63453 8.74314L3.95821 8.00653ZM3.78621 8.42656L2.78693 8.46449L2.79654 8.71777L3.79582 8.67985L4.7951 8.64192L4.78549 8.38864L3.78621 8.42656ZM3.79582 8.67985L2.79654 8.71777L2.80616 8.97106L3.80544 8.93313L4.80472 8.8952L4.7951 8.64192L3.79582 8.67985ZM3.80544 8.93313L2.80616 8.97106C2.80671 8.98565 2.80541 8.99037 2.80594 8.98759C2.80617 8.98636 2.80671 8.98397 2.80775 8.98075C2.8088 8.97752 2.81012 8.97413 2.81167 8.97084L3.71709 9.39534L4.62252 9.81985C4.76202 9.5223 4.81657 9.20751 4.80472 8.8952L3.80544 8.93313ZM3.71709 9.39534L2.81167 8.97084L2.71371 9.17977L3.61913 9.60428L4.52456 10.0288L4.62252 9.81985L3.71709 9.39534ZM3.61913 9.60428L2.71371 9.17977L2.61575 9.3887L3.52118 9.81321L4.4266 10.2377L4.52456 10.0288L3.61913 9.60428ZM3.52118 9.81321L2.61575 9.3887C2.58031 9.4643 2.52987 9.55096 2.45939 9.64843L3.2697 10.2344L4.08002 10.8204C4.21422 10.6348 4.33144 10.4407 4.4266 10.2377L3.52118 9.81321ZM3.2697 10.2344L2.45939 9.64843L2.30587 9.86071L3.11619 10.4467L3.9265 11.0327L4.08002 10.8204L3.2697 10.2344ZM3.11619 10.4467L2.30587 9.86071L2.15236 10.073L2.96267 10.659L3.77299 11.245L3.9265 11.0327L3.11619 10.4467ZM2.96267 10.659L2.15236 10.073C1.88157 10.4474 1.78309 10.9089 1.91011 11.3762L2.87509 11.1138L3.84007 10.8515C3.85463 10.9051 3.86263 10.9814 3.84598 11.0679C3.82959 11.1531 3.79605 11.2131 3.77299 11.245L2.96267 10.659ZM2.87509 11.1138L1.91011 11.3762L1.97605 11.6187L2.94103 11.3564L3.90601 11.0941L3.84007 10.8515L2.87509 11.1138ZM2.94103 11.3564L1.97605 11.6187L2.04199 11.8613L3.00697 11.599L3.97195 11.3366L3.90601 11.0941L2.94103 11.3564ZM3.00697 11.599L2.04199 11.8613C2.04267 11.8638 2.04269 11.8644 2.04255 11.8634C2.0424 11.8624 2.04218 11.8604 2.04213 11.8575C2.04208 11.8547 2.04222 11.8519 2.04251 11.8493C2.0428 11.8467 2.04314 11.8452 2.04322 11.8449L3.01515 12.0801L3.98709 12.3154C4.06621 11.9885 4.05901 11.6569 3.97195 11.3366L3.00697 11.599ZM3.01515 12.0801L2.04322 11.8449L1.98546 12.0835L2.9574 12.3187L3.92933 12.554L3.98709 12.3154L3.01515 12.0801ZM2.9574 12.3187L1.98546 12.0835L1.92771 12.3221L2.89964 12.5573L3.87158 12.7926L3.92933 12.554L2.9574 12.3187ZM2.89964 12.5573L1.92771 12.3221C1.8686 12.5663 1.84204 12.8152 1.84903 13.0665L2.84864 13.0387L3.84825 13.0109C3.84624 12.9386 3.85368 12.8665 3.87158 12.7926L2.89964 12.5573ZM2.84864 13.0387L1.84903 13.0665L1.85578 13.3092L2.85539 13.2814L3.855 13.2536L3.84825 13.0109L2.84864 13.0387ZM2.85539 13.2814L1.85578 13.3092L1.86253 13.5519L2.86214 13.5241L3.86175 13.4963L3.855 13.2536L2.85539 13.2814ZM2.86214 13.5241L1.86253 13.5519C1.87029 13.8312 1.92646 14.1032 2.02972 14.3627L2.95884 13.9929L3.88796 13.6231C3.87129 13.5812 3.86299 13.5407 3.86175 13.4963L2.86214 13.5241ZM2.95884 13.9929L2.02972 14.3627L2.11967 14.5887L3.04879 14.2189L3.97791 13.8491L3.88796 13.6231L2.95884 13.9929ZM3.04879 14.2189L2.11967 14.5887L2.20962 14.8147L3.13874 14.4449L4.06786 14.0751L3.97791 13.8491L3.04879 14.2189ZM3.13874 14.4449L2.20962 14.8147C2.31133 15.0702 2.45349 15.303 2.63093 15.5109L3.39145 14.8616L4.15198 14.2123C4.11241 14.1659 4.08609 14.1209 4.06786 14.0751L3.13874 14.4449ZM3.39145 14.8616L2.63093 15.5109L2.79369 15.7015L3.55421 15.0522L4.31474 14.4029L4.15198 14.2123L3.39145 14.8616ZM3.55421 15.0522L2.79369 15.7015L2.95645 15.8921L3.71697 15.2428L4.4775 14.5935L4.31474 14.4029L3.55421 15.0522ZM3.71697 15.2428L2.95645 15.8921C2.98231 15.9224 2.97586 15.9202 2.95878 15.8884C2.94527 15.8633 2.88796 15.7521 2.88329 15.5789L3.88293 15.552L4.88256 15.525C4.87576 15.2729 4.78973 15.0706 4.7209 14.9424C4.64851 14.8076 4.56014 14.6903 4.4775 14.5935L3.71697 15.2428ZM3.88293 15.552L2.88329 15.5789L2.88649 15.6974L3.88613 15.6705L4.88576 15.6435L4.88256 15.525L3.88293 15.552ZM3.88613 15.6705L2.88649 15.6974L2.88969 15.8159L3.88932 15.7889L4.88896 15.762L4.88576 15.6435L3.88613 15.6705ZM3.88932 15.7889L2.88969 15.8159C2.8891 15.7941 2.89006 15.7802 2.89037 15.7763C2.8907 15.772 2.89075 15.7735 2.88949 15.7818C2.88682 15.7993 2.88057 15.8324 2.86766 15.8841L3.83789 16.1263L4.80811 16.3685C4.8505 16.1987 4.89484 15.9798 4.88896 15.762L3.88932 15.7889ZM3.83789 16.1263L2.86766 15.8841L2.81302 16.103L3.78325 16.3452L4.75348 16.5874L4.80811 16.3685L3.83789 16.1263Z" fill="var(--stroke-0, #555D6D)"/>
</g>
</svg>
