<svg preserveAspectRatio="none" width="100%" height="100%" overflow="visible" style="display: block;" viewBox="0 0 40 40" fill="none" xmlns="http://www.w3.org/2000/svg">
<g id="Frame 2085667317">
<path id="Subtract" d="M20.453 10.6972C22.2602 10.7693 24.2591 11.4566 25.5057 12.8144C25.8282 13.1657 26.1153 13.56 26.3788 13.957C26.6639 14.3865 26.9271 14.8359 27.1122 15.3183C27.6953 16.8386 27.5724 18.6218 27.577 20.2265C27.5788 20.8566 27.5624 21.4973 27.6366 22.124C27.6774 22.4682 27.7322 22.8108 27.8348 23.1425C27.9716 23.5845 28.3224 24.1554 28.3026 24.6181C28.2943 24.8115 28.2128 25.0023 28.0692 25.1338C27.5495 25.6088 24.9656 26.0782 24.1854 26.1797C23.8732 27.4951 23.3978 28.2242 22.2264 28.9775C21.3369 29.5496 20.0567 29.6041 19.0604 29.3701C18.1921 29.166 17.1676 28.3506 16.7264 27.5771C16.5086 27.1951 16.2175 26.6059 16.0975 26.1758C15.2473 25.9909 14.4201 25.8657 13.5604 25.6269C13.0176 25.4762 11.8879 25.2632 12.0839 24.4092C12.1433 24.1503 12.316 23.7752 12.4149 23.5156C12.6417 22.9197 12.7689 22.2905 12.7919 21.6533C12.7568 21.1048 12.7879 20.2181 12.7792 19.6552C12.7711 19.1329 12.7546 17.9604 12.8358 17.4814C12.8693 16.5568 13.101 15.4982 13.538 14.6718C13.7293 14.31 13.973 13.979 14.2128 13.6484C14.5031 13.2482 14.7993 12.8684 15.163 12.5302C16.5398 11.2502 18.5925 10.6231 20.453 10.6972ZM17.9628 26.3906C18.152 26.8856 18.5291 27.2866 19.0116 27.5058C19.6928 27.8139 20.4687 27.838 21.1678 27.5732C21.4694 27.4598 21.6301 27.3554 21.8778 27.1552C22.1274 26.907 22.2563 26.7308 22.4012 26.4023C21.4969 26.4793 20.5888 26.5054 19.6815 26.4824C19.1813 26.465 18.4191 26.3841 17.9628 26.3906ZM19.7792 12.3955C18.5019 12.4962 17.8617 12.6837 16.8251 13.4463C16.4002 13.7588 16.1609 13.9095 15.7919 14.3398C15.3257 14.8872 14.983 15.5289 14.787 16.2207C14.3981 17.6279 14.6116 20.0055 14.5253 21.5371C14.4677 22.5576 14.2865 23.1179 14.1346 24.0664C16.473 24.5794 18.2553 24.8069 20.6737 24.7812C22.1915 24.7573 23.7043 24.5963 25.1932 24.3008C25.5024 24.2383 26.0004 24.1415 26.2938 24.0468C26.1102 23.6181 26.0454 23.0873 25.9657 22.6347C25.4254 19.566 26.8013 15.768 23.8007 13.622C23.3473 13.2978 22.9178 12.9517 22.3885 12.75C21.6972 12.4798 20.5138 12.3145 19.7792 12.3955Z" fill="#8E929A"/>
</g>
</svg>
