<svg preserveAspectRatio="none" width="100%" height="100%" overflow="visible" style="display: block;" viewBox="0 0 32 32" fill="none" xmlns="http://www.w3.org/2000/svg">
<g id="Frame 2085667239">
<g clip-path="url(#clip0_0_55)">
<rect width="32" height="32" rx="16" fill="var(--fill-0, #E9E9E9)"/>
<path id="Vector" d="M16.0001 25.5238C21.2599 25.5238 25.5239 21.2599 25.5239 16C25.5239 10.7402 21.2599 6.4762 16.0001 6.4762C10.7402 6.4762 6.47628 10.7402 6.47628 16C6.47628 21.2599 10.7402 25.5238 16.0001 25.5238Z" fill="var(--fill-0, #F4F5F6)"/>
<path id="Vector_2" d="M21.7143 16.3809C21.487 17.7261 20.7861 18.9456 19.738 19.8189C18.69 20.6923 17.3641 21.1619 16 21.1428C14.6359 21.1619 13.31 20.6923 12.262 19.8189C11.2139 18.9456 10.513 17.7261 10.2857 16.3809H21.7143Z" stroke="var(--stroke-0, #DEE0E4)" stroke-width="1.71429" stroke-linecap="round" stroke-linejoin="round"/>
<path id="Vector_3" d="M13.1429 12.5714H13.1524" stroke="var(--stroke-0, #DEE0E4)" stroke-width="2.28571" stroke-linecap="round" stroke-linejoin="round"/>
<path id="Vector_4" d="M18.8571 12.5714H18.8667" stroke="var(--stroke-0, #DEE0E4)" stroke-width="2.28571" stroke-linecap="round" stroke-linejoin="round"/>
<rect id="Rectangle 161123892" x="13.7143" y="22.8571" width="4.57143" height="10.2857" fill="var(--fill-0, #F4F5F6)"/>
</g>
<rect x="0.75" y="0.75" width="30.5" height="30.5" rx="15.25" stroke="var(--stroke-0, #0E2348)" stroke-opacity="0.02" stroke-width="1.5"/>
</g>
<defs>
<clipPath id="clip0_0_55">
<rect width="32" height="32" rx="16" fill="white"/>
</clipPath>
</defs>
</svg>
