<svg preserveAspectRatio="none" width="100%" height="100%" overflow="visible" style="display: block;" viewBox="0 0 40 40" fill="none" xmlns="http://www.w3.org/2000/svg">
<g id="Frame 2085667317">
<path id="Subtract" d="M20.5074 7.34469C22.9593 7.44249 25.6705 8.37557 27.3619 10.2177C27.7994 10.6943 28.1899 11.2289 28.5474 11.7675C28.9342 12.3503 29.2915 12.9606 29.5426 13.6152C30.3334 15.6778 30.1662 18.0964 30.1724 20.2734C30.1749 21.1284 30.1528 21.9972 30.2535 22.8476C30.3088 23.3149 30.3826 23.7801 30.5221 24.2304C30.7077 24.8301 31.1838 25.6046 31.1568 26.2324C31.1455 26.4947 31.0352 26.7524 30.8404 26.9306C30.1359 27.5753 26.6294 28.2139 25.5709 28.3515C25.1472 30.1359 24.5028 31.1255 22.9137 32.1474C21.7066 32.9235 19.9694 32.9962 18.6178 32.6787C17.4396 32.4018 16.0503 31.2956 15.4517 30.2461C15.1561 29.7277 14.7609 28.9283 14.5982 28.3447C13.4444 28.0938 12.3215 27.9236 11.1549 27.5996C10.4181 27.395 8.8869 27.1067 9.15291 25.9482C9.23356 25.5971 9.46796 25.0885 9.60213 24.7363C9.90984 23.928 10.0827 23.0743 10.1139 22.2099C10.0663 21.4656 10.1071 20.2617 10.0953 19.498C10.0844 18.7893 10.0632 17.1996 10.1734 16.5498C10.2187 15.2953 10.5327 13.8595 11.1256 12.7382C11.3852 12.2471 11.7151 11.7972 12.0406 11.3486C12.4346 10.8055 12.8372 10.2908 13.3306 9.832C15.1987 8.09533 17.9832 7.24409 20.5074 7.34469ZM17.1295 28.6377C17.3862 29.309 17.8971 29.852 18.5514 30.1494C19.4758 30.5676 20.5294 30.6007 21.4781 30.2412C21.8869 30.0874 22.1042 29.9462 22.44 29.6748C22.779 29.3376 22.9541 29.0985 23.151 28.6523C21.9241 28.7568 20.6924 28.7939 19.4615 28.7627C18.7829 28.7391 17.7488 28.6288 17.1295 28.6377ZM23.1334 10.1308C22.1953 9.76417 20.59 9.53946 19.5933 9.64938C17.8604 9.78608 16.992 10.0406 15.5855 11.0752C15.0093 11.4989 14.6845 11.7026 14.1842 12.2861C13.5516 13.0288 13.0859 13.8993 12.8199 14.8379C12.2921 16.7469 12.5825 19.9725 12.4654 22.0507C12.3873 23.4356 12.1412 24.1964 11.9351 25.4834C15.1077 26.1795 17.526 26.487 20.8072 26.4521C22.8665 26.4197 24.919 26.2017 26.939 25.8007C27.3584 25.7161 28.0332 25.5854 28.4312 25.457C28.1822 24.8755 28.095 24.1558 27.9869 23.542C27.2536 19.3783 29.1207 14.2251 25.0494 11.3134C24.4342 10.8735 23.8515 10.4046 23.1334 10.1308Z" fill="var(--fill-0, #B5B5B5)"/>
</g>
</svg>
