<svg preserveAspectRatio="none" width="100%" height="100%" overflow="visible" style="display: block;" viewBox="0 0 40 40" fill="none" xmlns="http://www.w3.org/2000/svg">
<g id="Frame 2085667317">
<path id="Subtract" d="M20.5174 8.46576C22.7538 8.55499 25.2267 9.40552 26.7693 11.0859C27.1684 11.5205 27.5243 12.0077 27.8504 12.499C28.2031 13.0304 28.5286 13.5866 28.7576 14.1835C29.4792 16.0649 29.328 18.2719 29.3338 20.2578C29.336 21.0375 29.3152 21.8299 29.407 22.6054C29.4575 23.0316 29.525 23.4563 29.6521 23.8671C29.8215 24.414 30.2548 25.1198 30.2303 25.6923C30.22 25.9317 30.1199 26.1674 29.9422 26.33C29.2993 26.9179 26.1025 27.4993 25.1365 27.6249C24.7501 29.2528 24.1614 30.1556 22.7117 31.0878C21.6108 31.7956 20.0265 31.8628 18.7938 31.5732C17.7192 31.3207 16.452 30.3107 15.9061 29.3535C15.6364 28.8806 15.2761 28.1514 15.1277 27.6191C14.0754 27.3903 13.0512 27.2359 11.9871 26.9404C11.3153 26.7538 9.91824 26.4905 10.1609 25.4335C10.2345 25.1133 10.4477 24.6493 10.5701 24.3281C10.8508 23.5907 11.0086 22.8119 11.0369 22.0234C10.9936 21.3446 11.0311 20.2473 11.0203 19.5507C11.0104 18.9045 10.9911 17.4542 11.0916 16.8613C11.1329 15.7171 11.4191 14.4074 11.9598 13.3847C12.1966 12.9368 12.4979 12.5263 12.7947 12.1171C13.1541 11.6218 13.5214 11.1518 13.9715 10.7333C15.6753 9.14947 18.2151 8.37401 20.5174 8.46576ZM17.4363 27.8857C17.6705 28.4982 18.1362 28.9943 18.7332 29.2656C19.5764 29.647 20.5368 29.6765 21.4021 29.3486C21.7753 29.2083 21.9736 29.0797 22.2801 28.832C22.5893 28.5245 22.7489 28.3063 22.9285 27.8994C21.8094 27.9946 20.686 28.0285 19.5633 27.9999C18.9444 27.9785 18.0012 27.8776 17.4363 27.8857ZM22.9129 11.0058C22.0572 10.6713 20.5915 10.467 19.6824 10.5673C18.1022 10.692 17.3107 10.9237 16.0281 11.8671C15.5023 12.2539 15.2054 12.4401 14.7488 12.9726C14.172 13.65 13.7482 14.4438 13.5057 15.2997C13.0242 17.0411 13.2883 19.9833 13.1814 21.8788C13.1102 23.142 12.886 23.8359 12.698 25.0097C15.5919 25.6447 17.7978 25.9254 20.7908 25.8935C22.6691 25.8639 24.5411 25.6655 26.3836 25.2997C26.7662 25.2225 27.3819 25.1025 27.7449 24.9853C27.5178 24.4548 27.4383 23.7982 27.3396 23.2382C26.6708 19.4405 28.3733 14.7407 24.66 12.0849C24.0989 11.6837 23.5677 11.2555 22.9129 11.0058Z" fill="var(--fill-0, #2A3038)"/>
</g>
</svg>
