<svg preserveAspectRatio="none" width="100%" height="100%" overflow="visible" style="display: block;" viewBox="0 0 12 14.9998" fill="none" xmlns="http://www.w3.org/2000/svg">
<g id="Frame 2085667280">
<path id="Subtract" d="M6 1.5C7.3259 1.5 8.59751 2.00532 9.53516 2.90527C10.4728 3.80546 11 5.02675 11 6.2998C11 9.29529 7.53887 12.4149 6.37598 13.3789C6.26768 13.4571 6.1355 13.5 6 13.5C5.8645 13.5 5.73232 13.4571 5.62402 13.3789C4.46113 12.4149 1 9.29529 1 6.2998C1 5.02675 1.52716 3.80546 2.46484 2.90527C3.40249 2.00532 4.6741 1.5 6 1.5ZM6 4.5C4.89543 4.5 4 5.39543 4 6.5C4.00013 7.60446 4.89551 8.5 6 8.5C7.10449 8.5 7.99987 7.60446 8 6.5C8 5.39543 7.10457 4.5 6 4.5Z" fill="var(--fill-0, #959AA1)"/>
</g>
</svg>
