<svg width="58" height="19" viewBox="0 0 58 19" fill="none" xmlns="http://www.w3.org/2000/svg">
<path d="M0.5 4.31445C0.5 4.33538 0.5 4.3563 0.606609 4.45692C0.713219 4.55753 0.926438 4.7372 2.41913 4.92518C3.91183 5.11316 6.67754 5.30401 9.96217 5.58154" stroke="black" stroke-linecap="round"/>
<path d="M3.80124 8.47809C4.07875 8.41892 5.37348 8.29879 7.38696 8.34151C7.74127 8.34903 7.68308 8.73599 7.4112 9.20431C6.72668 10.3834 4.99401 12.115 3.55719 13.9438C3.07661 14.5555 3.76299 14.924 4.29385 14.9975C4.8247 15.071 5.34855 14.9404 5.74035 14.6857C6.13216 14.431 6.37604 14.0562 6.5015 13.6546C6.62696 13.2529 6.62659 12.8359 6.55389 12.4735C6.48119 12.1111 6.33616 11.8159 6.12223 11.4474" stroke="black" stroke-linecap="round"/>
<path d="M8.31038 10.0972C8.2891 10.0972 8.26781 10.0972 8.765 10.0972C9.26219 10.0972 10.2785 10.0972 11.7727 10.0327" stroke="black" stroke-linecap="round"/>
<path d="M7.26758 12.92C7.43642 12.92 7.82357 12.92 8.46326 12.9011C9.17259 12.8443 9.92302 12.8052 10.6677 12.7863C11.0429 12.7673 11.4127 12.7295 12.4715 12.6904" stroke="black" stroke-linecap="round"/>
<path d="M13.1977 8.47803C13.1125 8.51988 13.0203 9.05915 12.9873 10.4237C13.0026 11.2705 13.0831 12.4308 13.1754 13.5944C13.2677 14.7579 13.3694 15.8897 13.4743 16.9267" stroke="black" stroke-linecap="round"/>
<path d="M15.3544 7.32373C15.3118 7.36558 15.2686 7.70246 15.3352 8.77423C15.6208 10.7187 15.9118 12.8216 16.1644 14.6182C16.3297 15.536 16.5703 16.4661 17.026 17.69" stroke="black" stroke-linecap="round"/>
<path d="M19.415 4.61035C19.415 4.8932 19.415 5.17605 19.4659 5.65385C19.5168 6.13166 19.6185 6.79585 19.7243 7.29891C19.8301 7.80197 19.9369 8.12379 20.2372 8.71008" stroke="black" stroke-linecap="round"/>
<path d="M20.5273 4.87612C20.5692 4.83355 20.944 4.78456 21.502 4.96706C22.9653 5.44558 21.2021 7.72159 21.0533 8.34134C21.1405 8.57218 21.5579 8.63315 22.0594 8.55669C22.5609 8.48023 23.1338 8.26448 23.8509 7.9132" stroke="black" stroke-linecap="round"/>
<path d="M26.0461 4.31445C26.0248 4.37759 26.0035 4.44072 25.9925 5.04382C25.9816 5.64691 25.9816 6.78804 26.0573 7.9434C26.1331 9.09876 26.2846 10.2338 26.5675 11.4666" stroke="black" stroke-linecap="round"/>
<path d="M23.1595 12.2539C23.095 12.9222 23.2505 14.5037 23.7005 15.2106C23.9951 15.4354 24.4241 15.3885 25.9 14.9722C27.376 14.5559 29.8859 13.7715 32.8523 12.9634" stroke="black" stroke-linecap="round"/>
<path d="M32.4075 7.08447C31.9242 7.66867 30.9282 8.57353 30.4451 8.60488C30.2264 8.61908 30.111 8.27582 30.0553 8.00588C29.9996 7.73594 30.0198 7.45922 30.1561 7.24217C30.2924 7.02512 30.5442 6.87612 30.7577 6.9462C30.9711 7.01628 31.1385 7.30995 31.5023 7.61252" stroke="black" stroke-linecap="round"/>
<path d="M34.8877 4.00439C34.8877 4.08809 35.1013 5.54149 35.4249 7.89798C35.5349 8.8442 35.5349 9.28362 35.6399 9.94094C35.7449 10.5983 35.9548 11.4602 36.298 12.3471" stroke="black" stroke-linecap="round"/>
<path d="M39.7378 5.79005C39.6101 5.74748 39.2463 5.80961 38.7252 6.08074C38.4668 6.21514 38.3628 6.55535 38.3128 6.85356C38.2629 7.15177 38.3066 7.45194 38.508 7.6587C38.7094 7.86546 39.0673 7.96973 39.3175 7.86596C39.5678 7.76219 39.6994 7.44724 39.6928 7.16791C39.6861 6.88859 39.5371 6.65445 38.9966 6.2842" stroke="black" stroke-linecap="round"/>
<path d="M39.8394 6.06015C39.7543 6.102 40.8913 5.25986 42.6196 4.41699C43.1671 4.43782 43.0455 5.36934 42.9829 6.04855C42.9202 6.72775 42.9202 7.12641 43.2275 7.30866" stroke="black" stroke-linecap="round"/>
<path d="M46.0049 0.5C46.0258 0.5 46.0467 0.5 46.1915 1.93282C46.3363 3.36565 46.6044 6.23129 47.1353 9.18159" stroke="black" stroke-linecap="round"/>
<path d="M48.8945 4.43963C48.8945 4.39706 49.1175 3.98982 49.5919 3.35281C49.8043 3.06747 50.1164 2.99467 50.278 3.08343C50.4396 3.17219 50.4815 3.45937 50.503 4.54389C50.5246 5.6284 50.5246 7.50155 51.0056 9.05538" stroke="black" stroke-linecap="round"/>
<path d="M52.1631 5.93107C52.2262 5.8885 52.2894 5.84593 52.4463 5.75725C52.6033 5.66858 52.8523 5.53509 53.745 5.26855" stroke="black" stroke-linecap="round"/>
<path d="M54.0625 3.65283C54.0412 3.67376 54.02 3.69468 53.9983 4.28884C53.9767 4.88299 53.9555 6.04974 53.9737 6.78915C53.992 7.52856 54.0504 7.80528 54.3369 7.71648" stroke="black" stroke-linecap="round"/>
<path d="M55.7998 0.5C55.9114 1.35748 56.4059 3.92934 56.5704 5.71253C56.6642 6.42626 56.7878 7.2759 56.9335 8.19706C57.0107 8.60014 57.0944 8.87252 57.4998 9.08866" stroke="black" stroke-linecap="round"/>
</svg>
