<svg width="100" height="100" viewBox="0 0 100 100" fill="none" xmlns="http://www.w3.org/2000/svg">
<g transform="translate(5 20)">
<path d="M27.9683 17.3423C29.0522 13.4357 31.2917 10.9838 35.0107 9.30517C39.463 7.29547 44.2289 7.22771 48.7941 8.95663C50.5459 9.62215 52.6698 10.8241 53.8095 12.3528C55.1597 13.9202 55.7109 16.3816 56.1794 18.3524C56.2089 18.4767 56.3851 19.1386 56.4927 19.1418C57.0562 19.1587 57.8527 18.7399 58.4236 18.5267C59.3113 18.1952 61.0179 18.022 61.8616 18.4609C63.1383 19.0372 64.9849 20.768 65.4417 22.1088C65.8771 22.9901 66.1146 24.3525 66.0849 25.3351C66.7796 25.3288 68.3876 25.2944 68.8416 25.8956C69.7392 26.3852 70.7639 27.4984 71.2738 28.3799C72.0189 29.3708 72.3403 31.8388 72.1081 33.0426C71.9745 33.7351 71.6141 34.5339 71.4353 35.2597C72.5832 35.117 74.1418 34.749 75.2679 35.3601C76.8652 35.9278 77.9617 37.2604 78.7521 38.7088C79.6273 40.1531 80.1538 42.4475 79.7422 44.1307C79.4545 45.3244 78.6952 46.3506 77.6378 46.9747C76.9313 47.3962 76.1815 47.6086 75.3751 47.7369C74.5157 47.909 73.3227 48.12 72.4444 48.1669C71.9354 48.2766 71.3367 48.2791 70.81 48.3347C67.4203 48.6916 64.0741 48.9833 60.6588 49.0172C60.1346 49.0515 58.0625 49.2072 57.6501 49.1669C56.236 49.249 54.775 49.2972 53.3579 49.3152C45.045 49.4205 36.6771 49.4649 28.3754 49.0213C28.3134 49.0258 28.2513 49.0291 28.1892 49.0313C27.3512 49.062 26.1123 48.9618 25.2182 48.9461C22.4024 48.8583 19.5379 48.7467 16.7333 48.4458C14.6266 48.2198 10.5611 48.4257 9.02714 46.9444C6.8997 44.89 7.58565 40.3875 9.56838 38.4282C10.7619 37.2487 12.0766 36.8748 13.7155 36.8534C12.6671 34.85 11.4713 32.1863 13.3324 30.1805C14.0313 29.4274 15.6915 28.7034 16.7151 28.6572C17.475 28.6229 18.475 28.6987 19.2796 28.7041C19.2305 27.6122 18.7857 26.7958 19.0363 25.6754C19.4755 23.7115 20.7648 22.0756 22.7834 21.6163C23.8419 21.3754 25.2173 21.1226 26.2617 21.5446C26.6832 21.7148 27.2969 22.1403 27.7164 22.384C27.562 20.8978 27.5951 18.7632 27.9683 17.3423Z" fill="#F3F3F3"/>
<path d="M33.7764 6.57125C38.9879 4.21888 44.5816 4.15364 49.8565 6.15133L49.8594 6.1523C51.7963 6.88815 54.5097 8.32442 56.1582 10.4863C57.1416 11.6609 57.7497 13.0308 58.1612 14.2226C58.2959 14.6128 58.4137 15.008 58.5235 15.3945C59.0185 15.2937 59.5312 15.2307 60.0196 15.208C60.813 15.1711 62.1055 15.2064 63.2461 15.7998H63.2452C64.264 16.2902 65.2752 17.0781 66.0713 17.8671C66.8369 18.626 67.7397 19.7145 68.212 20.9541C68.4414 21.4532 68.6245 22.0022 68.7618 22.5625C68.9472 22.6076 69.1404 22.6616 69.334 22.7314C69.6778 22.8553 70.1898 23.083 70.6797 23.5019C71.9598 24.3227 73.1202 25.6405 73.7862 26.7373C74.5313 27.8159 74.8632 29.1929 75.0186 30.1513C75.12 30.7767 75.1834 31.4792 75.1797 32.1699C75.6017 32.26 76.0411 32.3981 76.4776 32.6093C78.9669 33.572 80.4725 35.5978 81.3858 37.2714H81.3838C81.9923 38.3107 82.4351 39.5372 82.6739 40.7519C82.9187 41.9979 82.9959 43.4551 82.6563 44.8437L82.6553 44.8427C82.1757 46.8217 80.917 48.5233 79.1631 49.5586L79.1622 49.5576C78.0581 50.2136 76.9466 50.5149 75.9463 50.6816C75.1363 50.8435 73.8878 51.0691 72.8243 51.1464C72.4549 51.2111 72.1128 51.2436 71.8623 51.2627C71.4767 51.2921 71.3342 51.2962 71.1241 51.3183C67.7421 51.6745 64.3192 51.9733 60.7979 52.0136C60.5297 52.0318 59.8849 52.0786 59.293 52.1142C58.9664 52.1338 58.6245 52.1523 58.3291 52.163C58.1752 52.1686 57.9185 52.1773 57.6602 52.1699C56.2477 52.2492 54.7987 52.2976 53.3956 52.3154C45.1322 52.4201 36.734 52.4644 28.379 52.0244C28.3519 52.0256 28.3249 52.0273 28.2979 52.0283L28.2989 52.0293C27.7439 52.0496 27.1129 52.0258 26.5928 52.0029C26.017 51.9775 25.5593 51.9522 25.1651 51.9453H25.1456L25.125 51.9443C22.3062 51.8565 19.3413 51.7428 16.4131 51.4287C15.9924 51.3835 15.4513 51.3582 14.7041 51.3203C14.0036 51.2847 13.17 51.2391 12.337 51.1474C11.5119 51.0566 10.5876 50.9104 9.70512 50.6406C8.84892 50.3788 7.80438 49.9339 6.9434 49.1025C4.97336 47.2001 4.56963 44.4903 4.76958 42.3691C4.97176 40.2242 5.85026 37.8847 7.46001 36.2939C8.1526 35.6095 8.87897 35.1044 9.627 34.7363C9.56784 34.5007 9.51571 34.2612 9.47465 34.0185C9.16748 32.202 9.4033 30.0036 11.1329 28.1396C11.8733 27.3416 12.8761 26.7716 13.6807 26.413C14.3421 26.1183 15.1622 25.8394 15.9961 25.7187C16.0196 25.4954 16.0544 25.262 16.1084 25.0205C16.7362 22.2138 18.7096 19.467 22.1182 18.6914C22.6799 18.5636 23.4762 18.3958 24.3272 18.3388C24.4619 18.3298 24.6046 18.3233 24.753 18.3203C24.8228 17.712 24.9245 17.1204 25.0665 16.58L25.0723 16.5605L25.0772 16.54C26.4174 11.7098 29.3102 8.58724 33.7764 6.57125Z" stroke="white" stroke-width="6"/>
</g>
</svg>
