<svg width="100" height="100" viewBox="0 0 100 100" fill="none" xmlns="http://www.w3.org/2000/svg" preserveAspectRatio="xMidYMid meet">
<g id="Bomb Explode 1 [Vectorized]">
<g id="Vector_2">
<path d="M40.7633 10.9553C41.7868 11.2451 42.3722 11.9565 42.5456 12.1712C42.8033 12.4904 43.0013 12.8263 43.1413 13.0852C43.4274 13.6149 43.686 14.2311 43.8942 14.7581C44.1088 15.3014 44.3123 15.8605 44.4694 16.2903C44.5509 16.5132 44.618 16.6953 44.6745 16.843C44.7282 16.9836 44.753 17.0427 44.7565 17.0511L45.4411 18.5247C45.6738 19.0301 45.906 19.5396 46.1188 20.0178L46.4801 20.8352C47.3158 22.746 48.0933 24.6817 48.8112 26.6399L48.8151 26.6507C49.152 27.5805 49.4202 28.4995 49.6588 29.3108C49.8817 30.0684 50.082 30.739 50.3112 31.388C50.4718 31.3029 50.663 31.1997 50.8893 31.0686C51.399 30.7734 52.2206 30.2708 52.9997 29.9251C55.5365 28.7993 57.9679 27.5227 60.6051 26.2063C63.1932 24.9145 65.9191 23.6166 68.8141 22.5999C68.9138 22.5649 70.5444 21.897 71.8122 21.5471C72.4674 21.3664 73.3817 21.1579 74.2858 21.18C75.0194 21.1979 77.1842 21.4511 77.9479 23.6731L78.1803 24.3499L78.0827 25.0598C77.9478 26.0331 77.4214 26.8776 77.2194 27.2005C76.9378 27.6503 76.6196 28.0805 76.4801 28.2727L76.4792 28.2747C73.8662 31.8736 70.6359 34.6413 67.777 37.2708C72.9934 37.153 78.2094 37.5069 83.362 38.3274L84.7985 38.5384C86.373 38.7822 88.3088 39.1916 90.1305 40.3811L93.8659 42.8206L90.1969 45.3606C89.5652 45.7978 88.7761 46.1897 88.1637 46.4798C87.8358 46.6351 87.5076 46.7844 87.2174 46.9163C86.9173 47.0527 86.6677 47.1649 86.4567 47.2649L86.4577 47.2659C84.5072 48.1904 82.4275 48.9838 80.6139 49.72L80.6012 49.7249C77.8888 50.8117 74.7527 52.1233 71.4635 52.7854L71.4401 52.7903L71.4167 52.7942C69.8787 53.0784 68.3915 53.3479 66.9254 53.6497C66.9519 53.7266 66.9813 53.8053 67.0045 53.8811V53.8821L69.569 62.261C70.7297 65.9511 71.7382 69.4672 72.9137 72.9729L73.4293 74.4749V74.4759C73.68 75.1913 74.0192 75.8709 74.4752 76.8382C74.8945 77.7273 75.3988 78.8369 75.7135 80.0764L75.7868 80.3899C75.9507 81.1687 76.1023 82.5528 75.3815 83.8909L75.1989 84.1985C74.6307 85.0752 73.6772 85.7936 72.4225 85.8997C71.3626 85.9892 70.5279 85.5965 70.0905 85.345C69.2217 84.8456 68.5629 84.0944 68.3473 83.8479C67.5072 82.8876 66.8816 81.857 66.3913 81.0442C65.8623 80.1674 65.4839 79.5338 65.0251 78.9661V78.9651C62.5148 75.8593 60.1809 72.8509 57.6696 69.9221L57.6618 69.9124C56.7755 68.8699 55.943 67.9794 55.0397 67.0042C54.8659 68.2285 54.6388 69.4722 54.3336 70.7669C53.4659 74.4483 52.198 78.0288 51.1413 81.3567L51.1266 81.4007L51.111 81.4446C50.9368 81.9395 50.8169 82.4703 50.6676 83.1829C50.529 83.8447 50.3554 84.7165 50.0797 85.5969C49.8697 86.3231 49.4023 87.3578 48.5778 88.1253C48.1119 88.5589 47.1378 89.2609 45.7624 89.1565C44.3244 89.0472 43.41 88.1375 42.9333 87.4514V87.4505C42.1429 86.3128 41.7763 85.0105 41.5592 84.055C41.4452 83.5529 41.3539 83.0552 41.278 82.6409C41.1973 82.2006 41.1354 81.8649 41.068 81.5725C40.4708 78.9798 40.0554 76.4713 39.6999 73.9202L39.5465 72.7678C39.4012 71.6178 39.2758 70.4744 39.152 69.3655C38.986 67.8782 38.8228 66.4447 38.6139 65.0325L38.3961 63.6731C38.1735 62.3141 37.9351 60.9574 37.6803 59.6038L37.6784 59.594C37.6606 59.4977 37.6423 59.4017 37.6247 59.3059C36.7977 60.0185 35.9242 60.7786 34.8922 61.6087L34.8913 61.6077C34.1413 62.2109 33.374 62.7575 32.6696 63.2522C31.9423 63.7629 31.2969 64.2099 30.6715 64.6848C30.1179 65.1054 29.2599 65.7948 28.1891 66.6516C27.1389 67.4921 25.9192 68.465 24.7008 69.4026C23.4886 70.3355 22.2403 71.262 21.1344 72.0022C20.5821 72.3719 20.032 72.718 19.5172 73.0012C19.0439 73.2617 18.4324 73.5646 17.7956 73.7307L17.7946 73.7298C17.7654 73.7374 17.7979 73.7299 17.7428 73.7444C17.7158 73.7515 17.6648 73.7647 17.6051 73.7786C17.4892 73.8055 17.2626 73.8537 16.9782 73.8675C16.2727 73.9016 15.6735 73.7088 15.2086 73.4563L13.5231 72.5403L13.6471 70.6262C13.6847 70.0466 13.8653 69.554 13.9616 69.3089C14.0815 69.0036 14.229 68.697 14.3766 68.4124C14.6735 67.8398 15.0648 67.1786 15.4948 66.4905C16.3601 65.1055 17.4986 63.4257 18.6471 61.7708C21.0316 58.3347 23.337 55.1683 23.9499 54.1858C24.4388 53.4021 25.4109 52.0685 26.3727 50.8284C27.3193 49.6078 28.4424 48.2357 29.2428 47.4583C29.403 47.3027 29.5904 47.1291 29.7858 46.9514C29.3467 46.7637 28.8828 46.5388 28.4528 46.2688C22.9405 42.8076 17.068 39.338 11.6051 35.3528V35.3518C11.1854 35.0456 10.7966 34.6188 10.5543 34.3362C10.2588 33.9915 9.93094 33.5651 9.63736 33.1096C9.36811 32.6919 9.01407 32.0763 8.81216 31.3811C8.67248 30.9001 8.22806 29.0422 9.76236 27.6536L10.2653 27.1985L10.9147 27.0042C11.4327 26.849 11.9047 26.8376 12.1784 26.8421C12.4876 26.8472 12.7846 26.8795 13.0358 26.9153C13.5369 26.9867 14.0627 27.1039 14.5133 27.2141C14.9728 27.3266 15.4309 27.4514 15.7887 27.5481C16.1944 27.6578 16.4037 27.7114 16.4977 27.7307H16.4967C17.7225 27.9822 19.5765 28.2667 21.1374 28.6829C25.3901 29.817 29.6733 31.1158 33.8717 32.4671C33.9866 31.4644 34.1042 30.4621 34.2262 29.4602L34.2272 29.4583C34.7226 25.4113 35.2392 21.2276 36.0719 17.0872C36.1112 16.8918 36.1453 16.6559 36.1891 16.3177C36.2287 16.0115 36.2789 15.5955 36.3473 15.1878C36.4785 14.4059 36.7347 13.2195 37.4733 12.1438L38.692 10.3694L40.7633 10.9553Z" fill="none" stroke="#FFFFFF" stroke-width="6"/>
<path d="M39.9462 13.8421C40.6097 14.0299 41.6734 17.5417 42.0398 18.3239C42.4714 19.2449 42.9656 20.3108 43.3804 21.2433C44.3261 23.3554 45.1981 25.4999 45.9946 27.6727C46.5947 29.3293 46.9671 30.9888 47.5687 32.6301C49.0366 36.6351 51.8665 33.7098 54.2169 32.6668C59.4559 30.3419 64.3881 27.3339 69.8087 25.4303C70.6587 25.1316 74.6631 23.3459 75.1106 24.648C75.0369 25.1802 74.3806 26.0576 74.0512 26.5118C71.5894 29.9025 68.5569 32.4645 65.5087 35.2811C64.6731 36.0533 63.8331 37.0348 62.9925 37.8467C62.1388 38.6711 60.7546 39.7668 60.0763 40.6753L60.0208 40.7504C62.7381 40.8047 65.1362 40.3573 67.78 40.2715C72.8394 40.1533 77.8987 40.4944 82.8962 41.2906C84.9106 41.6073 86.7337 41.7467 88.49 42.8934C87.6675 43.4628 86.1237 44.104 85.1725 44.5548C83.3244 45.4308 81.3819 46.1704 79.485 46.9404C76.6887 48.0609 73.8337 49.2479 70.8712 49.8443C68.8687 50.2143 66.865 50.5751 64.8781 51.0212C64.4012 51.1281 63.3619 50.9735 63.0944 51.1056C62.8594 51.5281 63.9537 54.1636 64.1362 54.7598L66.7075 63.1613C67.9987 67.2663 69.1725 71.4038 70.5981 75.4681C71.2312 77.275 72.3312 78.9419 72.8069 80.8188C72.9506 81.3813 73.0125 82.0556 72.6812 82.5669C72.0944 83.4725 71.0375 82.3662 70.6056 81.8725C69.3162 80.3987 68.5887 78.6025 67.3587 77.0806C64.8981 74.0363 62.4959 70.9419 59.9471 67.9694C58.616 66.4038 57.2699 65.025 55.9137 63.5175C54.7964 62.2754 54.2271 60.6657 52.6671 59.6193C52.6134 59.9531 52.5934 60.4485 52.5689 60.797C52.4146 64.0356 52.1619 66.9025 51.4132 70.0788C50.5802 73.6125 49.3791 76.9925 48.2816 80.4488C47.7871 81.8538 47.6627 83.2769 47.2171 84.7C47.0275 85.45 46.1911 86.8825 45.3972 85.74C44.4948 84.4419 44.3339 82.3863 43.9913 80.8994C43.4208 78.4225 43.0194 76.0075 42.6707 73.5056C42.2564 70.5325 42.0168 67.53 41.5782 64.5713C41.2907 62.7256 40.9742 60.8849 40.6287 59.0492C40.3295 57.4303 40.003 55.5631 39.4762 54.019C37.1638 55.6003 35.1864 57.5213 33.0117 59.2706C31.6775 60.3438 30.2206 61.2597 28.8567 62.2956C26.4862 64.0963 19.2047 70.2625 17.0382 70.8275C16.871 70.8713 16.7912 70.9019 16.6404 70.82C16.7459 69.1919 25.1729 57.8941 26.4956 55.7737C27.3034 54.4786 30.0696 50.8377 31.333 49.6106C32.4056 48.5687 33.8046 47.5424 34.7337 46.2171L34.7872 46.1401C33.4955 44.7285 31.5846 44.6923 30.0486 43.7278C24.4421 40.2075 18.7243 36.8324 13.3731 32.9287C12.8922 32.5779 11.1489 30.4451 11.7756 29.8779C12.5089 29.6582 15.0685 30.5005 15.8942 30.6699C17.3797 30.9748 18.8987 31.1906 20.3647 31.5816C25.7227 33.0104 31.1482 34.7093 36.4175 36.4545C36.5432 35.7569 36.6292 34.7767 36.711 34.0546C36.8684 32.6431 37.033 31.2324 37.2047 29.8225C37.7019 25.7606 38.2067 21.6888 39.0132 17.6784C39.2622 16.4404 39.2351 14.8777 39.9462 13.8421Z" fill="#FCC603"/>
</g>
</g>
</svg>
