<svg width="100" height="100" viewBox="0 0 100 100" fill="none" xmlns="http://www.w3.org/2000/svg" preserveAspectRatio="xMidYMid meet">
<g id="Heart 1 [Vectorized]">
<g id="Vector" filter="url(#filter0_d_0_12)">
<path d="M67.4466 16.7197C70.7822 16.4588 74.2765 17.0899 76.091 20.1954C78.9176 25.0332 78.5966 31.2719 77.3052 36.5234C75.9178 42.1653 73.2524 47.1991 70.5153 52.2727L66.3905 60.0623C65.2029 62.3546 64.2672 64.7655 63.151 67.0896C62.7182 67.9906 62.2061 68.8545 61.7424 69.7401C59.596 73.8396 56.0138 80.563 52.0419 82.9899C51.6612 83.2226 51.2195 83.4131 50.7674 83.2996C47.2283 82.4116 37.0551 65.931 34.6557 62.0314C33.0919 59.4522 31.5062 56.8861 29.8988 54.3335C26.4873 48.9701 22.8182 43.8476 21.8943 37.388C21.2052 32.5702 22.8657 27.2636 25.8035 23.422C28.1193 20.3936 31.2273 18.0713 35.1098 17.5979C37.5133 17.3096 40.2372 18.1683 42.1441 19.6366C44.5075 21.4564 46.7019 24.4491 48.2 27.0065C49.6385 29.4623 50.4533 32.7893 50.9043 35.5724C50.9569 35.8975 51.1815 36.43 51.3984 36.679C51.7696 36.336 51.9054 33.9497 52.0659 33.3214C52.2119 32.7255 52.3347 32.0581 52.5445 31.4818C55.1073 24.4426 59.4161 17.9241 67.4466 16.7197Z" fill="#D55916"/>
<path d="M67.2128 13.7292C70.8741 13.4428 75.9633 14.03 78.6815 18.6823C82.0986 24.531 81.5751 31.7239 80.2186 37.2399C78.729 43.2975 75.881 48.6424 73.1659 53.6755L73.1669 53.6764L69.0419 61.4665C68.4986 62.5172 68.0026 63.613 67.4872 64.778C66.9784 65.928 66.4396 67.172 65.8553 68.3883C65.4086 69.3184 64.7486 70.4661 64.4003 71.1315C63.3293 73.1769 61.8323 76.0106 60.0751 78.653C58.3685 81.2191 56.1804 83.9766 53.6063 85.5495C53.1041 85.8563 51.7372 86.6363 50.037 86.2096C48.8636 85.9151 47.8659 85.1459 47.1835 84.5495C46.4121 83.8753 45.6108 83.0261 44.8202 82.1071C43.2329 80.2619 41.4866 77.8998 39.8221 75.5094C36.4834 70.7145 33.3013 65.5547 32.1005 63.6032L32.0956 63.5954L32.0907 63.5866C30.5379 61.0256 28.963 58.4778 27.3671 55.943C24.1057 50.8157 19.9619 45.0641 18.9247 37.8132C18.106 32.0899 20.0641 25.9887 23.4208 21.5993C26.0543 18.1556 29.8193 15.2206 34.7469 14.6198L34.7528 14.6188C38.0207 14.227 41.5163 15.3667 43.9745 17.2594C46.784 19.4227 49.2116 22.7973 50.7889 25.4899C50.9914 25.8355 51.1803 26.1936 51.3602 26.5592C54.2693 20.5337 58.995 14.9534 67.0018 13.7526L67.1063 13.737L67.2128 13.7292Z" stroke="#FFFFFF" stroke-width="6"/>
</g>
</g>
<defs>
<filter id="filter0_d_0_12" x="14.0138" y="8.94559" width="73.9713" height="84.1142" filterUnits="userSpaceOnUse" color-interpolation-filters="sRGB">
<feFlood flood-opacity="0" result="BackgroundImageFix"/>
<feColorMatrix in="SourceAlpha" type="matrix" values="0 0 0 0 0 0 0 0 0 0 0 0 0 0 0 0 0 0 127 0" result="hardAlpha"/>
<feMorphology radius="0.724638" operator="dilate" in="SourceAlpha" result="effect1_dropShadow_0_12"/>
<feOffset dx="1" dy="1"/>
<feGaussianBlur stdDeviation="1"/>
<feComposite in2="hardAlpha" operator="out"/>
<feColorMatrix type="matrix" values="0 0 0 0 0 0 0 0 0 0 0 0 0 0 0 0 0 0 0.2 0"/>
<feBlend mode="normal" in2="BackgroundImageFix" result="effect1_dropShadow_0_12"/>
<feBlend mode="normal" in="SourceGraphic" in2="effect1_dropShadow_0_12" result="shape"/>
</filter>
</defs>
</svg>
