<svg width="100" height="100" viewBox="0 0 100 100" fill="none" xmlns="http://www.w3.org/2000/svg">
  <path d="M44 13c1-4 7-4 7 1 0 4-4 6-7 8-4-2-8-4-8-8 0-5 6-5 8-1Z" fill="#fff" stroke="#fff" stroke-width="5" stroke-linejoin="round"/>
  <path d="M44 13c1-4 7-4 7 1 0 4-4 6-7 8-4-2-8-4-8-8 0-5 6-5 8-1Z" fill="#F0837C"/>
  <path d="M80 40c1-5 8-5 8 0 0 5-4 7-8 10-4-3-8-5-8-10 0-5 7-5 8 0Z" fill="#fff" stroke="#fff" stroke-width="5" stroke-linejoin="round"/>
  <path d="M80 40c1-5 8-5 8 0 0 5-4 7-8 10-4-3-8-5-8-10 0-5 7-5 8 0Z" fill="#F0837C"/>
  <path d="M27 48c-4-14 5-27 19-25 9 2 15 10 15 22-1 11-7 20-16 22l4 23H21l3-24c-5-3-7-10-3-16 1-1 3-2 6-2Z" fill="#fff"/>
  <path d="M47 49c-5-15 6-28 22-25 12 3 18 16 15 30-2 8-6 14-12 18l7 18H44l4-21c-4-4-6-11-1-20Z" fill="#fff"/>
  <path d="M24 48c-3-12 5-22 17-21 9 1 14 9 14 20-1 11-8 19-18 20-7-3-12-10-13-19Z" fill="#8A654A"/>
  <path d="M52 48c-4-12 6-23 18-21 10 2 15 12 12 24-2 9-8 16-17 19-8-4-12-12-13-22Z" fill="#2F3433"/>
  <path d="M38 38c8-2 16 4 18 13 2 10-3 18-12 20-9 1-17-5-19-14-2-10 4-18 13-19Z" fill="#F6D4BF" stroke="#fff" stroke-width="3"/>
  <path d="M65 39c8-2 16 4 18 13 2 10-3 19-12 20-9 2-17-4-19-14-2-10 4-18 13-19Z" fill="#F6D4BF" stroke="#fff" stroke-width="3"/>
  <path d="M25 51c8-1 15-6 18-13 4 7 8 10 14 11-1-14-10-24-23-19-8 3-11 11-9 21Z" fill="#8A654A"/>
  <path d="M52 52c8-2 16-8 19-17 4 7 8 10 13 11-1-14-11-24-24-19-8 4-11 13-8 25Z" fill="#2F3433"/>
  <circle cx="41" cy="54" r="2.1" fill="#2A3038"/>
  <circle cx="68" cy="55" r="2.1" fill="#2A3038"/>
  <path d="M50 62c-5 4-12 4-17 0" stroke="#2A3038" stroke-width="2.1" stroke-linecap="round"/>
  <path d="M77 63c-5 4-12 4-17 0" stroke="#2A3038" stroke-width="2.1" stroke-linecap="round"/>
  <ellipse cx="31" cy="58" rx="3.3" ry="2.4" fill="#F2A59A"/>
  <ellipse cx="52" cy="58" rx="3.3" ry="2.4" fill="#F2A59A"/>
  <ellipse cx="59" cy="59" rx="3.3" ry="2.4" fill="#F2A59A"/>
  <ellipse cx="80" cy="59" rx="3.3" ry="2.4" fill="#F2A59A"/>
  <path d="M25 68c10 7 22 7 31 0l3 22H20l5-22Z" fill="#fff" stroke="#fff" stroke-width="5" stroke-linejoin="round"/>
  <path d="M50 70c9 5 20 5 28-1l7 21H48l2-20Z" fill="#fff" stroke="#fff" stroke-width="5" stroke-linejoin="round"/>
  <path d="M27 69c8 5 20 6 28 0l3 19H22l5-19Z" fill="#F7F2ED"/>
  <path d="M52 70c8 4 18 5 25-1l6 19H50l2-18Z" fill="#D8D4CB"/>
  <path d="M38 70v18" stroke="#D0C8C0" stroke-width="2"/>
  <path d="M61 72l2 16" stroke="#AAA39B" stroke-width="2"/>
</svg>
