<svg width="100" height="100" viewBox="0 0 94.0086 94.229" fill="none" xmlns="http://www.w3.org/2000/svg" preserveAspectRatio="xMidYMid meet">
<g id="Star 1 [Vectorized]">
<g id="Vector">
</g>
<g id="Vector_2">
<path d="M33.349 7.19354C33.9053 7.18172 34.3576 7.22525 34.7466 7.68661C36.3873 9.6328 37.4153 12.2708 38.5329 14.5467C40.919 19.4058 43.7782 25.5888 48.0221 29.065C49.6896 30.4309 52.826 31.1188 54.8219 31.5678C62.1071 33.2068 68.8945 30.7017 75.4745 27.8139C77.4536 26.9454 79.7278 25.8999 81.884 25.5546C82.5842 25.4505 83.8433 25.5474 84.4057 26.0187C85.6373 27.0503 83.7826 28.7264 83.0397 29.354C80.9589 31.1121 78.6513 32.5391 76.3966 34.0378C72.1187 36.8812 67.8157 39.7083 63.8502 42.9804C62.0215 44.4886 60.2699 45.9314 58.7825 47.8012C57.5072 49.421 56.4421 51.1957 55.6129 53.0833C52.559 59.9533 53.466 66.7257 54.5474 73.945C54.8483 75.9533 55.3407 78.0133 55.5709 80.0172C55.7447 81.0604 56.7303 84.1312 56.1072 84.9166C55.9363 85.0046 55.807 85.077 55.6061 85.0138C53.7445 84.4275 49.0505 72.1848 48.0576 69.9207C47.2608 68.1039 46.4196 66.2853 45.4399 64.5588C44.0447 62.0998 41.319 57.9683 38.9114 56.6459C37.9381 56.1113 36.6622 55.8685 35.5634 55.8364C33.8494 55.7864 32.1118 56.1102 30.4202 56.3647C26.1313 57.0101 21.9254 57.906 17.6975 58.8649C15.3469 59.3981 10.8511 60.6808 8.5686 60.0265C8.1043 59.8934 7.53261 59.5408 7.29892 59.1011C5.948 56.56 18.0222 49.2722 20.0084 47.9959C21.3578 47.1288 22.7101 46.2533 24.0091 45.3121C26.3667 43.6035 28.6009 41.7984 30.4841 39.5635C33.9204 35.4855 34.635 31.6121 34.1978 26.3962C34.0821 25.0161 33.866 23.6449 33.743 22.2649C33.5037 19.5821 33.4293 16.9021 33.0876 14.2282C32.8827 12.624 32.3766 9.13253 32.8682 7.702C32.9629 7.42612 33.0971 7.31698 33.349 7.19354Z" fill="#FC8CAB"/>
<path d="M33.2914 4.4605C33.6092 4.45376 34.2164 4.44695 34.8725 4.63726C35.5286 4.82765 36.1253 5.1785 36.6273 5.6939L36.8363 5.92437L37.1898 6.36383C38.9199 8.60339 40.0865 11.509 40.9867 13.3423C42.204 15.8212 43.4562 18.4567 44.9281 20.9244C46.4024 23.3959 47.9866 25.5028 49.7543 26.9507C50.1809 27.3001 50.9815 27.688 52.1342 28.0582C53.2394 28.4131 54.4013 28.6713 55.4223 28.9009C61.7534 30.3251 67.7942 28.1999 74.3764 25.3111C76.2289 24.4981 78.8702 23.2694 81.4516 22.856L81.4672 22.8531L81.4818 22.8511C82.1271 22.7552 82.8898 22.7617 83.5981 22.8668C84.2191 22.9589 85.291 23.194 86.1615 23.9234H86.1606C87.0975 24.7082 87.5939 25.8112 87.5473 26.9947C87.5074 28.0038 87.0835 28.816 86.7621 29.316C86.1163 30.3206 85.1788 31.1253 84.8041 31.442C82.5669 33.3322 80.0609 34.884 77.9096 36.314C73.5996 39.1788 69.4249 41.9243 65.5902 45.0884L65.5893 45.0894C63.7317 46.6212 62.2075 47.8867 60.9291 49.4908L60.9301 49.4918C59.7976 50.9301 58.8519 52.5063 58.1156 54.1822L58.1107 54.1939C55.4227 60.2411 56.1577 66.2446 57.2504 73.5396C57.3915 74.4818 57.5772 75.4325 57.7729 76.482C57.9564 77.4665 58.1438 78.5225 58.2709 79.5875C58.2966 79.7323 58.359 79.9952 58.474 80.4752C58.5804 80.9189 58.7141 81.4829 58.8227 82.0513C58.9278 82.6022 59.0316 83.2704 59.0434 83.9166C59.0518 84.3811 59.0508 85.6044 58.2484 86.6158L57.8822 87.0767L57.3578 87.3472C57.2941 87.3806 56.19 88.0627 54.7856 87.6207C54.1434 87.4184 53.6769 87.0544 53.4037 86.8101C53.1046 86.5426 52.8469 86.2451 52.6332 85.9712C52.2061 85.4239 51.79 84.758 51.4027 84.0748C50.6208 82.6954 49.7867 80.9452 49.0111 79.2134C48.2294 77.468 47.4797 75.6774 46.8676 74.1939C46.2391 72.6709 45.7864 71.5478 45.5541 71.0181C44.7683 69.2264 43.9721 67.5102 43.0629 65.9078C42.4089 64.7552 41.4473 63.22 40.3881 61.8414C39.2673 60.3826 38.271 59.4128 37.5951 59.0416C37.1275 58.7847 36.3207 58.5934 35.4838 58.5689C34.0817 58.528 32.6662 58.7912 30.8266 59.0679C26.6399 59.698 22.513 60.5757 18.3022 61.5308C17.2667 61.7657 15.3704 62.2622 13.5902 62.5816C11.9109 62.8829 9.63586 63.1755 7.81582 62.6539C7.28408 62.5014 6.75387 62.2474 6.28848 61.9244C5.84144 61.6141 5.27381 61.1154 4.88516 60.3843C4.13745 58.9779 4.52794 57.5976 4.89297 56.8043C5.27045 55.9839 5.85585 55.2419 6.42129 54.6255C7.57413 53.369 9.18759 52.056 10.7729 50.8795C13.968 48.5082 17.6127 46.2866 18.5307 45.6968C19.883 44.8279 21.1755 43.9898 22.4047 43.0992L23.2523 42.4752C25.1998 41.018 26.9325 39.5367 28.3939 37.8023C29.8814 36.0371 30.7088 34.4086 31.1479 32.7193C31.5951 30.9983 31.6785 29.0642 31.474 26.6246C31.4211 25.9933 31.3446 25.3544 31.2602 24.6617C31.1776 23.9848 31.0871 23.2499 31.0209 22.5074C30.7582 19.5616 30.7145 17.2213 30.3764 14.5748C30.2794 13.8156 30.0882 12.4443 29.9906 11.0972C29.9416 10.4198 29.9111 9.69435 29.934 9.00836C29.9554 8.36837 30.0271 7.5594 30.2826 6.815C30.4294 6.38763 30.6758 5.90013 31.1127 5.46148C31.5124 5.06019 31.9349 4.84271 32.1469 4.73883L32.6879 4.4732L33.2914 4.4605Z" stroke="white" stroke-width="5.46667"/>
</g>
</g>
</svg>
