<svg width="100" height="100" viewBox="0 0 100 100" fill="none" xmlns="http://www.w3.org/2000/svg" preserveAspectRatio="xMidYMid meet">
<g id="Smiley [Vectorized]">
<g id="Vector" filter="url(#filter0_d_0_14)">
<path d="M47.2251 21.041C47.3653 21.0261 47.6111 21.0298 47.7615 21.0254C56.7249 20.7631 65.3174 25.25 71.6006 31.4317C73.1597 32.9655 75.1846 35.3415 76.2452 37.2644C78.6537 41.6312 79.6691 47.404 79.709 52.387C79.7569 58.3913 78.3073 66.2189 73.9923 70.6375C68.508 76.2532 60.5855 78.8939 52.8709 78.9824C51.0233 79.0047 49.1762 78.9059 47.3414 78.6869C40.9001 77.8918 33.3408 75.4443 28.3816 71.1526C19.8375 63.7643 18.5046 51.2614 22.3049 41.0922C23.2963 38.4394 25.1215 35.4559 26.6851 33.0741C27.2784 32.1703 28.3231 31.0864 29.0442 30.2496C32.399 26.3571 35.4559 23.8285 40.3984 22.2726C42.6122 21.5714 44.9064 21.1575 47.2251 21.041Z" fill="#FCC604"/>
<path d="M48.1424 18.0164C57.9748 17.8896 67.1299 22.8239 73.7049 29.2928C75.3631 30.9241 77.6133 33.5335 78.8719 35.8153C81.6027 40.7663 82.6665 47.083 82.7088 52.3631C82.7346 55.5943 82.3604 59.3334 81.3797 62.9022C80.4062 66.4446 78.7756 70.0328 76.1385 72.7332C69.9756 79.0438 61.2218 81.8856 52.9061 81.9813L52.907 81.9823C50.9285 82.0061 48.9507 81.9003 46.9861 81.6659L46.9734 81.6639C40.2062 80.8285 31.9947 78.2457 26.4197 73.4217L25.9676 73.0223C16.6179 64.5439 15.4594 50.8403 19.4949 40.0418C20.6146 37.0458 22.6084 33.8178 24.1776 31.4276C24.9138 30.3063 26.2482 28.8978 26.7713 28.2909C30.3501 24.1384 33.8498 21.1891 39.4979 19.411V19.412C41.9549 18.6342 44.5007 18.1741 47.074 18.0448V18.0467C47.1336 18.0427 47.1857 18.0366 47.2264 18.035C47.3075 18.0317 47.3843 18.03 47.4442 18.0291C47.5016 18.0283 47.5649 18.0286 47.6014 18.0282C47.6474 18.0277 47.6665 18.0274 47.6736 18.0272L48.1424 18.0164Z" stroke="#FFFFFF" stroke-width="6"/>
</g>
<path id="Vector_2" d="M66.0671 50.7312C67.2089 50.6367 68.2103 51.5761 68.1088 52.7478C68.0532 53.3894 67.7579 54.1128 67.5183 54.7098C66.2652 57.8034 64.2998 60.5482 61.7862 62.7147C57.3951 66.5468 51.6893 68.4686 45.9082 68.0625C41.0681 67.7105 36.5689 65.4081 33.4165 61.6699C32.5559 60.6363 31.2947 59.4041 32.1933 57.9944C32.4699 57.5557 32.9086 57.2476 33.4111 57.1392C34.9043 56.8283 35.5331 58.2755 36.3509 59.2248C37.1973 60.2061 38.1665 61.071 39.2339 61.7978C42.6628 64.1204 46.8449 64.7542 50.8552 63.9357C55.9581 62.9433 60.3946 59.7776 63.0362 55.2436C63.3571 54.681 63.689 54.0166 63.933 53.416C64.4728 52.0866 64.4795 51.041 66.0671 50.7312Z" fill="#282626"/>
<path id="Vector_3" d="M37.138 35.5072C37.605 35.5162 38.0286 35.6939 38.3357 36.0405C39.184 36.9977 39.1571 38.7455 39.1127 39.9486C39.0406 41.9046 38.722 43.8359 38.4155 45.763C38.2732 46.5019 38.2355 47.2562 38.0004 47.9754C37.6953 48.9087 37.172 49.3152 36.1809 49.2723C34.4961 48.7337 34.1196 47.1279 34.063 45.5372C33.992 43.54 34.6536 35.9785 37.138 35.5072Z" fill="#282626"/>
<path id="Vector_4" d="M58.0909 34.7842C59.803 34.7147 60.1571 36.9515 60.1446 38.2489C60.1156 41.185 59.6078 44.2522 59.0491 47.1343C58.8655 48.08 58.2108 48.5754 57.2355 48.5498C56.2714 48.333 55.4157 47.3322 55.2543 46.4216C54.8059 43.8904 55.2372 40.2115 55.9961 37.7978C56.1908 37.1582 56.4627 36.5436 56.8059 35.967C57.1573 35.3671 57.3973 34.9692 58.0909 34.7842Z" fill="#282626"/>
</g>
<defs>
<filter id="filter0_d_0_14" x="12.575" y="13.2897" width="76.8598" height="75.4204" filterUnits="userSpaceOnUse" color-interpolation-filters="sRGB">
<feFlood flood-opacity="0" result="BackgroundImageFix"/>
<feColorMatrix in="SourceAlpha" type="matrix" values="0 0 0 0 0 0 0 0 0 0 0 0 0 0 0 0 0 0 127 0" result="hardAlpha"/>
<feMorphology radius="0.724638" operator="dilate" in="SourceAlpha" result="effect1_dropShadow_0_14"/>
<feOffset dx="1" dy="1"/>
<feGaussianBlur stdDeviation="1"/>
<feComposite in2="hardAlpha" operator="out"/>
<feColorMatrix type="matrix" values="0 0 0 0 0 0 0 0 0 0 0 0 0 0 0 0 0 0 0.2 0"/>
<feBlend mode="normal" in2="BackgroundImageFix" result="effect1_dropShadow_0_14"/>
<feBlend mode="normal" in="SourceGraphic" in2="effect1_dropShadow_0_14" result="shape"/>
</filter>
</defs>
</svg>
