<svg width="100" height="100" viewBox="0 0 84 97.2257" fill="none" xmlns="http://www.w3.org/2000/svg" preserveAspectRatio="xMidYMid meet">
<g id="Balloon [Vectorized]">
<g id="Union">
<mask id="path-1-outside-1_0_4" maskUnits="userSpaceOnUse" x="7.33298" y="1.72408" width="70" height="92" fill="black">
<rect fill="white" x="7.33298" y="1.72408" width="70" height="92"/>
<path d="M39.4306 8.48287C42.0859 7.93993 45.2014 7.55628 47.7763 7.7983C51.2772 7.91993 53.5764 8.60488 56.874 9.65474C57.7875 9.88533 58.659 10.2018 59.4883 10.5961C59.8199 10.7538 60.1448 10.9238 60.4629 11.1059C61.099 11.4702 61.7083 11.8822 62.29 12.3383C62.5808 12.5663 62.8645 12.8057 63.1416 13.0551C63.5574 13.4295 63.9578 13.8276 64.3427 14.2475C67.2766 17.4482 69.444 22.0742 70.2832 26.3618C70.8092 29.0496 70.8414 33.757 70.2246 36.4272C69.0748 41.4046 66.8526 46.9315 63.79 51.0385C61.8493 53.5545 59.4924 55.5418 57.9648 58.4477C56.6114 61.0228 57.3783 64.057 56.6611 66.4545C56.1709 66.5377 55.9136 66.5737 55.4111 66.5932C55.3527 66.9077 55.2969 67.2138 55.2431 67.5151C55.0818 68.4193 54.9405 69.2841 54.8154 70.2299C54.6517 71.4676 54.4713 74.0379 54.0781 75.185C55.4695 75.6043 55.715 76.2059 55.7226 77.6479C55.7389 81.8027 57.2716 86.3992 51.4238 87.2026C49.2217 87.5051 46.9812 87.3086 44.7656 87.4653C43.5855 87.5399 40.9061 87.6127 40.2607 86.4038C38.8288 83.7211 39.2998 77.6894 39.9355 74.7641C40.47 74.6099 40.6982 74.5539 41.2509 74.4858C40.6829 72.9445 40.251 71.1015 39.7802 69.5083C39.591 68.8675 39.5477 68.1554 39.3281 67.4516L39.3916 67.3364H39.3906L39.3281 67.4516L39.2949 67.3725C39.0135 67.1853 37.6427 67.1827 36.958 67.0102C35.8322 65.9068 35.9376 63.598 35.5136 62.061C35.1768 60.84 35.0626 60.1861 34.3642 59.0542C33.1932 57.1562 31.3125 56.0653 29.667 54.6596C28.3854 53.5649 27.2832 52.2672 25.9414 51.2172C24.0345 49.7252 22.0137 48.3685 20.0927 46.8999C16.6773 44.2886 13.9942 39.4639 13.4482 35.2143C13.2861 33.9528 13.2729 31.3282 13.5556 30.0864C14.3055 26.7931 15.9417 22.7104 18.0566 20.0942C20.6273 16.9143 23.9669 14.5311 27.5947 12.687C27.9575 12.5025 28.3233 12.3238 28.6914 12.1499C30.5318 11.2803 32.4323 10.5385 34.333 9.89302C35.3843 9.53596 37.3251 8.84108 38.3242 8.72408L39.4306 8.48287ZM49.3886 66.7983H49.3896H49.3886Z"/>
</mask>
<path d="M39.4306 8.48287L38.2286 2.6045L38.1906 2.61228L38.1526 2.62056L39.4306 8.48287ZM47.7763 7.7983L47.2149 13.772L47.3911 13.7885L47.568 13.7947L47.7763 7.7983ZM56.874 9.65474L55.0538 15.372L55.2281 15.4275L55.4055 15.4723L56.874 9.65474ZM59.4883 10.5961L62.065 5.17763L62.065 5.17762L59.4883 10.5961ZM60.4629 11.1059L57.4812 16.3126L57.4812 16.3126L60.4629 11.1059ZM62.29 12.3383L65.9924 7.61688L65.9924 7.61687L62.29 12.3383ZM63.1416 13.0551L59.127 17.5142L59.1271 17.5142L63.1416 13.0551ZM64.3427 14.2475L68.7658 10.1933L68.7656 10.1931L64.3427 14.2475ZM70.2832 26.3618L76.1715 25.2094L76.1715 25.2093L70.2832 26.3618ZM70.2246 36.4272L76.0706 37.7776L76.0706 37.7776L70.2246 36.4272ZM63.79 51.0385L68.5408 54.7032L68.5707 54.6645L68.5999 54.6253L63.79 51.0385ZM57.9648 58.4477L52.6539 55.6558L52.6537 55.6563L57.9648 58.4477ZM56.6611 66.4545L57.6645 72.3701L61.3409 71.7465L62.4095 68.174L56.6611 66.4545ZM55.4111 66.5932L55.1782 60.5977L50.3874 60.7839L49.512 65.4976L55.4111 66.5932ZM55.2431 67.5151L61.1498 68.5692V68.5692L55.2431 67.5151ZM54.8154 70.2299L48.8672 69.4429L48.8672 69.443L54.8154 70.2299ZM54.0781 75.185L48.4022 73.2396L46.3825 79.1324L52.3468 80.9298L54.0781 75.185ZM55.7226 77.6479L61.7226 77.6245L61.7225 77.6163L55.7226 77.6479ZM51.4238 87.2026L52.2404 93.1468L52.2404 93.1468L51.4238 87.2026ZM44.7656 87.4653L45.1444 93.4533L45.1667 93.4519L45.1889 93.4503L44.7656 87.4653ZM40.2607 86.4038L34.9676 89.2291L34.9678 89.2295L40.2607 86.4038ZM39.9355 74.7641L38.272 68.9993L34.8325 69.9918L34.0724 73.49L39.9355 74.7641ZM41.2509 74.4858L41.9845 80.4408L49.4989 79.5152L46.8808 72.411L41.2509 74.4858ZM39.7802 69.5083L34.026 71.2078L34.0261 71.2083L39.7802 69.5083ZM39.3916 67.3364L44.647 70.2313L49.5467 61.3364H39.3916V67.3364ZM39.3906 67.3364V61.3364H35.8191L34.1164 64.4758L39.3906 67.3364ZM39.2949 67.3725L44.8273 65.0503L44.1263 63.3803L42.6184 62.3771L39.2949 67.3725ZM36.958 67.0102L32.758 71.2951L33.9176 72.4317L35.4921 72.8284L36.958 67.0102ZM35.5136 62.061L41.2977 60.4658L41.2976 60.4655L35.5136 62.061ZM34.3642 59.0542L29.258 62.2047L29.258 62.2047L34.3642 59.0542ZM29.667 54.6596L33.564 50.0975L33.5639 50.0974L29.667 54.6596ZM25.9414 51.2172L29.639 46.4921L29.6388 46.4918L25.9414 51.2172ZM20.0927 46.8999L23.7369 42.1333L23.7369 42.1333L20.0927 46.8999ZM13.4482 35.2143L19.3993 34.4498L19.3993 34.4497L13.4482 35.2143ZM13.5556 30.0864L7.70538 28.7543L7.70537 28.7543L13.5556 30.0864ZM18.0566 20.0942L13.3906 16.3221L13.3905 16.3223L18.0566 20.0942ZM27.5947 12.687L30.3136 18.0356L30.3136 18.0356L27.5947 12.687ZM28.6914 12.1499L26.1283 6.72487L26.1283 6.72487L28.6914 12.1499ZM34.333 9.89302L32.4035 4.21174L32.4034 4.21175L34.333 9.89302ZM38.3242 8.72408L39.0221 14.6834L39.3145 14.6491L39.6022 14.5864L38.3242 8.72408ZM39.4306 8.48287L40.6326 14.3612C43.0568 13.8655 45.5018 13.611 47.2149 13.772L47.7763 7.7983L48.3378 1.82462C44.9011 1.50161 41.1149 2.01432 38.2286 2.6045L39.4306 8.48287ZM47.7763 7.7983L47.568 13.7947C50.202 13.8862 51.8454 14.3505 55.0538 15.372L56.874 9.65474L58.6942 3.9375C55.3074 2.85924 52.3523 1.95367 47.9847 1.80191L47.7763 7.7983ZM56.874 9.65474L55.4055 15.4723C55.9316 15.6051 56.4323 15.7868 56.9115 16.0147L59.4883 10.5961L62.065 5.17762C60.8857 4.61682 59.6433 4.16559 58.3425 3.83722L56.874 9.65474ZM59.4883 10.5961L56.9115 16.0147C57.1061 16.1072 57.296 16.2065 57.4812 16.3126L60.4629 11.1059L63.4446 5.89923C62.9936 5.641 62.5336 5.40045 62.065 5.17763L59.4883 10.5961ZM60.4629 11.1059L57.4812 16.3126C57.8578 16.5283 58.2268 16.7768 58.5876 17.0598L62.29 12.3383L65.9924 7.61687C65.1898 6.98749 64.3403 6.41219 63.4445 5.89922L60.4629 11.1059ZM62.29 12.3383L58.5876 17.0598C58.7655 17.1993 58.9453 17.3506 59.127 17.5142L63.1416 13.0551L67.1561 8.59603C66.7837 8.26075 66.3961 7.93341 65.9924 7.61688L62.29 12.3383ZM63.1416 13.0551L59.1271 17.5142C59.3944 17.755 59.659 18.0173 59.9199 18.3019L64.3427 14.2475L68.7656 10.1931C68.2566 9.63787 67.7204 9.10408 67.1561 8.59602L63.1416 13.0551ZM64.3427 14.2475L59.9197 18.3018C62.0172 20.59 63.7406 24.1712 64.3949 27.5142L70.2832 26.3618L76.1715 25.2093C75.1474 19.9771 72.536 14.3065 68.7658 10.1933L64.3427 14.2475ZM70.2832 26.3618L64.3949 27.5142C64.5581 28.3481 64.6853 29.7793 64.6824 31.3904C64.6795 33.0265 64.5428 34.3658 64.3785 35.0768L70.2246 36.4272L76.0706 37.7776C76.5232 35.8184 76.6787 33.469 76.6824 31.4119C76.6862 29.3297 76.5343 27.0633 76.1715 25.2094L70.2832 26.3618ZM70.2246 36.4272L64.3785 35.0768C63.3609 39.4819 61.4191 44.1811 58.9801 47.4518L63.79 51.0385L68.5999 54.6253C72.2862 49.6819 74.7887 43.3272 76.0706 37.7776L70.2246 36.4272ZM63.79 51.0385L59.0392 47.3739C58.2092 48.4499 57.4615 49.2052 56.1975 50.6567C55.072 51.9493 53.7419 53.5862 52.6539 55.6558L57.9648 58.4477L63.2757 61.2396C63.7153 60.4033 64.3275 59.5935 65.2475 58.537C66.029 57.6394 67.4301 56.1431 68.5408 54.7032L63.79 51.0385ZM57.9648 58.4477L52.6537 55.6563C51.3234 58.1874 51.154 60.7338 51.0814 62.2263C51.0357 63.1671 51.0375 63.5289 50.9942 64.1012C50.9774 64.3226 50.9591 64.4777 50.9415 64.5886C50.9241 64.698 50.9112 64.7402 50.9128 64.7351L56.6611 66.4545L62.4095 68.174C62.7648 66.9862 62.895 65.8652 62.9599 65.007C63.0168 64.2557 63.0459 63.2484 63.0673 62.8091C63.1289 61.5414 63.2528 61.2831 63.2759 61.2392L57.9648 58.4477ZM56.6611 66.4545L55.6577 60.539C55.4281 60.578 55.372 60.5851 55.35 60.5876C55.3495 60.5877 55.3172 60.5923 55.1782 60.5977L55.4111 66.5932L55.644 72.5887C56.4917 72.5558 57.0226 72.4789 57.6645 72.3701L56.6611 66.4545ZM55.4111 66.5932L49.512 65.4976C49.4512 65.8249 49.3929 66.1448 49.3365 66.461L55.2431 67.5151L61.1498 68.5692C61.2009 68.2827 61.2542 67.9905 61.3102 67.6888L55.4111 66.5932ZM55.2431 67.5151L49.3365 66.461C49.1647 67.4237 49.0076 68.3818 48.8672 69.4429L54.8154 70.2299L60.7636 71.017C60.8735 70.1864 60.9989 69.4149 61.1498 68.5692L55.2431 67.5151ZM54.8154 70.2299L48.8672 69.443C48.8141 69.8445 48.7636 70.3216 48.7201 70.73C48.6731 71.1719 48.6277 71.5984 48.5769 72.0151C48.5257 72.4351 48.4762 72.783 48.4283 73.0533C48.3723 73.3691 48.351 73.3892 48.4022 73.2396L54.0781 75.185L59.754 77.1304C60.1857 75.8707 60.384 74.3259 60.4887 73.4677C60.6603 72.0606 60.6629 71.778 60.7636 71.0168L54.8154 70.2299ZM54.0781 75.185L52.3468 80.9298C52.4927 80.9738 51.2125 80.6419 50.3125 79.1827C49.9183 78.5435 49.7886 77.9838 49.7454 77.7335C49.7082 77.5179 49.7215 77.4432 49.7227 77.6795L55.7226 77.6479L61.7225 77.6163C61.7186 76.8637 61.7208 74.8203 60.5261 72.8832C59.1535 70.6578 57.0549 69.8156 55.8094 69.4402L54.0781 75.185ZM55.7226 77.6479L49.7227 77.6714C49.7254 78.3618 49.7592 79.0214 49.7936 79.584C49.8327 80.2246 49.862 80.599 49.8886 81.099C49.9397 82.0616 49.9052 82.421 49.8837 82.531C49.8814 82.5428 49.9067 82.4036 50.0178 82.1867C50.1376 81.9528 50.3193 81.7032 50.5574 81.4895C51.0436 81.0532 51.3055 81.1625 50.6072 81.2584L51.4238 87.2026L52.2404 93.1468C54.466 92.841 56.7292 92.0745 58.5723 90.4205C60.4731 88.7146 61.3116 86.6198 61.6608 84.833C61.9851 83.1742 61.9298 81.5552 61.8717 80.4623C61.7994 79.1019 61.7259 78.4765 61.7226 77.6245L55.7226 77.6479ZM51.4238 87.2026L50.6072 81.2584C49.9177 81.3531 49.1384 81.3807 48.0552 81.3888C47.0818 81.396 45.695 81.3846 44.3423 81.4802L44.7656 87.4653L45.1889 93.4503C46.0518 93.3893 46.893 93.3978 48.1444 93.3884C49.2859 93.38 50.7278 93.3545 52.2404 93.1468L51.4238 87.2026ZM44.7656 87.4653L44.3868 81.4773C44.1696 81.491 43.9241 81.5019 43.6767 81.501C43.418 81.5 43.2342 81.4861 43.1307 81.4719C42.9881 81.4523 43.1741 81.4572 43.5311 81.6177C43.8741 81.7719 44.8702 82.2978 45.5537 83.5781L40.2607 86.4038L34.9678 89.2295C35.9739 91.1142 37.547 92.0844 38.6107 92.5626C39.6885 93.0471 40.7391 93.2559 41.4946 93.3598C43.0093 93.5683 44.4645 93.4963 45.1444 93.4533L44.7656 87.4653ZM40.2607 86.4038L45.5539 83.5784C45.6515 83.7614 45.549 83.6388 45.4509 82.9804C45.3625 82.3875 45.3152 81.618 45.3225 80.7244C45.3375 78.9077 45.5724 77.0797 45.7987 76.0382L39.9355 74.7641L34.0724 73.49C33.663 75.3738 33.3444 78.0243 33.323 80.6254C33.3039 82.9286 33.4843 86.4503 34.9676 89.2291L40.2607 86.4038ZM39.9355 74.7641L41.599 80.5289C41.8561 80.4547 41.8781 80.452 41.8564 80.4567C41.8091 80.467 41.8104 80.4622 41.9845 80.4408L41.2509 74.4858L40.5174 68.5308C39.5649 68.6481 39.0155 68.7848 38.272 68.9993L39.9355 74.7641ZM41.2509 74.4858L46.8808 72.411C46.3941 71.0904 46.1567 69.9146 45.5344 67.8082L39.7802 69.5083L34.0261 71.2083C34.3452 72.2884 34.9718 74.7986 35.6211 76.5606L41.2509 74.4858ZM39.7802 69.5083L45.5345 67.8087C45.5535 67.873 45.5524 67.8976 45.4717 67.4466C45.4127 67.1167 45.2914 66.4196 45.0558 65.6647L39.3281 67.4516L33.6004 69.2386C33.5844 69.1874 33.5946 69.1983 33.6594 69.5605C33.6844 69.7002 33.7292 69.9563 33.7808 70.2102C33.8351 70.4775 33.9127 70.8241 34.026 71.2078L39.7802 69.5083ZM39.3281 67.4516L44.5835 70.3465L44.647 70.2313L39.3916 67.3364L34.1362 64.4414L34.0727 64.5567L39.3281 67.4516ZM39.3916 67.3364V61.3364H39.3906V67.3364V73.3364H39.3916V67.3364ZM39.3906 67.3364L34.1164 64.4758L34.0539 64.591L39.3281 67.4516L44.6023 70.3122L44.6648 70.197L39.3906 67.3364ZM39.3281 67.4516L44.8605 65.1294L44.8273 65.0503L39.2949 67.3725L33.7625 69.6947L33.7957 69.7739L39.3281 67.4516ZM39.2949 67.3725L42.6184 62.3771C41.7906 61.8263 41.0134 61.6032 40.7525 61.5305C40.3928 61.4303 40.0763 61.3727 39.8765 61.34C39.4824 61.2755 39.0829 61.2361 38.8654 61.2147C38.5736 61.186 38.432 61.1733 38.2853 61.1558C38.1178 61.1357 38.2121 61.1387 38.4239 61.192L36.958 67.0102L35.4921 72.8284C35.7928 72.9041 36.0654 72.9547 36.2745 72.9889C36.4896 73.0241 36.6908 73.0506 36.8595 73.0708C37.0296 73.0911 37.1915 73.108 37.3273 73.1215C37.442 73.133 37.6126 73.1494 37.69 73.157C37.7961 73.1674 37.8671 73.1749 37.92 73.181C37.9759 73.1875 37.9749 73.1884 37.9381 73.1824C37.9174 73.179 37.8736 73.1715 37.8123 73.1588C37.7532 73.1465 37.6554 73.1247 37.5311 73.09C37.4119 73.0568 37.2203 72.9986 36.9868 72.9044C36.8669 72.8561 36.7202 72.7921 36.5558 72.7088C36.3925 72.6262 36.1921 72.5148 35.9714 72.368L39.2949 67.3725ZM36.958 67.0102L41.1579 62.7253C41.6582 63.2157 41.8547 63.6741 41.9032 63.7981C41.9481 63.9124 41.9257 63.8949 41.873 63.6097C41.8139 63.2893 41.7818 63.0279 41.6938 62.4395C41.6235 61.9702 41.5077 61.2272 41.2977 60.4658L35.5136 62.061L29.7296 63.6562C29.725 63.6395 29.7345 63.6715 29.7543 63.7772C29.7741 63.8827 29.7965 64.0192 29.8259 64.2157C29.8725 64.5269 29.9639 65.1999 30.0722 65.7867C30.2565 66.7856 30.7487 69.3256 32.758 71.2951L36.958 67.0102ZM35.5136 62.061L41.2976 60.4655C41.0249 59.477 40.7088 57.9105 39.4705 55.9036L34.3642 59.0542L29.258 62.2047C29.3338 62.3277 29.365 62.3907 29.3749 62.4113C29.3826 62.4276 29.3896 62.4433 29.4029 62.4819C29.421 62.5343 29.4497 62.6253 29.5052 62.8271C29.5333 62.9292 29.5623 63.0376 29.6009 63.1816C29.6378 63.319 29.6813 63.4811 29.7297 63.6565L35.5136 62.061ZM34.3642 59.0542L39.4705 55.9036C38.3994 54.1676 37.0845 52.9384 36.0362 52.0642C35.5223 51.6357 34.9981 51.2333 34.6019 50.9268C34.1712 50.5936 33.8515 50.343 33.564 50.0975L29.667 54.6596L25.7699 59.2217C26.3052 59.679 26.8376 60.092 27.2589 60.4179C27.7148 60.7706 28.0425 61.0232 28.3508 61.2803C28.947 61.7774 29.158 62.0427 29.258 62.2047L34.3642 59.0542ZM29.667 54.6596L33.5639 50.0974C33.1218 49.7198 32.7084 49.306 32.0303 48.6403C31.4209 48.042 30.6002 47.2442 29.639 46.4921L25.9414 51.2172L22.2437 55.9424C22.6243 56.2403 23.0256 56.6163 23.6232 57.203C24.1521 57.7223 24.9306 58.5048 25.77 59.2218L29.667 54.6596ZM25.9414 51.2172L29.6388 46.4918C28.5818 45.6648 27.5124 44.8902 26.5315 44.183C25.5221 43.4552 24.6154 42.8049 23.7369 42.1333L20.0927 46.8999L16.4485 51.6664C17.491 52.4634 18.5552 53.2258 19.5132 53.9166C20.4997 54.6279 21.3941 55.2776 22.244 55.9426L25.9414 51.2172ZM20.0927 46.8999L23.7369 42.1333C21.6528 40.5399 19.7509 37.1861 19.3993 34.4498L13.4482 35.2143L7.49713 35.9789C8.23749 41.7416 11.7019 48.0374 16.4486 51.6664L20.0927 46.8999ZM13.4482 35.2143L19.3993 34.4497C19.3664 34.194 19.3248 33.5241 19.3347 32.7158C19.3393 32.3377 19.3545 31.9959 19.3768 31.7228C19.402 31.4151 19.425 31.3347 19.4059 31.4184L13.5556 30.0864L7.70537 28.7543C7.41594 30.0255 7.3483 31.5209 7.33555 32.5701C7.32183 33.6999 7.3679 34.9731 7.49714 35.9789L13.4482 35.2143ZM13.5556 30.0864L19.4059 31.4185C20.0331 28.664 21.3751 25.5332 22.7227 23.8661L18.0566 20.0942L13.3905 16.3223C10.5084 19.8876 8.57798 24.9221 7.70538 28.7543L13.5556 30.0864ZM18.0566 20.0942L22.7226 23.8663C24.6164 21.5236 27.1995 19.6185 30.3136 18.0356L27.5947 12.687L24.8758 7.33835C20.7342 9.44367 16.6381 12.305 13.3906 16.3221L18.0566 20.0942ZM27.5947 12.687L30.3136 18.0356C30.6205 17.8796 30.9341 17.7262 31.2545 17.5748L28.6914 12.1499L26.1283 6.72487C25.7125 6.92133 25.2945 7.12554 24.8758 7.33835L27.5947 12.687ZM28.6914 12.1499L31.2545 17.5748C32.8477 16.8221 34.5301 16.1627 36.2625 15.5743L34.333 9.89302L32.4034 4.21175C30.3346 4.91439 28.2158 5.73858 26.1283 6.72487L28.6914 12.1499ZM34.333 9.89302L36.2625 15.5743C36.8704 15.3679 37.4928 15.1481 38.1467 14.9426C38.4612 14.8438 38.7216 14.7682 38.9218 14.7167C39.1567 14.6562 39.1652 14.6666 39.0221 14.6834L38.3242 8.72408L37.6263 2.7648C36.4961 2.89716 35.264 3.26997 34.5497 3.49442C33.7205 3.75493 32.8469 4.06112 32.4035 4.21174L34.333 9.89302ZM38.3242 8.72408L39.6022 14.5864L40.7087 14.3452L39.4306 8.48287L38.1526 2.62056L37.0462 2.86177L38.3242 8.72408ZM49.3886 66.7983V72.7983H49.3896V66.7983V60.7983H49.3886V66.7983ZM49.3896 66.7983V60.7983H49.3886V66.7983V72.7983H49.3896V66.7983Z" fill="white" mask="url(#path-1-outside-1_0_4)"/>
</g>
<g id="Vector">
</g>
<path id="Vector_2" d="M38.3239 8.72409C41.1849 8.06249 44.8338 7.52169 47.7766 7.79834C51.2775 7.91997 53.5765 8.60463 56.8741 9.65449C59.7968 10.3923 62.2903 12.008 64.3431 14.2475C67.2769 17.4482 69.4444 22.0739 70.2836 26.3615C70.8096 29.0493 70.8416 33.7568 70.2248 36.427C69.0751 41.4044 66.8529 46.9311 63.7903 51.0382C61.8495 53.5543 59.4929 55.5412 57.9653 58.4473C56.6115 61.0225 57.3785 64.0563 56.6613 66.454C56.1709 66.5372 55.9136 66.5741 55.411 66.5936L54.6008 66.6433C53.9195 66.6585 49.844 66.6602 49.3891 66.7985L47.5935 66.837C47.3383 66.8221 46.958 66.8378 46.6926 66.8402C45.5844 66.9106 44.4896 66.926 43.3836 66.982C42.4852 67.028 41.0172 67.0803 40.1572 67.1952C39.8763 67.2071 39.605 67.1793 39.3911 67.3363L39.3285 67.4514L39.2944 67.3721C39.0131 67.1849 37.6428 67.1827 36.9581 67.0102C35.8322 65.9067 35.9373 63.5978 35.5133 62.0607C35.1765 60.8396 35.0631 60.1856 34.3646 59.0536C33.1935 57.1555 31.3125 56.065 29.6669 54.6593C28.3854 53.5646 27.2834 52.2673 25.9416 51.2173C24.0347 49.7252 22.0137 48.3688 20.0927 46.9001C16.6771 44.2889 13.9941 39.4637 13.4482 35.2141C13.2861 33.9525 13.2724 31.3279 13.5552 30.0861C14.3051 26.7926 15.942 22.71 18.057 20.0938C22.1701 15.0059 28.251 11.9589 34.3329 9.89332C35.3843 9.53627 37.3247 8.8411 38.3239 8.72409Z" fill="#FCC603"/>
<path id="Vector_3" d="M36.9581 67.0102C35.8322 65.9067 35.9373 63.5978 35.5133 62.0607C35.1765 60.8396 35.0631 60.1856 34.3646 59.0536C33.1935 57.1555 31.3125 56.065 29.6669 54.6593C28.3854 53.5646 27.2834 52.2673 25.9416 51.2173C24.0347 49.7252 22.0137 48.3688 20.0927 46.9001C16.6771 44.2889 13.9941 39.4637 13.4482 35.214C13.2861 33.9525 13.2724 31.3279 13.5552 30.0861C14.3051 26.7926 15.942 22.71 18.057 20.0938C22.1701 15.0059 28.251 11.9589 34.3329 9.89332C35.3843 9.53627 37.3247 8.8411 38.3239 8.72409C38.3175 8.74694 38.3111 8.76978 38.3047 8.79263C36.9042 11.4871 35.6846 14.2658 34.9683 17.2256C33.1232 24.8492 33.2603 32.8576 34.9035 40.5054C35.3048 42.373 35.653 44.5332 36.5511 46.2614C37.2478 47.5397 38.1408 48.9951 38.9077 50.251C39.4216 51.0924 40.2331 52.1622 40.6592 53.02C42.2803 56.284 42.4526 60.2577 42.8903 63.8261C42.9998 64.719 43.3392 66.1996 43.3836 66.982C42.4852 67.028 41.0172 67.0803 40.1572 67.1952C39.8763 67.2071 39.605 67.1793 39.3911 67.3363L39.3285 67.4514L39.2944 67.3721C39.0131 67.1849 37.6428 67.1827 36.9581 67.0102Z" fill="#FC8CAB"/>
<path id="Vector_4" d="M47.7766 7.79834C51.2775 7.91997 53.5765 8.60463 56.8741 9.65449C59.7968 10.3923 62.2903 12.008 64.3431 14.2475C67.2769 17.4482 69.4444 22.0739 70.2836 26.3615C70.8096 29.0493 70.8416 33.7568 70.2248 36.427C69.0751 41.4044 66.8529 46.9311 63.7903 51.0382C61.8495 53.5543 59.4929 55.5412 57.9653 58.4473C56.6115 61.0225 57.3785 64.0563 56.6613 66.454C56.1709 66.5372 55.9136 66.5741 55.411 66.5936L54.6008 66.6433C53.9195 66.6585 49.844 66.6602 49.3891 66.7985C49.0861 63.1337 48.6469 58.4296 49.8487 54.8881C50.1849 53.8975 51.23 52.3123 51.8003 51.3634C52.7563 49.7726 53.0921 48.6321 53.6927 46.9444C54.8709 43.6328 55.4141 39.9206 55.2557 36.4134C55.173 34.9767 54.9732 33.5604 54.8296 32.1274C54.5132 28.9682 54.2117 25.7587 53.5959 22.6412C53.3861 21.5794 53.1197 20.2981 52.7354 19.2965C51.6256 16.4042 50.3311 13.5723 49.113 10.7236C48.7274 9.82154 48.0233 8.76284 47.7852 7.83269L47.7766 7.79834Z" fill="#FC8CAB"/>
<path id="Vector_5" d="M54.6008 66.6433L55.411 66.5936C55.1773 67.852 54.9819 68.9691 54.8151 70.2302C54.6514 71.4678 54.4715 74.0379 54.0783 75.185C55.4698 75.6044 55.7154 76.2061 55.7229 77.6484C55.7392 81.8032 57.2716 86.3989 51.4237 87.2023C49.2215 87.5049 46.9809 87.3084 44.7651 87.4652C43.585 87.5398 40.9061 87.6127 40.2608 86.4037C38.8288 83.7209 39.3001 77.689 39.9358 74.7639C40.4703 74.6096 40.6978 74.5536 41.2505 74.4855C40.6824 72.9441 40.2505 71.1012 39.7797 69.5079C39.5905 68.8671 39.5481 68.1553 39.3285 67.4514L39.3911 67.3363C39.605 67.1793 39.8763 67.2071 40.1572 67.1952C41.0172 67.0803 42.4852 67.028 43.3836 66.982C44.4896 66.926 45.5844 66.9106 46.6926 66.8402C46.958 66.8378 47.3383 66.8221 47.5935 66.837L49.3891 66.7985C49.844 66.6602 53.9195 66.6585 54.6008 66.6433Z" fill="#1D9B64"/>
<path id="Vector_6" d="M54.6008 66.6433L55.411 66.5936C55.1773 67.852 54.9819 68.9691 54.8151 70.2302C54.6514 71.4678 54.4715 74.0379 54.0783 75.185C53.8333 75.1906 53.5344 75.0935 53.2921 75.0291C52.258 75.0063 48.9882 74.662 47.7964 74.4804C47.7497 74.4733 47.7191 74.2955 47.6981 74.2194C47.6835 74.4215 47.526 74.5701 47.3215 74.5607C46.7875 74.5361 46.7855 74.4076 46.7237 73.9896L46.6864 74.3674C46.3066 74.6685 42.7179 74.5782 42.0706 74.528L41.2505 74.4855C40.6824 72.9441 40.2505 71.1012 39.7797 69.5079C39.5905 68.8671 39.5481 68.1553 39.3285 67.4514L39.3911 67.3363C39.605 67.1793 39.8763 67.2071 40.1572 67.1952C41.0172 67.0803 42.4852 67.028 43.3836 66.982C44.4897 66.926 45.5844 66.9106 46.6926 66.8402C46.958 66.8378 47.3384 66.8221 47.5935 66.837L49.3891 66.7985C49.844 66.6602 53.9196 66.6585 54.6008 66.6433Z" fill="white"/>
<path id="Vector_7" d="M43.3836 66.982C44.4897 66.926 45.5844 66.9106 46.6926 66.8402C46.6113 69.3391 46.7779 71.6395 46.7237 73.9896L46.6864 74.3674C46.3066 74.6685 42.7179 74.5782 42.0706 74.528L41.2505 74.4855C40.6824 72.9441 40.2505 71.1012 39.7797 69.5079C39.5905 68.8671 39.5481 68.1553 39.3285 67.4514L39.3911 67.3363C39.605 67.1793 39.8763 67.2071 40.1572 67.1952C41.0172 67.0803 42.4852 67.028 43.3836 66.982Z" fill="white"/>
<path id="Vector_8" d="M39.3285 67.4514L39.3911 67.3363C39.605 67.1793 39.8763 67.2071 40.1572 67.1952C40.5043 69.4048 41.3926 72.3272 42.0706 74.528L41.2505 74.4855C40.6824 72.9441 40.2505 71.1012 39.7797 69.5079C39.5905 68.8671 39.5481 68.1553 39.3285 67.4514Z" fill="#312E2D"/>
<path id="Vector_9" d="M54.6008 66.6433L55.411 66.5936C55.1773 67.852 54.9819 68.9691 54.8151 70.2302C54.6514 71.4678 54.4715 74.0379 54.0783 75.185C53.8333 75.1906 53.5344 75.0935 53.2921 75.0291C53.5702 72.5362 54.1679 69.126 54.6008 66.6433Z" fill="#312E2D"/>
<path id="Vector_10" d="M46.6926 66.8402C46.958 66.8378 47.3384 66.8221 47.5935 66.837C47.335 69.8377 47.6241 71.3051 47.6981 74.2194C47.6835 74.4215 47.526 74.5701 47.3215 74.5607C46.7875 74.5361 46.7855 74.4076 46.7237 73.9896C46.7779 71.6395 46.6113 69.3391 46.6926 66.8402Z" fill="#312E2D"/>
</g>
</svg>
