<svg width="100" height="100" viewBox="0 0 100 100" fill="none" xmlns="http://www.w3.org/2000/svg">
  <path d="M53 20c2-6 10-5 10 1 0 5-5 8-10 11-5-3-10-6-10-11 0-6 8-7 10-1Z" fill="#fff" stroke="#fff" stroke-width="6" stroke-linejoin="round"/>
  <path d="M53 20c2-6 10-5 10 1 0 5-5 8-10 11-5-3-10-6-10-11 0-6 8-7 10-1Z" fill="#F0837C"/>
  <path d="M15 49c-5-15 6-28 21-25 10 2 17 11 16 24-1 19-12 30-28 28-7-5-8-16-9-27Z" fill="#fff"/>
  <path d="M48 50c-3-16 9-30 24-26 12 3 19 15 15 29-3 14-14 25-31 23-6-6-8-16-8-26Z" fill="#fff"/>
  <path d="M18 47c-4-13 5-23 17-21 9 2 14 10 13 21-1 15-9 24-22 23-5-4-7-13-8-23Z" fill="#8A654A"/>
  <path d="M53 48c-3-13 7-23 19-21 10 2 15 11 12 23-3 12-11 20-25 20-4-5-6-13-6-22Z" fill="#2F3433"/>
  <path d="M33 40c7-2 15 3 17 12 3 10-2 19-10 22-8 2-16-3-19-13-2-10 3-19 12-21Z" fill="#F6D4BF" stroke="#fff" stroke-width="3"/>
  <path d="M63 41c8-2 16 3 19 12 2 10-3 19-12 21-8 2-16-3-18-12-3-10 2-19 11-21Z" fill="#F6D4BF" stroke="#fff" stroke-width="3"/>
  <path d="M21 52c8-1 15-5 19-12 3 8 8 12 12 13-1-15-11-26-25-22-7 2-10 11-6 21Z" fill="#8A654A"/>
  <path d="M54 54c8-2 16-8 18-17 4 7 9 10 13 11-1-14-11-24-24-19-8 3-11 13-7 25Z" fill="#2F3433"/>
  <circle cx="36" cy="56" r="2.2" fill="#2A3038"/>
  <circle cx="66" cy="56" r="2.2" fill="#2A3038"/>
  <path d="M45 64c-5 4-12 4-17 0" stroke="#2A3038" stroke-width="2.2" stroke-linecap="round"/>
  <path d="M75 64c-5 4-12 4-17 0" stroke="#2A3038" stroke-width="2.2" stroke-linecap="round"/>
  <ellipse cx="26" cy="61" rx="3.5" ry="2.5" fill="#F2A59A"/>
  <ellipse cx="48" cy="61" rx="3.5" ry="2.5" fill="#F2A59A"/>
  <ellipse cx="58" cy="61" rx="3.5" ry="2.5" fill="#F2A59A"/>
  <ellipse cx="80" cy="61" rx="3.5" ry="2.5" fill="#F2A59A"/>
  <path d="M26 73c9 5 20 5 30 0 5 4 12 5 20 1l2 12H22l4-13Z" fill="#fff" stroke="#fff" stroke-width="5" stroke-linejoin="round"/>
  <path d="M27 73c8 4 18 5 28 0 5 4 12 5 19 1l2 10H24l3-11Z" fill="#F7F2ED"/>
  <path d="M46 73c4 5 10 6 16 2" stroke="#B9ACA4" stroke-width="2" stroke-linecap="round"/>
</svg>
