<svg width="100" height="100" viewBox="0 0 89.6257 88.9439" fill="none" xmlns="http://www.w3.org/2000/svg" preserveAspectRatio="xMidYMid meet">
<g id="Flower 6 [Vectorized]">
<g id="Vector">
</g>
<g id="Vector_2">
<path d="M27.4538 34.2957C26.4853 32.8958 25.6626 31.6707 25.0018 30.0875C23.3623 26.1599 23.1376 21.4367 23.8334 17.2699C24.361 14.1102 25.4862 10.704 28.167 8.73364C32.5109 5.78788 38.2544 9.89485 40.7833 13.4208C42.1169 15.2804 42.5316 17.8365 42.9704 20.0359C43.3648 22.0119 43.6243 22.8902 44.9302 24.4277C46.0339 23.0255 46.3267 21.4076 47.3439 19.9573C47.6213 19.5619 47.9289 19.1241 48.2637 18.7703C51.3964 15.4598 58.1789 8.93055 62.8966 12.6903C66.761 15.77 65.8967 23.0373 63.976 26.9903C62.7767 29.4193 61.3357 31.559 60.2269 34.0602C61.3006 33.948 62.3214 33.6537 63.4126 33.5228C67.8728 32.9878 71.4801 33.8353 75.0836 36.6192C80.201 40.5726 81.6312 48.6747 77.4193 53.765C74.0122 57.8827 69.0467 60.982 63.6759 61.5463C59.7936 61.9849 57.3336 60.2817 53.9379 59.4756C53.9891 64.9953 53.1605 70.6871 49.2208 74.8479C46.3167 77.915 41.5283 79.2935 37.4045 79.2163C33.9982 79.1526 29.0184 78.9308 26.5439 76.3631C24.1735 73.9035 22.9405 70.4684 22.8705 67.086C22.8246 64.9136 23.4382 62.8633 24.0524 60.8084C24.2213 60.2433 25.071 58.0706 24.9927 57.7065C24.2288 56.9549 22.0144 58.1294 21.0747 58.3579C17.5835 59.2068 13.3981 58.6954 10.7491 56.0779C8.54412 53.8791 7.74382 50.2965 7.725 47.2698C7.70108 43.422 8.82752 39.6123 11.5344 36.797C14.1847 34.0404 17.1415 33.6837 20.7819 33.648C23.213 33.6242 24.7176 33.917 26.9923 34.7109C27.204 34.5764 27.3353 34.5166 27.4538 34.2957Z" fill="#FCC604"/>
<path d="M26.4834 6.25029C29.8747 3.95071 33.629 4.59235 36.4522 5.94463C39.2635 7.29133 41.7048 9.55872 43.2207 11.6722C44.4813 13.4299 45.108 15.5958 45.502 17.3958C45.6786 17.1691 45.8742 16.931 46.085 16.7083L46.7315 16.0335C48.3581 14.3624 50.7795 12.074 53.4639 10.4935C56.415 8.75593 60.8725 7.24065 64.7666 10.344C67.7187 12.6967 68.5745 16.3816 68.6055 19.4827C68.637 22.6482 67.8348 25.9118 66.6738 28.3011L66.666 28.3187C66.3156 29.0285 65.9437 29.7158 65.5781 30.3743C69.6904 30.3263 73.3492 31.4883 76.918 34.2454C83.2051 39.1027 85.1574 49.1182 79.7305 55.677C75.9271 60.2737 70.2964 63.8593 64.0117 64.5267L64.0127 64.5276C61.5175 64.8095 59.4924 64.387 57.7373 63.844C57.4234 63.7469 57.1062 63.6408 56.7949 63.5345C56.3991 68.175 55.0679 73.036 51.3994 76.9104C47.7376 80.7779 42.017 82.3034 37.3487 82.2161C35.6377 82.1841 33.3114 82.1126 31.0528 81.6741C28.8503 81.2465 26.2575 80.3889 24.3838 78.4446C21.4165 75.3656 19.9547 71.1735 19.8711 67.1497L19.8701 66.6419C19.8995 64.7765 20.2963 63.0258 20.7256 61.4905C16.7753 62.1719 11.969 61.5008 8.64065 58.2122L8.63088 58.2024C5.60415 55.1842 4.74544 50.6366 4.72463 47.2884C4.69721 42.8737 5.99095 38.2347 9.37209 34.7181C12.9055 31.0431 16.9426 30.6851 20.752 30.6478C21.1905 30.6435 21.606 30.6501 22.0039 30.6653C20.3079 26.2221 20.1431 21.1528 20.874 16.7757C21.4304 13.4441 22.7196 9.0149 26.3906 6.3167L26.4365 6.28252L26.4834 6.25029Z" stroke="white" stroke-width="6"/>
</g>
<path id="Vector_3" d="M27.4538 34.2957C27.7103 34.6255 28.0064 34.9894 28.2492 35.3237C27.8565 35.1179 27.4034 34.8615 26.9923 34.7109C27.204 34.5764 27.3353 34.5166 27.4538 34.2957Z" fill="#FEFEF3"/>
<path id="Vector_4" d="M40.9924 36.4925C41.4249 36.4652 41.9647 36.4889 42.3857 36.4643C50.135 36.013 51.1957 43.1877 47.2995 48.4855C45.8796 50.4161 44.1548 51.2364 41.6402 51.6017C39.3424 51.7054 37.6317 51.5744 35.5503 50.4673C29.0632 47.0167 36.6768 37.6424 40.9924 36.4925Z" fill="#2853A7"/>
</g>
</svg>
